G04*
G04 #@! TF.GenerationSoftware,Altium Limited,Altium Designer,20.1.12 (249)*
G04*
G04 Layer_Color=16711935*
%FSLAX25Y25*%
%MOIN*%
G70*
G04*
G04 #@! TF.SameCoordinates,880ED213-D7CF-42DA-8A1E-0FEEA66E8632*
G04*
G04*
G04 #@! TF.FilePolarity,Negative*
G04*
G01*
G75*
%ADD28C,0.02769*%
%ADD29R,0.16154X0.07887*%
%ADD30R,0.18517X0.05918*%
G36*
X94881Y350421D02*
X95859D01*
Y350340D01*
X96266D01*
Y350258D01*
X96755D01*
Y350177D01*
X96999D01*
Y350095D01*
X97407D01*
Y350014D01*
X97651D01*
Y349932D01*
X97977D01*
Y349851D01*
X98221D01*
Y349769D01*
X98466D01*
Y349688D01*
X98710D01*
Y349606D01*
X98873D01*
Y349525D01*
X99117D01*
Y349444D01*
X99362D01*
Y349362D01*
X99524D01*
Y349281D01*
X99687D01*
Y349199D01*
X99850D01*
Y349118D01*
X100013D01*
Y349036D01*
X100176D01*
Y348955D01*
X100339D01*
Y348873D01*
X100502D01*
Y348792D01*
X100665D01*
Y348710D01*
X100828D01*
Y348629D01*
X100909D01*
Y348548D01*
X101072D01*
Y348466D01*
X101235D01*
Y348385D01*
X101317D01*
Y348303D01*
X101479D01*
Y348222D01*
X101561D01*
Y348140D01*
X101724D01*
Y348059D01*
X101805D01*
Y347977D01*
X101887D01*
Y347896D01*
X102050D01*
Y347814D01*
X102131D01*
Y347733D01*
X102213D01*
Y347652D01*
X102294D01*
Y347570D01*
X102375D01*
Y347489D01*
X102457D01*
Y347407D01*
X102538D01*
Y347326D01*
X102620D01*
Y347244D01*
X102701D01*
Y347163D01*
X102783D01*
Y347081D01*
X102864D01*
Y347000D01*
Y346918D01*
X102946D01*
Y346837D01*
X103027D01*
Y346756D01*
Y346674D01*
X103109D01*
Y346592D01*
Y346511D01*
X103190D01*
Y346430D01*
Y346348D01*
Y346267D01*
X103272D01*
Y346185D01*
Y346104D01*
Y346022D01*
Y345941D01*
Y345859D01*
Y345778D01*
Y345696D01*
Y345615D01*
Y345534D01*
Y345452D01*
Y345371D01*
Y345289D01*
X103190D01*
Y345208D01*
Y345126D01*
Y345045D01*
X103109D01*
Y344963D01*
Y344882D01*
Y344800D01*
Y344719D01*
X103027D01*
Y344637D01*
Y344556D01*
Y344475D01*
X102946D01*
Y344393D01*
Y344312D01*
X102864D01*
Y344230D01*
Y344149D01*
Y344067D01*
X102783D01*
Y343986D01*
Y343904D01*
X102701D01*
Y343823D01*
Y343741D01*
Y343660D01*
X102620D01*
Y343579D01*
Y343497D01*
X102538D01*
Y343416D01*
Y343334D01*
Y343253D01*
X102457D01*
Y343171D01*
Y343090D01*
Y343008D01*
X102375D01*
Y342927D01*
Y342846D01*
X102294D01*
Y342764D01*
Y342683D01*
Y342601D01*
X102213D01*
Y342520D01*
Y342438D01*
X102131D01*
Y342357D01*
Y342275D01*
X102050D01*
Y342194D01*
Y342112D01*
Y342031D01*
X101968D01*
Y341949D01*
Y341868D01*
X101887D01*
Y341787D01*
Y341705D01*
Y341624D01*
X101805D01*
Y341542D01*
Y341461D01*
X101724D01*
Y341379D01*
Y341298D01*
Y341216D01*
X101642D01*
Y341135D01*
Y341053D01*
X101561D01*
Y340972D01*
Y340891D01*
Y340809D01*
X101479D01*
Y340727D01*
Y340646D01*
X101398D01*
Y340565D01*
Y340483D01*
Y340402D01*
X101317D01*
Y340320D01*
Y340239D01*
X101235D01*
Y340157D01*
Y340076D01*
X101154D01*
Y339994D01*
Y339913D01*
Y339831D01*
X101072D01*
Y339750D01*
Y339669D01*
Y339587D01*
X100991D01*
Y339506D01*
Y339424D01*
X100909D01*
Y339343D01*
Y339261D01*
Y339180D01*
X100828D01*
Y339098D01*
Y339017D01*
X100746D01*
Y338935D01*
Y338854D01*
Y338773D01*
X100665D01*
Y338691D01*
Y338610D01*
X100584D01*
Y338528D01*
Y338447D01*
Y338365D01*
X100502D01*
Y338284D01*
Y338202D01*
X100420D01*
Y338121D01*
Y338039D01*
Y337958D01*
X100339D01*
Y337877D01*
Y337795D01*
X100258D01*
Y337714D01*
Y337632D01*
X100176D01*
Y337551D01*
Y337469D01*
Y337388D01*
X100095D01*
Y337306D01*
Y337225D01*
Y337143D01*
X100013D01*
Y337062D01*
Y336981D01*
X99932D01*
Y336899D01*
Y336818D01*
Y336736D01*
X99850D01*
Y336655D01*
Y336573D01*
X99769D01*
Y336492D01*
Y336410D01*
X99687D01*
Y336329D01*
Y336247D01*
X99606D01*
Y336166D01*
Y336084D01*
Y336003D01*
X99524D01*
Y335922D01*
Y335840D01*
X99443D01*
Y335759D01*
Y335677D01*
X99362D01*
Y335596D01*
Y335514D01*
X99280D01*
Y335433D01*
Y335351D01*
X99199D01*
Y335270D01*
X99117D01*
Y335188D01*
Y335107D01*
X99036D01*
Y335026D01*
Y334944D01*
X98954D01*
Y334862D01*
X98873D01*
Y334781D01*
Y334700D01*
X98791D01*
Y334618D01*
X98710D01*
Y334537D01*
X98628D01*
Y334455D01*
X98547D01*
Y334374D01*
X98466D01*
Y334292D01*
X98384D01*
Y334211D01*
X98303D01*
Y334129D01*
X98221D01*
Y334048D01*
X98140D01*
Y333966D01*
X98058D01*
Y333885D01*
X97977D01*
Y333804D01*
X97814D01*
Y333722D01*
X97651D01*
Y333641D01*
X97570D01*
Y333559D01*
X97407D01*
Y333478D01*
X97244D01*
Y333396D01*
X97081D01*
Y333315D01*
X96836D01*
Y333233D01*
X96592D01*
Y333152D01*
X96429D01*
Y333070D01*
X96103D01*
Y332989D01*
X95777D01*
Y332908D01*
X95289D01*
Y332826D01*
X94230D01*
Y332745D01*
X93985D01*
Y332826D01*
X92845D01*
Y332908D01*
X92275D01*
Y332989D01*
X92030D01*
Y333070D01*
X91623D01*
Y333152D01*
X91379D01*
Y333233D01*
X91134D01*
Y333315D01*
X90890D01*
Y333396D01*
X90645D01*
Y333478D01*
X90483D01*
Y333559D01*
X90320D01*
Y333641D01*
X90157D01*
Y333722D01*
X89994D01*
Y333804D01*
X89831D01*
Y333885D01*
X89668D01*
Y333966D01*
X89587D01*
Y334048D01*
X89505D01*
Y334129D01*
X89342D01*
Y334211D01*
X89261D01*
Y334292D01*
X89179D01*
Y334374D01*
X89098D01*
Y334455D01*
X89016D01*
Y334537D01*
Y334618D01*
X88935D01*
Y334700D01*
X88853D01*
Y334781D01*
X88772D01*
Y334862D01*
Y334944D01*
X88691D01*
Y335026D01*
Y335107D01*
X88609D01*
Y335188D01*
Y335270D01*
X88528D01*
Y335351D01*
Y335433D01*
X88446D01*
Y335514D01*
Y335596D01*
X88365D01*
Y335677D01*
Y335759D01*
Y335840D01*
X88283D01*
Y335922D01*
Y336003D01*
X88202D01*
Y336084D01*
Y336166D01*
Y336247D01*
X88120D01*
Y336329D01*
Y336410D01*
Y336492D01*
Y336573D01*
X88039D01*
Y336655D01*
Y336736D01*
Y336818D01*
X87957D01*
Y336899D01*
Y336981D01*
Y337062D01*
X87876D01*
Y337143D01*
Y337225D01*
Y337306D01*
X87795D01*
Y337388D01*
Y337469D01*
Y337551D01*
X87713D01*
Y337632D01*
Y337714D01*
Y337795D01*
X87632D01*
Y337877D01*
Y337958D01*
Y338039D01*
Y338121D01*
X87550D01*
Y338202D01*
Y338284D01*
Y338365D01*
X87469D01*
Y338447D01*
Y338528D01*
Y338610D01*
X87387D01*
Y338691D01*
Y338773D01*
Y338854D01*
Y338935D01*
X87306D01*
Y339017D01*
Y339098D01*
Y339180D01*
X87224D01*
Y339261D01*
Y339343D01*
Y339424D01*
X87143D01*
Y339506D01*
Y339587D01*
Y339669D01*
X87061D01*
Y339750D01*
Y339831D01*
Y339913D01*
X86980D01*
Y339994D01*
Y340076D01*
Y340157D01*
X86898D01*
Y340239D01*
Y340320D01*
Y340402D01*
Y340483D01*
X86817D01*
Y340565D01*
Y340646D01*
Y340727D01*
X86735D01*
Y340809D01*
Y340891D01*
Y340972D01*
X86654D01*
Y341053D01*
Y341135D01*
Y341216D01*
X86573D01*
Y341298D01*
Y341379D01*
Y341461D01*
X86491D01*
Y341542D01*
Y341624D01*
Y341705D01*
X86410D01*
Y341787D01*
Y341868D01*
Y341949D01*
Y342031D01*
X86328D01*
Y342112D01*
Y342194D01*
Y342275D01*
X86247D01*
Y342357D01*
Y342438D01*
Y342520D01*
X86165D01*
Y342601D01*
Y342683D01*
Y342764D01*
X86084D01*
Y342846D01*
Y342927D01*
Y343008D01*
X86002D01*
Y343090D01*
Y343171D01*
Y343253D01*
X85921D01*
Y343334D01*
Y343416D01*
Y343497D01*
Y343579D01*
X85839D01*
Y343660D01*
Y343741D01*
Y343823D01*
X85758D01*
Y343904D01*
Y343986D01*
Y344067D01*
X85677D01*
Y344149D01*
Y344230D01*
Y344312D01*
X85595D01*
Y344393D01*
Y344475D01*
X85514D01*
Y344556D01*
Y344637D01*
Y344719D01*
Y344800D01*
X85432D01*
Y344882D01*
Y344963D01*
Y345045D01*
Y345126D01*
X85351D01*
Y345208D01*
Y345289D01*
Y345371D01*
Y345452D01*
Y345534D01*
Y345615D01*
Y345696D01*
Y345778D01*
Y345859D01*
X85432D01*
Y345941D01*
Y346022D01*
Y346104D01*
Y346185D01*
X85514D01*
Y346267D01*
Y346348D01*
X85595D01*
Y346430D01*
Y346511D01*
X85677D01*
Y346592D01*
X85758D01*
Y346674D01*
Y346756D01*
X85839D01*
Y346837D01*
X85921D01*
Y346918D01*
X86002D01*
Y347000D01*
Y347081D01*
X86084D01*
Y347163D01*
X86165D01*
Y347244D01*
X86247D01*
Y347326D01*
X86328D01*
Y347407D01*
X86410D01*
Y347489D01*
X86573D01*
Y347570D01*
X86654D01*
Y347652D01*
X86735D01*
Y347733D01*
X86817D01*
Y347814D01*
X86898D01*
Y347896D01*
X87061D01*
Y347977D01*
X87143D01*
Y348059D01*
X87224D01*
Y348140D01*
X87387D01*
Y348222D01*
X87469D01*
Y348303D01*
X87632D01*
Y348385D01*
X87713D01*
Y348466D01*
X87876D01*
Y348548D01*
X87957D01*
Y348629D01*
X88120D01*
Y348710D01*
X88283D01*
Y348792D01*
X88365D01*
Y348873D01*
X88528D01*
Y348955D01*
X88691D01*
Y349036D01*
X88853D01*
Y349118D01*
X89016D01*
Y349199D01*
X89179D01*
Y349281D01*
X89342D01*
Y349362D01*
X89505D01*
Y349444D01*
X89749D01*
Y349525D01*
X89912D01*
Y349606D01*
X90075D01*
Y349688D01*
X90320D01*
Y349769D01*
X90564D01*
Y349851D01*
X90808D01*
Y349932D01*
X91053D01*
Y350014D01*
X91297D01*
Y350095D01*
X91704D01*
Y350177D01*
X91949D01*
Y350258D01*
X92438D01*
Y350340D01*
X92763D01*
Y350421D01*
X93741D01*
Y350502D01*
X94881D01*
Y350421D01*
D02*
G37*
G36*
X83640Y345045D02*
Y344963D01*
Y344882D01*
X83722D01*
Y344800D01*
Y344719D01*
Y344637D01*
Y344556D01*
X83803D01*
Y344475D01*
Y344393D01*
Y344312D01*
Y344230D01*
X83885D01*
Y344149D01*
Y344067D01*
Y343986D01*
X83966D01*
Y343904D01*
Y343823D01*
Y343741D01*
X84047D01*
Y343660D01*
Y343579D01*
Y343497D01*
X84129D01*
Y343416D01*
Y343334D01*
Y343253D01*
X84210D01*
Y343171D01*
Y343090D01*
Y343008D01*
X84292D01*
Y342927D01*
Y342846D01*
Y342764D01*
X84373D01*
Y342683D01*
Y342601D01*
Y342520D01*
Y342438D01*
X84455D01*
Y342357D01*
Y342275D01*
Y342194D01*
X84536D01*
Y342112D01*
Y342031D01*
Y341949D01*
X84618D01*
Y341868D01*
Y341787D01*
Y341705D01*
X84699D01*
Y341624D01*
Y341542D01*
Y341461D01*
X84781D01*
Y341379D01*
Y341298D01*
Y341216D01*
Y341135D01*
X84862D01*
Y341053D01*
Y340972D01*
X84943D01*
Y340891D01*
Y340809D01*
Y340727D01*
Y340646D01*
X85025D01*
Y340565D01*
Y340483D01*
Y340402D01*
X85106D01*
Y340320D01*
Y340239D01*
Y340157D01*
X85188D01*
Y340076D01*
Y339994D01*
Y339913D01*
Y339831D01*
X85269D01*
Y339750D01*
Y339669D01*
X85351D01*
Y339587D01*
Y339506D01*
Y339424D01*
Y339343D01*
X85432D01*
Y339261D01*
Y339180D01*
Y339098D01*
X85514D01*
Y339017D01*
Y338935D01*
Y338854D01*
X85595D01*
Y338773D01*
Y338691D01*
Y338610D01*
Y338528D01*
X85677D01*
Y338447D01*
Y338365D01*
X85758D01*
Y338284D01*
Y338202D01*
Y338121D01*
Y338039D01*
X85839D01*
Y337958D01*
Y337877D01*
X85921D01*
Y337795D01*
Y337714D01*
Y337632D01*
Y337551D01*
X86002D01*
Y337469D01*
Y337388D01*
Y337306D01*
X86084D01*
Y337225D01*
Y337143D01*
Y337062D01*
X86165D01*
Y336981D01*
Y336899D01*
Y336818D01*
Y336736D01*
X86247D01*
Y336655D01*
Y336573D01*
X86328D01*
Y336492D01*
Y336410D01*
Y336329D01*
Y336247D01*
X86410D01*
Y336166D01*
Y336084D01*
Y336003D01*
X86491D01*
Y335922D01*
Y335840D01*
Y335759D01*
X86573D01*
Y335677D01*
Y335596D01*
Y335514D01*
X86654D01*
Y335433D01*
Y335351D01*
Y335270D01*
X86735D01*
Y335188D01*
Y335107D01*
Y335026D01*
X86817D01*
Y334944D01*
Y334862D01*
X86898D01*
Y334781D01*
Y334700D01*
X86980D01*
Y334618D01*
Y334537D01*
X87061D01*
Y334455D01*
Y334374D01*
X87143D01*
Y334292D01*
Y334211D01*
X87224D01*
Y334129D01*
Y334048D01*
X87306D01*
Y333966D01*
Y333885D01*
X87387D01*
Y333804D01*
X87469D01*
Y333722D01*
X87550D01*
Y333641D01*
Y333559D01*
X87632D01*
Y333478D01*
X87713D01*
Y333396D01*
X87795D01*
Y333315D01*
X87876D01*
Y333233D01*
X87713D01*
Y333152D01*
X87550D01*
Y333070D01*
X87306D01*
Y332989D01*
X87143D01*
Y332908D01*
X86980D01*
Y332826D01*
X86735D01*
Y332745D01*
X86573D01*
Y332663D01*
X86328D01*
Y332582D01*
X86165D01*
Y332500D01*
X85921D01*
Y332419D01*
X85677D01*
Y332337D01*
X85351D01*
Y332256D01*
X84292D01*
Y332337D01*
X84129D01*
Y332419D01*
X83966D01*
Y332500D01*
X83885D01*
Y332582D01*
X83803D01*
Y332663D01*
X83640D01*
Y332745D01*
X83559D01*
Y332826D01*
X83477D01*
Y332908D01*
X83396D01*
Y332989D01*
X83314D01*
Y333070D01*
Y333152D01*
X83233D01*
Y333233D01*
X83151D01*
Y333315D01*
X83070D01*
Y333396D01*
X82988D01*
Y333478D01*
Y333559D01*
X82907D01*
Y333641D01*
X82825D01*
Y333722D01*
X82744D01*
Y333804D01*
Y333885D01*
X82663D01*
Y333966D01*
X82581D01*
Y334048D01*
Y334129D01*
X82500D01*
Y334211D01*
X82418D01*
Y334292D01*
Y334374D01*
X82337D01*
Y334455D01*
X82255D01*
Y334537D01*
Y334618D01*
X82174D01*
Y334700D01*
X82092D01*
Y334781D01*
Y334862D01*
X82011D01*
Y334944D01*
X81929D01*
Y335026D01*
Y335107D01*
X81848D01*
Y335188D01*
X81767D01*
Y335270D01*
Y335351D01*
X81685D01*
Y335433D01*
X81604D01*
Y335514D01*
Y335596D01*
X81522D01*
Y335677D01*
Y335759D01*
X81441D01*
Y335840D01*
X81359D01*
Y335922D01*
Y336003D01*
X81278D01*
Y336084D01*
X81196D01*
Y336166D01*
Y336247D01*
X81115D01*
Y336329D01*
Y336410D01*
X81033D01*
Y336492D01*
X80952D01*
Y336573D01*
Y336655D01*
X80870D01*
Y336736D01*
Y336818D01*
X80789D01*
Y336899D01*
X80708D01*
Y336981D01*
Y337062D01*
X80626D01*
Y337143D01*
X80545D01*
Y337225D01*
Y337306D01*
X80463D01*
Y337388D01*
Y337469D01*
X80382D01*
Y337551D01*
X80300D01*
Y337632D01*
Y337714D01*
X80219D01*
Y337795D01*
Y337877D01*
X80137D01*
Y337958D01*
X80056D01*
Y338039D01*
Y338121D01*
X79975D01*
Y338202D01*
Y338284D01*
X79893D01*
Y338365D01*
X79812D01*
Y338447D01*
Y338528D01*
X79730D01*
Y338610D01*
X79649D01*
Y338691D01*
Y338773D01*
X79567D01*
Y338854D01*
Y338935D01*
X79486D01*
Y339017D01*
Y339098D01*
X79404D01*
Y339180D01*
Y339261D01*
X79323D01*
Y339343D01*
Y339424D01*
X79241D01*
Y339506D01*
Y339587D01*
Y339669D01*
X79160D01*
Y339750D01*
Y339831D01*
X79078D01*
Y339913D01*
Y339994D01*
X78997D01*
Y340076D01*
Y340157D01*
Y340239D01*
X78916D01*
Y340320D01*
Y340402D01*
Y340483D01*
X78834D01*
Y340565D01*
Y340646D01*
X78753D01*
Y340727D01*
Y340809D01*
Y340891D01*
Y340972D01*
X78671D01*
Y341053D01*
Y341135D01*
Y341216D01*
Y341298D01*
Y341379D01*
Y341461D01*
Y341542D01*
Y341624D01*
Y341705D01*
Y341787D01*
Y341868D01*
Y341949D01*
Y342031D01*
Y342112D01*
X78753D01*
Y342194D01*
Y342275D01*
X78834D01*
Y342357D01*
Y342438D01*
X78916D01*
Y342520D01*
Y342601D01*
X78997D01*
Y342683D01*
X79078D01*
Y342764D01*
X79160D01*
Y342846D01*
X79241D01*
Y342927D01*
X79323D01*
Y343008D01*
X79404D01*
Y343090D01*
X79486D01*
Y343171D01*
X79649D01*
Y343253D01*
X79730D01*
Y343334D01*
X79812D01*
Y343416D01*
X79975D01*
Y343497D01*
X80137D01*
Y343579D01*
X80219D01*
Y343660D01*
X80382D01*
Y343741D01*
X80545D01*
Y343823D01*
X80708D01*
Y343904D01*
X80870D01*
Y343986D01*
X80952D01*
Y344067D01*
X81196D01*
Y344149D01*
X81359D01*
Y344230D01*
X81522D01*
Y344312D01*
X81685D01*
Y344393D01*
X81848D01*
Y344475D01*
X82092D01*
Y344556D01*
X82255D01*
Y344637D01*
X82500D01*
Y344719D01*
X82663D01*
Y344800D01*
X82907D01*
Y344882D01*
X83070D01*
Y344963D01*
X83314D01*
Y345045D01*
X83559D01*
Y345126D01*
X83640D01*
Y345045D01*
D02*
G37*
G36*
X105145Y344719D02*
X105308D01*
Y344637D01*
X105552D01*
Y344556D01*
X105715D01*
Y344475D01*
X105878D01*
Y344393D01*
X106123D01*
Y344312D01*
X106286D01*
Y344230D01*
X106530D01*
Y344149D01*
X106611D01*
Y344067D01*
X106856D01*
Y343986D01*
X107019D01*
Y343904D01*
X107182D01*
Y343823D01*
X107344D01*
Y343741D01*
X107507D01*
Y343660D01*
X107752D01*
Y343579D01*
X107833D01*
Y343497D01*
X107996D01*
Y343416D01*
X108159D01*
Y343334D01*
X108322D01*
Y343253D01*
X108485D01*
Y343171D01*
X108566D01*
Y343090D01*
X108729D01*
Y343008D01*
X108892D01*
Y342927D01*
X108974D01*
Y342846D01*
X109137D01*
Y342764D01*
X109218D01*
Y342683D01*
X109381D01*
Y342601D01*
X109462D01*
Y342520D01*
X109544D01*
Y342438D01*
X109625D01*
Y342357D01*
X109707D01*
Y342275D01*
X109788D01*
Y342194D01*
X109870D01*
Y342112D01*
Y342031D01*
X109951D01*
Y341949D01*
Y341868D01*
X110033D01*
Y341787D01*
Y341705D01*
Y341624D01*
Y341542D01*
Y341461D01*
Y341379D01*
Y341298D01*
Y341216D01*
X109951D01*
Y341135D01*
Y341053D01*
X109870D01*
Y340972D01*
Y340891D01*
Y340809D01*
X109788D01*
Y340727D01*
Y340646D01*
X109707D01*
Y340565D01*
Y340483D01*
X109625D01*
Y340402D01*
Y340320D01*
X109544D01*
Y340239D01*
Y340157D01*
X109462D01*
Y340076D01*
Y339994D01*
X109381D01*
Y339913D01*
X109300D01*
Y339831D01*
Y339750D01*
X109218D01*
Y339669D01*
Y339587D01*
X109137D01*
Y339506D01*
Y339424D01*
X109055D01*
Y339343D01*
Y339261D01*
X108974D01*
Y339180D01*
X108892D01*
Y339098D01*
Y339017D01*
X108811D01*
Y338935D01*
Y338854D01*
X108729D01*
Y338773D01*
Y338691D01*
X108648D01*
Y338610D01*
Y338528D01*
X108566D01*
Y338447D01*
Y338365D01*
X108485D01*
Y338284D01*
Y338202D01*
X108403D01*
Y338121D01*
X108322D01*
Y338039D01*
Y337958D01*
X108240D01*
Y337877D01*
Y337795D01*
X108159D01*
Y337714D01*
Y337632D01*
X108078D01*
Y337551D01*
Y337469D01*
X107996D01*
Y337388D01*
X107915D01*
Y337306D01*
Y337225D01*
X107833D01*
Y337143D01*
Y337062D01*
X107752D01*
Y336981D01*
Y336899D01*
X107670D01*
Y336818D01*
Y336736D01*
X107589D01*
Y336655D01*
X107507D01*
Y336573D01*
Y336492D01*
X107426D01*
Y336410D01*
Y336329D01*
X107344D01*
Y336247D01*
Y336166D01*
X107263D01*
Y336084D01*
Y336003D01*
X107182D01*
Y335922D01*
Y335840D01*
X107100D01*
Y335759D01*
Y335677D01*
X107019D01*
Y335596D01*
X106937D01*
Y335514D01*
Y335433D01*
X106856D01*
Y335351D01*
Y335270D01*
X106774D01*
Y335188D01*
Y335107D01*
X106693D01*
Y335026D01*
Y334944D01*
X106611D01*
Y334862D01*
X106530D01*
Y334781D01*
Y334700D01*
X106448D01*
Y334618D01*
Y334537D01*
X106367D01*
Y334455D01*
Y334374D01*
X106286D01*
Y334292D01*
Y334211D01*
X106204D01*
Y334129D01*
X106123D01*
Y334048D01*
X106041D01*
Y333966D01*
Y333885D01*
X105960D01*
Y333804D01*
X105878D01*
Y333722D01*
X105797D01*
Y333641D01*
X105715D01*
Y333559D01*
Y333478D01*
X105634D01*
Y333396D01*
X105552D01*
Y333315D01*
X105471D01*
Y333233D01*
X105389D01*
Y333152D01*
X105308D01*
Y333070D01*
X105227D01*
Y332989D01*
X105145D01*
Y332908D01*
X105064D01*
Y332826D01*
X104982D01*
Y332745D01*
X104901D01*
Y332663D01*
X104819D01*
Y332582D01*
X104656D01*
Y332500D01*
X104575D01*
Y332419D01*
X104412D01*
Y332337D01*
X104249D01*
Y332256D01*
X104005D01*
Y332174D01*
X102864D01*
Y332256D01*
X102457D01*
Y332337D01*
X102131D01*
Y332419D01*
X101887D01*
Y332500D01*
X101561D01*
Y332582D01*
X101398D01*
Y332663D01*
X101154D01*
Y332745D01*
X100909D01*
Y332826D01*
X100746D01*
Y332908D01*
X100502D01*
Y332989D01*
X100339D01*
Y333070D01*
X100095D01*
Y333152D01*
X99932D01*
Y333233D01*
X99850D01*
Y333315D01*
X99932D01*
Y333396D01*
X100013D01*
Y333478D01*
Y333559D01*
X100095D01*
Y333641D01*
X100176D01*
Y333722D01*
X100258D01*
Y333804D01*
X100339D01*
Y333885D01*
Y333966D01*
X100420D01*
Y334048D01*
X100502D01*
Y334129D01*
Y334211D01*
X100584D01*
Y334292D01*
X100665D01*
Y334374D01*
Y334455D01*
X100746D01*
Y334537D01*
Y334618D01*
X100828D01*
Y334700D01*
Y334781D01*
X100909D01*
Y334862D01*
Y334944D01*
X100991D01*
Y335026D01*
Y335107D01*
X101072D01*
Y335188D01*
Y335270D01*
X101154D01*
Y335351D01*
Y335433D01*
X101235D01*
Y335514D01*
Y335596D01*
X101317D01*
Y335677D01*
Y335759D01*
Y335840D01*
X101398D01*
Y335922D01*
Y336003D01*
X101479D01*
Y336084D01*
Y336166D01*
X101561D01*
Y336247D01*
Y336329D01*
Y336410D01*
X101642D01*
Y336492D01*
Y336573D01*
X101724D01*
Y336655D01*
Y336736D01*
Y336818D01*
X101805D01*
Y336899D01*
Y336981D01*
X101887D01*
Y337062D01*
Y337143D01*
Y337225D01*
X101968D01*
Y337306D01*
Y337388D01*
X102050D01*
Y337469D01*
Y337551D01*
Y337632D01*
X102131D01*
Y337714D01*
Y337795D01*
X102213D01*
Y337877D01*
Y337958D01*
Y338039D01*
X102294D01*
Y338121D01*
Y338202D01*
X102375D01*
Y338284D01*
Y338365D01*
Y338447D01*
X102457D01*
Y338528D01*
Y338610D01*
X102538D01*
Y338691D01*
Y338773D01*
Y338854D01*
X102620D01*
Y338935D01*
Y339017D01*
X102701D01*
Y339098D01*
Y339180D01*
Y339261D01*
X102783D01*
Y339343D01*
Y339424D01*
X102864D01*
Y339506D01*
Y339587D01*
Y339669D01*
X102946D01*
Y339750D01*
Y339831D01*
X103027D01*
Y339913D01*
Y339994D01*
Y340076D01*
X103109D01*
Y340157D01*
Y340239D01*
X103190D01*
Y340320D01*
Y340402D01*
X103272D01*
Y340483D01*
Y340565D01*
Y340646D01*
X103353D01*
Y340727D01*
Y340809D01*
Y340891D01*
X103435D01*
Y340972D01*
Y341053D01*
X103516D01*
Y341135D01*
Y341216D01*
X103597D01*
Y341298D01*
Y341379D01*
Y341461D01*
X103679D01*
Y341542D01*
Y341624D01*
X103760D01*
Y341705D01*
Y341787D01*
Y341868D01*
X103842D01*
Y341949D01*
Y342031D01*
X103923D01*
Y342112D01*
Y342194D01*
Y342275D01*
X104005D01*
Y342357D01*
Y342438D01*
X104086D01*
Y342520D01*
Y342601D01*
Y342683D01*
X104168D01*
Y342764D01*
Y342846D01*
X104249D01*
Y342927D01*
Y343008D01*
Y343090D01*
X104331D01*
Y343171D01*
Y343253D01*
X104412D01*
Y343334D01*
Y343416D01*
Y343497D01*
X104493D01*
Y343579D01*
Y343660D01*
X104575D01*
Y343741D01*
Y343823D01*
Y343904D01*
X104656D01*
Y343986D01*
Y344067D01*
Y344149D01*
X104738D01*
Y344230D01*
Y344312D01*
Y344393D01*
X104819D01*
Y344475D01*
Y344556D01*
Y344637D01*
X104901D01*
Y344719D01*
Y344800D01*
X105145D01*
Y344719D01*
D02*
G37*
G36*
X77857Y338447D02*
Y338365D01*
X77938D01*
Y338284D01*
Y338202D01*
X78019D01*
Y338121D01*
Y338039D01*
X78101D01*
Y337958D01*
Y337877D01*
X78182D01*
Y337795D01*
Y337714D01*
X78264D01*
Y337632D01*
X78345D01*
Y337551D01*
Y337469D01*
X78427D01*
Y337388D01*
X78508D01*
Y337306D01*
Y337225D01*
X78590D01*
Y337143D01*
Y337062D01*
X78671D01*
Y336981D01*
X78753D01*
Y336899D01*
Y336818D01*
X78834D01*
Y336736D01*
Y336655D01*
X78916D01*
Y336573D01*
X78997D01*
Y336492D01*
Y336410D01*
X79078D01*
Y336329D01*
Y336247D01*
X79160D01*
Y336166D01*
X79241D01*
Y336084D01*
Y336003D01*
X79323D01*
Y335922D01*
Y335840D01*
X79404D01*
Y335759D01*
X79486D01*
Y335677D01*
Y335596D01*
X79567D01*
Y335514D01*
X79649D01*
Y335433D01*
Y335351D01*
X79730D01*
Y335270D01*
Y335188D01*
X79812D01*
Y335107D01*
X79893D01*
Y335026D01*
Y334944D01*
X79975D01*
Y334862D01*
X80056D01*
Y334781D01*
Y334700D01*
X80137D01*
Y334618D01*
Y334537D01*
X80219D01*
Y334455D01*
X80300D01*
Y334374D01*
Y334292D01*
X80382D01*
Y334211D01*
X80463D01*
Y334129D01*
Y334048D01*
X80545D01*
Y333966D01*
X80626D01*
Y333885D01*
Y333804D01*
X80708D01*
Y333722D01*
X80789D01*
Y333641D01*
Y333559D01*
X80708D01*
Y333478D01*
X80463D01*
Y333396D01*
X80300D01*
Y333315D01*
X80056D01*
Y333233D01*
X79893D01*
Y333152D01*
X79730D01*
Y333070D01*
X79486D01*
Y332989D01*
X79323D01*
Y332908D01*
X79078D01*
Y332826D01*
X78916D01*
Y332745D01*
X78671D01*
Y332663D01*
X78508D01*
Y332582D01*
X78345D01*
Y332500D01*
X78101D01*
Y332419D01*
X77938D01*
Y332337D01*
X77775D01*
Y332256D01*
X77531D01*
Y332174D01*
X77368D01*
Y332093D01*
X77123D01*
Y332012D01*
X76960D01*
Y331930D01*
X76716D01*
Y331849D01*
X76553D01*
Y331767D01*
X76309D01*
Y331686D01*
X76064D01*
Y331604D01*
X75820D01*
Y331523D01*
X75250D01*
Y331604D01*
Y331686D01*
Y331767D01*
X75168D01*
Y331849D01*
Y331930D01*
Y332012D01*
Y332093D01*
Y332174D01*
Y332256D01*
Y332337D01*
Y332419D01*
X75087D01*
Y332500D01*
Y332582D01*
Y332663D01*
Y332745D01*
Y332826D01*
Y332908D01*
Y332989D01*
Y333070D01*
Y333152D01*
Y333233D01*
X75168D01*
Y333315D01*
Y333396D01*
Y333478D01*
Y333559D01*
Y333641D01*
Y333722D01*
Y333804D01*
Y333885D01*
Y333966D01*
X75250D01*
Y334048D01*
Y334129D01*
Y334211D01*
Y334292D01*
Y334374D01*
X75331D01*
Y334455D01*
Y334537D01*
Y334618D01*
Y334700D01*
X75413D01*
Y334781D01*
Y334862D01*
Y334944D01*
Y335026D01*
X75494D01*
Y335107D01*
Y335188D01*
Y335270D01*
X75576D01*
Y335351D01*
Y335433D01*
Y335514D01*
X75657D01*
Y335596D01*
Y335677D01*
X75739D01*
Y335759D01*
Y335840D01*
Y335922D01*
X75820D01*
Y336003D01*
Y336084D01*
X75902D01*
Y336166D01*
Y336247D01*
X75983D01*
Y336329D01*
Y336410D01*
X76064D01*
Y336492D01*
X76146D01*
Y336573D01*
Y336655D01*
X76227D01*
Y336736D01*
Y336818D01*
X76309D01*
Y336899D01*
X76390D01*
Y336981D01*
Y337062D01*
X76472D01*
Y337143D01*
X76553D01*
Y337225D01*
Y337306D01*
X76635D01*
Y337388D01*
X76716D01*
Y337469D01*
X76798D01*
Y337551D01*
X76879D01*
Y337632D01*
Y337714D01*
X76960D01*
Y337795D01*
X77042D01*
Y337877D01*
X77123D01*
Y337958D01*
X77205D01*
Y338039D01*
X77286D01*
Y338121D01*
X77368D01*
Y338202D01*
X77449D01*
Y338284D01*
X77531D01*
Y338365D01*
X77694D01*
Y338447D01*
X77775D01*
Y338528D01*
X77857D01*
Y338447D01*
D02*
G37*
G36*
X110521Y338284D02*
X110603D01*
Y338202D01*
X110766D01*
Y338121D01*
Y338039D01*
X110929D01*
Y337958D01*
X111010D01*
Y337877D01*
X111092D01*
Y337795D01*
X111173D01*
Y337714D01*
Y337632D01*
X111255D01*
Y337551D01*
X111336D01*
Y337469D01*
X111417D01*
Y337388D01*
X111499D01*
Y337306D01*
X111580D01*
Y337225D01*
Y337143D01*
X111662D01*
Y337062D01*
X111743D01*
Y336981D01*
X111825D01*
Y336899D01*
Y336818D01*
X111906D01*
Y336736D01*
X111988D01*
Y336655D01*
Y336573D01*
X112069D01*
Y336492D01*
Y336410D01*
X112151D01*
Y336329D01*
Y336247D01*
X112232D01*
Y336166D01*
Y336084D01*
X112313D01*
Y336003D01*
Y335922D01*
X112395D01*
Y335840D01*
Y335759D01*
X112476D01*
Y335677D01*
Y335596D01*
X112558D01*
Y335514D01*
Y335433D01*
Y335351D01*
X112639D01*
Y335270D01*
Y335188D01*
Y335107D01*
X112721D01*
Y335026D01*
Y334944D01*
Y334862D01*
X112802D01*
Y334781D01*
Y334700D01*
Y334618D01*
Y334537D01*
Y334455D01*
X112884D01*
Y334374D01*
Y334292D01*
Y334211D01*
Y334129D01*
X112965D01*
Y334048D01*
Y333966D01*
Y333885D01*
Y333804D01*
Y333722D01*
Y333641D01*
Y333559D01*
Y333478D01*
Y333396D01*
X113047D01*
Y333315D01*
Y333233D01*
Y333152D01*
Y333070D01*
Y332989D01*
Y332908D01*
Y332826D01*
Y332745D01*
Y332663D01*
Y332582D01*
Y332500D01*
Y332419D01*
Y332337D01*
Y332256D01*
X112965D01*
Y332174D01*
Y332093D01*
Y332012D01*
Y331930D01*
Y331849D01*
Y331767D01*
Y331686D01*
X112884D01*
Y331604D01*
Y331523D01*
Y331441D01*
X112802D01*
Y331360D01*
Y331278D01*
X112558D01*
Y331360D01*
X112232D01*
Y331441D01*
X111988D01*
Y331523D01*
X111743D01*
Y331604D01*
X111499D01*
Y331686D01*
X111336D01*
Y331767D01*
X111092D01*
Y331849D01*
X110929D01*
Y331930D01*
X110684D01*
Y332012D01*
X110521D01*
Y332093D01*
X110358D01*
Y332174D01*
X110114D01*
Y332256D01*
X109951D01*
Y332337D01*
X109788D01*
Y332419D01*
X109544D01*
Y332500D01*
X109381D01*
Y332582D01*
X109218D01*
Y332663D01*
X108974D01*
Y332745D01*
X108811D01*
Y332826D01*
X108566D01*
Y332908D01*
X108403D01*
Y332989D01*
X108240D01*
Y333070D01*
X107996D01*
Y333152D01*
X107833D01*
Y333233D01*
X107670D01*
Y333315D01*
X107752D01*
Y333396D01*
Y333478D01*
X107833D01*
Y333559D01*
Y333641D01*
X107915D01*
Y333722D01*
Y333804D01*
X107996D01*
Y333885D01*
X108078D01*
Y333966D01*
Y334048D01*
X108159D01*
Y334129D01*
Y334211D01*
X108240D01*
Y334292D01*
Y334374D01*
X108322D01*
Y334455D01*
Y334537D01*
X108403D01*
Y334618D01*
X108485D01*
Y334700D01*
Y334781D01*
X108566D01*
Y334862D01*
Y334944D01*
X108648D01*
Y335026D01*
Y335107D01*
X108729D01*
Y335188D01*
Y335270D01*
X108811D01*
Y335351D01*
Y335433D01*
X108892D01*
Y335514D01*
X108974D01*
Y335596D01*
Y335677D01*
X109055D01*
Y335759D01*
Y335840D01*
X109137D01*
Y335922D01*
Y336003D01*
X109218D01*
Y336084D01*
Y336166D01*
X109300D01*
Y336247D01*
Y336329D01*
X109381D01*
Y336410D01*
X109462D01*
Y336492D01*
Y336573D01*
X109544D01*
Y336655D01*
Y336736D01*
X109625D01*
Y336818D01*
Y336899D01*
X109707D01*
Y336981D01*
Y337062D01*
X109788D01*
Y337143D01*
X109870D01*
Y337225D01*
Y337306D01*
X109951D01*
Y337388D01*
Y337469D01*
X110033D01*
Y337551D01*
Y337632D01*
X110114D01*
Y337714D01*
Y337795D01*
X110196D01*
Y337877D01*
Y337958D01*
X110277D01*
Y338039D01*
X110358D01*
Y338121D01*
Y338202D01*
X110440D01*
Y338284D01*
Y338365D01*
X110521D01*
Y338284D01*
D02*
G37*
G36*
X94881Y287429D02*
X95859D01*
Y287348D01*
X96266D01*
Y287266D01*
X96755D01*
Y287185D01*
X96999D01*
Y287103D01*
X97407D01*
Y287022D01*
X97651D01*
Y286940D01*
X97977D01*
Y286859D01*
X98221D01*
Y286777D01*
X98466D01*
Y286696D01*
X98710D01*
Y286614D01*
X98873D01*
Y286533D01*
X99117D01*
Y286452D01*
X99362D01*
Y286370D01*
X99524D01*
Y286288D01*
X99687D01*
Y286207D01*
X99850D01*
Y286126D01*
X100013D01*
Y286044D01*
X100176D01*
Y285963D01*
X100339D01*
Y285881D01*
X100502D01*
Y285800D01*
X100665D01*
Y285718D01*
X100828D01*
Y285637D01*
X100909D01*
Y285555D01*
X101072D01*
Y285474D01*
X101235D01*
Y285392D01*
X101317D01*
Y285311D01*
X101479D01*
Y285230D01*
X101561D01*
Y285148D01*
X101724D01*
Y285067D01*
X101805D01*
Y284985D01*
X101887D01*
Y284904D01*
X102050D01*
Y284822D01*
X102131D01*
Y284741D01*
X102213D01*
Y284659D01*
X102294D01*
Y284578D01*
X102375D01*
Y284496D01*
X102457D01*
Y284415D01*
X102538D01*
Y284333D01*
X102620D01*
Y284252D01*
X102701D01*
Y284171D01*
X102783D01*
Y284089D01*
X102864D01*
Y284008D01*
Y283926D01*
X102946D01*
Y283845D01*
X103027D01*
Y283763D01*
Y283682D01*
X103109D01*
Y283600D01*
Y283519D01*
X103190D01*
Y283437D01*
Y283356D01*
Y283275D01*
X103272D01*
Y283193D01*
Y283112D01*
Y283030D01*
Y282949D01*
Y282867D01*
Y282786D01*
Y282704D01*
Y282623D01*
Y282541D01*
Y282460D01*
Y282379D01*
Y282297D01*
X103190D01*
Y282216D01*
Y282134D01*
Y282053D01*
X103109D01*
Y281971D01*
Y281890D01*
Y281808D01*
Y281727D01*
X103027D01*
Y281645D01*
Y281564D01*
Y281483D01*
X102946D01*
Y281401D01*
Y281320D01*
X102864D01*
Y281238D01*
Y281157D01*
Y281075D01*
X102783D01*
Y280994D01*
Y280912D01*
X102701D01*
Y280831D01*
Y280749D01*
Y280668D01*
X102620D01*
Y280587D01*
Y280505D01*
X102538D01*
Y280423D01*
Y280342D01*
Y280261D01*
X102457D01*
Y280179D01*
Y280098D01*
Y280016D01*
X102375D01*
Y279935D01*
Y279853D01*
X102294D01*
Y279772D01*
Y279690D01*
Y279609D01*
X102213D01*
Y279527D01*
Y279446D01*
X102131D01*
Y279365D01*
Y279283D01*
X102050D01*
Y279202D01*
Y279120D01*
Y279039D01*
X101968D01*
Y278957D01*
Y278876D01*
X101887D01*
Y278794D01*
Y278713D01*
Y278631D01*
X101805D01*
Y278550D01*
Y278468D01*
X101724D01*
Y278387D01*
Y278306D01*
Y278224D01*
X101642D01*
Y278143D01*
Y278061D01*
X101561D01*
Y277980D01*
Y277898D01*
Y277817D01*
X101479D01*
Y277735D01*
Y277654D01*
X101398D01*
Y277572D01*
Y277491D01*
Y277410D01*
X101317D01*
Y277328D01*
Y277247D01*
X101235D01*
Y277165D01*
Y277084D01*
X101154D01*
Y277002D01*
Y276921D01*
Y276839D01*
X101072D01*
Y276758D01*
Y276677D01*
Y276595D01*
X100991D01*
Y276514D01*
Y276432D01*
X100909D01*
Y276351D01*
Y276269D01*
Y276188D01*
X100828D01*
Y276106D01*
Y276025D01*
X100746D01*
Y275943D01*
Y275862D01*
Y275780D01*
X100665D01*
Y275699D01*
Y275618D01*
X100584D01*
Y275536D01*
Y275455D01*
Y275373D01*
X100502D01*
Y275292D01*
Y275210D01*
X100420D01*
Y275129D01*
Y275047D01*
Y274966D01*
X100339D01*
Y274884D01*
Y274803D01*
X100258D01*
Y274722D01*
Y274640D01*
X100176D01*
Y274558D01*
Y274477D01*
Y274396D01*
X100095D01*
Y274314D01*
Y274233D01*
Y274151D01*
X100013D01*
Y274070D01*
Y273988D01*
X99932D01*
Y273907D01*
Y273825D01*
Y273744D01*
X99850D01*
Y273662D01*
Y273581D01*
X99769D01*
Y273500D01*
Y273418D01*
X99687D01*
Y273337D01*
Y273255D01*
X99606D01*
Y273174D01*
Y273092D01*
Y273011D01*
X99524D01*
Y272929D01*
Y272848D01*
X99443D01*
Y272766D01*
Y272685D01*
X99362D01*
Y272604D01*
Y272522D01*
X99280D01*
Y272441D01*
Y272359D01*
X99199D01*
Y272278D01*
X99117D01*
Y272196D01*
Y272115D01*
X99036D01*
Y272033D01*
Y271952D01*
X98954D01*
Y271870D01*
X98873D01*
Y271789D01*
Y271708D01*
X98791D01*
Y271626D01*
X98710D01*
Y271545D01*
X98628D01*
Y271463D01*
X98547D01*
Y271382D01*
X98466D01*
Y271300D01*
X98384D01*
Y271219D01*
X98303D01*
Y271137D01*
X98221D01*
Y271056D01*
X98140D01*
Y270974D01*
X98058D01*
Y270893D01*
X97977D01*
Y270812D01*
X97814D01*
Y270730D01*
X97651D01*
Y270649D01*
X97570D01*
Y270567D01*
X97407D01*
Y270486D01*
X97244D01*
Y270404D01*
X97081D01*
Y270323D01*
X96836D01*
Y270241D01*
X96592D01*
Y270160D01*
X96429D01*
Y270078D01*
X96103D01*
Y269997D01*
X95777D01*
Y269915D01*
X95289D01*
Y269834D01*
X94230D01*
Y269753D01*
X93985D01*
Y269834D01*
X92845D01*
Y269915D01*
X92275D01*
Y269997D01*
X92030D01*
Y270078D01*
X91623D01*
Y270160D01*
X91379D01*
Y270241D01*
X91134D01*
Y270323D01*
X90890D01*
Y270404D01*
X90645D01*
Y270486D01*
X90483D01*
Y270567D01*
X90320D01*
Y270649D01*
X90157D01*
Y270730D01*
X89994D01*
Y270812D01*
X89831D01*
Y270893D01*
X89668D01*
Y270974D01*
X89587D01*
Y271056D01*
X89505D01*
Y271137D01*
X89342D01*
Y271219D01*
X89261D01*
Y271300D01*
X89179D01*
Y271382D01*
X89098D01*
Y271463D01*
X89016D01*
Y271545D01*
Y271626D01*
X88935D01*
Y271708D01*
X88853D01*
Y271789D01*
X88772D01*
Y271870D01*
Y271952D01*
X88691D01*
Y272033D01*
Y272115D01*
X88609D01*
Y272196D01*
Y272278D01*
X88528D01*
Y272359D01*
Y272441D01*
X88446D01*
Y272522D01*
Y272604D01*
X88365D01*
Y272685D01*
Y272766D01*
Y272848D01*
X88283D01*
Y272929D01*
Y273011D01*
X88202D01*
Y273092D01*
Y273174D01*
Y273255D01*
X88120D01*
Y273337D01*
Y273418D01*
Y273500D01*
Y273581D01*
X88039D01*
Y273662D01*
Y273744D01*
Y273825D01*
X87957D01*
Y273907D01*
Y273988D01*
Y274070D01*
X87876D01*
Y274151D01*
Y274233D01*
Y274314D01*
X87795D01*
Y274396D01*
Y274477D01*
Y274558D01*
X87713D01*
Y274640D01*
Y274722D01*
Y274803D01*
X87632D01*
Y274884D01*
Y274966D01*
Y275047D01*
Y275129D01*
X87550D01*
Y275210D01*
Y275292D01*
Y275373D01*
X87469D01*
Y275455D01*
Y275536D01*
Y275618D01*
X87387D01*
Y275699D01*
Y275780D01*
Y275862D01*
Y275943D01*
X87306D01*
Y276025D01*
Y276106D01*
Y276188D01*
X87224D01*
Y276269D01*
Y276351D01*
Y276432D01*
X87143D01*
Y276514D01*
Y276595D01*
Y276677D01*
X87061D01*
Y276758D01*
Y276839D01*
Y276921D01*
X86980D01*
Y277002D01*
Y277084D01*
Y277165D01*
X86898D01*
Y277247D01*
Y277328D01*
Y277410D01*
Y277491D01*
X86817D01*
Y277572D01*
Y277654D01*
Y277735D01*
X86735D01*
Y277817D01*
Y277898D01*
Y277980D01*
X86654D01*
Y278061D01*
Y278143D01*
Y278224D01*
X86573D01*
Y278306D01*
Y278387D01*
Y278468D01*
X86491D01*
Y278550D01*
Y278631D01*
Y278713D01*
X86410D01*
Y278794D01*
Y278876D01*
Y278957D01*
Y279039D01*
X86328D01*
Y279120D01*
Y279202D01*
Y279283D01*
X86247D01*
Y279365D01*
Y279446D01*
Y279527D01*
X86165D01*
Y279609D01*
Y279690D01*
Y279772D01*
X86084D01*
Y279853D01*
Y279935D01*
Y280016D01*
X86002D01*
Y280098D01*
Y280179D01*
Y280261D01*
X85921D01*
Y280342D01*
Y280423D01*
Y280505D01*
Y280587D01*
X85839D01*
Y280668D01*
Y280749D01*
Y280831D01*
X85758D01*
Y280912D01*
Y280994D01*
Y281075D01*
X85677D01*
Y281157D01*
Y281238D01*
Y281320D01*
X85595D01*
Y281401D01*
Y281483D01*
X85514D01*
Y281564D01*
Y281645D01*
Y281727D01*
Y281808D01*
X85432D01*
Y281890D01*
Y281971D01*
Y282053D01*
Y282134D01*
X85351D01*
Y282216D01*
Y282297D01*
Y282379D01*
Y282460D01*
Y282541D01*
Y282623D01*
Y282704D01*
Y282786D01*
Y282867D01*
X85432D01*
Y282949D01*
Y283030D01*
Y283112D01*
Y283193D01*
X85514D01*
Y283275D01*
Y283356D01*
X85595D01*
Y283437D01*
Y283519D01*
X85677D01*
Y283600D01*
X85758D01*
Y283682D01*
Y283763D01*
X85839D01*
Y283845D01*
X85921D01*
Y283926D01*
X86002D01*
Y284008D01*
Y284089D01*
X86084D01*
Y284171D01*
X86165D01*
Y284252D01*
X86247D01*
Y284333D01*
X86328D01*
Y284415D01*
X86410D01*
Y284496D01*
X86573D01*
Y284578D01*
X86654D01*
Y284659D01*
X86735D01*
Y284741D01*
X86817D01*
Y284822D01*
X86898D01*
Y284904D01*
X87061D01*
Y284985D01*
X87143D01*
Y285067D01*
X87224D01*
Y285148D01*
X87387D01*
Y285230D01*
X87469D01*
Y285311D01*
X87632D01*
Y285392D01*
X87713D01*
Y285474D01*
X87876D01*
Y285555D01*
X87957D01*
Y285637D01*
X88120D01*
Y285718D01*
X88283D01*
Y285800D01*
X88365D01*
Y285881D01*
X88528D01*
Y285963D01*
X88691D01*
Y286044D01*
X88853D01*
Y286126D01*
X89016D01*
Y286207D01*
X89179D01*
Y286288D01*
X89342D01*
Y286370D01*
X89505D01*
Y286452D01*
X89749D01*
Y286533D01*
X89912D01*
Y286614D01*
X90075D01*
Y286696D01*
X90320D01*
Y286777D01*
X90564D01*
Y286859D01*
X90808D01*
Y286940D01*
X91053D01*
Y287022D01*
X91297D01*
Y287103D01*
X91704D01*
Y287185D01*
X91949D01*
Y287266D01*
X92438D01*
Y287348D01*
X92763D01*
Y287429D01*
X93741D01*
Y287510D01*
X94881D01*
Y287429D01*
D02*
G37*
G36*
X83640Y282053D02*
Y281971D01*
Y281890D01*
X83722D01*
Y281808D01*
Y281727D01*
Y281645D01*
Y281564D01*
X83803D01*
Y281483D01*
Y281401D01*
Y281320D01*
Y281238D01*
X83885D01*
Y281157D01*
Y281075D01*
Y280994D01*
X83966D01*
Y280912D01*
Y280831D01*
Y280749D01*
X84047D01*
Y280668D01*
Y280587D01*
Y280505D01*
X84129D01*
Y280423D01*
Y280342D01*
Y280261D01*
X84210D01*
Y280179D01*
Y280098D01*
Y280016D01*
X84292D01*
Y279935D01*
Y279853D01*
Y279772D01*
X84373D01*
Y279690D01*
Y279609D01*
Y279527D01*
Y279446D01*
X84455D01*
Y279365D01*
Y279283D01*
Y279202D01*
X84536D01*
Y279120D01*
Y279039D01*
Y278957D01*
X84618D01*
Y278876D01*
Y278794D01*
Y278713D01*
X84699D01*
Y278631D01*
Y278550D01*
Y278468D01*
X84781D01*
Y278387D01*
Y278306D01*
Y278224D01*
Y278143D01*
X84862D01*
Y278061D01*
Y277980D01*
X84943D01*
Y277898D01*
Y277817D01*
Y277735D01*
Y277654D01*
X85025D01*
Y277572D01*
Y277491D01*
Y277410D01*
X85106D01*
Y277328D01*
Y277247D01*
Y277165D01*
X85188D01*
Y277084D01*
Y277002D01*
Y276921D01*
Y276839D01*
X85269D01*
Y276758D01*
Y276677D01*
X85351D01*
Y276595D01*
Y276514D01*
Y276432D01*
Y276351D01*
X85432D01*
Y276269D01*
Y276188D01*
Y276106D01*
X85514D01*
Y276025D01*
Y275943D01*
Y275862D01*
X85595D01*
Y275780D01*
Y275699D01*
Y275618D01*
Y275536D01*
X85677D01*
Y275455D01*
Y275373D01*
X85758D01*
Y275292D01*
Y275210D01*
Y275129D01*
Y275047D01*
X85839D01*
Y274966D01*
Y274884D01*
X85921D01*
Y274803D01*
Y274722D01*
Y274640D01*
Y274558D01*
X86002D01*
Y274477D01*
Y274396D01*
Y274314D01*
X86084D01*
Y274233D01*
Y274151D01*
Y274070D01*
X86165D01*
Y273988D01*
Y273907D01*
Y273825D01*
Y273744D01*
X86247D01*
Y273662D01*
Y273581D01*
X86328D01*
Y273500D01*
Y273418D01*
Y273337D01*
Y273255D01*
X86410D01*
Y273174D01*
Y273092D01*
Y273011D01*
X86491D01*
Y272929D01*
Y272848D01*
Y272766D01*
X86573D01*
Y272685D01*
Y272604D01*
Y272522D01*
X86654D01*
Y272441D01*
Y272359D01*
Y272278D01*
X86735D01*
Y272196D01*
Y272115D01*
Y272033D01*
X86817D01*
Y271952D01*
Y271870D01*
X86898D01*
Y271789D01*
Y271708D01*
X86980D01*
Y271626D01*
Y271545D01*
X87061D01*
Y271463D01*
Y271382D01*
X87143D01*
Y271300D01*
Y271219D01*
X87224D01*
Y271137D01*
Y271056D01*
X87306D01*
Y270974D01*
Y270893D01*
X87387D01*
Y270812D01*
X87469D01*
Y270730D01*
X87550D01*
Y270649D01*
Y270567D01*
X87632D01*
Y270486D01*
X87713D01*
Y270404D01*
X87795D01*
Y270323D01*
X87876D01*
Y270241D01*
X87713D01*
Y270160D01*
X87550D01*
Y270078D01*
X87306D01*
Y269997D01*
X87143D01*
Y269915D01*
X86980D01*
Y269834D01*
X86735D01*
Y269753D01*
X86573D01*
Y269671D01*
X86328D01*
Y269590D01*
X86165D01*
Y269508D01*
X85921D01*
Y269427D01*
X85677D01*
Y269345D01*
X85351D01*
Y269264D01*
X84292D01*
Y269345D01*
X84129D01*
Y269427D01*
X83966D01*
Y269508D01*
X83885D01*
Y269590D01*
X83803D01*
Y269671D01*
X83640D01*
Y269753D01*
X83559D01*
Y269834D01*
X83477D01*
Y269915D01*
X83396D01*
Y269997D01*
X83314D01*
Y270078D01*
Y270160D01*
X83233D01*
Y270241D01*
X83151D01*
Y270323D01*
X83070D01*
Y270404D01*
X82988D01*
Y270486D01*
Y270567D01*
X82907D01*
Y270649D01*
X82825D01*
Y270730D01*
X82744D01*
Y270812D01*
Y270893D01*
X82663D01*
Y270974D01*
X82581D01*
Y271056D01*
Y271137D01*
X82500D01*
Y271219D01*
X82418D01*
Y271300D01*
Y271382D01*
X82337D01*
Y271463D01*
X82255D01*
Y271545D01*
Y271626D01*
X82174D01*
Y271708D01*
X82092D01*
Y271789D01*
Y271870D01*
X82011D01*
Y271952D01*
X81929D01*
Y272033D01*
Y272115D01*
X81848D01*
Y272196D01*
X81767D01*
Y272278D01*
Y272359D01*
X81685D01*
Y272441D01*
X81604D01*
Y272522D01*
Y272604D01*
X81522D01*
Y272685D01*
Y272766D01*
X81441D01*
Y272848D01*
X81359D01*
Y272929D01*
Y273011D01*
X81278D01*
Y273092D01*
X81196D01*
Y273174D01*
Y273255D01*
X81115D01*
Y273337D01*
Y273418D01*
X81033D01*
Y273500D01*
X80952D01*
Y273581D01*
Y273662D01*
X80870D01*
Y273744D01*
Y273825D01*
X80789D01*
Y273907D01*
X80708D01*
Y273988D01*
Y274070D01*
X80626D01*
Y274151D01*
X80545D01*
Y274233D01*
Y274314D01*
X80463D01*
Y274396D01*
Y274477D01*
X80382D01*
Y274558D01*
X80300D01*
Y274640D01*
Y274722D01*
X80219D01*
Y274803D01*
Y274884D01*
X80137D01*
Y274966D01*
X80056D01*
Y275047D01*
Y275129D01*
X79975D01*
Y275210D01*
Y275292D01*
X79893D01*
Y275373D01*
X79812D01*
Y275455D01*
Y275536D01*
X79730D01*
Y275618D01*
X79649D01*
Y275699D01*
Y275780D01*
X79567D01*
Y275862D01*
Y275943D01*
X79486D01*
Y276025D01*
Y276106D01*
X79404D01*
Y276188D01*
Y276269D01*
X79323D01*
Y276351D01*
Y276432D01*
X79241D01*
Y276514D01*
Y276595D01*
Y276677D01*
X79160D01*
Y276758D01*
Y276839D01*
X79078D01*
Y276921D01*
Y277002D01*
X78997D01*
Y277084D01*
Y277165D01*
Y277247D01*
X78916D01*
Y277328D01*
Y277410D01*
Y277491D01*
X78834D01*
Y277572D01*
Y277654D01*
X78753D01*
Y277735D01*
Y277817D01*
Y277898D01*
Y277980D01*
X78671D01*
Y278061D01*
Y278143D01*
Y278224D01*
Y278306D01*
Y278387D01*
Y278468D01*
Y278550D01*
Y278631D01*
Y278713D01*
Y278794D01*
Y278876D01*
Y278957D01*
Y279039D01*
Y279120D01*
X78753D01*
Y279202D01*
Y279283D01*
X78834D01*
Y279365D01*
Y279446D01*
X78916D01*
Y279527D01*
Y279609D01*
X78997D01*
Y279690D01*
X79078D01*
Y279772D01*
X79160D01*
Y279853D01*
X79241D01*
Y279935D01*
X79323D01*
Y280016D01*
X79404D01*
Y280098D01*
X79486D01*
Y280179D01*
X79649D01*
Y280261D01*
X79730D01*
Y280342D01*
X79812D01*
Y280423D01*
X79975D01*
Y280505D01*
X80137D01*
Y280587D01*
X80219D01*
Y280668D01*
X80382D01*
Y280749D01*
X80545D01*
Y280831D01*
X80708D01*
Y280912D01*
X80870D01*
Y280994D01*
X80952D01*
Y281075D01*
X81196D01*
Y281157D01*
X81359D01*
Y281238D01*
X81522D01*
Y281320D01*
X81685D01*
Y281401D01*
X81848D01*
Y281483D01*
X82092D01*
Y281564D01*
X82255D01*
Y281645D01*
X82500D01*
Y281727D01*
X82663D01*
Y281808D01*
X82907D01*
Y281890D01*
X83070D01*
Y281971D01*
X83314D01*
Y282053D01*
X83559D01*
Y282134D01*
X83640D01*
Y282053D01*
D02*
G37*
G36*
X105145Y281727D02*
X105308D01*
Y281645D01*
X105552D01*
Y281564D01*
X105715D01*
Y281483D01*
X105878D01*
Y281401D01*
X106123D01*
Y281320D01*
X106286D01*
Y281238D01*
X106530D01*
Y281157D01*
X106611D01*
Y281075D01*
X106856D01*
Y280994D01*
X107019D01*
Y280912D01*
X107182D01*
Y280831D01*
X107344D01*
Y280749D01*
X107507D01*
Y280668D01*
X107752D01*
Y280587D01*
X107833D01*
Y280505D01*
X107996D01*
Y280423D01*
X108159D01*
Y280342D01*
X108322D01*
Y280261D01*
X108485D01*
Y280179D01*
X108566D01*
Y280098D01*
X108729D01*
Y280016D01*
X108892D01*
Y279935D01*
X108974D01*
Y279853D01*
X109137D01*
Y279772D01*
X109218D01*
Y279690D01*
X109381D01*
Y279609D01*
X109462D01*
Y279527D01*
X109544D01*
Y279446D01*
X109625D01*
Y279365D01*
X109707D01*
Y279283D01*
X109788D01*
Y279202D01*
X109870D01*
Y279120D01*
Y279039D01*
X109951D01*
Y278957D01*
Y278876D01*
X110033D01*
Y278794D01*
Y278713D01*
Y278631D01*
Y278550D01*
Y278468D01*
Y278387D01*
Y278306D01*
Y278224D01*
X109951D01*
Y278143D01*
Y278061D01*
X109870D01*
Y277980D01*
Y277898D01*
Y277817D01*
X109788D01*
Y277735D01*
Y277654D01*
X109707D01*
Y277572D01*
Y277491D01*
X109625D01*
Y277410D01*
Y277328D01*
X109544D01*
Y277247D01*
Y277165D01*
X109462D01*
Y277084D01*
Y277002D01*
X109381D01*
Y276921D01*
X109300D01*
Y276839D01*
Y276758D01*
X109218D01*
Y276677D01*
Y276595D01*
X109137D01*
Y276514D01*
Y276432D01*
X109055D01*
Y276351D01*
Y276269D01*
X108974D01*
Y276188D01*
X108892D01*
Y276106D01*
Y276025D01*
X108811D01*
Y275943D01*
Y275862D01*
X108729D01*
Y275780D01*
Y275699D01*
X108648D01*
Y275618D01*
Y275536D01*
X108566D01*
Y275455D01*
Y275373D01*
X108485D01*
Y275292D01*
Y275210D01*
X108403D01*
Y275129D01*
X108322D01*
Y275047D01*
Y274966D01*
X108240D01*
Y274884D01*
Y274803D01*
X108159D01*
Y274722D01*
Y274640D01*
X108078D01*
Y274558D01*
Y274477D01*
X107996D01*
Y274396D01*
X107915D01*
Y274314D01*
Y274233D01*
X107833D01*
Y274151D01*
Y274070D01*
X107752D01*
Y273988D01*
Y273907D01*
X107670D01*
Y273825D01*
Y273744D01*
X107589D01*
Y273662D01*
X107507D01*
Y273581D01*
Y273500D01*
X107426D01*
Y273418D01*
Y273337D01*
X107344D01*
Y273255D01*
Y273174D01*
X107263D01*
Y273092D01*
Y273011D01*
X107182D01*
Y272929D01*
Y272848D01*
X107100D01*
Y272766D01*
Y272685D01*
X107019D01*
Y272604D01*
X106937D01*
Y272522D01*
Y272441D01*
X106856D01*
Y272359D01*
Y272278D01*
X106774D01*
Y272196D01*
Y272115D01*
X106693D01*
Y272033D01*
Y271952D01*
X106611D01*
Y271870D01*
X106530D01*
Y271789D01*
Y271708D01*
X106448D01*
Y271626D01*
Y271545D01*
X106367D01*
Y271463D01*
Y271382D01*
X106286D01*
Y271300D01*
Y271219D01*
X106204D01*
Y271137D01*
X106123D01*
Y271056D01*
X106041D01*
Y270974D01*
Y270893D01*
X105960D01*
Y270812D01*
X105878D01*
Y270730D01*
X105797D01*
Y270649D01*
X105715D01*
Y270567D01*
Y270486D01*
X105634D01*
Y270404D01*
X105552D01*
Y270323D01*
X105471D01*
Y270241D01*
X105389D01*
Y270160D01*
X105308D01*
Y270078D01*
X105227D01*
Y269997D01*
X105145D01*
Y269915D01*
X105064D01*
Y269834D01*
X104982D01*
Y269753D01*
X104901D01*
Y269671D01*
X104819D01*
Y269590D01*
X104656D01*
Y269508D01*
X104575D01*
Y269427D01*
X104412D01*
Y269345D01*
X104249D01*
Y269264D01*
X104005D01*
Y269182D01*
X102864D01*
Y269264D01*
X102457D01*
Y269345D01*
X102131D01*
Y269427D01*
X101887D01*
Y269508D01*
X101561D01*
Y269590D01*
X101398D01*
Y269671D01*
X101154D01*
Y269753D01*
X100909D01*
Y269834D01*
X100746D01*
Y269915D01*
X100502D01*
Y269997D01*
X100339D01*
Y270078D01*
X100095D01*
Y270160D01*
X99932D01*
Y270241D01*
X99850D01*
Y270323D01*
X99932D01*
Y270404D01*
X100013D01*
Y270486D01*
Y270567D01*
X100095D01*
Y270649D01*
X100176D01*
Y270730D01*
X100258D01*
Y270812D01*
X100339D01*
Y270893D01*
Y270974D01*
X100420D01*
Y271056D01*
X100502D01*
Y271137D01*
Y271219D01*
X100584D01*
Y271300D01*
X100665D01*
Y271382D01*
Y271463D01*
X100746D01*
Y271545D01*
Y271626D01*
X100828D01*
Y271708D01*
Y271789D01*
X100909D01*
Y271870D01*
Y271952D01*
X100991D01*
Y272033D01*
Y272115D01*
X101072D01*
Y272196D01*
Y272278D01*
X101154D01*
Y272359D01*
Y272441D01*
X101235D01*
Y272522D01*
Y272604D01*
X101317D01*
Y272685D01*
Y272766D01*
Y272848D01*
X101398D01*
Y272929D01*
Y273011D01*
X101479D01*
Y273092D01*
Y273174D01*
X101561D01*
Y273255D01*
Y273337D01*
Y273418D01*
X101642D01*
Y273500D01*
Y273581D01*
X101724D01*
Y273662D01*
Y273744D01*
Y273825D01*
X101805D01*
Y273907D01*
Y273988D01*
X101887D01*
Y274070D01*
Y274151D01*
Y274233D01*
X101968D01*
Y274314D01*
Y274396D01*
X102050D01*
Y274477D01*
Y274558D01*
Y274640D01*
X102131D01*
Y274722D01*
Y274803D01*
X102213D01*
Y274884D01*
Y274966D01*
Y275047D01*
X102294D01*
Y275129D01*
Y275210D01*
X102375D01*
Y275292D01*
Y275373D01*
Y275455D01*
X102457D01*
Y275536D01*
Y275618D01*
X102538D01*
Y275699D01*
Y275780D01*
Y275862D01*
X102620D01*
Y275943D01*
Y276025D01*
X102701D01*
Y276106D01*
Y276188D01*
Y276269D01*
X102783D01*
Y276351D01*
Y276432D01*
X102864D01*
Y276514D01*
Y276595D01*
Y276677D01*
X102946D01*
Y276758D01*
Y276839D01*
X103027D01*
Y276921D01*
Y277002D01*
Y277084D01*
X103109D01*
Y277165D01*
Y277247D01*
X103190D01*
Y277328D01*
Y277410D01*
X103272D01*
Y277491D01*
Y277572D01*
Y277654D01*
X103353D01*
Y277735D01*
Y277817D01*
Y277898D01*
X103435D01*
Y277980D01*
Y278061D01*
X103516D01*
Y278143D01*
Y278224D01*
X103597D01*
Y278306D01*
Y278387D01*
Y278468D01*
X103679D01*
Y278550D01*
Y278631D01*
X103760D01*
Y278713D01*
Y278794D01*
Y278876D01*
X103842D01*
Y278957D01*
Y279039D01*
X103923D01*
Y279120D01*
Y279202D01*
Y279283D01*
X104005D01*
Y279365D01*
Y279446D01*
X104086D01*
Y279527D01*
Y279609D01*
Y279690D01*
X104168D01*
Y279772D01*
Y279853D01*
X104249D01*
Y279935D01*
Y280016D01*
Y280098D01*
X104331D01*
Y280179D01*
Y280261D01*
X104412D01*
Y280342D01*
Y280423D01*
Y280505D01*
X104493D01*
Y280587D01*
Y280668D01*
X104575D01*
Y280749D01*
Y280831D01*
Y280912D01*
X104656D01*
Y280994D01*
Y281075D01*
Y281157D01*
X104738D01*
Y281238D01*
Y281320D01*
Y281401D01*
X104819D01*
Y281483D01*
Y281564D01*
Y281645D01*
X104901D01*
Y281727D01*
Y281808D01*
X105145D01*
Y281727D01*
D02*
G37*
G36*
X77857Y275455D02*
Y275373D01*
X77938D01*
Y275292D01*
Y275210D01*
X78019D01*
Y275129D01*
Y275047D01*
X78101D01*
Y274966D01*
Y274884D01*
X78182D01*
Y274803D01*
Y274722D01*
X78264D01*
Y274640D01*
X78345D01*
Y274558D01*
Y274477D01*
X78427D01*
Y274396D01*
X78508D01*
Y274314D01*
Y274233D01*
X78590D01*
Y274151D01*
Y274070D01*
X78671D01*
Y273988D01*
X78753D01*
Y273907D01*
Y273825D01*
X78834D01*
Y273744D01*
Y273662D01*
X78916D01*
Y273581D01*
X78997D01*
Y273500D01*
Y273418D01*
X79078D01*
Y273337D01*
Y273255D01*
X79160D01*
Y273174D01*
X79241D01*
Y273092D01*
Y273011D01*
X79323D01*
Y272929D01*
Y272848D01*
X79404D01*
Y272766D01*
X79486D01*
Y272685D01*
Y272604D01*
X79567D01*
Y272522D01*
X79649D01*
Y272441D01*
Y272359D01*
X79730D01*
Y272278D01*
Y272196D01*
X79812D01*
Y272115D01*
X79893D01*
Y272033D01*
Y271952D01*
X79975D01*
Y271870D01*
X80056D01*
Y271789D01*
Y271708D01*
X80137D01*
Y271626D01*
Y271545D01*
X80219D01*
Y271463D01*
X80300D01*
Y271382D01*
Y271300D01*
X80382D01*
Y271219D01*
X80463D01*
Y271137D01*
Y271056D01*
X80545D01*
Y270974D01*
X80626D01*
Y270893D01*
Y270812D01*
X80708D01*
Y270730D01*
X80789D01*
Y270649D01*
Y270567D01*
X80708D01*
Y270486D01*
X80463D01*
Y270404D01*
X80300D01*
Y270323D01*
X80056D01*
Y270241D01*
X79893D01*
Y270160D01*
X79730D01*
Y270078D01*
X79486D01*
Y269997D01*
X79323D01*
Y269915D01*
X79078D01*
Y269834D01*
X78916D01*
Y269753D01*
X78671D01*
Y269671D01*
X78508D01*
Y269590D01*
X78345D01*
Y269508D01*
X78101D01*
Y269427D01*
X77938D01*
Y269345D01*
X77775D01*
Y269264D01*
X77531D01*
Y269182D01*
X77368D01*
Y269101D01*
X77123D01*
Y269019D01*
X76960D01*
Y268938D01*
X76716D01*
Y268857D01*
X76553D01*
Y268775D01*
X76309D01*
Y268693D01*
X76064D01*
Y268612D01*
X75820D01*
Y268531D01*
X75250D01*
Y268612D01*
Y268693D01*
Y268775D01*
X75168D01*
Y268857D01*
Y268938D01*
Y269019D01*
Y269101D01*
Y269182D01*
Y269264D01*
Y269345D01*
Y269427D01*
X75087D01*
Y269508D01*
Y269590D01*
Y269671D01*
Y269753D01*
Y269834D01*
Y269915D01*
Y269997D01*
Y270078D01*
Y270160D01*
Y270241D01*
X75168D01*
Y270323D01*
Y270404D01*
Y270486D01*
Y270567D01*
Y270649D01*
Y270730D01*
Y270812D01*
Y270893D01*
Y270974D01*
X75250D01*
Y271056D01*
Y271137D01*
Y271219D01*
Y271300D01*
Y271382D01*
X75331D01*
Y271463D01*
Y271545D01*
Y271626D01*
Y271708D01*
X75413D01*
Y271789D01*
Y271870D01*
Y271952D01*
Y272033D01*
X75494D01*
Y272115D01*
Y272196D01*
Y272278D01*
X75576D01*
Y272359D01*
Y272441D01*
Y272522D01*
X75657D01*
Y272604D01*
Y272685D01*
X75739D01*
Y272766D01*
Y272848D01*
Y272929D01*
X75820D01*
Y273011D01*
Y273092D01*
X75902D01*
Y273174D01*
Y273255D01*
X75983D01*
Y273337D01*
Y273418D01*
X76064D01*
Y273500D01*
X76146D01*
Y273581D01*
Y273662D01*
X76227D01*
Y273744D01*
Y273825D01*
X76309D01*
Y273907D01*
X76390D01*
Y273988D01*
Y274070D01*
X76472D01*
Y274151D01*
X76553D01*
Y274233D01*
Y274314D01*
X76635D01*
Y274396D01*
X76716D01*
Y274477D01*
X76798D01*
Y274558D01*
X76879D01*
Y274640D01*
Y274722D01*
X76960D01*
Y274803D01*
X77042D01*
Y274884D01*
X77123D01*
Y274966D01*
X77205D01*
Y275047D01*
X77286D01*
Y275129D01*
X77368D01*
Y275210D01*
X77449D01*
Y275292D01*
X77531D01*
Y275373D01*
X77694D01*
Y275455D01*
X77775D01*
Y275536D01*
X77857D01*
Y275455D01*
D02*
G37*
G36*
X110521Y275292D02*
X110603D01*
Y275210D01*
X110766D01*
Y275129D01*
Y275047D01*
X110929D01*
Y274966D01*
X111010D01*
Y274884D01*
X111092D01*
Y274803D01*
X111173D01*
Y274722D01*
Y274640D01*
X111255D01*
Y274558D01*
X111336D01*
Y274477D01*
X111417D01*
Y274396D01*
X111499D01*
Y274314D01*
X111580D01*
Y274233D01*
Y274151D01*
X111662D01*
Y274070D01*
X111743D01*
Y273988D01*
X111825D01*
Y273907D01*
Y273825D01*
X111906D01*
Y273744D01*
X111988D01*
Y273662D01*
Y273581D01*
X112069D01*
Y273500D01*
Y273418D01*
X112151D01*
Y273337D01*
Y273255D01*
X112232D01*
Y273174D01*
Y273092D01*
X112313D01*
Y273011D01*
Y272929D01*
X112395D01*
Y272848D01*
Y272766D01*
X112476D01*
Y272685D01*
Y272604D01*
X112558D01*
Y272522D01*
Y272441D01*
Y272359D01*
X112639D01*
Y272278D01*
Y272196D01*
Y272115D01*
X112721D01*
Y272033D01*
Y271952D01*
Y271870D01*
X112802D01*
Y271789D01*
Y271708D01*
Y271626D01*
Y271545D01*
Y271463D01*
X112884D01*
Y271382D01*
Y271300D01*
Y271219D01*
Y271137D01*
X112965D01*
Y271056D01*
Y270974D01*
Y270893D01*
Y270812D01*
Y270730D01*
Y270649D01*
Y270567D01*
Y270486D01*
Y270404D01*
X113047D01*
Y270323D01*
Y270241D01*
Y270160D01*
Y270078D01*
Y269997D01*
Y269915D01*
Y269834D01*
Y269753D01*
Y269671D01*
Y269590D01*
Y269508D01*
Y269427D01*
Y269345D01*
Y269264D01*
X112965D01*
Y269182D01*
Y269101D01*
Y269019D01*
Y268938D01*
Y268857D01*
Y268775D01*
Y268693D01*
X112884D01*
Y268612D01*
Y268531D01*
Y268449D01*
X112802D01*
Y268368D01*
Y268286D01*
X112558D01*
Y268368D01*
X112232D01*
Y268449D01*
X111988D01*
Y268531D01*
X111743D01*
Y268612D01*
X111499D01*
Y268693D01*
X111336D01*
Y268775D01*
X111092D01*
Y268857D01*
X110929D01*
Y268938D01*
X110684D01*
Y269019D01*
X110521D01*
Y269101D01*
X110358D01*
Y269182D01*
X110114D01*
Y269264D01*
X109951D01*
Y269345D01*
X109788D01*
Y269427D01*
X109544D01*
Y269508D01*
X109381D01*
Y269590D01*
X109218D01*
Y269671D01*
X108974D01*
Y269753D01*
X108811D01*
Y269834D01*
X108566D01*
Y269915D01*
X108403D01*
Y269997D01*
X108240D01*
Y270078D01*
X107996D01*
Y270160D01*
X107833D01*
Y270241D01*
X107670D01*
Y270323D01*
X107752D01*
Y270404D01*
Y270486D01*
X107833D01*
Y270567D01*
Y270649D01*
X107915D01*
Y270730D01*
Y270812D01*
X107996D01*
Y270893D01*
X108078D01*
Y270974D01*
Y271056D01*
X108159D01*
Y271137D01*
Y271219D01*
X108240D01*
Y271300D01*
Y271382D01*
X108322D01*
Y271463D01*
Y271545D01*
X108403D01*
Y271626D01*
X108485D01*
Y271708D01*
Y271789D01*
X108566D01*
Y271870D01*
Y271952D01*
X108648D01*
Y272033D01*
Y272115D01*
X108729D01*
Y272196D01*
Y272278D01*
X108811D01*
Y272359D01*
Y272441D01*
X108892D01*
Y272522D01*
X108974D01*
Y272604D01*
Y272685D01*
X109055D01*
Y272766D01*
Y272848D01*
X109137D01*
Y272929D01*
Y273011D01*
X109218D01*
Y273092D01*
Y273174D01*
X109300D01*
Y273255D01*
Y273337D01*
X109381D01*
Y273418D01*
X109462D01*
Y273500D01*
Y273581D01*
X109544D01*
Y273662D01*
Y273744D01*
X109625D01*
Y273825D01*
Y273907D01*
X109707D01*
Y273988D01*
Y274070D01*
X109788D01*
Y274151D01*
X109870D01*
Y274233D01*
Y274314D01*
X109951D01*
Y274396D01*
Y274477D01*
X110033D01*
Y274558D01*
Y274640D01*
X110114D01*
Y274722D01*
Y274803D01*
X110196D01*
Y274884D01*
Y274966D01*
X110277D01*
Y275047D01*
X110358D01*
Y275129D01*
Y275210D01*
X110440D01*
Y275292D01*
Y275373D01*
X110521D01*
Y275292D01*
D02*
G37*
G36*
X94881Y224437D02*
X95859D01*
Y224355D01*
X96266D01*
Y224274D01*
X96755D01*
Y224193D01*
X96999D01*
Y224111D01*
X97407D01*
Y224029D01*
X97651D01*
Y223948D01*
X97977D01*
Y223867D01*
X98221D01*
Y223785D01*
X98466D01*
Y223704D01*
X98710D01*
Y223622D01*
X98873D01*
Y223541D01*
X99117D01*
Y223459D01*
X99362D01*
Y223378D01*
X99524D01*
Y223296D01*
X99687D01*
Y223215D01*
X99850D01*
Y223133D01*
X100013D01*
Y223052D01*
X100176D01*
Y222971D01*
X100339D01*
Y222889D01*
X100502D01*
Y222808D01*
X100665D01*
Y222726D01*
X100828D01*
Y222645D01*
X100909D01*
Y222563D01*
X101072D01*
Y222482D01*
X101235D01*
Y222400D01*
X101317D01*
Y222319D01*
X101479D01*
Y222237D01*
X101561D01*
Y222156D01*
X101724D01*
Y222075D01*
X101805D01*
Y221993D01*
X101887D01*
Y221912D01*
X102050D01*
Y221830D01*
X102131D01*
Y221749D01*
X102213D01*
Y221667D01*
X102294D01*
Y221586D01*
X102375D01*
Y221504D01*
X102457D01*
Y221423D01*
X102538D01*
Y221341D01*
X102620D01*
Y221260D01*
X102701D01*
Y221179D01*
X102783D01*
Y221097D01*
X102864D01*
Y221016D01*
Y220934D01*
X102946D01*
Y220853D01*
X103027D01*
Y220771D01*
Y220690D01*
X103109D01*
Y220608D01*
Y220527D01*
X103190D01*
Y220445D01*
Y220364D01*
Y220283D01*
X103272D01*
Y220201D01*
Y220120D01*
Y220038D01*
Y219957D01*
Y219875D01*
Y219794D01*
Y219712D01*
Y219631D01*
Y219549D01*
Y219468D01*
Y219386D01*
Y219305D01*
X103190D01*
Y219223D01*
Y219142D01*
Y219061D01*
X103109D01*
Y218979D01*
Y218898D01*
Y218816D01*
Y218735D01*
X103027D01*
Y218653D01*
Y218572D01*
Y218490D01*
X102946D01*
Y218409D01*
Y218327D01*
X102864D01*
Y218246D01*
Y218164D01*
Y218083D01*
X102783D01*
Y218002D01*
Y217920D01*
X102701D01*
Y217839D01*
Y217757D01*
Y217676D01*
X102620D01*
Y217594D01*
Y217513D01*
X102538D01*
Y217431D01*
Y217350D01*
Y217268D01*
X102457D01*
Y217187D01*
Y217106D01*
Y217024D01*
X102375D01*
Y216943D01*
Y216861D01*
X102294D01*
Y216780D01*
Y216698D01*
Y216617D01*
X102213D01*
Y216535D01*
Y216454D01*
X102131D01*
Y216372D01*
Y216291D01*
X102050D01*
Y216210D01*
Y216128D01*
Y216047D01*
X101968D01*
Y215965D01*
Y215884D01*
X101887D01*
Y215802D01*
Y215721D01*
Y215639D01*
X101805D01*
Y215558D01*
Y215476D01*
X101724D01*
Y215395D01*
Y215314D01*
Y215232D01*
X101642D01*
Y215151D01*
Y215069D01*
X101561D01*
Y214988D01*
Y214906D01*
Y214825D01*
X101479D01*
Y214743D01*
Y214662D01*
X101398D01*
Y214580D01*
Y214499D01*
Y214417D01*
X101317D01*
Y214336D01*
Y214254D01*
X101235D01*
Y214173D01*
Y214092D01*
X101154D01*
Y214010D01*
Y213929D01*
Y213847D01*
X101072D01*
Y213766D01*
Y213684D01*
Y213603D01*
X100991D01*
Y213521D01*
Y213440D01*
X100909D01*
Y213358D01*
Y213277D01*
Y213196D01*
X100828D01*
Y213114D01*
Y213033D01*
X100746D01*
Y212951D01*
Y212870D01*
Y212788D01*
X100665D01*
Y212707D01*
Y212625D01*
X100584D01*
Y212544D01*
Y212462D01*
Y212381D01*
X100502D01*
Y212299D01*
Y212218D01*
X100420D01*
Y212137D01*
Y212055D01*
Y211974D01*
X100339D01*
Y211892D01*
Y211811D01*
X100258D01*
Y211729D01*
Y211648D01*
X100176D01*
Y211566D01*
Y211485D01*
Y211403D01*
X100095D01*
Y211322D01*
Y211241D01*
Y211159D01*
X100013D01*
Y211078D01*
Y210996D01*
X99932D01*
Y210915D01*
Y210833D01*
Y210752D01*
X99850D01*
Y210670D01*
Y210589D01*
X99769D01*
Y210507D01*
Y210426D01*
X99687D01*
Y210345D01*
Y210263D01*
X99606D01*
Y210182D01*
Y210100D01*
Y210019D01*
X99524D01*
Y209937D01*
Y209856D01*
X99443D01*
Y209774D01*
Y209693D01*
X99362D01*
Y209611D01*
Y209530D01*
X99280D01*
Y209449D01*
Y209367D01*
X99199D01*
Y209286D01*
X99117D01*
Y209204D01*
Y209123D01*
X99036D01*
Y209041D01*
Y208960D01*
X98954D01*
Y208878D01*
X98873D01*
Y208797D01*
Y208715D01*
X98791D01*
Y208634D01*
X98710D01*
Y208552D01*
X98628D01*
Y208471D01*
X98547D01*
Y208389D01*
X98466D01*
Y208308D01*
X98384D01*
Y208227D01*
X98303D01*
Y208145D01*
X98221D01*
Y208064D01*
X98140D01*
Y207982D01*
X98058D01*
Y207901D01*
X97977D01*
Y207819D01*
X97814D01*
Y207738D01*
X97651D01*
Y207656D01*
X97570D01*
Y207575D01*
X97407D01*
Y207493D01*
X97244D01*
Y207412D01*
X97081D01*
Y207331D01*
X96836D01*
Y207249D01*
X96592D01*
Y207168D01*
X96429D01*
Y207086D01*
X96103D01*
Y207005D01*
X95777D01*
Y206923D01*
X95289D01*
Y206842D01*
X94230D01*
Y206760D01*
X93985D01*
Y206842D01*
X92845D01*
Y206923D01*
X92275D01*
Y207005D01*
X92030D01*
Y207086D01*
X91623D01*
Y207168D01*
X91379D01*
Y207249D01*
X91134D01*
Y207331D01*
X90890D01*
Y207412D01*
X90645D01*
Y207493D01*
X90483D01*
Y207575D01*
X90320D01*
Y207656D01*
X90157D01*
Y207738D01*
X89994D01*
Y207819D01*
X89831D01*
Y207901D01*
X89668D01*
Y207982D01*
X89587D01*
Y208064D01*
X89505D01*
Y208145D01*
X89342D01*
Y208227D01*
X89261D01*
Y208308D01*
X89179D01*
Y208389D01*
X89098D01*
Y208471D01*
X89016D01*
Y208552D01*
Y208634D01*
X88935D01*
Y208715D01*
X88853D01*
Y208797D01*
X88772D01*
Y208878D01*
Y208960D01*
X88691D01*
Y209041D01*
Y209123D01*
X88609D01*
Y209204D01*
Y209286D01*
X88528D01*
Y209367D01*
Y209449D01*
X88446D01*
Y209530D01*
Y209611D01*
X88365D01*
Y209693D01*
Y209774D01*
Y209856D01*
X88283D01*
Y209937D01*
Y210019D01*
X88202D01*
Y210100D01*
Y210182D01*
Y210263D01*
X88120D01*
Y210345D01*
Y210426D01*
Y210507D01*
Y210589D01*
X88039D01*
Y210670D01*
Y210752D01*
Y210833D01*
X87957D01*
Y210915D01*
Y210996D01*
Y211078D01*
X87876D01*
Y211159D01*
Y211241D01*
Y211322D01*
X87795D01*
Y211403D01*
Y211485D01*
Y211566D01*
X87713D01*
Y211648D01*
Y211729D01*
Y211811D01*
X87632D01*
Y211892D01*
Y211974D01*
Y212055D01*
Y212137D01*
X87550D01*
Y212218D01*
Y212299D01*
Y212381D01*
X87469D01*
Y212462D01*
Y212544D01*
Y212625D01*
X87387D01*
Y212707D01*
Y212788D01*
Y212870D01*
Y212951D01*
X87306D01*
Y213033D01*
Y213114D01*
Y213196D01*
X87224D01*
Y213277D01*
Y213358D01*
Y213440D01*
X87143D01*
Y213521D01*
Y213603D01*
Y213684D01*
X87061D01*
Y213766D01*
Y213847D01*
Y213929D01*
X86980D01*
Y214010D01*
Y214092D01*
Y214173D01*
X86898D01*
Y214254D01*
Y214336D01*
Y214417D01*
Y214499D01*
X86817D01*
Y214580D01*
Y214662D01*
Y214743D01*
X86735D01*
Y214825D01*
Y214906D01*
Y214988D01*
X86654D01*
Y215069D01*
Y215151D01*
Y215232D01*
X86573D01*
Y215314D01*
Y215395D01*
Y215476D01*
X86491D01*
Y215558D01*
Y215639D01*
Y215721D01*
X86410D01*
Y215802D01*
Y215884D01*
Y215965D01*
Y216047D01*
X86328D01*
Y216128D01*
Y216210D01*
Y216291D01*
X86247D01*
Y216372D01*
Y216454D01*
Y216535D01*
X86165D01*
Y216617D01*
Y216698D01*
Y216780D01*
X86084D01*
Y216861D01*
Y216943D01*
Y217024D01*
X86002D01*
Y217106D01*
Y217187D01*
Y217268D01*
X85921D01*
Y217350D01*
Y217431D01*
Y217513D01*
Y217594D01*
X85839D01*
Y217676D01*
Y217757D01*
Y217839D01*
X85758D01*
Y217920D01*
Y218002D01*
Y218083D01*
X85677D01*
Y218164D01*
Y218246D01*
Y218327D01*
X85595D01*
Y218409D01*
Y218490D01*
X85514D01*
Y218572D01*
Y218653D01*
Y218735D01*
Y218816D01*
X85432D01*
Y218898D01*
Y218979D01*
Y219061D01*
Y219142D01*
X85351D01*
Y219223D01*
Y219305D01*
Y219386D01*
Y219468D01*
Y219549D01*
Y219631D01*
Y219712D01*
Y219794D01*
Y219875D01*
X85432D01*
Y219957D01*
Y220038D01*
Y220120D01*
Y220201D01*
X85514D01*
Y220283D01*
Y220364D01*
X85595D01*
Y220445D01*
Y220527D01*
X85677D01*
Y220608D01*
X85758D01*
Y220690D01*
Y220771D01*
X85839D01*
Y220853D01*
X85921D01*
Y220934D01*
X86002D01*
Y221016D01*
Y221097D01*
X86084D01*
Y221179D01*
X86165D01*
Y221260D01*
X86247D01*
Y221341D01*
X86328D01*
Y221423D01*
X86410D01*
Y221504D01*
X86573D01*
Y221586D01*
X86654D01*
Y221667D01*
X86735D01*
Y221749D01*
X86817D01*
Y221830D01*
X86898D01*
Y221912D01*
X87061D01*
Y221993D01*
X87143D01*
Y222075D01*
X87224D01*
Y222156D01*
X87387D01*
Y222237D01*
X87469D01*
Y222319D01*
X87632D01*
Y222400D01*
X87713D01*
Y222482D01*
X87876D01*
Y222563D01*
X87957D01*
Y222645D01*
X88120D01*
Y222726D01*
X88283D01*
Y222808D01*
X88365D01*
Y222889D01*
X88528D01*
Y222971D01*
X88691D01*
Y223052D01*
X88853D01*
Y223133D01*
X89016D01*
Y223215D01*
X89179D01*
Y223296D01*
X89342D01*
Y223378D01*
X89505D01*
Y223459D01*
X89749D01*
Y223541D01*
X89912D01*
Y223622D01*
X90075D01*
Y223704D01*
X90320D01*
Y223785D01*
X90564D01*
Y223867D01*
X90808D01*
Y223948D01*
X91053D01*
Y224029D01*
X91297D01*
Y224111D01*
X91704D01*
Y224193D01*
X91949D01*
Y224274D01*
X92438D01*
Y224355D01*
X92763D01*
Y224437D01*
X93741D01*
Y224518D01*
X94881D01*
Y224437D01*
D02*
G37*
G36*
X83640Y219061D02*
Y218979D01*
Y218898D01*
X83722D01*
Y218816D01*
Y218735D01*
Y218653D01*
Y218572D01*
X83803D01*
Y218490D01*
Y218409D01*
Y218327D01*
Y218246D01*
X83885D01*
Y218164D01*
Y218083D01*
Y218002D01*
X83966D01*
Y217920D01*
Y217839D01*
Y217757D01*
X84047D01*
Y217676D01*
Y217594D01*
Y217513D01*
X84129D01*
Y217431D01*
Y217350D01*
Y217268D01*
X84210D01*
Y217187D01*
Y217106D01*
Y217024D01*
X84292D01*
Y216943D01*
Y216861D01*
Y216780D01*
X84373D01*
Y216698D01*
Y216617D01*
Y216535D01*
Y216454D01*
X84455D01*
Y216372D01*
Y216291D01*
Y216210D01*
X84536D01*
Y216128D01*
Y216047D01*
Y215965D01*
X84618D01*
Y215884D01*
Y215802D01*
Y215721D01*
X84699D01*
Y215639D01*
Y215558D01*
Y215476D01*
X84781D01*
Y215395D01*
Y215314D01*
Y215232D01*
Y215151D01*
X84862D01*
Y215069D01*
Y214988D01*
X84943D01*
Y214906D01*
Y214825D01*
Y214743D01*
Y214662D01*
X85025D01*
Y214580D01*
Y214499D01*
Y214417D01*
X85106D01*
Y214336D01*
Y214254D01*
Y214173D01*
X85188D01*
Y214092D01*
Y214010D01*
Y213929D01*
Y213847D01*
X85269D01*
Y213766D01*
Y213684D01*
X85351D01*
Y213603D01*
Y213521D01*
Y213440D01*
Y213358D01*
X85432D01*
Y213277D01*
Y213196D01*
Y213114D01*
X85514D01*
Y213033D01*
Y212951D01*
Y212870D01*
X85595D01*
Y212788D01*
Y212707D01*
Y212625D01*
Y212544D01*
X85677D01*
Y212462D01*
Y212381D01*
X85758D01*
Y212299D01*
Y212218D01*
Y212137D01*
Y212055D01*
X85839D01*
Y211974D01*
Y211892D01*
X85921D01*
Y211811D01*
Y211729D01*
Y211648D01*
Y211566D01*
X86002D01*
Y211485D01*
Y211403D01*
Y211322D01*
X86084D01*
Y211241D01*
Y211159D01*
Y211078D01*
X86165D01*
Y210996D01*
Y210915D01*
Y210833D01*
Y210752D01*
X86247D01*
Y210670D01*
Y210589D01*
X86328D01*
Y210507D01*
Y210426D01*
Y210345D01*
Y210263D01*
X86410D01*
Y210182D01*
Y210100D01*
Y210019D01*
X86491D01*
Y209937D01*
Y209856D01*
Y209774D01*
X86573D01*
Y209693D01*
Y209611D01*
Y209530D01*
X86654D01*
Y209449D01*
Y209367D01*
Y209286D01*
X86735D01*
Y209204D01*
Y209123D01*
Y209041D01*
X86817D01*
Y208960D01*
Y208878D01*
X86898D01*
Y208797D01*
Y208715D01*
X86980D01*
Y208634D01*
Y208552D01*
X87061D01*
Y208471D01*
Y208389D01*
X87143D01*
Y208308D01*
Y208227D01*
X87224D01*
Y208145D01*
Y208064D01*
X87306D01*
Y207982D01*
Y207901D01*
X87387D01*
Y207819D01*
X87469D01*
Y207738D01*
X87550D01*
Y207656D01*
Y207575D01*
X87632D01*
Y207493D01*
X87713D01*
Y207412D01*
X87795D01*
Y207331D01*
X87876D01*
Y207249D01*
X87713D01*
Y207168D01*
X87550D01*
Y207086D01*
X87306D01*
Y207005D01*
X87143D01*
Y206923D01*
X86980D01*
Y206842D01*
X86735D01*
Y206760D01*
X86573D01*
Y206679D01*
X86328D01*
Y206597D01*
X86165D01*
Y206516D01*
X85921D01*
Y206434D01*
X85677D01*
Y206353D01*
X85351D01*
Y206272D01*
X84292D01*
Y206353D01*
X84129D01*
Y206434D01*
X83966D01*
Y206516D01*
X83885D01*
Y206597D01*
X83803D01*
Y206679D01*
X83640D01*
Y206760D01*
X83559D01*
Y206842D01*
X83477D01*
Y206923D01*
X83396D01*
Y207005D01*
X83314D01*
Y207086D01*
Y207168D01*
X83233D01*
Y207249D01*
X83151D01*
Y207331D01*
X83070D01*
Y207412D01*
X82988D01*
Y207493D01*
Y207575D01*
X82907D01*
Y207656D01*
X82825D01*
Y207738D01*
X82744D01*
Y207819D01*
Y207901D01*
X82663D01*
Y207982D01*
X82581D01*
Y208064D01*
Y208145D01*
X82500D01*
Y208227D01*
X82418D01*
Y208308D01*
Y208389D01*
X82337D01*
Y208471D01*
X82255D01*
Y208552D01*
Y208634D01*
X82174D01*
Y208715D01*
X82092D01*
Y208797D01*
Y208878D01*
X82011D01*
Y208960D01*
X81929D01*
Y209041D01*
Y209123D01*
X81848D01*
Y209204D01*
X81767D01*
Y209286D01*
Y209367D01*
X81685D01*
Y209449D01*
X81604D01*
Y209530D01*
Y209611D01*
X81522D01*
Y209693D01*
Y209774D01*
X81441D01*
Y209856D01*
X81359D01*
Y209937D01*
Y210019D01*
X81278D01*
Y210100D01*
X81196D01*
Y210182D01*
Y210263D01*
X81115D01*
Y210345D01*
Y210426D01*
X81033D01*
Y210507D01*
X80952D01*
Y210589D01*
Y210670D01*
X80870D01*
Y210752D01*
Y210833D01*
X80789D01*
Y210915D01*
X80708D01*
Y210996D01*
Y211078D01*
X80626D01*
Y211159D01*
X80545D01*
Y211241D01*
Y211322D01*
X80463D01*
Y211403D01*
Y211485D01*
X80382D01*
Y211566D01*
X80300D01*
Y211648D01*
Y211729D01*
X80219D01*
Y211811D01*
Y211892D01*
X80137D01*
Y211974D01*
X80056D01*
Y212055D01*
Y212137D01*
X79975D01*
Y212218D01*
Y212299D01*
X79893D01*
Y212381D01*
X79812D01*
Y212462D01*
Y212544D01*
X79730D01*
Y212625D01*
X79649D01*
Y212707D01*
Y212788D01*
X79567D01*
Y212870D01*
Y212951D01*
X79486D01*
Y213033D01*
Y213114D01*
X79404D01*
Y213196D01*
Y213277D01*
X79323D01*
Y213358D01*
Y213440D01*
X79241D01*
Y213521D01*
Y213603D01*
Y213684D01*
X79160D01*
Y213766D01*
Y213847D01*
X79078D01*
Y213929D01*
Y214010D01*
X78997D01*
Y214092D01*
Y214173D01*
Y214254D01*
X78916D01*
Y214336D01*
Y214417D01*
Y214499D01*
X78834D01*
Y214580D01*
Y214662D01*
X78753D01*
Y214743D01*
Y214825D01*
Y214906D01*
Y214988D01*
X78671D01*
Y215069D01*
Y215151D01*
Y215232D01*
Y215314D01*
Y215395D01*
Y215476D01*
Y215558D01*
Y215639D01*
Y215721D01*
Y215802D01*
Y215884D01*
Y215965D01*
Y216047D01*
Y216128D01*
X78753D01*
Y216210D01*
Y216291D01*
X78834D01*
Y216372D01*
Y216454D01*
X78916D01*
Y216535D01*
Y216617D01*
X78997D01*
Y216698D01*
X79078D01*
Y216780D01*
X79160D01*
Y216861D01*
X79241D01*
Y216943D01*
X79323D01*
Y217024D01*
X79404D01*
Y217106D01*
X79486D01*
Y217187D01*
X79649D01*
Y217268D01*
X79730D01*
Y217350D01*
X79812D01*
Y217431D01*
X79975D01*
Y217513D01*
X80137D01*
Y217594D01*
X80219D01*
Y217676D01*
X80382D01*
Y217757D01*
X80545D01*
Y217839D01*
X80708D01*
Y217920D01*
X80870D01*
Y218002D01*
X80952D01*
Y218083D01*
X81196D01*
Y218164D01*
X81359D01*
Y218246D01*
X81522D01*
Y218327D01*
X81685D01*
Y218409D01*
X81848D01*
Y218490D01*
X82092D01*
Y218572D01*
X82255D01*
Y218653D01*
X82500D01*
Y218735D01*
X82663D01*
Y218816D01*
X82907D01*
Y218898D01*
X83070D01*
Y218979D01*
X83314D01*
Y219061D01*
X83559D01*
Y219142D01*
X83640D01*
Y219061D01*
D02*
G37*
G36*
X105145Y218735D02*
X105308D01*
Y218653D01*
X105552D01*
Y218572D01*
X105715D01*
Y218490D01*
X105878D01*
Y218409D01*
X106123D01*
Y218327D01*
X106286D01*
Y218246D01*
X106530D01*
Y218164D01*
X106611D01*
Y218083D01*
X106856D01*
Y218002D01*
X107019D01*
Y217920D01*
X107182D01*
Y217839D01*
X107344D01*
Y217757D01*
X107507D01*
Y217676D01*
X107752D01*
Y217594D01*
X107833D01*
Y217513D01*
X107996D01*
Y217431D01*
X108159D01*
Y217350D01*
X108322D01*
Y217268D01*
X108485D01*
Y217187D01*
X108566D01*
Y217106D01*
X108729D01*
Y217024D01*
X108892D01*
Y216943D01*
X108974D01*
Y216861D01*
X109137D01*
Y216780D01*
X109218D01*
Y216698D01*
X109381D01*
Y216617D01*
X109462D01*
Y216535D01*
X109544D01*
Y216454D01*
X109625D01*
Y216372D01*
X109707D01*
Y216291D01*
X109788D01*
Y216210D01*
X109870D01*
Y216128D01*
Y216047D01*
X109951D01*
Y215965D01*
Y215884D01*
X110033D01*
Y215802D01*
Y215721D01*
Y215639D01*
Y215558D01*
Y215476D01*
Y215395D01*
Y215314D01*
Y215232D01*
X109951D01*
Y215151D01*
Y215069D01*
X109870D01*
Y214988D01*
Y214906D01*
Y214825D01*
X109788D01*
Y214743D01*
Y214662D01*
X109707D01*
Y214580D01*
Y214499D01*
X109625D01*
Y214417D01*
Y214336D01*
X109544D01*
Y214254D01*
Y214173D01*
X109462D01*
Y214092D01*
Y214010D01*
X109381D01*
Y213929D01*
X109300D01*
Y213847D01*
Y213766D01*
X109218D01*
Y213684D01*
Y213603D01*
X109137D01*
Y213521D01*
Y213440D01*
X109055D01*
Y213358D01*
Y213277D01*
X108974D01*
Y213196D01*
X108892D01*
Y213114D01*
Y213033D01*
X108811D01*
Y212951D01*
Y212870D01*
X108729D01*
Y212788D01*
Y212707D01*
X108648D01*
Y212625D01*
Y212544D01*
X108566D01*
Y212462D01*
Y212381D01*
X108485D01*
Y212299D01*
Y212218D01*
X108403D01*
Y212137D01*
X108322D01*
Y212055D01*
Y211974D01*
X108240D01*
Y211892D01*
Y211811D01*
X108159D01*
Y211729D01*
Y211648D01*
X108078D01*
Y211566D01*
Y211485D01*
X107996D01*
Y211403D01*
X107915D01*
Y211322D01*
Y211241D01*
X107833D01*
Y211159D01*
Y211078D01*
X107752D01*
Y210996D01*
Y210915D01*
X107670D01*
Y210833D01*
Y210752D01*
X107589D01*
Y210670D01*
X107507D01*
Y210589D01*
Y210507D01*
X107426D01*
Y210426D01*
Y210345D01*
X107344D01*
Y210263D01*
Y210182D01*
X107263D01*
Y210100D01*
Y210019D01*
X107182D01*
Y209937D01*
Y209856D01*
X107100D01*
Y209774D01*
Y209693D01*
X107019D01*
Y209611D01*
X106937D01*
Y209530D01*
Y209449D01*
X106856D01*
Y209367D01*
Y209286D01*
X106774D01*
Y209204D01*
Y209123D01*
X106693D01*
Y209041D01*
Y208960D01*
X106611D01*
Y208878D01*
X106530D01*
Y208797D01*
Y208715D01*
X106448D01*
Y208634D01*
Y208552D01*
X106367D01*
Y208471D01*
Y208389D01*
X106286D01*
Y208308D01*
Y208227D01*
X106204D01*
Y208145D01*
X106123D01*
Y208064D01*
X106041D01*
Y207982D01*
Y207901D01*
X105960D01*
Y207819D01*
X105878D01*
Y207738D01*
X105797D01*
Y207656D01*
X105715D01*
Y207575D01*
Y207493D01*
X105634D01*
Y207412D01*
X105552D01*
Y207331D01*
X105471D01*
Y207249D01*
X105389D01*
Y207168D01*
X105308D01*
Y207086D01*
X105227D01*
Y207005D01*
X105145D01*
Y206923D01*
X105064D01*
Y206842D01*
X104982D01*
Y206760D01*
X104901D01*
Y206679D01*
X104819D01*
Y206597D01*
X104656D01*
Y206516D01*
X104575D01*
Y206434D01*
X104412D01*
Y206353D01*
X104249D01*
Y206272D01*
X104005D01*
Y206190D01*
X102864D01*
Y206272D01*
X102457D01*
Y206353D01*
X102131D01*
Y206434D01*
X101887D01*
Y206516D01*
X101561D01*
Y206597D01*
X101398D01*
Y206679D01*
X101154D01*
Y206760D01*
X100909D01*
Y206842D01*
X100746D01*
Y206923D01*
X100502D01*
Y207005D01*
X100339D01*
Y207086D01*
X100095D01*
Y207168D01*
X99932D01*
Y207249D01*
X99850D01*
Y207331D01*
X99932D01*
Y207412D01*
X100013D01*
Y207493D01*
Y207575D01*
X100095D01*
Y207656D01*
X100176D01*
Y207738D01*
X100258D01*
Y207819D01*
X100339D01*
Y207901D01*
Y207982D01*
X100420D01*
Y208064D01*
X100502D01*
Y208145D01*
Y208227D01*
X100584D01*
Y208308D01*
X100665D01*
Y208389D01*
Y208471D01*
X100746D01*
Y208552D01*
Y208634D01*
X100828D01*
Y208715D01*
Y208797D01*
X100909D01*
Y208878D01*
Y208960D01*
X100991D01*
Y209041D01*
Y209123D01*
X101072D01*
Y209204D01*
Y209286D01*
X101154D01*
Y209367D01*
Y209449D01*
X101235D01*
Y209530D01*
Y209611D01*
X101317D01*
Y209693D01*
Y209774D01*
Y209856D01*
X101398D01*
Y209937D01*
Y210019D01*
X101479D01*
Y210100D01*
Y210182D01*
X101561D01*
Y210263D01*
Y210345D01*
Y210426D01*
X101642D01*
Y210507D01*
Y210589D01*
X101724D01*
Y210670D01*
Y210752D01*
Y210833D01*
X101805D01*
Y210915D01*
Y210996D01*
X101887D01*
Y211078D01*
Y211159D01*
Y211241D01*
X101968D01*
Y211322D01*
Y211403D01*
X102050D01*
Y211485D01*
Y211566D01*
Y211648D01*
X102131D01*
Y211729D01*
Y211811D01*
X102213D01*
Y211892D01*
Y211974D01*
Y212055D01*
X102294D01*
Y212137D01*
Y212218D01*
X102375D01*
Y212299D01*
Y212381D01*
Y212462D01*
X102457D01*
Y212544D01*
Y212625D01*
X102538D01*
Y212707D01*
Y212788D01*
Y212870D01*
X102620D01*
Y212951D01*
Y213033D01*
X102701D01*
Y213114D01*
Y213196D01*
Y213277D01*
X102783D01*
Y213358D01*
Y213440D01*
X102864D01*
Y213521D01*
Y213603D01*
Y213684D01*
X102946D01*
Y213766D01*
Y213847D01*
X103027D01*
Y213929D01*
Y214010D01*
Y214092D01*
X103109D01*
Y214173D01*
Y214254D01*
X103190D01*
Y214336D01*
Y214417D01*
X103272D01*
Y214499D01*
Y214580D01*
Y214662D01*
X103353D01*
Y214743D01*
Y214825D01*
Y214906D01*
X103435D01*
Y214988D01*
Y215069D01*
X103516D01*
Y215151D01*
Y215232D01*
X103597D01*
Y215314D01*
Y215395D01*
Y215476D01*
X103679D01*
Y215558D01*
Y215639D01*
X103760D01*
Y215721D01*
Y215802D01*
Y215884D01*
X103842D01*
Y215965D01*
Y216047D01*
X103923D01*
Y216128D01*
Y216210D01*
Y216291D01*
X104005D01*
Y216372D01*
Y216454D01*
X104086D01*
Y216535D01*
Y216617D01*
Y216698D01*
X104168D01*
Y216780D01*
Y216861D01*
X104249D01*
Y216943D01*
Y217024D01*
Y217106D01*
X104331D01*
Y217187D01*
Y217268D01*
X104412D01*
Y217350D01*
Y217431D01*
Y217513D01*
X104493D01*
Y217594D01*
Y217676D01*
X104575D01*
Y217757D01*
Y217839D01*
Y217920D01*
X104656D01*
Y218002D01*
Y218083D01*
Y218164D01*
X104738D01*
Y218246D01*
Y218327D01*
Y218409D01*
X104819D01*
Y218490D01*
Y218572D01*
Y218653D01*
X104901D01*
Y218735D01*
Y218816D01*
X105145D01*
Y218735D01*
D02*
G37*
G36*
X77857Y212462D02*
Y212381D01*
X77938D01*
Y212299D01*
Y212218D01*
X78019D01*
Y212137D01*
Y212055D01*
X78101D01*
Y211974D01*
Y211892D01*
X78182D01*
Y211811D01*
Y211729D01*
X78264D01*
Y211648D01*
X78345D01*
Y211566D01*
Y211485D01*
X78427D01*
Y211403D01*
X78508D01*
Y211322D01*
Y211241D01*
X78590D01*
Y211159D01*
Y211078D01*
X78671D01*
Y210996D01*
X78753D01*
Y210915D01*
Y210833D01*
X78834D01*
Y210752D01*
Y210670D01*
X78916D01*
Y210589D01*
X78997D01*
Y210507D01*
Y210426D01*
X79078D01*
Y210345D01*
Y210263D01*
X79160D01*
Y210182D01*
X79241D01*
Y210100D01*
Y210019D01*
X79323D01*
Y209937D01*
Y209856D01*
X79404D01*
Y209774D01*
X79486D01*
Y209693D01*
Y209611D01*
X79567D01*
Y209530D01*
X79649D01*
Y209449D01*
Y209367D01*
X79730D01*
Y209286D01*
Y209204D01*
X79812D01*
Y209123D01*
X79893D01*
Y209041D01*
Y208960D01*
X79975D01*
Y208878D01*
X80056D01*
Y208797D01*
Y208715D01*
X80137D01*
Y208634D01*
Y208552D01*
X80219D01*
Y208471D01*
X80300D01*
Y208389D01*
Y208308D01*
X80382D01*
Y208227D01*
X80463D01*
Y208145D01*
Y208064D01*
X80545D01*
Y207982D01*
X80626D01*
Y207901D01*
Y207819D01*
X80708D01*
Y207738D01*
X80789D01*
Y207656D01*
Y207575D01*
X80708D01*
Y207493D01*
X80463D01*
Y207412D01*
X80300D01*
Y207331D01*
X80056D01*
Y207249D01*
X79893D01*
Y207168D01*
X79730D01*
Y207086D01*
X79486D01*
Y207005D01*
X79323D01*
Y206923D01*
X79078D01*
Y206842D01*
X78916D01*
Y206760D01*
X78671D01*
Y206679D01*
X78508D01*
Y206597D01*
X78345D01*
Y206516D01*
X78101D01*
Y206434D01*
X77938D01*
Y206353D01*
X77775D01*
Y206272D01*
X77531D01*
Y206190D01*
X77368D01*
Y206109D01*
X77123D01*
Y206027D01*
X76960D01*
Y205946D01*
X76716D01*
Y205864D01*
X76553D01*
Y205783D01*
X76309D01*
Y205701D01*
X76064D01*
Y205620D01*
X75820D01*
Y205539D01*
X75250D01*
Y205620D01*
Y205701D01*
Y205783D01*
X75168D01*
Y205864D01*
Y205946D01*
Y206027D01*
Y206109D01*
Y206190D01*
Y206272D01*
Y206353D01*
Y206434D01*
X75087D01*
Y206516D01*
Y206597D01*
Y206679D01*
Y206760D01*
Y206842D01*
Y206923D01*
Y207005D01*
Y207086D01*
Y207168D01*
Y207249D01*
X75168D01*
Y207331D01*
Y207412D01*
Y207493D01*
Y207575D01*
Y207656D01*
Y207738D01*
Y207819D01*
Y207901D01*
Y207982D01*
X75250D01*
Y208064D01*
Y208145D01*
Y208227D01*
Y208308D01*
Y208389D01*
X75331D01*
Y208471D01*
Y208552D01*
Y208634D01*
Y208715D01*
X75413D01*
Y208797D01*
Y208878D01*
Y208960D01*
Y209041D01*
X75494D01*
Y209123D01*
Y209204D01*
Y209286D01*
X75576D01*
Y209367D01*
Y209449D01*
Y209530D01*
X75657D01*
Y209611D01*
Y209693D01*
X75739D01*
Y209774D01*
Y209856D01*
Y209937D01*
X75820D01*
Y210019D01*
Y210100D01*
X75902D01*
Y210182D01*
Y210263D01*
X75983D01*
Y210345D01*
Y210426D01*
X76064D01*
Y210507D01*
X76146D01*
Y210589D01*
Y210670D01*
X76227D01*
Y210752D01*
Y210833D01*
X76309D01*
Y210915D01*
X76390D01*
Y210996D01*
Y211078D01*
X76472D01*
Y211159D01*
X76553D01*
Y211241D01*
Y211322D01*
X76635D01*
Y211403D01*
X76716D01*
Y211485D01*
X76798D01*
Y211566D01*
X76879D01*
Y211648D01*
Y211729D01*
X76960D01*
Y211811D01*
X77042D01*
Y211892D01*
X77123D01*
Y211974D01*
X77205D01*
Y212055D01*
X77286D01*
Y212137D01*
X77368D01*
Y212218D01*
X77449D01*
Y212299D01*
X77531D01*
Y212381D01*
X77694D01*
Y212462D01*
X77775D01*
Y212544D01*
X77857D01*
Y212462D01*
D02*
G37*
G36*
X110521Y212299D02*
X110603D01*
Y212218D01*
X110766D01*
Y212137D01*
Y212055D01*
X110929D01*
Y211974D01*
X111010D01*
Y211892D01*
X111092D01*
Y211811D01*
X111173D01*
Y211729D01*
Y211648D01*
X111255D01*
Y211566D01*
X111336D01*
Y211485D01*
X111417D01*
Y211403D01*
X111499D01*
Y211322D01*
X111580D01*
Y211241D01*
Y211159D01*
X111662D01*
Y211078D01*
X111743D01*
Y210996D01*
X111825D01*
Y210915D01*
Y210833D01*
X111906D01*
Y210752D01*
X111988D01*
Y210670D01*
Y210589D01*
X112069D01*
Y210507D01*
Y210426D01*
X112151D01*
Y210345D01*
Y210263D01*
X112232D01*
Y210182D01*
Y210100D01*
X112313D01*
Y210019D01*
Y209937D01*
X112395D01*
Y209856D01*
Y209774D01*
X112476D01*
Y209693D01*
Y209611D01*
X112558D01*
Y209530D01*
Y209449D01*
Y209367D01*
X112639D01*
Y209286D01*
Y209204D01*
Y209123D01*
X112721D01*
Y209041D01*
Y208960D01*
Y208878D01*
X112802D01*
Y208797D01*
Y208715D01*
Y208634D01*
Y208552D01*
Y208471D01*
X112884D01*
Y208389D01*
Y208308D01*
Y208227D01*
Y208145D01*
X112965D01*
Y208064D01*
Y207982D01*
Y207901D01*
Y207819D01*
Y207738D01*
Y207656D01*
Y207575D01*
Y207493D01*
Y207412D01*
X113047D01*
Y207331D01*
Y207249D01*
Y207168D01*
Y207086D01*
Y207005D01*
Y206923D01*
Y206842D01*
Y206760D01*
Y206679D01*
Y206597D01*
Y206516D01*
Y206434D01*
Y206353D01*
Y206272D01*
X112965D01*
Y206190D01*
Y206109D01*
Y206027D01*
Y205946D01*
Y205864D01*
Y205783D01*
Y205701D01*
X112884D01*
Y205620D01*
Y205539D01*
Y205457D01*
X112802D01*
Y205376D01*
Y205294D01*
X112558D01*
Y205376D01*
X112232D01*
Y205457D01*
X111988D01*
Y205539D01*
X111743D01*
Y205620D01*
X111499D01*
Y205701D01*
X111336D01*
Y205783D01*
X111092D01*
Y205864D01*
X110929D01*
Y205946D01*
X110684D01*
Y206027D01*
X110521D01*
Y206109D01*
X110358D01*
Y206190D01*
X110114D01*
Y206272D01*
X109951D01*
Y206353D01*
X109788D01*
Y206434D01*
X109544D01*
Y206516D01*
X109381D01*
Y206597D01*
X109218D01*
Y206679D01*
X108974D01*
Y206760D01*
X108811D01*
Y206842D01*
X108566D01*
Y206923D01*
X108403D01*
Y207005D01*
X108240D01*
Y207086D01*
X107996D01*
Y207168D01*
X107833D01*
Y207249D01*
X107670D01*
Y207331D01*
X107752D01*
Y207412D01*
Y207493D01*
X107833D01*
Y207575D01*
Y207656D01*
X107915D01*
Y207738D01*
Y207819D01*
X107996D01*
Y207901D01*
X108078D01*
Y207982D01*
Y208064D01*
X108159D01*
Y208145D01*
Y208227D01*
X108240D01*
Y208308D01*
Y208389D01*
X108322D01*
Y208471D01*
Y208552D01*
X108403D01*
Y208634D01*
X108485D01*
Y208715D01*
Y208797D01*
X108566D01*
Y208878D01*
Y208960D01*
X108648D01*
Y209041D01*
Y209123D01*
X108729D01*
Y209204D01*
Y209286D01*
X108811D01*
Y209367D01*
Y209449D01*
X108892D01*
Y209530D01*
X108974D01*
Y209611D01*
Y209693D01*
X109055D01*
Y209774D01*
Y209856D01*
X109137D01*
Y209937D01*
Y210019D01*
X109218D01*
Y210100D01*
Y210182D01*
X109300D01*
Y210263D01*
Y210345D01*
X109381D01*
Y210426D01*
X109462D01*
Y210507D01*
Y210589D01*
X109544D01*
Y210670D01*
Y210752D01*
X109625D01*
Y210833D01*
Y210915D01*
X109707D01*
Y210996D01*
Y211078D01*
X109788D01*
Y211159D01*
X109870D01*
Y211241D01*
Y211322D01*
X109951D01*
Y211403D01*
Y211485D01*
X110033D01*
Y211566D01*
Y211648D01*
X110114D01*
Y211729D01*
Y211811D01*
X110196D01*
Y211892D01*
Y211974D01*
X110277D01*
Y212055D01*
X110358D01*
Y212137D01*
Y212218D01*
X110440D01*
Y212299D01*
Y212381D01*
X110521D01*
Y212299D01*
D02*
G37*
G36*
X94881Y161445D02*
X95859D01*
Y161363D01*
X96266D01*
Y161282D01*
X96755D01*
Y161200D01*
X96999D01*
Y161119D01*
X97407D01*
Y161037D01*
X97651D01*
Y160956D01*
X97977D01*
Y160874D01*
X98221D01*
Y160793D01*
X98466D01*
Y160712D01*
X98710D01*
Y160630D01*
X98873D01*
Y160549D01*
X99117D01*
Y160467D01*
X99362D01*
Y160386D01*
X99524D01*
Y160304D01*
X99687D01*
Y160223D01*
X99850D01*
Y160141D01*
X100013D01*
Y160060D01*
X100176D01*
Y159978D01*
X100339D01*
Y159897D01*
X100502D01*
Y159816D01*
X100665D01*
Y159734D01*
X100828D01*
Y159653D01*
X100909D01*
Y159571D01*
X101072D01*
Y159490D01*
X101235D01*
Y159408D01*
X101317D01*
Y159327D01*
X101479D01*
Y159245D01*
X101561D01*
Y159164D01*
X101724D01*
Y159082D01*
X101805D01*
Y159001D01*
X101887D01*
Y158920D01*
X102050D01*
Y158838D01*
X102131D01*
Y158757D01*
X102213D01*
Y158675D01*
X102294D01*
Y158594D01*
X102375D01*
Y158512D01*
X102457D01*
Y158431D01*
X102538D01*
Y158349D01*
X102620D01*
Y158268D01*
X102701D01*
Y158186D01*
X102783D01*
Y158105D01*
X102864D01*
Y158024D01*
Y157942D01*
X102946D01*
Y157861D01*
X103027D01*
Y157779D01*
Y157698D01*
X103109D01*
Y157616D01*
Y157535D01*
X103190D01*
Y157453D01*
Y157372D01*
Y157290D01*
X103272D01*
Y157209D01*
Y157127D01*
Y157046D01*
Y156965D01*
Y156883D01*
Y156802D01*
Y156720D01*
Y156639D01*
Y156557D01*
Y156476D01*
Y156394D01*
Y156313D01*
X103190D01*
Y156231D01*
Y156150D01*
Y156069D01*
X103109D01*
Y155987D01*
Y155905D01*
Y155824D01*
Y155743D01*
X103027D01*
Y155661D01*
Y155580D01*
Y155498D01*
X102946D01*
Y155417D01*
Y155335D01*
X102864D01*
Y155254D01*
Y155172D01*
Y155091D01*
X102783D01*
Y155009D01*
Y154928D01*
X102701D01*
Y154847D01*
Y154765D01*
Y154684D01*
X102620D01*
Y154602D01*
Y154521D01*
X102538D01*
Y154439D01*
Y154358D01*
Y154276D01*
X102457D01*
Y154195D01*
Y154113D01*
Y154032D01*
X102375D01*
Y153951D01*
Y153869D01*
X102294D01*
Y153788D01*
Y153706D01*
Y153625D01*
X102213D01*
Y153543D01*
Y153462D01*
X102131D01*
Y153380D01*
Y153299D01*
X102050D01*
Y153217D01*
Y153136D01*
Y153054D01*
X101968D01*
Y152973D01*
Y152892D01*
X101887D01*
Y152810D01*
Y152729D01*
Y152647D01*
X101805D01*
Y152566D01*
Y152484D01*
X101724D01*
Y152403D01*
Y152321D01*
Y152240D01*
X101642D01*
Y152158D01*
Y152077D01*
X101561D01*
Y151996D01*
Y151914D01*
Y151833D01*
X101479D01*
Y151751D01*
Y151670D01*
X101398D01*
Y151588D01*
Y151507D01*
Y151425D01*
X101317D01*
Y151344D01*
Y151262D01*
X101235D01*
Y151181D01*
Y151100D01*
X101154D01*
Y151018D01*
Y150937D01*
Y150855D01*
X101072D01*
Y150774D01*
Y150692D01*
Y150611D01*
X100991D01*
Y150529D01*
Y150448D01*
X100909D01*
Y150366D01*
Y150285D01*
Y150203D01*
X100828D01*
Y150122D01*
Y150040D01*
X100746D01*
Y149959D01*
Y149878D01*
Y149796D01*
X100665D01*
Y149715D01*
Y149633D01*
X100584D01*
Y149552D01*
Y149470D01*
Y149389D01*
X100502D01*
Y149307D01*
Y149226D01*
X100420D01*
Y149144D01*
Y149063D01*
Y148982D01*
X100339D01*
Y148900D01*
Y148819D01*
X100258D01*
Y148737D01*
Y148656D01*
X100176D01*
Y148574D01*
Y148493D01*
Y148411D01*
X100095D01*
Y148330D01*
Y148248D01*
Y148167D01*
X100013D01*
Y148085D01*
Y148004D01*
X99932D01*
Y147923D01*
Y147841D01*
Y147760D01*
X99850D01*
Y147678D01*
Y147597D01*
X99769D01*
Y147515D01*
Y147434D01*
X99687D01*
Y147352D01*
Y147271D01*
X99606D01*
Y147189D01*
Y147108D01*
Y147027D01*
X99524D01*
Y146945D01*
Y146864D01*
X99443D01*
Y146782D01*
Y146701D01*
X99362D01*
Y146619D01*
Y146538D01*
X99280D01*
Y146456D01*
Y146375D01*
X99199D01*
Y146293D01*
X99117D01*
Y146212D01*
Y146131D01*
X99036D01*
Y146049D01*
Y145968D01*
X98954D01*
Y145886D01*
X98873D01*
Y145805D01*
Y145723D01*
X98791D01*
Y145642D01*
X98710D01*
Y145560D01*
X98628D01*
Y145479D01*
X98547D01*
Y145397D01*
X98466D01*
Y145316D01*
X98384D01*
Y145235D01*
X98303D01*
Y145153D01*
X98221D01*
Y145072D01*
X98140D01*
Y144990D01*
X98058D01*
Y144909D01*
X97977D01*
Y144827D01*
X97814D01*
Y144746D01*
X97651D01*
Y144664D01*
X97570D01*
Y144583D01*
X97407D01*
Y144501D01*
X97244D01*
Y144420D01*
X97081D01*
Y144338D01*
X96836D01*
Y144257D01*
X96592D01*
Y144176D01*
X96429D01*
Y144094D01*
X96103D01*
Y144013D01*
X95777D01*
Y143931D01*
X95289D01*
Y143850D01*
X94230D01*
Y143768D01*
X93985D01*
Y143850D01*
X92845D01*
Y143931D01*
X92275D01*
Y144013D01*
X92030D01*
Y144094D01*
X91623D01*
Y144176D01*
X91379D01*
Y144257D01*
X91134D01*
Y144338D01*
X90890D01*
Y144420D01*
X90645D01*
Y144501D01*
X90483D01*
Y144583D01*
X90320D01*
Y144664D01*
X90157D01*
Y144746D01*
X89994D01*
Y144827D01*
X89831D01*
Y144909D01*
X89668D01*
Y144990D01*
X89587D01*
Y145072D01*
X89505D01*
Y145153D01*
X89342D01*
Y145235D01*
X89261D01*
Y145316D01*
X89179D01*
Y145397D01*
X89098D01*
Y145479D01*
X89016D01*
Y145560D01*
Y145642D01*
X88935D01*
Y145723D01*
X88853D01*
Y145805D01*
X88772D01*
Y145886D01*
Y145968D01*
X88691D01*
Y146049D01*
Y146131D01*
X88609D01*
Y146212D01*
Y146293D01*
X88528D01*
Y146375D01*
Y146456D01*
X88446D01*
Y146538D01*
Y146619D01*
X88365D01*
Y146701D01*
Y146782D01*
Y146864D01*
X88283D01*
Y146945D01*
Y147027D01*
X88202D01*
Y147108D01*
Y147189D01*
Y147271D01*
X88120D01*
Y147352D01*
Y147434D01*
Y147515D01*
Y147597D01*
X88039D01*
Y147678D01*
Y147760D01*
Y147841D01*
X87957D01*
Y147923D01*
Y148004D01*
Y148085D01*
X87876D01*
Y148167D01*
Y148248D01*
Y148330D01*
X87795D01*
Y148411D01*
Y148493D01*
Y148574D01*
X87713D01*
Y148656D01*
Y148737D01*
Y148819D01*
X87632D01*
Y148900D01*
Y148982D01*
Y149063D01*
Y149144D01*
X87550D01*
Y149226D01*
Y149307D01*
Y149389D01*
X87469D01*
Y149470D01*
Y149552D01*
Y149633D01*
X87387D01*
Y149715D01*
Y149796D01*
Y149878D01*
Y149959D01*
X87306D01*
Y150040D01*
Y150122D01*
Y150203D01*
X87224D01*
Y150285D01*
Y150366D01*
Y150448D01*
X87143D01*
Y150529D01*
Y150611D01*
Y150692D01*
X87061D01*
Y150774D01*
Y150855D01*
Y150937D01*
X86980D01*
Y151018D01*
Y151100D01*
Y151181D01*
X86898D01*
Y151262D01*
Y151344D01*
Y151425D01*
Y151507D01*
X86817D01*
Y151588D01*
Y151670D01*
Y151751D01*
X86735D01*
Y151833D01*
Y151914D01*
Y151996D01*
X86654D01*
Y152077D01*
Y152158D01*
Y152240D01*
X86573D01*
Y152321D01*
Y152403D01*
Y152484D01*
X86491D01*
Y152566D01*
Y152647D01*
Y152729D01*
X86410D01*
Y152810D01*
Y152892D01*
Y152973D01*
Y153054D01*
X86328D01*
Y153136D01*
Y153217D01*
Y153299D01*
X86247D01*
Y153380D01*
Y153462D01*
Y153543D01*
X86165D01*
Y153625D01*
Y153706D01*
Y153788D01*
X86084D01*
Y153869D01*
Y153951D01*
Y154032D01*
X86002D01*
Y154113D01*
Y154195D01*
Y154276D01*
X85921D01*
Y154358D01*
Y154439D01*
Y154521D01*
Y154602D01*
X85839D01*
Y154684D01*
Y154765D01*
Y154847D01*
X85758D01*
Y154928D01*
Y155009D01*
Y155091D01*
X85677D01*
Y155172D01*
Y155254D01*
Y155335D01*
X85595D01*
Y155417D01*
Y155498D01*
X85514D01*
Y155580D01*
Y155661D01*
Y155743D01*
Y155824D01*
X85432D01*
Y155905D01*
Y155987D01*
Y156069D01*
Y156150D01*
X85351D01*
Y156231D01*
Y156313D01*
Y156394D01*
Y156476D01*
Y156557D01*
Y156639D01*
Y156720D01*
Y156802D01*
Y156883D01*
X85432D01*
Y156965D01*
Y157046D01*
Y157127D01*
Y157209D01*
X85514D01*
Y157290D01*
Y157372D01*
X85595D01*
Y157453D01*
Y157535D01*
X85677D01*
Y157616D01*
X85758D01*
Y157698D01*
Y157779D01*
X85839D01*
Y157861D01*
X85921D01*
Y157942D01*
X86002D01*
Y158024D01*
Y158105D01*
X86084D01*
Y158186D01*
X86165D01*
Y158268D01*
X86247D01*
Y158349D01*
X86328D01*
Y158431D01*
X86410D01*
Y158512D01*
X86573D01*
Y158594D01*
X86654D01*
Y158675D01*
X86735D01*
Y158757D01*
X86817D01*
Y158838D01*
X86898D01*
Y158920D01*
X87061D01*
Y159001D01*
X87143D01*
Y159082D01*
X87224D01*
Y159164D01*
X87387D01*
Y159245D01*
X87469D01*
Y159327D01*
X87632D01*
Y159408D01*
X87713D01*
Y159490D01*
X87876D01*
Y159571D01*
X87957D01*
Y159653D01*
X88120D01*
Y159734D01*
X88283D01*
Y159816D01*
X88365D01*
Y159897D01*
X88528D01*
Y159978D01*
X88691D01*
Y160060D01*
X88853D01*
Y160141D01*
X89016D01*
Y160223D01*
X89179D01*
Y160304D01*
X89342D01*
Y160386D01*
X89505D01*
Y160467D01*
X89749D01*
Y160549D01*
X89912D01*
Y160630D01*
X90075D01*
Y160712D01*
X90320D01*
Y160793D01*
X90564D01*
Y160874D01*
X90808D01*
Y160956D01*
X91053D01*
Y161037D01*
X91297D01*
Y161119D01*
X91704D01*
Y161200D01*
X91949D01*
Y161282D01*
X92438D01*
Y161363D01*
X92763D01*
Y161445D01*
X93741D01*
Y161526D01*
X94881D01*
Y161445D01*
D02*
G37*
G36*
X83640Y156069D02*
Y155987D01*
Y155905D01*
X83722D01*
Y155824D01*
Y155743D01*
Y155661D01*
Y155580D01*
X83803D01*
Y155498D01*
Y155417D01*
Y155335D01*
Y155254D01*
X83885D01*
Y155172D01*
Y155091D01*
Y155009D01*
X83966D01*
Y154928D01*
Y154847D01*
Y154765D01*
X84047D01*
Y154684D01*
Y154602D01*
Y154521D01*
X84129D01*
Y154439D01*
Y154358D01*
Y154276D01*
X84210D01*
Y154195D01*
Y154113D01*
Y154032D01*
X84292D01*
Y153951D01*
Y153869D01*
Y153788D01*
X84373D01*
Y153706D01*
Y153625D01*
Y153543D01*
Y153462D01*
X84455D01*
Y153380D01*
Y153299D01*
Y153217D01*
X84536D01*
Y153136D01*
Y153054D01*
Y152973D01*
X84618D01*
Y152892D01*
Y152810D01*
Y152729D01*
X84699D01*
Y152647D01*
Y152566D01*
Y152484D01*
X84781D01*
Y152403D01*
Y152321D01*
Y152240D01*
Y152158D01*
X84862D01*
Y152077D01*
Y151996D01*
X84943D01*
Y151914D01*
Y151833D01*
Y151751D01*
Y151670D01*
X85025D01*
Y151588D01*
Y151507D01*
Y151425D01*
X85106D01*
Y151344D01*
Y151262D01*
Y151181D01*
X85188D01*
Y151100D01*
Y151018D01*
Y150937D01*
Y150855D01*
X85269D01*
Y150774D01*
Y150692D01*
X85351D01*
Y150611D01*
Y150529D01*
Y150448D01*
Y150366D01*
X85432D01*
Y150285D01*
Y150203D01*
Y150122D01*
X85514D01*
Y150040D01*
Y149959D01*
Y149878D01*
X85595D01*
Y149796D01*
Y149715D01*
Y149633D01*
Y149552D01*
X85677D01*
Y149470D01*
Y149389D01*
X85758D01*
Y149307D01*
Y149226D01*
Y149144D01*
Y149063D01*
X85839D01*
Y148982D01*
Y148900D01*
X85921D01*
Y148819D01*
Y148737D01*
Y148656D01*
Y148574D01*
X86002D01*
Y148493D01*
Y148411D01*
Y148330D01*
X86084D01*
Y148248D01*
Y148167D01*
Y148085D01*
X86165D01*
Y148004D01*
Y147923D01*
Y147841D01*
Y147760D01*
X86247D01*
Y147678D01*
Y147597D01*
X86328D01*
Y147515D01*
Y147434D01*
Y147352D01*
Y147271D01*
X86410D01*
Y147189D01*
Y147108D01*
Y147027D01*
X86491D01*
Y146945D01*
Y146864D01*
Y146782D01*
X86573D01*
Y146701D01*
Y146619D01*
Y146538D01*
X86654D01*
Y146456D01*
Y146375D01*
Y146293D01*
X86735D01*
Y146212D01*
Y146131D01*
Y146049D01*
X86817D01*
Y145968D01*
Y145886D01*
X86898D01*
Y145805D01*
Y145723D01*
X86980D01*
Y145642D01*
Y145560D01*
X87061D01*
Y145479D01*
Y145397D01*
X87143D01*
Y145316D01*
Y145235D01*
X87224D01*
Y145153D01*
Y145072D01*
X87306D01*
Y144990D01*
Y144909D01*
X87387D01*
Y144827D01*
X87469D01*
Y144746D01*
X87550D01*
Y144664D01*
Y144583D01*
X87632D01*
Y144501D01*
X87713D01*
Y144420D01*
X87795D01*
Y144338D01*
X87876D01*
Y144257D01*
X87713D01*
Y144176D01*
X87550D01*
Y144094D01*
X87306D01*
Y144013D01*
X87143D01*
Y143931D01*
X86980D01*
Y143850D01*
X86735D01*
Y143768D01*
X86573D01*
Y143687D01*
X86328D01*
Y143605D01*
X86165D01*
Y143524D01*
X85921D01*
Y143442D01*
X85677D01*
Y143361D01*
X85351D01*
Y143280D01*
X84292D01*
Y143361D01*
X84129D01*
Y143442D01*
X83966D01*
Y143524D01*
X83885D01*
Y143605D01*
X83803D01*
Y143687D01*
X83640D01*
Y143768D01*
X83559D01*
Y143850D01*
X83477D01*
Y143931D01*
X83396D01*
Y144013D01*
X83314D01*
Y144094D01*
Y144176D01*
X83233D01*
Y144257D01*
X83151D01*
Y144338D01*
X83070D01*
Y144420D01*
X82988D01*
Y144501D01*
Y144583D01*
X82907D01*
Y144664D01*
X82825D01*
Y144746D01*
X82744D01*
Y144827D01*
Y144909D01*
X82663D01*
Y144990D01*
X82581D01*
Y145072D01*
Y145153D01*
X82500D01*
Y145235D01*
X82418D01*
Y145316D01*
Y145397D01*
X82337D01*
Y145479D01*
X82255D01*
Y145560D01*
Y145642D01*
X82174D01*
Y145723D01*
X82092D01*
Y145805D01*
Y145886D01*
X82011D01*
Y145968D01*
X81929D01*
Y146049D01*
Y146131D01*
X81848D01*
Y146212D01*
X81767D01*
Y146293D01*
Y146375D01*
X81685D01*
Y146456D01*
X81604D01*
Y146538D01*
Y146619D01*
X81522D01*
Y146701D01*
Y146782D01*
X81441D01*
Y146864D01*
X81359D01*
Y146945D01*
Y147027D01*
X81278D01*
Y147108D01*
X81196D01*
Y147189D01*
Y147271D01*
X81115D01*
Y147352D01*
Y147434D01*
X81033D01*
Y147515D01*
X80952D01*
Y147597D01*
Y147678D01*
X80870D01*
Y147760D01*
Y147841D01*
X80789D01*
Y147923D01*
X80708D01*
Y148004D01*
Y148085D01*
X80626D01*
Y148167D01*
X80545D01*
Y148248D01*
Y148330D01*
X80463D01*
Y148411D01*
Y148493D01*
X80382D01*
Y148574D01*
X80300D01*
Y148656D01*
Y148737D01*
X80219D01*
Y148819D01*
Y148900D01*
X80137D01*
Y148982D01*
X80056D01*
Y149063D01*
Y149144D01*
X79975D01*
Y149226D01*
Y149307D01*
X79893D01*
Y149389D01*
X79812D01*
Y149470D01*
Y149552D01*
X79730D01*
Y149633D01*
X79649D01*
Y149715D01*
Y149796D01*
X79567D01*
Y149878D01*
Y149959D01*
X79486D01*
Y150040D01*
Y150122D01*
X79404D01*
Y150203D01*
Y150285D01*
X79323D01*
Y150366D01*
Y150448D01*
X79241D01*
Y150529D01*
Y150611D01*
Y150692D01*
X79160D01*
Y150774D01*
Y150855D01*
X79078D01*
Y150937D01*
Y151018D01*
X78997D01*
Y151100D01*
Y151181D01*
Y151262D01*
X78916D01*
Y151344D01*
Y151425D01*
Y151507D01*
X78834D01*
Y151588D01*
Y151670D01*
X78753D01*
Y151751D01*
Y151833D01*
Y151914D01*
Y151996D01*
X78671D01*
Y152077D01*
Y152158D01*
Y152240D01*
Y152321D01*
Y152403D01*
Y152484D01*
Y152566D01*
Y152647D01*
Y152729D01*
Y152810D01*
Y152892D01*
Y152973D01*
Y153054D01*
Y153136D01*
X78753D01*
Y153217D01*
Y153299D01*
X78834D01*
Y153380D01*
Y153462D01*
X78916D01*
Y153543D01*
Y153625D01*
X78997D01*
Y153706D01*
X79078D01*
Y153788D01*
X79160D01*
Y153869D01*
X79241D01*
Y153951D01*
X79323D01*
Y154032D01*
X79404D01*
Y154113D01*
X79486D01*
Y154195D01*
X79649D01*
Y154276D01*
X79730D01*
Y154358D01*
X79812D01*
Y154439D01*
X79975D01*
Y154521D01*
X80137D01*
Y154602D01*
X80219D01*
Y154684D01*
X80382D01*
Y154765D01*
X80545D01*
Y154847D01*
X80708D01*
Y154928D01*
X80870D01*
Y155009D01*
X80952D01*
Y155091D01*
X81196D01*
Y155172D01*
X81359D01*
Y155254D01*
X81522D01*
Y155335D01*
X81685D01*
Y155417D01*
X81848D01*
Y155498D01*
X82092D01*
Y155580D01*
X82255D01*
Y155661D01*
X82500D01*
Y155743D01*
X82663D01*
Y155824D01*
X82907D01*
Y155905D01*
X83070D01*
Y155987D01*
X83314D01*
Y156069D01*
X83559D01*
Y156150D01*
X83640D01*
Y156069D01*
D02*
G37*
G36*
X105145Y155743D02*
X105308D01*
Y155661D01*
X105552D01*
Y155580D01*
X105715D01*
Y155498D01*
X105878D01*
Y155417D01*
X106123D01*
Y155335D01*
X106286D01*
Y155254D01*
X106530D01*
Y155172D01*
X106611D01*
Y155091D01*
X106856D01*
Y155009D01*
X107019D01*
Y154928D01*
X107182D01*
Y154847D01*
X107344D01*
Y154765D01*
X107507D01*
Y154684D01*
X107752D01*
Y154602D01*
X107833D01*
Y154521D01*
X107996D01*
Y154439D01*
X108159D01*
Y154358D01*
X108322D01*
Y154276D01*
X108485D01*
Y154195D01*
X108566D01*
Y154113D01*
X108729D01*
Y154032D01*
X108892D01*
Y153951D01*
X108974D01*
Y153869D01*
X109137D01*
Y153788D01*
X109218D01*
Y153706D01*
X109381D01*
Y153625D01*
X109462D01*
Y153543D01*
X109544D01*
Y153462D01*
X109625D01*
Y153380D01*
X109707D01*
Y153299D01*
X109788D01*
Y153217D01*
X109870D01*
Y153136D01*
Y153054D01*
X109951D01*
Y152973D01*
Y152892D01*
X110033D01*
Y152810D01*
Y152729D01*
Y152647D01*
Y152566D01*
Y152484D01*
Y152403D01*
Y152321D01*
Y152240D01*
X109951D01*
Y152158D01*
Y152077D01*
X109870D01*
Y151996D01*
Y151914D01*
Y151833D01*
X109788D01*
Y151751D01*
Y151670D01*
X109707D01*
Y151588D01*
Y151507D01*
X109625D01*
Y151425D01*
Y151344D01*
X109544D01*
Y151262D01*
Y151181D01*
X109462D01*
Y151100D01*
Y151018D01*
X109381D01*
Y150937D01*
X109300D01*
Y150855D01*
Y150774D01*
X109218D01*
Y150692D01*
Y150611D01*
X109137D01*
Y150529D01*
Y150448D01*
X109055D01*
Y150366D01*
Y150285D01*
X108974D01*
Y150203D01*
X108892D01*
Y150122D01*
Y150040D01*
X108811D01*
Y149959D01*
Y149878D01*
X108729D01*
Y149796D01*
Y149715D01*
X108648D01*
Y149633D01*
Y149552D01*
X108566D01*
Y149470D01*
Y149389D01*
X108485D01*
Y149307D01*
Y149226D01*
X108403D01*
Y149144D01*
X108322D01*
Y149063D01*
Y148982D01*
X108240D01*
Y148900D01*
Y148819D01*
X108159D01*
Y148737D01*
Y148656D01*
X108078D01*
Y148574D01*
Y148493D01*
X107996D01*
Y148411D01*
X107915D01*
Y148330D01*
Y148248D01*
X107833D01*
Y148167D01*
Y148085D01*
X107752D01*
Y148004D01*
Y147923D01*
X107670D01*
Y147841D01*
Y147760D01*
X107589D01*
Y147678D01*
X107507D01*
Y147597D01*
Y147515D01*
X107426D01*
Y147434D01*
Y147352D01*
X107344D01*
Y147271D01*
Y147189D01*
X107263D01*
Y147108D01*
Y147027D01*
X107182D01*
Y146945D01*
Y146864D01*
X107100D01*
Y146782D01*
Y146701D01*
X107019D01*
Y146619D01*
X106937D01*
Y146538D01*
Y146456D01*
X106856D01*
Y146375D01*
Y146293D01*
X106774D01*
Y146212D01*
Y146131D01*
X106693D01*
Y146049D01*
Y145968D01*
X106611D01*
Y145886D01*
X106530D01*
Y145805D01*
Y145723D01*
X106448D01*
Y145642D01*
Y145560D01*
X106367D01*
Y145479D01*
Y145397D01*
X106286D01*
Y145316D01*
Y145235D01*
X106204D01*
Y145153D01*
X106123D01*
Y145072D01*
X106041D01*
Y144990D01*
Y144909D01*
X105960D01*
Y144827D01*
X105878D01*
Y144746D01*
X105797D01*
Y144664D01*
X105715D01*
Y144583D01*
Y144501D01*
X105634D01*
Y144420D01*
X105552D01*
Y144338D01*
X105471D01*
Y144257D01*
X105389D01*
Y144176D01*
X105308D01*
Y144094D01*
X105227D01*
Y144013D01*
X105145D01*
Y143931D01*
X105064D01*
Y143850D01*
X104982D01*
Y143768D01*
X104901D01*
Y143687D01*
X104819D01*
Y143605D01*
X104656D01*
Y143524D01*
X104575D01*
Y143442D01*
X104412D01*
Y143361D01*
X104249D01*
Y143280D01*
X104005D01*
Y143198D01*
X102864D01*
Y143280D01*
X102457D01*
Y143361D01*
X102131D01*
Y143442D01*
X101887D01*
Y143524D01*
X101561D01*
Y143605D01*
X101398D01*
Y143687D01*
X101154D01*
Y143768D01*
X100909D01*
Y143850D01*
X100746D01*
Y143931D01*
X100502D01*
Y144013D01*
X100339D01*
Y144094D01*
X100095D01*
Y144176D01*
X99932D01*
Y144257D01*
X99850D01*
Y144338D01*
X99932D01*
Y144420D01*
X100013D01*
Y144501D01*
Y144583D01*
X100095D01*
Y144664D01*
X100176D01*
Y144746D01*
X100258D01*
Y144827D01*
X100339D01*
Y144909D01*
Y144990D01*
X100420D01*
Y145072D01*
X100502D01*
Y145153D01*
Y145235D01*
X100584D01*
Y145316D01*
X100665D01*
Y145397D01*
Y145479D01*
X100746D01*
Y145560D01*
Y145642D01*
X100828D01*
Y145723D01*
Y145805D01*
X100909D01*
Y145886D01*
Y145968D01*
X100991D01*
Y146049D01*
Y146131D01*
X101072D01*
Y146212D01*
Y146293D01*
X101154D01*
Y146375D01*
Y146456D01*
X101235D01*
Y146538D01*
Y146619D01*
X101317D01*
Y146701D01*
Y146782D01*
Y146864D01*
X101398D01*
Y146945D01*
Y147027D01*
X101479D01*
Y147108D01*
Y147189D01*
X101561D01*
Y147271D01*
Y147352D01*
Y147434D01*
X101642D01*
Y147515D01*
Y147597D01*
X101724D01*
Y147678D01*
Y147760D01*
Y147841D01*
X101805D01*
Y147923D01*
Y148004D01*
X101887D01*
Y148085D01*
Y148167D01*
Y148248D01*
X101968D01*
Y148330D01*
Y148411D01*
X102050D01*
Y148493D01*
Y148574D01*
Y148656D01*
X102131D01*
Y148737D01*
Y148819D01*
X102213D01*
Y148900D01*
Y148982D01*
Y149063D01*
X102294D01*
Y149144D01*
Y149226D01*
X102375D01*
Y149307D01*
Y149389D01*
Y149470D01*
X102457D01*
Y149552D01*
Y149633D01*
X102538D01*
Y149715D01*
Y149796D01*
Y149878D01*
X102620D01*
Y149959D01*
Y150040D01*
X102701D01*
Y150122D01*
Y150203D01*
Y150285D01*
X102783D01*
Y150366D01*
Y150448D01*
X102864D01*
Y150529D01*
Y150611D01*
Y150692D01*
X102946D01*
Y150774D01*
Y150855D01*
X103027D01*
Y150937D01*
Y151018D01*
Y151100D01*
X103109D01*
Y151181D01*
Y151262D01*
X103190D01*
Y151344D01*
Y151425D01*
X103272D01*
Y151507D01*
Y151588D01*
Y151670D01*
X103353D01*
Y151751D01*
Y151833D01*
Y151914D01*
X103435D01*
Y151996D01*
Y152077D01*
X103516D01*
Y152158D01*
Y152240D01*
X103597D01*
Y152321D01*
Y152403D01*
Y152484D01*
X103679D01*
Y152566D01*
Y152647D01*
X103760D01*
Y152729D01*
Y152810D01*
Y152892D01*
X103842D01*
Y152973D01*
Y153054D01*
X103923D01*
Y153136D01*
Y153217D01*
Y153299D01*
X104005D01*
Y153380D01*
Y153462D01*
X104086D01*
Y153543D01*
Y153625D01*
Y153706D01*
X104168D01*
Y153788D01*
Y153869D01*
X104249D01*
Y153951D01*
Y154032D01*
Y154113D01*
X104331D01*
Y154195D01*
Y154276D01*
X104412D01*
Y154358D01*
Y154439D01*
Y154521D01*
X104493D01*
Y154602D01*
Y154684D01*
X104575D01*
Y154765D01*
Y154847D01*
Y154928D01*
X104656D01*
Y155009D01*
Y155091D01*
Y155172D01*
X104738D01*
Y155254D01*
Y155335D01*
Y155417D01*
X104819D01*
Y155498D01*
Y155580D01*
Y155661D01*
X104901D01*
Y155743D01*
Y155824D01*
X105145D01*
Y155743D01*
D02*
G37*
G36*
X77857Y149470D02*
Y149389D01*
X77938D01*
Y149307D01*
Y149226D01*
X78019D01*
Y149144D01*
Y149063D01*
X78101D01*
Y148982D01*
Y148900D01*
X78182D01*
Y148819D01*
Y148737D01*
X78264D01*
Y148656D01*
X78345D01*
Y148574D01*
Y148493D01*
X78427D01*
Y148411D01*
X78508D01*
Y148330D01*
Y148248D01*
X78590D01*
Y148167D01*
Y148085D01*
X78671D01*
Y148004D01*
X78753D01*
Y147923D01*
Y147841D01*
X78834D01*
Y147760D01*
Y147678D01*
X78916D01*
Y147597D01*
X78997D01*
Y147515D01*
Y147434D01*
X79078D01*
Y147352D01*
Y147271D01*
X79160D01*
Y147189D01*
X79241D01*
Y147108D01*
Y147027D01*
X79323D01*
Y146945D01*
Y146864D01*
X79404D01*
Y146782D01*
X79486D01*
Y146701D01*
Y146619D01*
X79567D01*
Y146538D01*
X79649D01*
Y146456D01*
Y146375D01*
X79730D01*
Y146293D01*
Y146212D01*
X79812D01*
Y146131D01*
X79893D01*
Y146049D01*
Y145968D01*
X79975D01*
Y145886D01*
X80056D01*
Y145805D01*
Y145723D01*
X80137D01*
Y145642D01*
Y145560D01*
X80219D01*
Y145479D01*
X80300D01*
Y145397D01*
Y145316D01*
X80382D01*
Y145235D01*
X80463D01*
Y145153D01*
Y145072D01*
X80545D01*
Y144990D01*
X80626D01*
Y144909D01*
Y144827D01*
X80708D01*
Y144746D01*
X80789D01*
Y144664D01*
Y144583D01*
X80708D01*
Y144501D01*
X80463D01*
Y144420D01*
X80300D01*
Y144338D01*
X80056D01*
Y144257D01*
X79893D01*
Y144176D01*
X79730D01*
Y144094D01*
X79486D01*
Y144013D01*
X79323D01*
Y143931D01*
X79078D01*
Y143850D01*
X78916D01*
Y143768D01*
X78671D01*
Y143687D01*
X78508D01*
Y143605D01*
X78345D01*
Y143524D01*
X78101D01*
Y143442D01*
X77938D01*
Y143361D01*
X77775D01*
Y143280D01*
X77531D01*
Y143198D01*
X77368D01*
Y143117D01*
X77123D01*
Y143035D01*
X76960D01*
Y142954D01*
X76716D01*
Y142872D01*
X76553D01*
Y142791D01*
X76309D01*
Y142709D01*
X76064D01*
Y142628D01*
X75820D01*
Y142546D01*
X75250D01*
Y142628D01*
Y142709D01*
Y142791D01*
X75168D01*
Y142872D01*
Y142954D01*
Y143035D01*
Y143117D01*
Y143198D01*
Y143280D01*
Y143361D01*
Y143442D01*
X75087D01*
Y143524D01*
Y143605D01*
Y143687D01*
Y143768D01*
Y143850D01*
Y143931D01*
Y144013D01*
Y144094D01*
Y144176D01*
Y144257D01*
X75168D01*
Y144338D01*
Y144420D01*
Y144501D01*
Y144583D01*
Y144664D01*
Y144746D01*
Y144827D01*
Y144909D01*
Y144990D01*
X75250D01*
Y145072D01*
Y145153D01*
Y145235D01*
Y145316D01*
Y145397D01*
X75331D01*
Y145479D01*
Y145560D01*
Y145642D01*
Y145723D01*
X75413D01*
Y145805D01*
Y145886D01*
Y145968D01*
Y146049D01*
X75494D01*
Y146131D01*
Y146212D01*
Y146293D01*
X75576D01*
Y146375D01*
Y146456D01*
Y146538D01*
X75657D01*
Y146619D01*
Y146701D01*
X75739D01*
Y146782D01*
Y146864D01*
Y146945D01*
X75820D01*
Y147027D01*
Y147108D01*
X75902D01*
Y147189D01*
Y147271D01*
X75983D01*
Y147352D01*
Y147434D01*
X76064D01*
Y147515D01*
X76146D01*
Y147597D01*
Y147678D01*
X76227D01*
Y147760D01*
Y147841D01*
X76309D01*
Y147923D01*
X76390D01*
Y148004D01*
Y148085D01*
X76472D01*
Y148167D01*
X76553D01*
Y148248D01*
Y148330D01*
X76635D01*
Y148411D01*
X76716D01*
Y148493D01*
X76798D01*
Y148574D01*
X76879D01*
Y148656D01*
Y148737D01*
X76960D01*
Y148819D01*
X77042D01*
Y148900D01*
X77123D01*
Y148982D01*
X77205D01*
Y149063D01*
X77286D01*
Y149144D01*
X77368D01*
Y149226D01*
X77449D01*
Y149307D01*
X77531D01*
Y149389D01*
X77694D01*
Y149470D01*
X77775D01*
Y149552D01*
X77857D01*
Y149470D01*
D02*
G37*
G36*
X110521Y149307D02*
X110603D01*
Y149226D01*
X110766D01*
Y149144D01*
Y149063D01*
X110929D01*
Y148982D01*
X111010D01*
Y148900D01*
X111092D01*
Y148819D01*
X111173D01*
Y148737D01*
Y148656D01*
X111255D01*
Y148574D01*
X111336D01*
Y148493D01*
X111417D01*
Y148411D01*
X111499D01*
Y148330D01*
X111580D01*
Y148248D01*
Y148167D01*
X111662D01*
Y148085D01*
X111743D01*
Y148004D01*
X111825D01*
Y147923D01*
Y147841D01*
X111906D01*
Y147760D01*
X111988D01*
Y147678D01*
Y147597D01*
X112069D01*
Y147515D01*
Y147434D01*
X112151D01*
Y147352D01*
Y147271D01*
X112232D01*
Y147189D01*
Y147108D01*
X112313D01*
Y147027D01*
Y146945D01*
X112395D01*
Y146864D01*
Y146782D01*
X112476D01*
Y146701D01*
Y146619D01*
X112558D01*
Y146538D01*
Y146456D01*
Y146375D01*
X112639D01*
Y146293D01*
Y146212D01*
Y146131D01*
X112721D01*
Y146049D01*
Y145968D01*
Y145886D01*
X112802D01*
Y145805D01*
Y145723D01*
Y145642D01*
Y145560D01*
Y145479D01*
X112884D01*
Y145397D01*
Y145316D01*
Y145235D01*
Y145153D01*
X112965D01*
Y145072D01*
Y144990D01*
Y144909D01*
Y144827D01*
Y144746D01*
Y144664D01*
Y144583D01*
Y144501D01*
Y144420D01*
X113047D01*
Y144338D01*
Y144257D01*
Y144176D01*
Y144094D01*
Y144013D01*
Y143931D01*
Y143850D01*
Y143768D01*
Y143687D01*
Y143605D01*
Y143524D01*
Y143442D01*
Y143361D01*
Y143280D01*
X112965D01*
Y143198D01*
Y143117D01*
Y143035D01*
Y142954D01*
Y142872D01*
Y142791D01*
Y142709D01*
X112884D01*
Y142628D01*
Y142546D01*
Y142465D01*
X112802D01*
Y142383D01*
Y142302D01*
X112558D01*
Y142383D01*
X112232D01*
Y142465D01*
X111988D01*
Y142546D01*
X111743D01*
Y142628D01*
X111499D01*
Y142709D01*
X111336D01*
Y142791D01*
X111092D01*
Y142872D01*
X110929D01*
Y142954D01*
X110684D01*
Y143035D01*
X110521D01*
Y143117D01*
X110358D01*
Y143198D01*
X110114D01*
Y143280D01*
X109951D01*
Y143361D01*
X109788D01*
Y143442D01*
X109544D01*
Y143524D01*
X109381D01*
Y143605D01*
X109218D01*
Y143687D01*
X108974D01*
Y143768D01*
X108811D01*
Y143850D01*
X108566D01*
Y143931D01*
X108403D01*
Y144013D01*
X108240D01*
Y144094D01*
X107996D01*
Y144176D01*
X107833D01*
Y144257D01*
X107670D01*
Y144338D01*
X107752D01*
Y144420D01*
Y144501D01*
X107833D01*
Y144583D01*
Y144664D01*
X107915D01*
Y144746D01*
Y144827D01*
X107996D01*
Y144909D01*
X108078D01*
Y144990D01*
Y145072D01*
X108159D01*
Y145153D01*
Y145235D01*
X108240D01*
Y145316D01*
Y145397D01*
X108322D01*
Y145479D01*
Y145560D01*
X108403D01*
Y145642D01*
X108485D01*
Y145723D01*
Y145805D01*
X108566D01*
Y145886D01*
Y145968D01*
X108648D01*
Y146049D01*
Y146131D01*
X108729D01*
Y146212D01*
Y146293D01*
X108811D01*
Y146375D01*
Y146456D01*
X108892D01*
Y146538D01*
X108974D01*
Y146619D01*
Y146701D01*
X109055D01*
Y146782D01*
Y146864D01*
X109137D01*
Y146945D01*
Y147027D01*
X109218D01*
Y147108D01*
Y147189D01*
X109300D01*
Y147271D01*
Y147352D01*
X109381D01*
Y147434D01*
X109462D01*
Y147515D01*
Y147597D01*
X109544D01*
Y147678D01*
Y147760D01*
X109625D01*
Y147841D01*
Y147923D01*
X109707D01*
Y148004D01*
Y148085D01*
X109788D01*
Y148167D01*
X109870D01*
Y148248D01*
Y148330D01*
X109951D01*
Y148411D01*
Y148493D01*
X110033D01*
Y148574D01*
Y148656D01*
X110114D01*
Y148737D01*
Y148819D01*
X110196D01*
Y148900D01*
Y148982D01*
X110277D01*
Y149063D01*
X110358D01*
Y149144D01*
Y149226D01*
X110440D01*
Y149307D01*
Y149389D01*
X110521D01*
Y149307D01*
D02*
G37*
G36*
X94881Y98453D02*
X95859D01*
Y98371D01*
X96266D01*
Y98290D01*
X96755D01*
Y98208D01*
X96999D01*
Y98127D01*
X97407D01*
Y98045D01*
X97651D01*
Y97964D01*
X97977D01*
Y97882D01*
X98221D01*
Y97801D01*
X98466D01*
Y97719D01*
X98710D01*
Y97638D01*
X98873D01*
Y97557D01*
X99117D01*
Y97475D01*
X99362D01*
Y97394D01*
X99524D01*
Y97312D01*
X99687D01*
Y97231D01*
X99850D01*
Y97149D01*
X100013D01*
Y97068D01*
X100176D01*
Y96986D01*
X100339D01*
Y96905D01*
X100502D01*
Y96823D01*
X100665D01*
Y96742D01*
X100828D01*
Y96661D01*
X100909D01*
Y96579D01*
X101072D01*
Y96498D01*
X101235D01*
Y96416D01*
X101317D01*
Y96335D01*
X101479D01*
Y96253D01*
X101561D01*
Y96172D01*
X101724D01*
Y96090D01*
X101805D01*
Y96009D01*
X101887D01*
Y95927D01*
X102050D01*
Y95846D01*
X102131D01*
Y95764D01*
X102213D01*
Y95683D01*
X102294D01*
Y95601D01*
X102375D01*
Y95520D01*
X102457D01*
Y95439D01*
X102538D01*
Y95357D01*
X102620D01*
Y95276D01*
X102701D01*
Y95194D01*
X102783D01*
Y95113D01*
X102864D01*
Y95031D01*
Y94950D01*
X102946D01*
Y94868D01*
X103027D01*
Y94787D01*
Y94705D01*
X103109D01*
Y94624D01*
Y94543D01*
X103190D01*
Y94461D01*
Y94380D01*
Y94298D01*
X103272D01*
Y94217D01*
Y94135D01*
Y94054D01*
Y93972D01*
Y93891D01*
Y93809D01*
Y93728D01*
Y93647D01*
Y93565D01*
Y93484D01*
Y93402D01*
Y93321D01*
X103190D01*
Y93239D01*
Y93158D01*
Y93076D01*
X103109D01*
Y92995D01*
Y92913D01*
Y92832D01*
Y92751D01*
X103027D01*
Y92669D01*
Y92588D01*
Y92506D01*
X102946D01*
Y92425D01*
Y92343D01*
X102864D01*
Y92262D01*
Y92180D01*
Y92099D01*
X102783D01*
Y92017D01*
Y91936D01*
X102701D01*
Y91854D01*
Y91773D01*
Y91691D01*
X102620D01*
Y91610D01*
Y91529D01*
X102538D01*
Y91447D01*
Y91366D01*
Y91284D01*
X102457D01*
Y91203D01*
Y91121D01*
Y91040D01*
X102375D01*
Y90958D01*
Y90877D01*
X102294D01*
Y90795D01*
Y90714D01*
Y90633D01*
X102213D01*
Y90551D01*
Y90470D01*
X102131D01*
Y90388D01*
Y90307D01*
X102050D01*
Y90225D01*
Y90144D01*
Y90062D01*
X101968D01*
Y89981D01*
Y89899D01*
X101887D01*
Y89818D01*
Y89736D01*
Y89655D01*
X101805D01*
Y89574D01*
Y89492D01*
X101724D01*
Y89411D01*
Y89329D01*
Y89248D01*
X101642D01*
Y89166D01*
Y89085D01*
X101561D01*
Y89003D01*
Y88922D01*
Y88841D01*
X101479D01*
Y88759D01*
Y88678D01*
X101398D01*
Y88596D01*
Y88515D01*
Y88433D01*
X101317D01*
Y88352D01*
Y88270D01*
X101235D01*
Y88189D01*
Y88107D01*
X101154D01*
Y88026D01*
Y87944D01*
Y87863D01*
X101072D01*
Y87782D01*
Y87700D01*
Y87619D01*
X100991D01*
Y87537D01*
Y87456D01*
X100909D01*
Y87374D01*
Y87293D01*
Y87211D01*
X100828D01*
Y87130D01*
Y87048D01*
X100746D01*
Y86967D01*
Y86885D01*
Y86804D01*
X100665D01*
Y86723D01*
Y86641D01*
X100584D01*
Y86560D01*
Y86478D01*
Y86397D01*
X100502D01*
Y86315D01*
Y86234D01*
X100420D01*
Y86152D01*
Y86071D01*
Y85989D01*
X100339D01*
Y85908D01*
Y85826D01*
X100258D01*
Y85745D01*
Y85664D01*
X100176D01*
Y85582D01*
Y85501D01*
Y85419D01*
X100095D01*
Y85338D01*
Y85256D01*
Y85175D01*
X100013D01*
Y85093D01*
Y85012D01*
X99932D01*
Y84930D01*
Y84849D01*
Y84768D01*
X99850D01*
Y84686D01*
Y84605D01*
X99769D01*
Y84523D01*
Y84442D01*
X99687D01*
Y84360D01*
Y84279D01*
X99606D01*
Y84197D01*
Y84116D01*
Y84034D01*
X99524D01*
Y83953D01*
Y83872D01*
X99443D01*
Y83790D01*
Y83709D01*
X99362D01*
Y83627D01*
Y83546D01*
X99280D01*
Y83464D01*
Y83383D01*
X99199D01*
Y83301D01*
X99117D01*
Y83220D01*
Y83138D01*
X99036D01*
Y83057D01*
Y82976D01*
X98954D01*
Y82894D01*
X98873D01*
Y82813D01*
Y82731D01*
X98791D01*
Y82650D01*
X98710D01*
Y82568D01*
X98628D01*
Y82487D01*
X98547D01*
Y82405D01*
X98466D01*
Y82324D01*
X98384D01*
Y82242D01*
X98303D01*
Y82161D01*
X98221D01*
Y82079D01*
X98140D01*
Y81998D01*
X98058D01*
Y81916D01*
X97977D01*
Y81835D01*
X97814D01*
Y81754D01*
X97651D01*
Y81672D01*
X97570D01*
Y81591D01*
X97407D01*
Y81509D01*
X97244D01*
Y81428D01*
X97081D01*
Y81346D01*
X96836D01*
Y81265D01*
X96592D01*
Y81183D01*
X96429D01*
Y81102D01*
X96103D01*
Y81020D01*
X95777D01*
Y80939D01*
X95289D01*
Y80858D01*
X94230D01*
Y80776D01*
X93985D01*
Y80858D01*
X92845D01*
Y80939D01*
X92275D01*
Y81020D01*
X92030D01*
Y81102D01*
X91623D01*
Y81183D01*
X91379D01*
Y81265D01*
X91134D01*
Y81346D01*
X90890D01*
Y81428D01*
X90645D01*
Y81509D01*
X90483D01*
Y81591D01*
X90320D01*
Y81672D01*
X90157D01*
Y81754D01*
X89994D01*
Y81835D01*
X89831D01*
Y81916D01*
X89668D01*
Y81998D01*
X89587D01*
Y82079D01*
X89505D01*
Y82161D01*
X89342D01*
Y82242D01*
X89261D01*
Y82324D01*
X89179D01*
Y82405D01*
X89098D01*
Y82487D01*
X89016D01*
Y82568D01*
Y82650D01*
X88935D01*
Y82731D01*
X88853D01*
Y82813D01*
X88772D01*
Y82894D01*
Y82976D01*
X88691D01*
Y83057D01*
Y83138D01*
X88609D01*
Y83220D01*
Y83301D01*
X88528D01*
Y83383D01*
Y83464D01*
X88446D01*
Y83546D01*
Y83627D01*
X88365D01*
Y83709D01*
Y83790D01*
Y83872D01*
X88283D01*
Y83953D01*
Y84034D01*
X88202D01*
Y84116D01*
Y84197D01*
Y84279D01*
X88120D01*
Y84360D01*
Y84442D01*
Y84523D01*
Y84605D01*
X88039D01*
Y84686D01*
Y84768D01*
Y84849D01*
X87957D01*
Y84930D01*
Y85012D01*
Y85093D01*
X87876D01*
Y85175D01*
Y85256D01*
Y85338D01*
X87795D01*
Y85419D01*
Y85501D01*
Y85582D01*
X87713D01*
Y85664D01*
Y85745D01*
Y85826D01*
X87632D01*
Y85908D01*
Y85989D01*
Y86071D01*
Y86152D01*
X87550D01*
Y86234D01*
Y86315D01*
Y86397D01*
X87469D01*
Y86478D01*
Y86560D01*
Y86641D01*
X87387D01*
Y86723D01*
Y86804D01*
Y86885D01*
Y86967D01*
X87306D01*
Y87048D01*
Y87130D01*
Y87211D01*
X87224D01*
Y87293D01*
Y87374D01*
Y87456D01*
X87143D01*
Y87537D01*
Y87619D01*
Y87700D01*
X87061D01*
Y87782D01*
Y87863D01*
Y87944D01*
X86980D01*
Y88026D01*
Y88107D01*
Y88189D01*
X86898D01*
Y88270D01*
Y88352D01*
Y88433D01*
Y88515D01*
X86817D01*
Y88596D01*
Y88678D01*
Y88759D01*
X86735D01*
Y88841D01*
Y88922D01*
Y89003D01*
X86654D01*
Y89085D01*
Y89166D01*
Y89248D01*
X86573D01*
Y89329D01*
Y89411D01*
Y89492D01*
X86491D01*
Y89574D01*
Y89655D01*
Y89736D01*
X86410D01*
Y89818D01*
Y89899D01*
Y89981D01*
Y90062D01*
X86328D01*
Y90144D01*
Y90225D01*
Y90307D01*
X86247D01*
Y90388D01*
Y90470D01*
Y90551D01*
X86165D01*
Y90633D01*
Y90714D01*
Y90795D01*
X86084D01*
Y90877D01*
Y90958D01*
Y91040D01*
X86002D01*
Y91121D01*
Y91203D01*
Y91284D01*
X85921D01*
Y91366D01*
Y91447D01*
Y91529D01*
Y91610D01*
X85839D01*
Y91691D01*
Y91773D01*
Y91854D01*
X85758D01*
Y91936D01*
Y92017D01*
Y92099D01*
X85677D01*
Y92180D01*
Y92262D01*
Y92343D01*
X85595D01*
Y92425D01*
Y92506D01*
X85514D01*
Y92588D01*
Y92669D01*
Y92751D01*
Y92832D01*
X85432D01*
Y92913D01*
Y92995D01*
Y93076D01*
Y93158D01*
X85351D01*
Y93239D01*
Y93321D01*
Y93402D01*
Y93484D01*
Y93565D01*
Y93647D01*
Y93728D01*
Y93809D01*
Y93891D01*
X85432D01*
Y93972D01*
Y94054D01*
Y94135D01*
Y94217D01*
X85514D01*
Y94298D01*
Y94380D01*
X85595D01*
Y94461D01*
Y94543D01*
X85677D01*
Y94624D01*
X85758D01*
Y94705D01*
Y94787D01*
X85839D01*
Y94868D01*
X85921D01*
Y94950D01*
X86002D01*
Y95031D01*
Y95113D01*
X86084D01*
Y95194D01*
X86165D01*
Y95276D01*
X86247D01*
Y95357D01*
X86328D01*
Y95439D01*
X86410D01*
Y95520D01*
X86573D01*
Y95601D01*
X86654D01*
Y95683D01*
X86735D01*
Y95764D01*
X86817D01*
Y95846D01*
X86898D01*
Y95927D01*
X87061D01*
Y96009D01*
X87143D01*
Y96090D01*
X87224D01*
Y96172D01*
X87387D01*
Y96253D01*
X87469D01*
Y96335D01*
X87632D01*
Y96416D01*
X87713D01*
Y96498D01*
X87876D01*
Y96579D01*
X87957D01*
Y96661D01*
X88120D01*
Y96742D01*
X88283D01*
Y96823D01*
X88365D01*
Y96905D01*
X88528D01*
Y96986D01*
X88691D01*
Y97068D01*
X88853D01*
Y97149D01*
X89016D01*
Y97231D01*
X89179D01*
Y97312D01*
X89342D01*
Y97394D01*
X89505D01*
Y97475D01*
X89749D01*
Y97557D01*
X89912D01*
Y97638D01*
X90075D01*
Y97719D01*
X90320D01*
Y97801D01*
X90564D01*
Y97882D01*
X90808D01*
Y97964D01*
X91053D01*
Y98045D01*
X91297D01*
Y98127D01*
X91704D01*
Y98208D01*
X91949D01*
Y98290D01*
X92438D01*
Y98371D01*
X92763D01*
Y98453D01*
X93741D01*
Y98534D01*
X94881D01*
Y98453D01*
D02*
G37*
G36*
X83640Y93076D02*
Y92995D01*
Y92913D01*
X83722D01*
Y92832D01*
Y92751D01*
Y92669D01*
Y92588D01*
X83803D01*
Y92506D01*
Y92425D01*
Y92343D01*
Y92262D01*
X83885D01*
Y92180D01*
Y92099D01*
Y92017D01*
X83966D01*
Y91936D01*
Y91854D01*
Y91773D01*
X84047D01*
Y91691D01*
Y91610D01*
Y91529D01*
X84129D01*
Y91447D01*
Y91366D01*
Y91284D01*
X84210D01*
Y91203D01*
Y91121D01*
Y91040D01*
X84292D01*
Y90958D01*
Y90877D01*
Y90795D01*
X84373D01*
Y90714D01*
Y90633D01*
Y90551D01*
Y90470D01*
X84455D01*
Y90388D01*
Y90307D01*
Y90225D01*
X84536D01*
Y90144D01*
Y90062D01*
Y89981D01*
X84618D01*
Y89899D01*
Y89818D01*
Y89736D01*
X84699D01*
Y89655D01*
Y89574D01*
Y89492D01*
X84781D01*
Y89411D01*
Y89329D01*
Y89248D01*
Y89166D01*
X84862D01*
Y89085D01*
Y89003D01*
X84943D01*
Y88922D01*
Y88841D01*
Y88759D01*
Y88678D01*
X85025D01*
Y88596D01*
Y88515D01*
Y88433D01*
X85106D01*
Y88352D01*
Y88270D01*
Y88189D01*
X85188D01*
Y88107D01*
Y88026D01*
Y87944D01*
Y87863D01*
X85269D01*
Y87782D01*
Y87700D01*
X85351D01*
Y87619D01*
Y87537D01*
Y87456D01*
Y87374D01*
X85432D01*
Y87293D01*
Y87211D01*
Y87130D01*
X85514D01*
Y87048D01*
Y86967D01*
Y86885D01*
X85595D01*
Y86804D01*
Y86723D01*
Y86641D01*
Y86560D01*
X85677D01*
Y86478D01*
Y86397D01*
X85758D01*
Y86315D01*
Y86234D01*
Y86152D01*
Y86071D01*
X85839D01*
Y85989D01*
Y85908D01*
X85921D01*
Y85826D01*
Y85745D01*
Y85664D01*
Y85582D01*
X86002D01*
Y85501D01*
Y85419D01*
Y85338D01*
X86084D01*
Y85256D01*
Y85175D01*
Y85093D01*
X86165D01*
Y85012D01*
Y84930D01*
Y84849D01*
Y84768D01*
X86247D01*
Y84686D01*
Y84605D01*
X86328D01*
Y84523D01*
Y84442D01*
Y84360D01*
Y84279D01*
X86410D01*
Y84197D01*
Y84116D01*
Y84034D01*
X86491D01*
Y83953D01*
Y83872D01*
Y83790D01*
X86573D01*
Y83709D01*
Y83627D01*
Y83546D01*
X86654D01*
Y83464D01*
Y83383D01*
Y83301D01*
X86735D01*
Y83220D01*
Y83138D01*
Y83057D01*
X86817D01*
Y82976D01*
Y82894D01*
X86898D01*
Y82813D01*
Y82731D01*
X86980D01*
Y82650D01*
Y82568D01*
X87061D01*
Y82487D01*
Y82405D01*
X87143D01*
Y82324D01*
Y82242D01*
X87224D01*
Y82161D01*
Y82079D01*
X87306D01*
Y81998D01*
Y81916D01*
X87387D01*
Y81835D01*
X87469D01*
Y81754D01*
X87550D01*
Y81672D01*
Y81591D01*
X87632D01*
Y81509D01*
X87713D01*
Y81428D01*
X87795D01*
Y81346D01*
X87876D01*
Y81265D01*
X87713D01*
Y81183D01*
X87550D01*
Y81102D01*
X87306D01*
Y81020D01*
X87143D01*
Y80939D01*
X86980D01*
Y80858D01*
X86735D01*
Y80776D01*
X86573D01*
Y80695D01*
X86328D01*
Y80613D01*
X86165D01*
Y80532D01*
X85921D01*
Y80450D01*
X85677D01*
Y80369D01*
X85351D01*
Y80287D01*
X84292D01*
Y80369D01*
X84129D01*
Y80450D01*
X83966D01*
Y80532D01*
X83885D01*
Y80613D01*
X83803D01*
Y80695D01*
X83640D01*
Y80776D01*
X83559D01*
Y80858D01*
X83477D01*
Y80939D01*
X83396D01*
Y81020D01*
X83314D01*
Y81102D01*
Y81183D01*
X83233D01*
Y81265D01*
X83151D01*
Y81346D01*
X83070D01*
Y81428D01*
X82988D01*
Y81509D01*
Y81591D01*
X82907D01*
Y81672D01*
X82825D01*
Y81754D01*
X82744D01*
Y81835D01*
Y81916D01*
X82663D01*
Y81998D01*
X82581D01*
Y82079D01*
Y82161D01*
X82500D01*
Y82242D01*
X82418D01*
Y82324D01*
Y82405D01*
X82337D01*
Y82487D01*
X82255D01*
Y82568D01*
Y82650D01*
X82174D01*
Y82731D01*
X82092D01*
Y82813D01*
Y82894D01*
X82011D01*
Y82976D01*
X81929D01*
Y83057D01*
Y83138D01*
X81848D01*
Y83220D01*
X81767D01*
Y83301D01*
Y83383D01*
X81685D01*
Y83464D01*
X81604D01*
Y83546D01*
Y83627D01*
X81522D01*
Y83709D01*
Y83790D01*
X81441D01*
Y83872D01*
X81359D01*
Y83953D01*
Y84034D01*
X81278D01*
Y84116D01*
X81196D01*
Y84197D01*
Y84279D01*
X81115D01*
Y84360D01*
Y84442D01*
X81033D01*
Y84523D01*
X80952D01*
Y84605D01*
Y84686D01*
X80870D01*
Y84768D01*
Y84849D01*
X80789D01*
Y84930D01*
X80708D01*
Y85012D01*
Y85093D01*
X80626D01*
Y85175D01*
X80545D01*
Y85256D01*
Y85338D01*
X80463D01*
Y85419D01*
Y85501D01*
X80382D01*
Y85582D01*
X80300D01*
Y85664D01*
Y85745D01*
X80219D01*
Y85826D01*
Y85908D01*
X80137D01*
Y85989D01*
X80056D01*
Y86071D01*
Y86152D01*
X79975D01*
Y86234D01*
Y86315D01*
X79893D01*
Y86397D01*
X79812D01*
Y86478D01*
Y86560D01*
X79730D01*
Y86641D01*
X79649D01*
Y86723D01*
Y86804D01*
X79567D01*
Y86885D01*
Y86967D01*
X79486D01*
Y87048D01*
Y87130D01*
X79404D01*
Y87211D01*
Y87293D01*
X79323D01*
Y87374D01*
Y87456D01*
X79241D01*
Y87537D01*
Y87619D01*
Y87700D01*
X79160D01*
Y87782D01*
Y87863D01*
X79078D01*
Y87944D01*
Y88026D01*
X78997D01*
Y88107D01*
Y88189D01*
Y88270D01*
X78916D01*
Y88352D01*
Y88433D01*
Y88515D01*
X78834D01*
Y88596D01*
Y88678D01*
X78753D01*
Y88759D01*
Y88841D01*
Y88922D01*
Y89003D01*
X78671D01*
Y89085D01*
Y89166D01*
Y89248D01*
Y89329D01*
Y89411D01*
Y89492D01*
Y89574D01*
Y89655D01*
Y89736D01*
Y89818D01*
Y89899D01*
Y89981D01*
Y90062D01*
Y90144D01*
X78753D01*
Y90225D01*
Y90307D01*
X78834D01*
Y90388D01*
Y90470D01*
X78916D01*
Y90551D01*
Y90633D01*
X78997D01*
Y90714D01*
X79078D01*
Y90795D01*
X79160D01*
Y90877D01*
X79241D01*
Y90958D01*
X79323D01*
Y91040D01*
X79404D01*
Y91121D01*
X79486D01*
Y91203D01*
X79649D01*
Y91284D01*
X79730D01*
Y91366D01*
X79812D01*
Y91447D01*
X79975D01*
Y91529D01*
X80137D01*
Y91610D01*
X80219D01*
Y91691D01*
X80382D01*
Y91773D01*
X80545D01*
Y91854D01*
X80708D01*
Y91936D01*
X80870D01*
Y92017D01*
X80952D01*
Y92099D01*
X81196D01*
Y92180D01*
X81359D01*
Y92262D01*
X81522D01*
Y92343D01*
X81685D01*
Y92425D01*
X81848D01*
Y92506D01*
X82092D01*
Y92588D01*
X82255D01*
Y92669D01*
X82500D01*
Y92751D01*
X82663D01*
Y92832D01*
X82907D01*
Y92913D01*
X83070D01*
Y92995D01*
X83314D01*
Y93076D01*
X83559D01*
Y93158D01*
X83640D01*
Y93076D01*
D02*
G37*
G36*
X105145Y92751D02*
X105308D01*
Y92669D01*
X105552D01*
Y92588D01*
X105715D01*
Y92506D01*
X105878D01*
Y92425D01*
X106123D01*
Y92343D01*
X106286D01*
Y92262D01*
X106530D01*
Y92180D01*
X106611D01*
Y92099D01*
X106856D01*
Y92017D01*
X107019D01*
Y91936D01*
X107182D01*
Y91854D01*
X107344D01*
Y91773D01*
X107507D01*
Y91691D01*
X107752D01*
Y91610D01*
X107833D01*
Y91529D01*
X107996D01*
Y91447D01*
X108159D01*
Y91366D01*
X108322D01*
Y91284D01*
X108485D01*
Y91203D01*
X108566D01*
Y91121D01*
X108729D01*
Y91040D01*
X108892D01*
Y90958D01*
X108974D01*
Y90877D01*
X109137D01*
Y90795D01*
X109218D01*
Y90714D01*
X109381D01*
Y90633D01*
X109462D01*
Y90551D01*
X109544D01*
Y90470D01*
X109625D01*
Y90388D01*
X109707D01*
Y90307D01*
X109788D01*
Y90225D01*
X109870D01*
Y90144D01*
Y90062D01*
X109951D01*
Y89981D01*
Y89899D01*
X110033D01*
Y89818D01*
Y89736D01*
Y89655D01*
Y89574D01*
Y89492D01*
Y89411D01*
Y89329D01*
Y89248D01*
X109951D01*
Y89166D01*
Y89085D01*
X109870D01*
Y89003D01*
Y88922D01*
Y88841D01*
X109788D01*
Y88759D01*
Y88678D01*
X109707D01*
Y88596D01*
Y88515D01*
X109625D01*
Y88433D01*
Y88352D01*
X109544D01*
Y88270D01*
Y88189D01*
X109462D01*
Y88107D01*
Y88026D01*
X109381D01*
Y87944D01*
X109300D01*
Y87863D01*
Y87782D01*
X109218D01*
Y87700D01*
Y87619D01*
X109137D01*
Y87537D01*
Y87456D01*
X109055D01*
Y87374D01*
Y87293D01*
X108974D01*
Y87211D01*
X108892D01*
Y87130D01*
Y87048D01*
X108811D01*
Y86967D01*
Y86885D01*
X108729D01*
Y86804D01*
Y86723D01*
X108648D01*
Y86641D01*
Y86560D01*
X108566D01*
Y86478D01*
Y86397D01*
X108485D01*
Y86315D01*
Y86234D01*
X108403D01*
Y86152D01*
X108322D01*
Y86071D01*
Y85989D01*
X108240D01*
Y85908D01*
Y85826D01*
X108159D01*
Y85745D01*
Y85664D01*
X108078D01*
Y85582D01*
Y85501D01*
X107996D01*
Y85419D01*
X107915D01*
Y85338D01*
Y85256D01*
X107833D01*
Y85175D01*
Y85093D01*
X107752D01*
Y85012D01*
Y84930D01*
X107670D01*
Y84849D01*
Y84768D01*
X107589D01*
Y84686D01*
X107507D01*
Y84605D01*
Y84523D01*
X107426D01*
Y84442D01*
Y84360D01*
X107344D01*
Y84279D01*
Y84197D01*
X107263D01*
Y84116D01*
Y84034D01*
X107182D01*
Y83953D01*
Y83872D01*
X107100D01*
Y83790D01*
Y83709D01*
X107019D01*
Y83627D01*
X106937D01*
Y83546D01*
Y83464D01*
X106856D01*
Y83383D01*
Y83301D01*
X106774D01*
Y83220D01*
Y83138D01*
X106693D01*
Y83057D01*
Y82976D01*
X106611D01*
Y82894D01*
X106530D01*
Y82813D01*
Y82731D01*
X106448D01*
Y82650D01*
Y82568D01*
X106367D01*
Y82487D01*
Y82405D01*
X106286D01*
Y82324D01*
Y82242D01*
X106204D01*
Y82161D01*
X106123D01*
Y82079D01*
X106041D01*
Y81998D01*
Y81916D01*
X105960D01*
Y81835D01*
X105878D01*
Y81754D01*
X105797D01*
Y81672D01*
X105715D01*
Y81591D01*
Y81509D01*
X105634D01*
Y81428D01*
X105552D01*
Y81346D01*
X105471D01*
Y81265D01*
X105389D01*
Y81183D01*
X105308D01*
Y81102D01*
X105227D01*
Y81020D01*
X105145D01*
Y80939D01*
X105064D01*
Y80858D01*
X104982D01*
Y80776D01*
X104901D01*
Y80695D01*
X104819D01*
Y80613D01*
X104656D01*
Y80532D01*
X104575D01*
Y80450D01*
X104412D01*
Y80369D01*
X104249D01*
Y80287D01*
X104005D01*
Y80206D01*
X102864D01*
Y80287D01*
X102457D01*
Y80369D01*
X102131D01*
Y80450D01*
X101887D01*
Y80532D01*
X101561D01*
Y80613D01*
X101398D01*
Y80695D01*
X101154D01*
Y80776D01*
X100909D01*
Y80858D01*
X100746D01*
Y80939D01*
X100502D01*
Y81020D01*
X100339D01*
Y81102D01*
X100095D01*
Y81183D01*
X99932D01*
Y81265D01*
X99850D01*
Y81346D01*
X99932D01*
Y81428D01*
X100013D01*
Y81509D01*
Y81591D01*
X100095D01*
Y81672D01*
X100176D01*
Y81754D01*
X100258D01*
Y81835D01*
X100339D01*
Y81916D01*
Y81998D01*
X100420D01*
Y82079D01*
X100502D01*
Y82161D01*
Y82242D01*
X100584D01*
Y82324D01*
X100665D01*
Y82405D01*
Y82487D01*
X100746D01*
Y82568D01*
Y82650D01*
X100828D01*
Y82731D01*
Y82813D01*
X100909D01*
Y82894D01*
Y82976D01*
X100991D01*
Y83057D01*
Y83138D01*
X101072D01*
Y83220D01*
Y83301D01*
X101154D01*
Y83383D01*
Y83464D01*
X101235D01*
Y83546D01*
Y83627D01*
X101317D01*
Y83709D01*
Y83790D01*
Y83872D01*
X101398D01*
Y83953D01*
Y84034D01*
X101479D01*
Y84116D01*
Y84197D01*
X101561D01*
Y84279D01*
Y84360D01*
Y84442D01*
X101642D01*
Y84523D01*
Y84605D01*
X101724D01*
Y84686D01*
Y84768D01*
Y84849D01*
X101805D01*
Y84930D01*
Y85012D01*
X101887D01*
Y85093D01*
Y85175D01*
Y85256D01*
X101968D01*
Y85338D01*
Y85419D01*
X102050D01*
Y85501D01*
Y85582D01*
Y85664D01*
X102131D01*
Y85745D01*
Y85826D01*
X102213D01*
Y85908D01*
Y85989D01*
Y86071D01*
X102294D01*
Y86152D01*
Y86234D01*
X102375D01*
Y86315D01*
Y86397D01*
Y86478D01*
X102457D01*
Y86560D01*
Y86641D01*
X102538D01*
Y86723D01*
Y86804D01*
Y86885D01*
X102620D01*
Y86967D01*
Y87048D01*
X102701D01*
Y87130D01*
Y87211D01*
Y87293D01*
X102783D01*
Y87374D01*
Y87456D01*
X102864D01*
Y87537D01*
Y87619D01*
Y87700D01*
X102946D01*
Y87782D01*
Y87863D01*
X103027D01*
Y87944D01*
Y88026D01*
Y88107D01*
X103109D01*
Y88189D01*
Y88270D01*
X103190D01*
Y88352D01*
Y88433D01*
X103272D01*
Y88515D01*
Y88596D01*
Y88678D01*
X103353D01*
Y88759D01*
Y88841D01*
Y88922D01*
X103435D01*
Y89003D01*
Y89085D01*
X103516D01*
Y89166D01*
Y89248D01*
X103597D01*
Y89329D01*
Y89411D01*
Y89492D01*
X103679D01*
Y89574D01*
Y89655D01*
X103760D01*
Y89736D01*
Y89818D01*
Y89899D01*
X103842D01*
Y89981D01*
Y90062D01*
X103923D01*
Y90144D01*
Y90225D01*
Y90307D01*
X104005D01*
Y90388D01*
Y90470D01*
X104086D01*
Y90551D01*
Y90633D01*
Y90714D01*
X104168D01*
Y90795D01*
Y90877D01*
X104249D01*
Y90958D01*
Y91040D01*
Y91121D01*
X104331D01*
Y91203D01*
Y91284D01*
X104412D01*
Y91366D01*
Y91447D01*
Y91529D01*
X104493D01*
Y91610D01*
Y91691D01*
X104575D01*
Y91773D01*
Y91854D01*
Y91936D01*
X104656D01*
Y92017D01*
Y92099D01*
Y92180D01*
X104738D01*
Y92262D01*
Y92343D01*
Y92425D01*
X104819D01*
Y92506D01*
Y92588D01*
Y92669D01*
X104901D01*
Y92751D01*
Y92832D01*
X105145D01*
Y92751D01*
D02*
G37*
G36*
X77857Y86478D02*
Y86397D01*
X77938D01*
Y86315D01*
Y86234D01*
X78019D01*
Y86152D01*
Y86071D01*
X78101D01*
Y85989D01*
Y85908D01*
X78182D01*
Y85826D01*
Y85745D01*
X78264D01*
Y85664D01*
X78345D01*
Y85582D01*
Y85501D01*
X78427D01*
Y85419D01*
X78508D01*
Y85338D01*
Y85256D01*
X78590D01*
Y85175D01*
Y85093D01*
X78671D01*
Y85012D01*
X78753D01*
Y84930D01*
Y84849D01*
X78834D01*
Y84768D01*
Y84686D01*
X78916D01*
Y84605D01*
X78997D01*
Y84523D01*
Y84442D01*
X79078D01*
Y84360D01*
Y84279D01*
X79160D01*
Y84197D01*
X79241D01*
Y84116D01*
Y84034D01*
X79323D01*
Y83953D01*
Y83872D01*
X79404D01*
Y83790D01*
X79486D01*
Y83709D01*
Y83627D01*
X79567D01*
Y83546D01*
X79649D01*
Y83464D01*
Y83383D01*
X79730D01*
Y83301D01*
Y83220D01*
X79812D01*
Y83138D01*
X79893D01*
Y83057D01*
Y82976D01*
X79975D01*
Y82894D01*
X80056D01*
Y82813D01*
Y82731D01*
X80137D01*
Y82650D01*
Y82568D01*
X80219D01*
Y82487D01*
X80300D01*
Y82405D01*
Y82324D01*
X80382D01*
Y82242D01*
X80463D01*
Y82161D01*
Y82079D01*
X80545D01*
Y81998D01*
X80626D01*
Y81916D01*
Y81835D01*
X80708D01*
Y81754D01*
X80789D01*
Y81672D01*
Y81591D01*
X80708D01*
Y81509D01*
X80463D01*
Y81428D01*
X80300D01*
Y81346D01*
X80056D01*
Y81265D01*
X79893D01*
Y81183D01*
X79730D01*
Y81102D01*
X79486D01*
Y81020D01*
X79323D01*
Y80939D01*
X79078D01*
Y80858D01*
X78916D01*
Y80776D01*
X78671D01*
Y80695D01*
X78508D01*
Y80613D01*
X78345D01*
Y80532D01*
X78101D01*
Y80450D01*
X77938D01*
Y80369D01*
X77775D01*
Y80287D01*
X77531D01*
Y80206D01*
X77368D01*
Y80124D01*
X77123D01*
Y80043D01*
X76960D01*
Y79962D01*
X76716D01*
Y79880D01*
X76553D01*
Y79799D01*
X76309D01*
Y79717D01*
X76064D01*
Y79636D01*
X75820D01*
Y79554D01*
X75250D01*
Y79636D01*
Y79717D01*
Y79799D01*
X75168D01*
Y79880D01*
Y79962D01*
Y80043D01*
Y80124D01*
Y80206D01*
Y80287D01*
Y80369D01*
Y80450D01*
X75087D01*
Y80532D01*
Y80613D01*
Y80695D01*
Y80776D01*
Y80858D01*
Y80939D01*
Y81020D01*
Y81102D01*
Y81183D01*
Y81265D01*
X75168D01*
Y81346D01*
Y81428D01*
Y81509D01*
Y81591D01*
Y81672D01*
Y81754D01*
Y81835D01*
Y81916D01*
Y81998D01*
X75250D01*
Y82079D01*
Y82161D01*
Y82242D01*
Y82324D01*
Y82405D01*
X75331D01*
Y82487D01*
Y82568D01*
Y82650D01*
Y82731D01*
X75413D01*
Y82813D01*
Y82894D01*
Y82976D01*
Y83057D01*
X75494D01*
Y83138D01*
Y83220D01*
Y83301D01*
X75576D01*
Y83383D01*
Y83464D01*
Y83546D01*
X75657D01*
Y83627D01*
Y83709D01*
X75739D01*
Y83790D01*
Y83872D01*
Y83953D01*
X75820D01*
Y84034D01*
Y84116D01*
X75902D01*
Y84197D01*
Y84279D01*
X75983D01*
Y84360D01*
Y84442D01*
X76064D01*
Y84523D01*
X76146D01*
Y84605D01*
Y84686D01*
X76227D01*
Y84768D01*
Y84849D01*
X76309D01*
Y84930D01*
X76390D01*
Y85012D01*
Y85093D01*
X76472D01*
Y85175D01*
X76553D01*
Y85256D01*
Y85338D01*
X76635D01*
Y85419D01*
X76716D01*
Y85501D01*
X76798D01*
Y85582D01*
X76879D01*
Y85664D01*
Y85745D01*
X76960D01*
Y85826D01*
X77042D01*
Y85908D01*
X77123D01*
Y85989D01*
X77205D01*
Y86071D01*
X77286D01*
Y86152D01*
X77368D01*
Y86234D01*
X77449D01*
Y86315D01*
X77531D01*
Y86397D01*
X77694D01*
Y86478D01*
X77775D01*
Y86560D01*
X77857D01*
Y86478D01*
D02*
G37*
G36*
X110521Y86315D02*
X110603D01*
Y86234D01*
X110766D01*
Y86152D01*
Y86071D01*
X110929D01*
Y85989D01*
X111010D01*
Y85908D01*
X111092D01*
Y85826D01*
X111173D01*
Y85745D01*
Y85664D01*
X111255D01*
Y85582D01*
X111336D01*
Y85501D01*
X111417D01*
Y85419D01*
X111499D01*
Y85338D01*
X111580D01*
Y85256D01*
Y85175D01*
X111662D01*
Y85093D01*
X111743D01*
Y85012D01*
X111825D01*
Y84930D01*
Y84849D01*
X111906D01*
Y84768D01*
X111988D01*
Y84686D01*
Y84605D01*
X112069D01*
Y84523D01*
Y84442D01*
X112151D01*
Y84360D01*
Y84279D01*
X112232D01*
Y84197D01*
Y84116D01*
X112313D01*
Y84034D01*
Y83953D01*
X112395D01*
Y83872D01*
Y83790D01*
X112476D01*
Y83709D01*
Y83627D01*
X112558D01*
Y83546D01*
Y83464D01*
Y83383D01*
X112639D01*
Y83301D01*
Y83220D01*
Y83138D01*
X112721D01*
Y83057D01*
Y82976D01*
Y82894D01*
X112802D01*
Y82813D01*
Y82731D01*
Y82650D01*
Y82568D01*
Y82487D01*
X112884D01*
Y82405D01*
Y82324D01*
Y82242D01*
Y82161D01*
X112965D01*
Y82079D01*
Y81998D01*
Y81916D01*
Y81835D01*
Y81754D01*
Y81672D01*
Y81591D01*
Y81509D01*
Y81428D01*
X113047D01*
Y81346D01*
Y81265D01*
Y81183D01*
Y81102D01*
Y81020D01*
Y80939D01*
Y80858D01*
Y80776D01*
Y80695D01*
Y80613D01*
Y80532D01*
Y80450D01*
Y80369D01*
Y80287D01*
X112965D01*
Y80206D01*
Y80124D01*
Y80043D01*
Y79962D01*
Y79880D01*
Y79799D01*
Y79717D01*
X112884D01*
Y79636D01*
Y79554D01*
Y79473D01*
X112802D01*
Y79391D01*
Y79310D01*
X112558D01*
Y79391D01*
X112232D01*
Y79473D01*
X111988D01*
Y79554D01*
X111743D01*
Y79636D01*
X111499D01*
Y79717D01*
X111336D01*
Y79799D01*
X111092D01*
Y79880D01*
X110929D01*
Y79962D01*
X110684D01*
Y80043D01*
X110521D01*
Y80124D01*
X110358D01*
Y80206D01*
X110114D01*
Y80287D01*
X109951D01*
Y80369D01*
X109788D01*
Y80450D01*
X109544D01*
Y80532D01*
X109381D01*
Y80613D01*
X109218D01*
Y80695D01*
X108974D01*
Y80776D01*
X108811D01*
Y80858D01*
X108566D01*
Y80939D01*
X108403D01*
Y81020D01*
X108240D01*
Y81102D01*
X107996D01*
Y81183D01*
X107833D01*
Y81265D01*
X107670D01*
Y81346D01*
X107752D01*
Y81428D01*
Y81509D01*
X107833D01*
Y81591D01*
Y81672D01*
X107915D01*
Y81754D01*
Y81835D01*
X107996D01*
Y81916D01*
X108078D01*
Y81998D01*
Y82079D01*
X108159D01*
Y82161D01*
Y82242D01*
X108240D01*
Y82324D01*
Y82405D01*
X108322D01*
Y82487D01*
Y82568D01*
X108403D01*
Y82650D01*
X108485D01*
Y82731D01*
Y82813D01*
X108566D01*
Y82894D01*
Y82976D01*
X108648D01*
Y83057D01*
Y83138D01*
X108729D01*
Y83220D01*
Y83301D01*
X108811D01*
Y83383D01*
Y83464D01*
X108892D01*
Y83546D01*
X108974D01*
Y83627D01*
Y83709D01*
X109055D01*
Y83790D01*
Y83872D01*
X109137D01*
Y83953D01*
Y84034D01*
X109218D01*
Y84116D01*
Y84197D01*
X109300D01*
Y84279D01*
Y84360D01*
X109381D01*
Y84442D01*
X109462D01*
Y84523D01*
Y84605D01*
X109544D01*
Y84686D01*
Y84768D01*
X109625D01*
Y84849D01*
Y84930D01*
X109707D01*
Y85012D01*
Y85093D01*
X109788D01*
Y85175D01*
X109870D01*
Y85256D01*
Y85338D01*
X109951D01*
Y85419D01*
Y85501D01*
X110033D01*
Y85582D01*
Y85664D01*
X110114D01*
Y85745D01*
Y85826D01*
X110196D01*
Y85908D01*
Y85989D01*
X110277D01*
Y86071D01*
X110358D01*
Y86152D01*
Y86234D01*
X110440D01*
Y86315D01*
Y86397D01*
X110521D01*
Y86315D01*
D02*
G37*
G36*
X94881Y35460D02*
X95859D01*
Y35379D01*
X96266D01*
Y35298D01*
X96755D01*
Y35216D01*
X96999D01*
Y35135D01*
X97407D01*
Y35053D01*
X97651D01*
Y34972D01*
X97977D01*
Y34890D01*
X98221D01*
Y34809D01*
X98466D01*
Y34727D01*
X98710D01*
Y34646D01*
X98873D01*
Y34564D01*
X99117D01*
Y34483D01*
X99362D01*
Y34402D01*
X99524D01*
Y34320D01*
X99687D01*
Y34238D01*
X99850D01*
Y34157D01*
X100013D01*
Y34076D01*
X100176D01*
Y33994D01*
X100339D01*
Y33913D01*
X100502D01*
Y33831D01*
X100665D01*
Y33750D01*
X100828D01*
Y33668D01*
X100909D01*
Y33587D01*
X101072D01*
Y33505D01*
X101235D01*
Y33424D01*
X101317D01*
Y33342D01*
X101479D01*
Y33261D01*
X101561D01*
Y33180D01*
X101724D01*
Y33098D01*
X101805D01*
Y33017D01*
X101887D01*
Y32935D01*
X102050D01*
Y32854D01*
X102131D01*
Y32772D01*
X102213D01*
Y32691D01*
X102294D01*
Y32609D01*
X102375D01*
Y32528D01*
X102457D01*
Y32447D01*
X102538D01*
Y32365D01*
X102620D01*
Y32284D01*
X102701D01*
Y32202D01*
X102783D01*
Y32121D01*
X102864D01*
Y32039D01*
Y31958D01*
X102946D01*
Y31876D01*
X103027D01*
Y31795D01*
Y31713D01*
X103109D01*
Y31632D01*
Y31550D01*
X103190D01*
Y31469D01*
Y31387D01*
Y31306D01*
X103272D01*
Y31225D01*
Y31143D01*
Y31062D01*
Y30980D01*
Y30899D01*
Y30817D01*
Y30736D01*
Y30654D01*
Y30573D01*
Y30492D01*
Y30410D01*
Y30329D01*
X103190D01*
Y30247D01*
Y30166D01*
Y30084D01*
X103109D01*
Y30003D01*
Y29921D01*
Y29840D01*
Y29758D01*
X103027D01*
Y29677D01*
Y29595D01*
Y29514D01*
X102946D01*
Y29432D01*
Y29351D01*
X102864D01*
Y29270D01*
Y29188D01*
Y29107D01*
X102783D01*
Y29025D01*
Y28944D01*
X102701D01*
Y28862D01*
Y28781D01*
Y28699D01*
X102620D01*
Y28618D01*
Y28536D01*
X102538D01*
Y28455D01*
Y28374D01*
Y28292D01*
X102457D01*
Y28211D01*
Y28129D01*
Y28048D01*
X102375D01*
Y27966D01*
Y27885D01*
X102294D01*
Y27803D01*
Y27722D01*
Y27640D01*
X102213D01*
Y27559D01*
Y27477D01*
X102131D01*
Y27396D01*
Y27315D01*
X102050D01*
Y27233D01*
Y27152D01*
Y27070D01*
X101968D01*
Y26989D01*
Y26907D01*
X101887D01*
Y26826D01*
Y26744D01*
Y26663D01*
X101805D01*
Y26581D01*
Y26500D01*
X101724D01*
Y26419D01*
Y26337D01*
Y26256D01*
X101642D01*
Y26174D01*
Y26093D01*
X101561D01*
Y26011D01*
Y25930D01*
Y25848D01*
X101479D01*
Y25767D01*
Y25685D01*
X101398D01*
Y25604D01*
Y25523D01*
Y25441D01*
X101317D01*
Y25360D01*
Y25278D01*
X101235D01*
Y25197D01*
Y25115D01*
X101154D01*
Y25034D01*
Y24952D01*
Y24871D01*
X101072D01*
Y24789D01*
Y24708D01*
Y24626D01*
X100991D01*
Y24545D01*
Y24464D01*
X100909D01*
Y24382D01*
Y24301D01*
Y24219D01*
X100828D01*
Y24138D01*
Y24056D01*
X100746D01*
Y23975D01*
Y23893D01*
Y23812D01*
X100665D01*
Y23730D01*
Y23649D01*
X100584D01*
Y23568D01*
Y23486D01*
Y23405D01*
X100502D01*
Y23323D01*
Y23242D01*
X100420D01*
Y23160D01*
Y23079D01*
Y22997D01*
X100339D01*
Y22916D01*
Y22834D01*
X100258D01*
Y22753D01*
Y22671D01*
X100176D01*
Y22590D01*
Y22509D01*
Y22427D01*
X100095D01*
Y22346D01*
Y22264D01*
Y22183D01*
X100013D01*
Y22101D01*
Y22020D01*
X99932D01*
Y21938D01*
Y21857D01*
Y21775D01*
X99850D01*
Y21694D01*
Y21612D01*
X99769D01*
Y21531D01*
Y21450D01*
X99687D01*
Y21368D01*
Y21287D01*
X99606D01*
Y21205D01*
Y21124D01*
Y21042D01*
X99524D01*
Y20961D01*
Y20879D01*
X99443D01*
Y20798D01*
Y20717D01*
X99362D01*
Y20635D01*
Y20554D01*
X99280D01*
Y20472D01*
Y20391D01*
X99199D01*
Y20309D01*
X99117D01*
Y20228D01*
Y20146D01*
X99036D01*
Y20065D01*
Y19983D01*
X98954D01*
Y19902D01*
X98873D01*
Y19820D01*
Y19739D01*
X98791D01*
Y19658D01*
X98710D01*
Y19576D01*
X98628D01*
Y19495D01*
X98547D01*
Y19413D01*
X98466D01*
Y19332D01*
X98384D01*
Y19250D01*
X98303D01*
Y19169D01*
X98221D01*
Y19087D01*
X98140D01*
Y19006D01*
X98058D01*
Y18924D01*
X97977D01*
Y18843D01*
X97814D01*
Y18762D01*
X97651D01*
Y18680D01*
X97570D01*
Y18599D01*
X97407D01*
Y18517D01*
X97244D01*
Y18436D01*
X97081D01*
Y18354D01*
X96836D01*
Y18273D01*
X96592D01*
Y18191D01*
X96429D01*
Y18110D01*
X96103D01*
Y18028D01*
X95777D01*
Y17947D01*
X95289D01*
Y17865D01*
X94230D01*
Y17784D01*
X93985D01*
Y17865D01*
X92845D01*
Y17947D01*
X92275D01*
Y18028D01*
X92030D01*
Y18110D01*
X91623D01*
Y18191D01*
X91379D01*
Y18273D01*
X91134D01*
Y18354D01*
X90890D01*
Y18436D01*
X90645D01*
Y18517D01*
X90483D01*
Y18599D01*
X90320D01*
Y18680D01*
X90157D01*
Y18762D01*
X89994D01*
Y18843D01*
X89831D01*
Y18924D01*
X89668D01*
Y19006D01*
X89587D01*
Y19087D01*
X89505D01*
Y19169D01*
X89342D01*
Y19250D01*
X89261D01*
Y19332D01*
X89179D01*
Y19413D01*
X89098D01*
Y19495D01*
X89016D01*
Y19576D01*
Y19658D01*
X88935D01*
Y19739D01*
X88853D01*
Y19820D01*
X88772D01*
Y19902D01*
Y19983D01*
X88691D01*
Y20065D01*
Y20146D01*
X88609D01*
Y20228D01*
Y20309D01*
X88528D01*
Y20391D01*
Y20472D01*
X88446D01*
Y20554D01*
Y20635D01*
X88365D01*
Y20717D01*
Y20798D01*
Y20879D01*
X88283D01*
Y20961D01*
Y21042D01*
X88202D01*
Y21124D01*
Y21205D01*
Y21287D01*
X88120D01*
Y21368D01*
Y21450D01*
Y21531D01*
Y21612D01*
X88039D01*
Y21694D01*
Y21775D01*
Y21857D01*
X87957D01*
Y21938D01*
Y22020D01*
Y22101D01*
X87876D01*
Y22183D01*
Y22264D01*
Y22346D01*
X87795D01*
Y22427D01*
Y22509D01*
Y22590D01*
X87713D01*
Y22671D01*
Y22753D01*
Y22834D01*
X87632D01*
Y22916D01*
Y22997D01*
Y23079D01*
Y23160D01*
X87550D01*
Y23242D01*
Y23323D01*
Y23405D01*
X87469D01*
Y23486D01*
Y23568D01*
Y23649D01*
X87387D01*
Y23730D01*
Y23812D01*
Y23893D01*
Y23975D01*
X87306D01*
Y24056D01*
Y24138D01*
Y24219D01*
X87224D01*
Y24301D01*
Y24382D01*
Y24464D01*
X87143D01*
Y24545D01*
Y24626D01*
Y24708D01*
X87061D01*
Y24789D01*
Y24871D01*
Y24952D01*
X86980D01*
Y25034D01*
Y25115D01*
Y25197D01*
X86898D01*
Y25278D01*
Y25360D01*
Y25441D01*
Y25523D01*
X86817D01*
Y25604D01*
Y25685D01*
Y25767D01*
X86735D01*
Y25848D01*
Y25930D01*
Y26011D01*
X86654D01*
Y26093D01*
Y26174D01*
Y26256D01*
X86573D01*
Y26337D01*
Y26419D01*
Y26500D01*
X86491D01*
Y26581D01*
Y26663D01*
Y26744D01*
X86410D01*
Y26826D01*
Y26907D01*
Y26989D01*
Y27070D01*
X86328D01*
Y27152D01*
Y27233D01*
Y27315D01*
X86247D01*
Y27396D01*
Y27477D01*
Y27559D01*
X86165D01*
Y27640D01*
Y27722D01*
Y27803D01*
X86084D01*
Y27885D01*
Y27966D01*
Y28048D01*
X86002D01*
Y28129D01*
Y28211D01*
Y28292D01*
X85921D01*
Y28374D01*
Y28455D01*
Y28536D01*
Y28618D01*
X85839D01*
Y28699D01*
Y28781D01*
Y28862D01*
X85758D01*
Y28944D01*
Y29025D01*
Y29107D01*
X85677D01*
Y29188D01*
Y29270D01*
Y29351D01*
X85595D01*
Y29432D01*
Y29514D01*
X85514D01*
Y29595D01*
Y29677D01*
Y29758D01*
Y29840D01*
X85432D01*
Y29921D01*
Y30003D01*
Y30084D01*
Y30166D01*
X85351D01*
Y30247D01*
Y30329D01*
Y30410D01*
Y30492D01*
Y30573D01*
Y30654D01*
Y30736D01*
Y30817D01*
Y30899D01*
X85432D01*
Y30980D01*
Y31062D01*
Y31143D01*
Y31225D01*
X85514D01*
Y31306D01*
Y31387D01*
X85595D01*
Y31469D01*
Y31550D01*
X85677D01*
Y31632D01*
X85758D01*
Y31713D01*
Y31795D01*
X85839D01*
Y31876D01*
X85921D01*
Y31958D01*
X86002D01*
Y32039D01*
Y32121D01*
X86084D01*
Y32202D01*
X86165D01*
Y32284D01*
X86247D01*
Y32365D01*
X86328D01*
Y32447D01*
X86410D01*
Y32528D01*
X86573D01*
Y32609D01*
X86654D01*
Y32691D01*
X86735D01*
Y32772D01*
X86817D01*
Y32854D01*
X86898D01*
Y32935D01*
X87061D01*
Y33017D01*
X87143D01*
Y33098D01*
X87224D01*
Y33180D01*
X87387D01*
Y33261D01*
X87469D01*
Y33342D01*
X87632D01*
Y33424D01*
X87713D01*
Y33505D01*
X87876D01*
Y33587D01*
X87957D01*
Y33668D01*
X88120D01*
Y33750D01*
X88283D01*
Y33831D01*
X88365D01*
Y33913D01*
X88528D01*
Y33994D01*
X88691D01*
Y34076D01*
X88853D01*
Y34157D01*
X89016D01*
Y34238D01*
X89179D01*
Y34320D01*
X89342D01*
Y34402D01*
X89505D01*
Y34483D01*
X89749D01*
Y34564D01*
X89912D01*
Y34646D01*
X90075D01*
Y34727D01*
X90320D01*
Y34809D01*
X90564D01*
Y34890D01*
X90808D01*
Y34972D01*
X91053D01*
Y35053D01*
X91297D01*
Y35135D01*
X91704D01*
Y35216D01*
X91949D01*
Y35298D01*
X92438D01*
Y35379D01*
X92763D01*
Y35460D01*
X93741D01*
Y35542D01*
X94881D01*
Y35460D01*
D02*
G37*
G36*
X83640Y30084D02*
Y30003D01*
Y29921D01*
X83722D01*
Y29840D01*
Y29758D01*
Y29677D01*
Y29595D01*
X83803D01*
Y29514D01*
Y29432D01*
Y29351D01*
Y29270D01*
X83885D01*
Y29188D01*
Y29107D01*
Y29025D01*
X83966D01*
Y28944D01*
Y28862D01*
Y28781D01*
X84047D01*
Y28699D01*
Y28618D01*
Y28536D01*
X84129D01*
Y28455D01*
Y28374D01*
Y28292D01*
X84210D01*
Y28211D01*
Y28129D01*
Y28048D01*
X84292D01*
Y27966D01*
Y27885D01*
Y27803D01*
X84373D01*
Y27722D01*
Y27640D01*
Y27559D01*
Y27477D01*
X84455D01*
Y27396D01*
Y27315D01*
Y27233D01*
X84536D01*
Y27152D01*
Y27070D01*
Y26989D01*
X84618D01*
Y26907D01*
Y26826D01*
Y26744D01*
X84699D01*
Y26663D01*
Y26581D01*
Y26500D01*
X84781D01*
Y26419D01*
Y26337D01*
Y26256D01*
Y26174D01*
X84862D01*
Y26093D01*
Y26011D01*
X84943D01*
Y25930D01*
Y25848D01*
Y25767D01*
Y25685D01*
X85025D01*
Y25604D01*
Y25523D01*
Y25441D01*
X85106D01*
Y25360D01*
Y25278D01*
Y25197D01*
X85188D01*
Y25115D01*
Y25034D01*
Y24952D01*
Y24871D01*
X85269D01*
Y24789D01*
Y24708D01*
X85351D01*
Y24626D01*
Y24545D01*
Y24464D01*
Y24382D01*
X85432D01*
Y24301D01*
Y24219D01*
Y24138D01*
X85514D01*
Y24056D01*
Y23975D01*
Y23893D01*
X85595D01*
Y23812D01*
Y23730D01*
Y23649D01*
Y23568D01*
X85677D01*
Y23486D01*
Y23405D01*
X85758D01*
Y23323D01*
Y23242D01*
Y23160D01*
Y23079D01*
X85839D01*
Y22997D01*
Y22916D01*
X85921D01*
Y22834D01*
Y22753D01*
Y22671D01*
Y22590D01*
X86002D01*
Y22509D01*
Y22427D01*
Y22346D01*
X86084D01*
Y22264D01*
Y22183D01*
Y22101D01*
X86165D01*
Y22020D01*
Y21938D01*
Y21857D01*
Y21775D01*
X86247D01*
Y21694D01*
Y21612D01*
X86328D01*
Y21531D01*
Y21450D01*
Y21368D01*
Y21287D01*
X86410D01*
Y21205D01*
Y21124D01*
Y21042D01*
X86491D01*
Y20961D01*
Y20879D01*
Y20798D01*
X86573D01*
Y20717D01*
Y20635D01*
Y20554D01*
X86654D01*
Y20472D01*
Y20391D01*
Y20309D01*
X86735D01*
Y20228D01*
Y20146D01*
Y20065D01*
X86817D01*
Y19983D01*
Y19902D01*
X86898D01*
Y19820D01*
Y19739D01*
X86980D01*
Y19658D01*
Y19576D01*
X87061D01*
Y19495D01*
Y19413D01*
X87143D01*
Y19332D01*
Y19250D01*
X87224D01*
Y19169D01*
Y19087D01*
X87306D01*
Y19006D01*
Y18924D01*
X87387D01*
Y18843D01*
X87469D01*
Y18762D01*
X87550D01*
Y18680D01*
Y18599D01*
X87632D01*
Y18517D01*
X87713D01*
Y18436D01*
X87795D01*
Y18354D01*
X87876D01*
Y18273D01*
X87713D01*
Y18191D01*
X87550D01*
Y18110D01*
X87306D01*
Y18028D01*
X87143D01*
Y17947D01*
X86980D01*
Y17865D01*
X86735D01*
Y17784D01*
X86573D01*
Y17703D01*
X86328D01*
Y17621D01*
X86165D01*
Y17540D01*
X85921D01*
Y17458D01*
X85677D01*
Y17377D01*
X85351D01*
Y17295D01*
X84292D01*
Y17377D01*
X84129D01*
Y17458D01*
X83966D01*
Y17540D01*
X83885D01*
Y17621D01*
X83803D01*
Y17703D01*
X83640D01*
Y17784D01*
X83559D01*
Y17865D01*
X83477D01*
Y17947D01*
X83396D01*
Y18028D01*
X83314D01*
Y18110D01*
Y18191D01*
X83233D01*
Y18273D01*
X83151D01*
Y18354D01*
X83070D01*
Y18436D01*
X82988D01*
Y18517D01*
Y18599D01*
X82907D01*
Y18680D01*
X82825D01*
Y18762D01*
X82744D01*
Y18843D01*
Y18924D01*
X82663D01*
Y19006D01*
X82581D01*
Y19087D01*
Y19169D01*
X82500D01*
Y19250D01*
X82418D01*
Y19332D01*
Y19413D01*
X82337D01*
Y19495D01*
X82255D01*
Y19576D01*
Y19658D01*
X82174D01*
Y19739D01*
X82092D01*
Y19820D01*
Y19902D01*
X82011D01*
Y19983D01*
X81929D01*
Y20065D01*
Y20146D01*
X81848D01*
Y20228D01*
X81767D01*
Y20309D01*
Y20391D01*
X81685D01*
Y20472D01*
X81604D01*
Y20554D01*
Y20635D01*
X81522D01*
Y20717D01*
Y20798D01*
X81441D01*
Y20879D01*
X81359D01*
Y20961D01*
Y21042D01*
X81278D01*
Y21124D01*
X81196D01*
Y21205D01*
Y21287D01*
X81115D01*
Y21368D01*
Y21450D01*
X81033D01*
Y21531D01*
X80952D01*
Y21612D01*
Y21694D01*
X80870D01*
Y21775D01*
Y21857D01*
X80789D01*
Y21938D01*
X80708D01*
Y22020D01*
Y22101D01*
X80626D01*
Y22183D01*
X80545D01*
Y22264D01*
Y22346D01*
X80463D01*
Y22427D01*
Y22509D01*
X80382D01*
Y22590D01*
X80300D01*
Y22671D01*
Y22753D01*
X80219D01*
Y22834D01*
Y22916D01*
X80137D01*
Y22997D01*
X80056D01*
Y23079D01*
Y23160D01*
X79975D01*
Y23242D01*
Y23323D01*
X79893D01*
Y23405D01*
X79812D01*
Y23486D01*
Y23568D01*
X79730D01*
Y23649D01*
X79649D01*
Y23730D01*
Y23812D01*
X79567D01*
Y23893D01*
Y23975D01*
X79486D01*
Y24056D01*
Y24138D01*
X79404D01*
Y24219D01*
Y24301D01*
X79323D01*
Y24382D01*
Y24464D01*
X79241D01*
Y24545D01*
Y24626D01*
Y24708D01*
X79160D01*
Y24789D01*
Y24871D01*
X79078D01*
Y24952D01*
Y25034D01*
X78997D01*
Y25115D01*
Y25197D01*
Y25278D01*
X78916D01*
Y25360D01*
Y25441D01*
Y25523D01*
X78834D01*
Y25604D01*
Y25685D01*
X78753D01*
Y25767D01*
Y25848D01*
Y25930D01*
Y26011D01*
X78671D01*
Y26093D01*
Y26174D01*
Y26256D01*
Y26337D01*
Y26419D01*
Y26500D01*
Y26581D01*
Y26663D01*
Y26744D01*
Y26826D01*
Y26907D01*
Y26989D01*
Y27070D01*
Y27152D01*
X78753D01*
Y27233D01*
Y27315D01*
X78834D01*
Y27396D01*
Y27477D01*
X78916D01*
Y27559D01*
Y27640D01*
X78997D01*
Y27722D01*
X79078D01*
Y27803D01*
X79160D01*
Y27885D01*
X79241D01*
Y27966D01*
X79323D01*
Y28048D01*
X79404D01*
Y28129D01*
X79486D01*
Y28211D01*
X79649D01*
Y28292D01*
X79730D01*
Y28374D01*
X79812D01*
Y28455D01*
X79975D01*
Y28536D01*
X80137D01*
Y28618D01*
X80219D01*
Y28699D01*
X80382D01*
Y28781D01*
X80545D01*
Y28862D01*
X80708D01*
Y28944D01*
X80870D01*
Y29025D01*
X80952D01*
Y29107D01*
X81196D01*
Y29188D01*
X81359D01*
Y29270D01*
X81522D01*
Y29351D01*
X81685D01*
Y29432D01*
X81848D01*
Y29514D01*
X82092D01*
Y29595D01*
X82255D01*
Y29677D01*
X82500D01*
Y29758D01*
X82663D01*
Y29840D01*
X82907D01*
Y29921D01*
X83070D01*
Y30003D01*
X83314D01*
Y30084D01*
X83559D01*
Y30166D01*
X83640D01*
Y30084D01*
D02*
G37*
G36*
X105145Y29758D02*
X105308D01*
Y29677D01*
X105552D01*
Y29595D01*
X105715D01*
Y29514D01*
X105878D01*
Y29432D01*
X106123D01*
Y29351D01*
X106286D01*
Y29270D01*
X106530D01*
Y29188D01*
X106611D01*
Y29107D01*
X106856D01*
Y29025D01*
X107019D01*
Y28944D01*
X107182D01*
Y28862D01*
X107344D01*
Y28781D01*
X107507D01*
Y28699D01*
X107752D01*
Y28618D01*
X107833D01*
Y28536D01*
X107996D01*
Y28455D01*
X108159D01*
Y28374D01*
X108322D01*
Y28292D01*
X108485D01*
Y28211D01*
X108566D01*
Y28129D01*
X108729D01*
Y28048D01*
X108892D01*
Y27966D01*
X108974D01*
Y27885D01*
X109137D01*
Y27803D01*
X109218D01*
Y27722D01*
X109381D01*
Y27640D01*
X109462D01*
Y27559D01*
X109544D01*
Y27477D01*
X109625D01*
Y27396D01*
X109707D01*
Y27315D01*
X109788D01*
Y27233D01*
X109870D01*
Y27152D01*
Y27070D01*
X109951D01*
Y26989D01*
Y26907D01*
X110033D01*
Y26826D01*
Y26744D01*
Y26663D01*
Y26581D01*
Y26500D01*
Y26419D01*
Y26337D01*
Y26256D01*
X109951D01*
Y26174D01*
Y26093D01*
X109870D01*
Y26011D01*
Y25930D01*
Y25848D01*
X109788D01*
Y25767D01*
Y25685D01*
X109707D01*
Y25604D01*
Y25523D01*
X109625D01*
Y25441D01*
Y25360D01*
X109544D01*
Y25278D01*
Y25197D01*
X109462D01*
Y25115D01*
Y25034D01*
X109381D01*
Y24952D01*
X109300D01*
Y24871D01*
Y24789D01*
X109218D01*
Y24708D01*
Y24626D01*
X109137D01*
Y24545D01*
Y24464D01*
X109055D01*
Y24382D01*
Y24301D01*
X108974D01*
Y24219D01*
X108892D01*
Y24138D01*
Y24056D01*
X108811D01*
Y23975D01*
Y23893D01*
X108729D01*
Y23812D01*
Y23730D01*
X108648D01*
Y23649D01*
Y23568D01*
X108566D01*
Y23486D01*
Y23405D01*
X108485D01*
Y23323D01*
Y23242D01*
X108403D01*
Y23160D01*
X108322D01*
Y23079D01*
Y22997D01*
X108240D01*
Y22916D01*
Y22834D01*
X108159D01*
Y22753D01*
Y22671D01*
X108078D01*
Y22590D01*
Y22509D01*
X107996D01*
Y22427D01*
X107915D01*
Y22346D01*
Y22264D01*
X107833D01*
Y22183D01*
Y22101D01*
X107752D01*
Y22020D01*
Y21938D01*
X107670D01*
Y21857D01*
Y21775D01*
X107589D01*
Y21694D01*
X107507D01*
Y21612D01*
Y21531D01*
X107426D01*
Y21450D01*
Y21368D01*
X107344D01*
Y21287D01*
Y21205D01*
X107263D01*
Y21124D01*
Y21042D01*
X107182D01*
Y20961D01*
Y20879D01*
X107100D01*
Y20798D01*
Y20717D01*
X107019D01*
Y20635D01*
X106937D01*
Y20554D01*
Y20472D01*
X106856D01*
Y20391D01*
Y20309D01*
X106774D01*
Y20228D01*
Y20146D01*
X106693D01*
Y20065D01*
Y19983D01*
X106611D01*
Y19902D01*
X106530D01*
Y19820D01*
Y19739D01*
X106448D01*
Y19658D01*
Y19576D01*
X106367D01*
Y19495D01*
Y19413D01*
X106286D01*
Y19332D01*
Y19250D01*
X106204D01*
Y19169D01*
X106123D01*
Y19087D01*
X106041D01*
Y19006D01*
Y18924D01*
X105960D01*
Y18843D01*
X105878D01*
Y18762D01*
X105797D01*
Y18680D01*
X105715D01*
Y18599D01*
Y18517D01*
X105634D01*
Y18436D01*
X105552D01*
Y18354D01*
X105471D01*
Y18273D01*
X105389D01*
Y18191D01*
X105308D01*
Y18110D01*
X105227D01*
Y18028D01*
X105145D01*
Y17947D01*
X105064D01*
Y17865D01*
X104982D01*
Y17784D01*
X104901D01*
Y17703D01*
X104819D01*
Y17621D01*
X104656D01*
Y17540D01*
X104575D01*
Y17458D01*
X104412D01*
Y17377D01*
X104249D01*
Y17295D01*
X104005D01*
Y17214D01*
X102864D01*
Y17295D01*
X102457D01*
Y17377D01*
X102131D01*
Y17458D01*
X101887D01*
Y17540D01*
X101561D01*
Y17621D01*
X101398D01*
Y17703D01*
X101154D01*
Y17784D01*
X100909D01*
Y17865D01*
X100746D01*
Y17947D01*
X100502D01*
Y18028D01*
X100339D01*
Y18110D01*
X100095D01*
Y18191D01*
X99932D01*
Y18273D01*
X99850D01*
Y18354D01*
X99932D01*
Y18436D01*
X100013D01*
Y18517D01*
Y18599D01*
X100095D01*
Y18680D01*
X100176D01*
Y18762D01*
X100258D01*
Y18843D01*
X100339D01*
Y18924D01*
Y19006D01*
X100420D01*
Y19087D01*
X100502D01*
Y19169D01*
Y19250D01*
X100584D01*
Y19332D01*
X100665D01*
Y19413D01*
Y19495D01*
X100746D01*
Y19576D01*
Y19658D01*
X100828D01*
Y19739D01*
Y19820D01*
X100909D01*
Y19902D01*
Y19983D01*
X100991D01*
Y20065D01*
Y20146D01*
X101072D01*
Y20228D01*
Y20309D01*
X101154D01*
Y20391D01*
Y20472D01*
X101235D01*
Y20554D01*
Y20635D01*
X101317D01*
Y20717D01*
Y20798D01*
Y20879D01*
X101398D01*
Y20961D01*
Y21042D01*
X101479D01*
Y21124D01*
Y21205D01*
X101561D01*
Y21287D01*
Y21368D01*
Y21450D01*
X101642D01*
Y21531D01*
Y21612D01*
X101724D01*
Y21694D01*
Y21775D01*
Y21857D01*
X101805D01*
Y21938D01*
Y22020D01*
X101887D01*
Y22101D01*
Y22183D01*
Y22264D01*
X101968D01*
Y22346D01*
Y22427D01*
X102050D01*
Y22509D01*
Y22590D01*
Y22671D01*
X102131D01*
Y22753D01*
Y22834D01*
X102213D01*
Y22916D01*
Y22997D01*
Y23079D01*
X102294D01*
Y23160D01*
Y23242D01*
X102375D01*
Y23323D01*
Y23405D01*
Y23486D01*
X102457D01*
Y23568D01*
Y23649D01*
X102538D01*
Y23730D01*
Y23812D01*
Y23893D01*
X102620D01*
Y23975D01*
Y24056D01*
X102701D01*
Y24138D01*
Y24219D01*
Y24301D01*
X102783D01*
Y24382D01*
Y24464D01*
X102864D01*
Y24545D01*
Y24626D01*
Y24708D01*
X102946D01*
Y24789D01*
Y24871D01*
X103027D01*
Y24952D01*
Y25034D01*
Y25115D01*
X103109D01*
Y25197D01*
Y25278D01*
X103190D01*
Y25360D01*
Y25441D01*
X103272D01*
Y25523D01*
Y25604D01*
Y25685D01*
X103353D01*
Y25767D01*
Y25848D01*
Y25930D01*
X103435D01*
Y26011D01*
Y26093D01*
X103516D01*
Y26174D01*
Y26256D01*
X103597D01*
Y26337D01*
Y26419D01*
Y26500D01*
X103679D01*
Y26581D01*
Y26663D01*
X103760D01*
Y26744D01*
Y26826D01*
Y26907D01*
X103842D01*
Y26989D01*
Y27070D01*
X103923D01*
Y27152D01*
Y27233D01*
Y27315D01*
X104005D01*
Y27396D01*
Y27477D01*
X104086D01*
Y27559D01*
Y27640D01*
Y27722D01*
X104168D01*
Y27803D01*
Y27885D01*
X104249D01*
Y27966D01*
Y28048D01*
Y28129D01*
X104331D01*
Y28211D01*
Y28292D01*
X104412D01*
Y28374D01*
Y28455D01*
Y28536D01*
X104493D01*
Y28618D01*
Y28699D01*
X104575D01*
Y28781D01*
Y28862D01*
Y28944D01*
X104656D01*
Y29025D01*
Y29107D01*
Y29188D01*
X104738D01*
Y29270D01*
Y29351D01*
Y29432D01*
X104819D01*
Y29514D01*
Y29595D01*
Y29677D01*
X104901D01*
Y29758D01*
Y29840D01*
X105145D01*
Y29758D01*
D02*
G37*
G36*
X77857Y23486D02*
Y23405D01*
X77938D01*
Y23323D01*
Y23242D01*
X78019D01*
Y23160D01*
Y23079D01*
X78101D01*
Y22997D01*
Y22916D01*
X78182D01*
Y22834D01*
Y22753D01*
X78264D01*
Y22671D01*
X78345D01*
Y22590D01*
Y22509D01*
X78427D01*
Y22427D01*
X78508D01*
Y22346D01*
Y22264D01*
X78590D01*
Y22183D01*
Y22101D01*
X78671D01*
Y22020D01*
X78753D01*
Y21938D01*
Y21857D01*
X78834D01*
Y21775D01*
Y21694D01*
X78916D01*
Y21612D01*
X78997D01*
Y21531D01*
Y21450D01*
X79078D01*
Y21368D01*
Y21287D01*
X79160D01*
Y21205D01*
X79241D01*
Y21124D01*
Y21042D01*
X79323D01*
Y20961D01*
Y20879D01*
X79404D01*
Y20798D01*
X79486D01*
Y20717D01*
Y20635D01*
X79567D01*
Y20554D01*
X79649D01*
Y20472D01*
Y20391D01*
X79730D01*
Y20309D01*
Y20228D01*
X79812D01*
Y20146D01*
X79893D01*
Y20065D01*
Y19983D01*
X79975D01*
Y19902D01*
X80056D01*
Y19820D01*
Y19739D01*
X80137D01*
Y19658D01*
Y19576D01*
X80219D01*
Y19495D01*
X80300D01*
Y19413D01*
Y19332D01*
X80382D01*
Y19250D01*
X80463D01*
Y19169D01*
Y19087D01*
X80545D01*
Y19006D01*
X80626D01*
Y18924D01*
Y18843D01*
X80708D01*
Y18762D01*
X80789D01*
Y18680D01*
Y18599D01*
X80708D01*
Y18517D01*
X80463D01*
Y18436D01*
X80300D01*
Y18354D01*
X80056D01*
Y18273D01*
X79893D01*
Y18191D01*
X79730D01*
Y18110D01*
X79486D01*
Y18028D01*
X79323D01*
Y17947D01*
X79078D01*
Y17865D01*
X78916D01*
Y17784D01*
X78671D01*
Y17703D01*
X78508D01*
Y17621D01*
X78345D01*
Y17540D01*
X78101D01*
Y17458D01*
X77938D01*
Y17377D01*
X77775D01*
Y17295D01*
X77531D01*
Y17214D01*
X77368D01*
Y17132D01*
X77123D01*
Y17051D01*
X76960D01*
Y16969D01*
X76716D01*
Y16888D01*
X76553D01*
Y16806D01*
X76309D01*
Y16725D01*
X76064D01*
Y16644D01*
X75820D01*
Y16562D01*
X75250D01*
Y16644D01*
Y16725D01*
Y16806D01*
X75168D01*
Y16888D01*
Y16969D01*
Y17051D01*
Y17132D01*
Y17214D01*
Y17295D01*
Y17377D01*
Y17458D01*
X75087D01*
Y17540D01*
Y17621D01*
Y17703D01*
Y17784D01*
Y17865D01*
Y17947D01*
Y18028D01*
Y18110D01*
Y18191D01*
Y18273D01*
X75168D01*
Y18354D01*
Y18436D01*
Y18517D01*
Y18599D01*
Y18680D01*
Y18762D01*
Y18843D01*
Y18924D01*
Y19006D01*
X75250D01*
Y19087D01*
Y19169D01*
Y19250D01*
Y19332D01*
Y19413D01*
X75331D01*
Y19495D01*
Y19576D01*
Y19658D01*
Y19739D01*
X75413D01*
Y19820D01*
Y19902D01*
Y19983D01*
Y20065D01*
X75494D01*
Y20146D01*
Y20228D01*
Y20309D01*
X75576D01*
Y20391D01*
Y20472D01*
Y20554D01*
X75657D01*
Y20635D01*
Y20717D01*
X75739D01*
Y20798D01*
Y20879D01*
Y20961D01*
X75820D01*
Y21042D01*
Y21124D01*
X75902D01*
Y21205D01*
Y21287D01*
X75983D01*
Y21368D01*
Y21450D01*
X76064D01*
Y21531D01*
X76146D01*
Y21612D01*
Y21694D01*
X76227D01*
Y21775D01*
Y21857D01*
X76309D01*
Y21938D01*
X76390D01*
Y22020D01*
Y22101D01*
X76472D01*
Y22183D01*
X76553D01*
Y22264D01*
Y22346D01*
X76635D01*
Y22427D01*
X76716D01*
Y22509D01*
X76798D01*
Y22590D01*
X76879D01*
Y22671D01*
Y22753D01*
X76960D01*
Y22834D01*
X77042D01*
Y22916D01*
X77123D01*
Y22997D01*
X77205D01*
Y23079D01*
X77286D01*
Y23160D01*
X77368D01*
Y23242D01*
X77449D01*
Y23323D01*
X77531D01*
Y23405D01*
X77694D01*
Y23486D01*
X77775D01*
Y23568D01*
X77857D01*
Y23486D01*
D02*
G37*
G36*
X110521Y23323D02*
X110603D01*
Y23242D01*
X110766D01*
Y23160D01*
Y23079D01*
X110929D01*
Y22997D01*
X111010D01*
Y22916D01*
X111092D01*
Y22834D01*
X111173D01*
Y22753D01*
Y22671D01*
X111255D01*
Y22590D01*
X111336D01*
Y22509D01*
X111417D01*
Y22427D01*
X111499D01*
Y22346D01*
X111580D01*
Y22264D01*
Y22183D01*
X111662D01*
Y22101D01*
X111743D01*
Y22020D01*
X111825D01*
Y21938D01*
Y21857D01*
X111906D01*
Y21775D01*
X111988D01*
Y21694D01*
Y21612D01*
X112069D01*
Y21531D01*
Y21450D01*
X112151D01*
Y21368D01*
Y21287D01*
X112232D01*
Y21205D01*
Y21124D01*
X112313D01*
Y21042D01*
Y20961D01*
X112395D01*
Y20879D01*
Y20798D01*
X112476D01*
Y20717D01*
Y20635D01*
X112558D01*
Y20554D01*
Y20472D01*
Y20391D01*
X112639D01*
Y20309D01*
Y20228D01*
Y20146D01*
X112721D01*
Y20065D01*
Y19983D01*
Y19902D01*
X112802D01*
Y19820D01*
Y19739D01*
Y19658D01*
Y19576D01*
Y19495D01*
X112884D01*
Y19413D01*
Y19332D01*
Y19250D01*
Y19169D01*
X112965D01*
Y19087D01*
Y19006D01*
Y18924D01*
Y18843D01*
Y18762D01*
Y18680D01*
Y18599D01*
Y18517D01*
Y18436D01*
X113047D01*
Y18354D01*
Y18273D01*
Y18191D01*
Y18110D01*
Y18028D01*
Y17947D01*
Y17865D01*
Y17784D01*
Y17703D01*
Y17621D01*
Y17540D01*
Y17458D01*
Y17377D01*
Y17295D01*
X112965D01*
Y17214D01*
Y17132D01*
Y17051D01*
Y16969D01*
Y16888D01*
Y16806D01*
Y16725D01*
X112884D01*
Y16644D01*
Y16562D01*
Y16481D01*
X112802D01*
Y16399D01*
Y16318D01*
X112558D01*
Y16399D01*
X112232D01*
Y16481D01*
X111988D01*
Y16562D01*
X111743D01*
Y16644D01*
X111499D01*
Y16725D01*
X111336D01*
Y16806D01*
X111092D01*
Y16888D01*
X110929D01*
Y16969D01*
X110684D01*
Y17051D01*
X110521D01*
Y17132D01*
X110358D01*
Y17214D01*
X110114D01*
Y17295D01*
X109951D01*
Y17377D01*
X109788D01*
Y17458D01*
X109544D01*
Y17540D01*
X109381D01*
Y17621D01*
X109218D01*
Y17703D01*
X108974D01*
Y17784D01*
X108811D01*
Y17865D01*
X108566D01*
Y17947D01*
X108403D01*
Y18028D01*
X108240D01*
Y18110D01*
X107996D01*
Y18191D01*
X107833D01*
Y18273D01*
X107670D01*
Y18354D01*
X107752D01*
Y18436D01*
Y18517D01*
X107833D01*
Y18599D01*
Y18680D01*
X107915D01*
Y18762D01*
Y18843D01*
X107996D01*
Y18924D01*
X108078D01*
Y19006D01*
Y19087D01*
X108159D01*
Y19169D01*
Y19250D01*
X108240D01*
Y19332D01*
Y19413D01*
X108322D01*
Y19495D01*
Y19576D01*
X108403D01*
Y19658D01*
X108485D01*
Y19739D01*
Y19820D01*
X108566D01*
Y19902D01*
Y19983D01*
X108648D01*
Y20065D01*
Y20146D01*
X108729D01*
Y20228D01*
Y20309D01*
X108811D01*
Y20391D01*
Y20472D01*
X108892D01*
Y20554D01*
X108974D01*
Y20635D01*
Y20717D01*
X109055D01*
Y20798D01*
Y20879D01*
X109137D01*
Y20961D01*
Y21042D01*
X109218D01*
Y21124D01*
Y21205D01*
X109300D01*
Y21287D01*
Y21368D01*
X109381D01*
Y21450D01*
X109462D01*
Y21531D01*
Y21612D01*
X109544D01*
Y21694D01*
Y21775D01*
X109625D01*
Y21857D01*
Y21938D01*
X109707D01*
Y22020D01*
Y22101D01*
X109788D01*
Y22183D01*
X109870D01*
Y22264D01*
Y22346D01*
X109951D01*
Y22427D01*
Y22509D01*
X110033D01*
Y22590D01*
Y22671D01*
X110114D01*
Y22753D01*
Y22834D01*
X110196D01*
Y22916D01*
Y22997D01*
X110277D01*
Y23079D01*
X110358D01*
Y23160D01*
Y23242D01*
X110440D01*
Y23323D01*
Y23405D01*
X110521D01*
Y23323D01*
D02*
G37*
D28*
X179134Y62992D02*
D03*
X182283D02*
D03*
X185433D02*
D03*
X179134Y51181D02*
D03*
X182283D02*
D03*
X185433D02*
D03*
X80709Y62992D02*
D03*
X83858D02*
D03*
X87008D02*
D03*
X80709Y51181D02*
D03*
X83858D02*
D03*
X87008D02*
D03*
X80709Y125984D02*
D03*
X83858D02*
D03*
X87008D02*
D03*
X80709Y114173D02*
D03*
X83858D02*
D03*
X87008D02*
D03*
X179140Y125695D02*
D03*
X182290D02*
D03*
X185439D02*
D03*
X179140Y113884D02*
D03*
X182290D02*
D03*
X185439D02*
D03*
X179134Y188976D02*
D03*
X182283D02*
D03*
X185433D02*
D03*
X179134Y177165D02*
D03*
X182283D02*
D03*
X185433D02*
D03*
X80709Y188976D02*
D03*
X83858D02*
D03*
X87008D02*
D03*
X80709Y177165D02*
D03*
X83858D02*
D03*
X87008D02*
D03*
X80709Y251969D02*
D03*
X83858D02*
D03*
X87008D02*
D03*
X80709Y240158D02*
D03*
X83858D02*
D03*
X87008D02*
D03*
X179134Y251969D02*
D03*
X182283D02*
D03*
X185433D02*
D03*
X179134Y240158D02*
D03*
X182283D02*
D03*
X185433D02*
D03*
X179134Y314961D02*
D03*
X182283D02*
D03*
X185433D02*
D03*
X179134Y303150D02*
D03*
X182283D02*
D03*
X185433D02*
D03*
X87008D02*
D03*
X83858D02*
D03*
X80709D02*
D03*
X87008Y314961D02*
D03*
X83858D02*
D03*
X80709D02*
D03*
X77559Y51181D02*
D03*
X74410D02*
D03*
X71260D02*
D03*
X68110D02*
D03*
X68110Y62992D02*
D03*
X71260D02*
D03*
X74410D02*
D03*
X77559D02*
D03*
X166535D02*
D03*
X169685D02*
D03*
X172835D02*
D03*
X175984D02*
D03*
X175984Y51181D02*
D03*
X172835D02*
D03*
X169685D02*
D03*
X166535D02*
D03*
X175990Y113884D02*
D03*
X172841D02*
D03*
X169691D02*
D03*
X166542D02*
D03*
X166535Y125984D02*
D03*
X169685D02*
D03*
X172835D02*
D03*
X175984D02*
D03*
X77559Y114173D02*
D03*
X74410D02*
D03*
X71260D02*
D03*
X68110D02*
D03*
X68110Y125984D02*
D03*
X71260D02*
D03*
X74410D02*
D03*
X77559D02*
D03*
X68110Y188976D02*
D03*
X71260D02*
D03*
X74410D02*
D03*
X77559D02*
D03*
X77559Y177165D02*
D03*
X74410D02*
D03*
X71260D02*
D03*
X68110D02*
D03*
X175984D02*
D03*
X172835D02*
D03*
X169685D02*
D03*
X166535D02*
D03*
X166535Y188976D02*
D03*
X169685D02*
D03*
X172835D02*
D03*
X175984D02*
D03*
X166535Y251969D02*
D03*
X169685D02*
D03*
X172835D02*
D03*
X175984D02*
D03*
X175984Y240158D02*
D03*
X172835D02*
D03*
X169685D02*
D03*
X166535D02*
D03*
X77559D02*
D03*
X74410D02*
D03*
X71260D02*
D03*
X68110D02*
D03*
X68110Y251969D02*
D03*
X71260D02*
D03*
X74410D02*
D03*
X77559D02*
D03*
X166535Y314961D02*
D03*
X169685D02*
D03*
X172835D02*
D03*
X175984D02*
D03*
X175984Y303150D02*
D03*
X172835D02*
D03*
X169685D02*
D03*
X166535D02*
D03*
X77559D02*
D03*
X74410D02*
D03*
X71260D02*
D03*
X68110D02*
D03*
X77559Y314961D02*
D03*
X74410D02*
D03*
X71260D02*
D03*
X68110D02*
D03*
D29*
X240748Y3150D02*
D03*
Y48031D02*
D03*
X16091Y48825D02*
D03*
Y3943D02*
D03*
X240748Y66142D02*
D03*
Y111024D02*
D03*
X16091Y111817D02*
D03*
Y66935D02*
D03*
X240748Y129134D02*
D03*
Y174016D02*
D03*
X16091Y174809D02*
D03*
Y129928D02*
D03*
X240748Y192126D02*
D03*
Y237008D02*
D03*
X16091Y237802D02*
D03*
Y192920D02*
D03*
X240748Y255118D02*
D03*
Y300000D02*
D03*
X16091Y300794D02*
D03*
Y255912D02*
D03*
X240748Y318110D02*
D03*
Y362992D02*
D03*
X16091Y363786D02*
D03*
Y318904D02*
D03*
D30*
X213976Y15748D02*
D03*
Y35433D02*
D03*
Y25591D02*
D03*
X42862Y36227D02*
D03*
Y16542D02*
D03*
Y26384D02*
D03*
X213976Y78740D02*
D03*
Y98425D02*
D03*
Y88583D02*
D03*
X42862Y99219D02*
D03*
Y79534D02*
D03*
Y89376D02*
D03*
X213976Y141732D02*
D03*
Y161417D02*
D03*
Y151575D02*
D03*
X42862Y162211D02*
D03*
Y142526D02*
D03*
Y152368D02*
D03*
X213976Y204724D02*
D03*
Y224410D02*
D03*
Y214567D02*
D03*
X42862Y225203D02*
D03*
Y205518D02*
D03*
Y215361D02*
D03*
X213976Y267717D02*
D03*
Y287402D02*
D03*
Y277559D02*
D03*
X42862Y288195D02*
D03*
Y268510D02*
D03*
Y278353D02*
D03*
X213976Y330709D02*
D03*
Y350394D02*
D03*
Y340551D02*
D03*
X42862Y351187D02*
D03*
Y331502D02*
D03*
Y341345D02*
D03*
M02*
