G04*
G04 #@! TF.GenerationSoftware,Altium Limited,Altium Designer,20.1.12 (249)*
G04*
G04 Layer_Physical_Order=2*
G04 Layer_Color=16711680*
%FSLAX25Y25*%
%MOIN*%
G70*
G04*
G04 #@! TF.SameCoordinates,880ED213-D7CF-42DA-8A1E-0FEEA66E8632*
G04*
G04*
G04 #@! TF.FilePolarity,Positive*
G04*
G01*
G75*
%ADD18C,0.01500*%
%ADD20C,0.01968*%
%ADD21C,0.05000*%
%ADD22R,0.15354X0.07087*%
%ADD23R,0.17717X0.05118*%
G36*
X203311Y353953D02*
X203389Y353563D01*
X203610Y353232D01*
X203941Y353011D01*
X204118Y352976D01*
Y346835D01*
X222818D01*
X222893Y346460D01*
X223114Y346129D01*
X223445Y345908D01*
X223835Y345831D01*
X240713D01*
Y343688D01*
X240739Y343557D01*
X240740Y343535D01*
X239967Y343215D01*
X239236Y342654D01*
X238690Y341942D01*
X223835D01*
Y344110D01*
X204118D01*
Y336992D01*
X223835D01*
Y338373D01*
X238690D01*
X239236Y337661D01*
X239967Y337100D01*
X240740Y336780D01*
X240739Y336758D01*
X240713Y336627D01*
Y322654D01*
X232071D01*
Y314961D01*
X54563D01*
X54563Y340551D01*
X54485Y340941D01*
X54264Y341272D01*
X53934Y341493D01*
X53543Y341571D01*
X52720D01*
Y344904D01*
X33004D01*
Y342336D01*
X17609D01*
X17063Y343047D01*
X16332Y343608D01*
X15481Y343961D01*
X14567Y344081D01*
X13653Y343961D01*
X12802Y343608D01*
X12071Y343047D01*
X11510Y342316D01*
X11190Y341543D01*
X11168Y341545D01*
X11037Y341571D01*
X0D01*
Y366142D01*
X7413D01*
Y359243D01*
X24768D01*
Y366142D01*
X203311D01*
Y353953D01*
D02*
G37*
G36*
X255906Y314961D02*
X249425D01*
Y322654D01*
X241732D01*
Y336627D01*
X242646Y336748D01*
X243497Y337100D01*
X244229Y337661D01*
X244790Y338392D01*
X245142Y339244D01*
X245263Y340158D01*
X245142Y341071D01*
X244790Y341923D01*
X244229Y342654D01*
X243497Y343215D01*
X242646Y343567D01*
X241732Y343688D01*
Y346850D01*
X223835D01*
Y348894D01*
X213976D01*
Y350394D01*
X212476D01*
Y353953D01*
X204331D01*
Y366142D01*
X232071D01*
Y358449D01*
X249425D01*
Y366142D01*
X255906D01*
Y314961D01*
D02*
G37*
G36*
X53543D02*
X24768D01*
Y323447D01*
X7413D01*
Y314961D01*
X0D01*
Y340551D01*
X11037D01*
X11157Y339637D01*
X11510Y338786D01*
X12071Y338055D01*
X12802Y337494D01*
X13653Y337141D01*
X14567Y337021D01*
X15481Y337141D01*
X16332Y337494D01*
X17063Y338055D01*
X17609Y338767D01*
X33004D01*
Y337786D01*
X52720D01*
Y340551D01*
X53543D01*
X53543Y314961D01*
D02*
G37*
G36*
X203311Y290961D02*
X203389Y290570D01*
X203610Y290240D01*
X203941Y290019D01*
X204118Y289983D01*
Y283842D01*
X222818D01*
X222893Y283468D01*
X223114Y283137D01*
X223445Y282916D01*
X223835Y282839D01*
X240713D01*
Y280696D01*
X240739Y280565D01*
X240740Y280543D01*
X239967Y280223D01*
X239236Y279662D01*
X238690Y278950D01*
X223835D01*
Y281118D01*
X204118D01*
Y274000D01*
X223835D01*
Y275381D01*
X238690D01*
X239236Y274669D01*
X239967Y274108D01*
X240740Y273788D01*
X240739Y273766D01*
X240713Y273635D01*
Y259661D01*
X232071D01*
Y251969D01*
X54563D01*
X54563Y277559D01*
X54485Y277949D01*
X54264Y278280D01*
X53934Y278501D01*
X53543Y278579D01*
X52720D01*
Y281912D01*
X33004D01*
Y279343D01*
X17609D01*
X17063Y280055D01*
X16332Y280616D01*
X15481Y280969D01*
X14567Y281089D01*
X13653Y280969D01*
X12802Y280616D01*
X12071Y280055D01*
X11510Y279324D01*
X11190Y278551D01*
X11168Y278553D01*
X11037Y278579D01*
X0D01*
Y303150D01*
X7413D01*
Y296250D01*
X24768D01*
Y303150D01*
X203311D01*
Y290961D01*
D02*
G37*
G36*
X255906Y251969D02*
X249425D01*
Y259661D01*
X241732D01*
Y273635D01*
X242646Y273756D01*
X243497Y274108D01*
X244229Y274669D01*
X244790Y275400D01*
X245142Y276252D01*
X245263Y277165D01*
X245142Y278079D01*
X244790Y278930D01*
X244229Y279662D01*
X243497Y280223D01*
X242646Y280575D01*
X241732Y280696D01*
Y283858D01*
X223835D01*
Y285902D01*
X213976D01*
Y287402D01*
X212476D01*
Y290961D01*
X204331D01*
Y303150D01*
X232071D01*
Y295457D01*
X249425D01*
Y303150D01*
X255906D01*
Y251969D01*
D02*
G37*
G36*
X53543D02*
X24768D01*
Y260455D01*
X7413D01*
Y251969D01*
X0D01*
Y277559D01*
X11037D01*
X11157Y276645D01*
X11510Y275794D01*
X12071Y275063D01*
X12802Y274502D01*
X13653Y274149D01*
X14567Y274029D01*
X15481Y274149D01*
X16332Y274502D01*
X17063Y275063D01*
X17609Y275775D01*
X33004D01*
Y274794D01*
X52720D01*
Y277559D01*
X53543D01*
X53543Y251969D01*
D02*
G37*
G36*
X203311Y227969D02*
X203389Y227578D01*
X203610Y227248D01*
X203941Y227027D01*
X204118Y226991D01*
Y220850D01*
X222818D01*
X222893Y220476D01*
X223114Y220145D01*
X223445Y219924D01*
X223835Y219847D01*
X240713D01*
Y217703D01*
X240739Y217573D01*
X240740Y217551D01*
X239967Y217231D01*
X239236Y216670D01*
X238690Y215957D01*
X223835D01*
Y218126D01*
X204118D01*
Y211008D01*
X223835D01*
Y212389D01*
X238690D01*
X239236Y211677D01*
X239967Y211116D01*
X240740Y210796D01*
X240739Y210774D01*
X240713Y210643D01*
Y196669D01*
X232071D01*
Y188976D01*
X54563D01*
X54563Y214567D01*
X54485Y214957D01*
X54264Y215288D01*
X53934Y215509D01*
X53543Y215586D01*
X52720D01*
Y218920D01*
X33004D01*
Y216351D01*
X17609D01*
X17063Y217063D01*
X16332Y217624D01*
X15481Y217977D01*
X14567Y218097D01*
X13653Y217977D01*
X12802Y217624D01*
X12071Y217063D01*
X11510Y216332D01*
X11190Y215559D01*
X11168Y215561D01*
X11037Y215586D01*
X0D01*
Y240158D01*
X7413D01*
Y233258D01*
X24768D01*
Y240158D01*
X203311D01*
Y227969D01*
D02*
G37*
G36*
X255906Y188976D02*
X249425D01*
Y196669D01*
X241732D01*
Y210643D01*
X242646Y210763D01*
X243497Y211116D01*
X244229Y211677D01*
X244790Y212408D01*
X245142Y213260D01*
X245263Y214173D01*
X245142Y215087D01*
X244790Y215938D01*
X244229Y216670D01*
X243497Y217231D01*
X242646Y217583D01*
X241732Y217703D01*
Y220866D01*
X223835D01*
Y222909D01*
X213976D01*
Y224410D01*
X212476D01*
Y227969D01*
X204331D01*
Y240158D01*
X232071D01*
Y232465D01*
X249425D01*
Y240158D01*
X255906D01*
Y188976D01*
D02*
G37*
G36*
X53543D02*
X24768D01*
Y197463D01*
X7413D01*
Y188976D01*
X0D01*
Y214567D01*
X11037D01*
X11157Y213653D01*
X11510Y212802D01*
X12071Y212071D01*
X12802Y211510D01*
X13653Y211157D01*
X14567Y211037D01*
X15481Y211157D01*
X16332Y211510D01*
X17063Y212071D01*
X17609Y212783D01*
X33004D01*
Y211802D01*
X52720D01*
Y214567D01*
X53543D01*
X53543Y188976D01*
D02*
G37*
G36*
X203311Y164976D02*
X203389Y164586D01*
X203610Y164255D01*
X203941Y164034D01*
X204118Y163999D01*
Y157858D01*
X222818D01*
X222893Y157484D01*
X223114Y157153D01*
X223445Y156932D01*
X223835Y156854D01*
X240713D01*
Y154711D01*
X240739Y154580D01*
X240740Y154559D01*
X239967Y154238D01*
X239236Y153677D01*
X238690Y152965D01*
X223835D01*
Y155134D01*
X204118D01*
Y148016D01*
X223835D01*
Y149397D01*
X238690D01*
X239236Y148685D01*
X239967Y148124D01*
X240740Y147804D01*
X240739Y147782D01*
X240713Y147651D01*
Y133677D01*
X232071D01*
Y125984D01*
X54563D01*
X54563Y151575D01*
X54485Y151965D01*
X54264Y152296D01*
X53934Y152517D01*
X53543Y152594D01*
X52720D01*
Y155928D01*
X33004D01*
Y153359D01*
X17609D01*
X17063Y154071D01*
X16332Y154632D01*
X15481Y154985D01*
X14567Y155105D01*
X13653Y154985D01*
X12802Y154632D01*
X12071Y154071D01*
X11510Y153340D01*
X11190Y152567D01*
X11168Y152568D01*
X11037Y152594D01*
X0D01*
Y177165D01*
X7413D01*
Y170266D01*
X24768D01*
Y177165D01*
X203311D01*
Y164976D01*
D02*
G37*
G36*
X255906Y125984D02*
X249425D01*
Y133677D01*
X241732D01*
Y147651D01*
X242646Y147771D01*
X243497Y148124D01*
X244229Y148685D01*
X244790Y149416D01*
X245142Y150267D01*
X245263Y151181D01*
X245142Y152095D01*
X244790Y152946D01*
X244229Y153677D01*
X243497Y154238D01*
X242646Y154591D01*
X241732Y154711D01*
Y157874D01*
X223835D01*
Y159917D01*
X213976D01*
Y161417D01*
X212476D01*
Y164976D01*
X204331D01*
Y177165D01*
X232071D01*
Y169473D01*
X249425D01*
Y177165D01*
X255906D01*
Y125984D01*
D02*
G37*
G36*
X53543D02*
X24768D01*
Y134471D01*
X7413D01*
Y125984D01*
X0D01*
Y151575D01*
X11037D01*
X11157Y150661D01*
X11510Y149810D01*
X12071Y149079D01*
X12802Y148518D01*
X13653Y148165D01*
X14567Y148045D01*
X15481Y148165D01*
X16332Y148518D01*
X17063Y149079D01*
X17609Y149791D01*
X33004D01*
Y148809D01*
X52720D01*
Y151575D01*
X53543D01*
X53543Y125984D01*
D02*
G37*
G36*
X203311Y101984D02*
X203389Y101594D01*
X203610Y101263D01*
X203941Y101042D01*
X204118Y101007D01*
Y94866D01*
X222818D01*
X222893Y94492D01*
X223114Y94161D01*
X223445Y93940D01*
X223835Y93862D01*
X240713D01*
Y91719D01*
X240739Y91588D01*
X240740Y91566D01*
X239967Y91246D01*
X239236Y90685D01*
X238690Y89973D01*
X223835D01*
Y92142D01*
X204118D01*
Y85024D01*
X223835D01*
Y86405D01*
X238690D01*
X239236Y85693D01*
X239967Y85132D01*
X240740Y84812D01*
X240739Y84790D01*
X240713Y84659D01*
Y70685D01*
X232071D01*
Y62992D01*
X54563D01*
X54563Y88583D01*
X54485Y88973D01*
X54264Y89304D01*
X53934Y89525D01*
X53543Y89602D01*
X52720D01*
Y92935D01*
X33004D01*
Y90367D01*
X17609D01*
X17063Y91079D01*
X16332Y91640D01*
X15481Y91993D01*
X14567Y92113D01*
X13653Y91993D01*
X12802Y91640D01*
X12071Y91079D01*
X11510Y90348D01*
X11190Y89575D01*
X11168Y89576D01*
X11037Y89602D01*
X0D01*
Y114173D01*
X7413D01*
Y107274D01*
X24768D01*
Y114173D01*
X203311D01*
Y101984D01*
D02*
G37*
G36*
X255906Y62992D02*
X249425D01*
Y70685D01*
X241732D01*
Y84659D01*
X242646Y84779D01*
X243497Y85132D01*
X244229Y85693D01*
X244790Y86424D01*
X245142Y87275D01*
X245263Y88189D01*
X245142Y89103D01*
X244790Y89954D01*
X244229Y90685D01*
X243497Y91246D01*
X242646Y91599D01*
X241732Y91719D01*
Y94882D01*
X223835D01*
Y96925D01*
X213976D01*
Y98425D01*
X212476D01*
Y101984D01*
X204331D01*
Y114173D01*
X232071D01*
Y106480D01*
X249425D01*
Y114173D01*
X255906D01*
Y62992D01*
D02*
G37*
G36*
X53543D02*
X24768D01*
Y71479D01*
X7413D01*
Y62992D01*
X0D01*
Y88583D01*
X11037D01*
X11157Y87669D01*
X11510Y86818D01*
X12071Y86086D01*
X12802Y85525D01*
X13653Y85173D01*
X14567Y85053D01*
X15481Y85173D01*
X16332Y85525D01*
X17063Y86086D01*
X17609Y86798D01*
X33004D01*
Y85817D01*
X52720D01*
Y88583D01*
X53543D01*
X53543Y62992D01*
D02*
G37*
G36*
X203311Y38992D02*
X203389Y38602D01*
X203610Y38271D01*
X203941Y38050D01*
X204118Y38015D01*
Y31874D01*
X222818D01*
X222893Y31500D01*
X223114Y31169D01*
X223445Y30948D01*
X223835Y30870D01*
X240713D01*
Y28727D01*
X240739Y28596D01*
X240740Y28574D01*
X239967Y28254D01*
X239236Y27693D01*
X238690Y26981D01*
X223835D01*
Y29150D01*
X204118D01*
Y22031D01*
X223835D01*
Y23413D01*
X238690D01*
X239236Y22701D01*
X239967Y22140D01*
X240740Y21819D01*
X240739Y21798D01*
X240713Y21667D01*
Y7693D01*
X232071D01*
Y0D01*
X54563D01*
X54563Y25591D01*
X54485Y25981D01*
X54264Y26311D01*
X53934Y26533D01*
X53543Y26610D01*
X52720D01*
Y29943D01*
X33004D01*
Y27375D01*
X17609D01*
X17063Y28087D01*
X16332Y28648D01*
X15481Y29000D01*
X14567Y29121D01*
X13653Y29000D01*
X12802Y28648D01*
X12071Y28087D01*
X11510Y27356D01*
X11190Y26583D01*
X11168Y26584D01*
X11037Y26610D01*
X0D01*
Y51181D01*
X7413D01*
Y44282D01*
X24768D01*
Y51181D01*
X203311D01*
Y38992D01*
D02*
G37*
G36*
X255906Y0D02*
X249425D01*
Y7693D01*
X241732D01*
Y21667D01*
X242646Y21787D01*
X243497Y22140D01*
X244229Y22701D01*
X244790Y23432D01*
X245142Y24283D01*
X245263Y25197D01*
X245142Y26111D01*
X244790Y26962D01*
X244229Y27693D01*
X243497Y28254D01*
X242646Y28607D01*
X241732Y28727D01*
Y31890D01*
X223835D01*
Y33933D01*
X213976D01*
Y35433D01*
X212476D01*
Y38992D01*
X204331D01*
Y51181D01*
X232071D01*
Y43488D01*
X249425D01*
Y51181D01*
X255906D01*
Y0D01*
D02*
G37*
G36*
X53543D02*
X24768D01*
Y8487D01*
X7413D01*
Y0D01*
X0D01*
Y25591D01*
X11037D01*
X11157Y24677D01*
X11510Y23825D01*
X12071Y23094D01*
X12802Y22533D01*
X13653Y22181D01*
X14567Y22060D01*
X15481Y22181D01*
X16332Y22533D01*
X17063Y23094D01*
X17609Y23806D01*
X33004D01*
Y22825D01*
X52720D01*
Y25591D01*
X53543D01*
X53543Y0D01*
D02*
G37*
%LPC*%
G36*
X52720Y354747D02*
X44362D01*
Y352687D01*
X52720D01*
Y354747D01*
D02*
G37*
G36*
X41362D02*
X33004D01*
Y352687D01*
X41362D01*
Y354747D01*
D02*
G37*
G36*
X52720Y349687D02*
X44362D01*
Y347628D01*
X52720D01*
Y349687D01*
D02*
G37*
G36*
X41362D02*
X33004D01*
Y347628D01*
X41362D01*
Y349687D01*
D02*
G37*
G36*
X223835Y334268D02*
X215476D01*
Y332209D01*
X223835D01*
Y334268D01*
D02*
G37*
G36*
X212476D02*
X204118D01*
Y332209D01*
X212476D01*
Y334268D01*
D02*
G37*
G36*
X223835Y329209D02*
X215476D01*
Y327150D01*
X223835D01*
Y329209D01*
D02*
G37*
G36*
X212476D02*
X204118D01*
Y327150D01*
X212476D01*
Y329209D01*
D02*
G37*
G36*
X216850Y364948D02*
X215937Y364827D01*
X215085Y364475D01*
X214354Y363914D01*
X213793Y363182D01*
X213440Y362331D01*
X213320Y361417D01*
X213440Y360504D01*
X213793Y359652D01*
X214354Y358921D01*
X215085Y358360D01*
X215937Y358007D01*
X216850Y357887D01*
X217764Y358007D01*
X218616Y358360D01*
X219347Y358921D01*
X219908Y359652D01*
X220260Y360504D01*
X220381Y361417D01*
X220260Y362331D01*
X219908Y363182D01*
X219347Y363914D01*
X218616Y364475D01*
X217764Y364827D01*
X216850Y364948D01*
D02*
G37*
G36*
X223835Y353953D02*
X215476D01*
Y351894D01*
X223835D01*
Y353953D01*
D02*
G37*
G36*
X52720Y335061D02*
X44362D01*
Y333002D01*
X52720D01*
Y335061D01*
D02*
G37*
G36*
X41362D02*
X33004D01*
Y333002D01*
X41362D01*
Y335061D01*
D02*
G37*
G36*
X52720Y330002D02*
X44362D01*
Y327943D01*
X52720D01*
Y330002D01*
D02*
G37*
G36*
X41362D02*
X33004D01*
Y327943D01*
X41362D01*
Y330002D01*
D02*
G37*
G36*
X52720Y291754D02*
X44362D01*
Y289695D01*
X52720D01*
Y291754D01*
D02*
G37*
G36*
X41362D02*
X33004D01*
Y289695D01*
X41362D01*
Y291754D01*
D02*
G37*
G36*
X52720Y286695D02*
X44362D01*
Y284636D01*
X52720D01*
Y286695D01*
D02*
G37*
G36*
X41362D02*
X33004D01*
Y284636D01*
X41362D01*
Y286695D01*
D02*
G37*
G36*
X223835Y271276D02*
X215476D01*
Y269216D01*
X223835D01*
Y271276D01*
D02*
G37*
G36*
X212476D02*
X204118D01*
Y269216D01*
X212476D01*
Y271276D01*
D02*
G37*
G36*
X223835Y266216D02*
X215476D01*
Y264158D01*
X223835D01*
Y266216D01*
D02*
G37*
G36*
X212476D02*
X204118D01*
Y264158D01*
X212476D01*
Y266216D01*
D02*
G37*
G36*
X216850Y301955D02*
X215937Y301835D01*
X215085Y301483D01*
X214354Y300921D01*
X213793Y300190D01*
X213440Y299339D01*
X213320Y298425D01*
X213440Y297512D01*
X213793Y296660D01*
X214354Y295929D01*
X215085Y295368D01*
X215937Y295015D01*
X216850Y294895D01*
X217764Y295015D01*
X218616Y295368D01*
X219347Y295929D01*
X219908Y296660D01*
X220260Y297512D01*
X220381Y298425D01*
X220260Y299339D01*
X219908Y300190D01*
X219347Y300921D01*
X218616Y301483D01*
X217764Y301835D01*
X216850Y301955D01*
D02*
G37*
G36*
X223835Y290961D02*
X215476D01*
Y288902D01*
X223835D01*
Y290961D01*
D02*
G37*
G36*
X52720Y272069D02*
X44362D01*
Y270010D01*
X52720D01*
Y272069D01*
D02*
G37*
G36*
X41362D02*
X33004D01*
Y270010D01*
X41362D01*
Y272069D01*
D02*
G37*
G36*
X52720Y267010D02*
X44362D01*
Y264951D01*
X52720D01*
Y267010D01*
D02*
G37*
G36*
X41362D02*
X33004D01*
Y264951D01*
X41362D01*
Y267010D01*
D02*
G37*
G36*
X52720Y228762D02*
X44362D01*
Y226703D01*
X52720D01*
Y228762D01*
D02*
G37*
G36*
X41362D02*
X33004D01*
Y226703D01*
X41362D01*
Y228762D01*
D02*
G37*
G36*
X52720Y223703D02*
X44362D01*
Y221644D01*
X52720D01*
Y223703D01*
D02*
G37*
G36*
X41362D02*
X33004D01*
Y221644D01*
X41362D01*
Y223703D01*
D02*
G37*
G36*
X223835Y208283D02*
X215476D01*
Y206224D01*
X223835D01*
Y208283D01*
D02*
G37*
G36*
X212476D02*
X204118D01*
Y206224D01*
X212476D01*
Y208283D01*
D02*
G37*
G36*
X223835Y203224D02*
X215476D01*
Y201165D01*
X223835D01*
Y203224D01*
D02*
G37*
G36*
X212476D02*
X204118D01*
Y201165D01*
X212476D01*
Y203224D01*
D02*
G37*
G36*
X216850Y238963D02*
X215937Y238843D01*
X215085Y238490D01*
X214354Y237929D01*
X213793Y237198D01*
X213440Y236347D01*
X213320Y235433D01*
X213440Y234519D01*
X213793Y233668D01*
X214354Y232937D01*
X215085Y232376D01*
X215937Y232023D01*
X216850Y231903D01*
X217764Y232023D01*
X218616Y232376D01*
X219347Y232937D01*
X219908Y233668D01*
X220260Y234519D01*
X220381Y235433D01*
X220260Y236347D01*
X219908Y237198D01*
X219347Y237929D01*
X218616Y238490D01*
X217764Y238843D01*
X216850Y238963D01*
D02*
G37*
G36*
X223835Y227969D02*
X215476D01*
Y225909D01*
X223835D01*
Y227969D01*
D02*
G37*
G36*
X52720Y209077D02*
X44362D01*
Y207018D01*
X52720D01*
Y209077D01*
D02*
G37*
G36*
X41362D02*
X33004D01*
Y207018D01*
X41362D01*
Y209077D01*
D02*
G37*
G36*
X52720Y204018D02*
X44362D01*
Y201959D01*
X52720D01*
Y204018D01*
D02*
G37*
G36*
X41362D02*
X33004D01*
Y201959D01*
X41362D01*
Y204018D01*
D02*
G37*
G36*
X52720Y165770D02*
X44362D01*
Y163711D01*
X52720D01*
Y165770D01*
D02*
G37*
G36*
X41362D02*
X33004D01*
Y163711D01*
X41362D01*
Y165770D01*
D02*
G37*
G36*
X52720Y160711D02*
X44362D01*
Y158652D01*
X52720D01*
Y160711D01*
D02*
G37*
G36*
X41362D02*
X33004D01*
Y158652D01*
X41362D01*
Y160711D01*
D02*
G37*
G36*
X223835Y145291D02*
X215476D01*
Y143232D01*
X223835D01*
Y145291D01*
D02*
G37*
G36*
X212476D02*
X204118D01*
Y143232D01*
X212476D01*
Y145291D01*
D02*
G37*
G36*
X223835Y140232D02*
X215476D01*
Y138173D01*
X223835D01*
Y140232D01*
D02*
G37*
G36*
X212476D02*
X204118D01*
Y138173D01*
X212476D01*
Y140232D01*
D02*
G37*
G36*
X216850Y175971D02*
X215937Y175851D01*
X215085Y175498D01*
X214354Y174937D01*
X213793Y174206D01*
X213440Y173355D01*
X213320Y172441D01*
X213440Y171527D01*
X213793Y170676D01*
X214354Y169945D01*
X215085Y169384D01*
X215937Y169031D01*
X216850Y168911D01*
X217764Y169031D01*
X218616Y169384D01*
X219347Y169945D01*
X219908Y170676D01*
X220260Y171527D01*
X220381Y172441D01*
X220260Y173355D01*
X219908Y174206D01*
X219347Y174937D01*
X218616Y175498D01*
X217764Y175851D01*
X216850Y175971D01*
D02*
G37*
G36*
X223835Y164976D02*
X215476D01*
Y162917D01*
X223835D01*
Y164976D01*
D02*
G37*
G36*
X52720Y146085D02*
X44362D01*
Y144026D01*
X52720D01*
Y146085D01*
D02*
G37*
G36*
X41362D02*
X33004D01*
Y144026D01*
X41362D01*
Y146085D01*
D02*
G37*
G36*
X52720Y141026D02*
X44362D01*
Y138967D01*
X52720D01*
Y141026D01*
D02*
G37*
G36*
X41362D02*
X33004D01*
Y138967D01*
X41362D01*
Y141026D01*
D02*
G37*
G36*
X52720Y102778D02*
X44362D01*
Y100719D01*
X52720D01*
Y102778D01*
D02*
G37*
G36*
X41362D02*
X33004D01*
Y100719D01*
X41362D01*
Y102778D01*
D02*
G37*
G36*
X52720Y97719D02*
X44362D01*
Y95660D01*
X52720D01*
Y97719D01*
D02*
G37*
G36*
X41362D02*
X33004D01*
Y95660D01*
X41362D01*
Y97719D01*
D02*
G37*
G36*
X223835Y82299D02*
X215476D01*
Y80240D01*
X223835D01*
Y82299D01*
D02*
G37*
G36*
X212476D02*
X204118D01*
Y80240D01*
X212476D01*
Y82299D01*
D02*
G37*
G36*
X223835Y77240D02*
X215476D01*
Y75181D01*
X223835D01*
Y77240D01*
D02*
G37*
G36*
X212476D02*
X204118D01*
Y75181D01*
X212476D01*
Y77240D01*
D02*
G37*
G36*
X216850Y112979D02*
X215937Y112859D01*
X215085Y112506D01*
X214354Y111945D01*
X213793Y111214D01*
X213440Y110363D01*
X213320Y109449D01*
X213440Y108535D01*
X213793Y107684D01*
X214354Y106953D01*
X215085Y106392D01*
X215937Y106039D01*
X216850Y105919D01*
X217764Y106039D01*
X218616Y106392D01*
X219347Y106953D01*
X219908Y107684D01*
X220260Y108535D01*
X220381Y109449D01*
X220260Y110363D01*
X219908Y111214D01*
X219347Y111945D01*
X218616Y112506D01*
X217764Y112859D01*
X216850Y112979D01*
D02*
G37*
G36*
X223835Y101984D02*
X215476D01*
Y99925D01*
X223835D01*
Y101984D01*
D02*
G37*
G36*
X52720Y83093D02*
X44362D01*
Y81034D01*
X52720D01*
Y83093D01*
D02*
G37*
G36*
X41362D02*
X33004D01*
Y81034D01*
X41362D01*
Y83093D01*
D02*
G37*
G36*
X52720Y78034D02*
X44362D01*
Y75975D01*
X52720D01*
Y78034D01*
D02*
G37*
G36*
X41362D02*
X33004D01*
Y75975D01*
X41362D01*
Y78034D01*
D02*
G37*
G36*
X52720Y39786D02*
X44362D01*
Y37727D01*
X52720D01*
Y39786D01*
D02*
G37*
G36*
X41362D02*
X33004D01*
Y37727D01*
X41362D01*
Y39786D01*
D02*
G37*
G36*
X52720Y34727D02*
X44362D01*
Y32668D01*
X52720D01*
Y34727D01*
D02*
G37*
G36*
X41362D02*
X33004D01*
Y32668D01*
X41362D01*
Y34727D01*
D02*
G37*
G36*
X223835Y19307D02*
X215476D01*
Y17248D01*
X223835D01*
Y19307D01*
D02*
G37*
G36*
X212476D02*
X204118D01*
Y17248D01*
X212476D01*
Y19307D01*
D02*
G37*
G36*
X223835Y14248D02*
X215476D01*
Y12189D01*
X223835D01*
Y14248D01*
D02*
G37*
G36*
X212476D02*
X204118D01*
Y12189D01*
X212476D01*
Y14248D01*
D02*
G37*
G36*
X216850Y49987D02*
X215937Y49867D01*
X215085Y49514D01*
X214354Y48953D01*
X213793Y48222D01*
X213440Y47370D01*
X213320Y46457D01*
X213440Y45543D01*
X213793Y44692D01*
X214354Y43960D01*
X215085Y43400D01*
X215937Y43047D01*
X216850Y42926D01*
X217764Y43047D01*
X218616Y43400D01*
X219347Y43960D01*
X219908Y44692D01*
X220260Y45543D01*
X220381Y46457D01*
X220260Y47370D01*
X219908Y48222D01*
X219347Y48953D01*
X218616Y49514D01*
X217764Y49867D01*
X216850Y49987D01*
D02*
G37*
G36*
X223835Y38992D02*
X215476D01*
Y36933D01*
X223835D01*
Y38992D01*
D02*
G37*
G36*
X52720Y20101D02*
X44362D01*
Y18042D01*
X52720D01*
Y20101D01*
D02*
G37*
G36*
X41362D02*
X33004D01*
Y18042D01*
X41362D01*
Y20101D01*
D02*
G37*
G36*
X52720Y15042D02*
X44362D01*
Y12983D01*
X52720D01*
Y15042D01*
D02*
G37*
G36*
X41362D02*
X33004D01*
Y12983D01*
X41362D01*
Y15042D01*
D02*
G37*
%LPD*%
D18*
X213976Y25591D02*
X214370Y25197D01*
X241732D01*
X14567Y25591D02*
X42862D01*
X213976Y88583D02*
X214370Y88189D01*
X241732D01*
X14567Y88583D02*
X42862D01*
X213976Y151575D02*
X214370Y151181D01*
X241732D01*
X14567Y151575D02*
X42862D01*
X213976Y214567D02*
X214370Y214173D01*
X241732D01*
X14567Y214567D02*
X42862D01*
X213976Y277559D02*
X214370Y277165D01*
X241732D01*
X14567Y277559D02*
X42862D01*
X213976Y340551D02*
X214370Y340158D01*
X241732D01*
X14567Y340551D02*
X42862D01*
D20*
X179134Y62992D02*
D03*
X182283D02*
D03*
X185433D02*
D03*
X179134Y51181D02*
D03*
X182283D02*
D03*
X185433D02*
D03*
X80709Y62992D02*
D03*
X83858D02*
D03*
X87008D02*
D03*
X80709Y51181D02*
D03*
X83858D02*
D03*
X87008D02*
D03*
X80709Y125984D02*
D03*
X83858D02*
D03*
X87008D02*
D03*
X80709Y114173D02*
D03*
X83858D02*
D03*
X87008D02*
D03*
X179140Y125695D02*
D03*
X182290D02*
D03*
X185439D02*
D03*
X179140Y113884D02*
D03*
X182290D02*
D03*
X185439D02*
D03*
X179134Y188976D02*
D03*
X182283D02*
D03*
X185433D02*
D03*
X179134Y177165D02*
D03*
X182283D02*
D03*
X185433D02*
D03*
X80709Y188976D02*
D03*
X83858D02*
D03*
X87008D02*
D03*
X80709Y177165D02*
D03*
X83858D02*
D03*
X87008D02*
D03*
X80709Y251969D02*
D03*
X83858D02*
D03*
X87008D02*
D03*
X80709Y240158D02*
D03*
X83858D02*
D03*
X87008D02*
D03*
X179134Y251969D02*
D03*
X182283D02*
D03*
X185433D02*
D03*
X179134Y240158D02*
D03*
X182283D02*
D03*
X185433D02*
D03*
X179134Y314961D02*
D03*
X182283D02*
D03*
X185433D02*
D03*
X179134Y303150D02*
D03*
X182283D02*
D03*
X185433D02*
D03*
X87008D02*
D03*
X83858D02*
D03*
X80709D02*
D03*
X87008Y314961D02*
D03*
X83858D02*
D03*
X80709D02*
D03*
X77559Y51181D02*
D03*
X74410D02*
D03*
X71260D02*
D03*
X68110D02*
D03*
X68110Y62992D02*
D03*
X71260D02*
D03*
X74410D02*
D03*
X77559D02*
D03*
X166535D02*
D03*
X169685D02*
D03*
X172835D02*
D03*
X175984D02*
D03*
X175984Y51181D02*
D03*
X172835D02*
D03*
X169685D02*
D03*
X166535D02*
D03*
X175990Y113884D02*
D03*
X172841D02*
D03*
X169691D02*
D03*
X166542D02*
D03*
X166535Y125984D02*
D03*
X169685D02*
D03*
X172835D02*
D03*
X175984D02*
D03*
X77559Y114173D02*
D03*
X74410D02*
D03*
X71260D02*
D03*
X68110D02*
D03*
X68110Y125984D02*
D03*
X71260D02*
D03*
X74410D02*
D03*
X77559D02*
D03*
X68110Y188976D02*
D03*
X71260D02*
D03*
X74410D02*
D03*
X77559D02*
D03*
X77559Y177165D02*
D03*
X74410D02*
D03*
X71260D02*
D03*
X68110D02*
D03*
X175984D02*
D03*
X172835D02*
D03*
X169685D02*
D03*
X166535D02*
D03*
X166535Y188976D02*
D03*
X169685D02*
D03*
X172835D02*
D03*
X175984D02*
D03*
X166535Y251969D02*
D03*
X169685D02*
D03*
X172835D02*
D03*
X175984D02*
D03*
X175984Y240158D02*
D03*
X172835D02*
D03*
X169685D02*
D03*
X166535D02*
D03*
X77559D02*
D03*
X74410D02*
D03*
X71260D02*
D03*
X68110D02*
D03*
X68110Y251969D02*
D03*
X71260D02*
D03*
X74410D02*
D03*
X77559D02*
D03*
X166535Y314961D02*
D03*
X169685D02*
D03*
X172835D02*
D03*
X175984D02*
D03*
X175984Y303150D02*
D03*
X172835D02*
D03*
X169685D02*
D03*
X166535D02*
D03*
X77559D02*
D03*
X74410D02*
D03*
X71260D02*
D03*
X68110D02*
D03*
X77559Y314961D02*
D03*
X74410D02*
D03*
X71260D02*
D03*
X68110D02*
D03*
D21*
X216850Y46457D02*
D03*
X38268D02*
D03*
X63779D02*
D03*
X89291D02*
D03*
X114803D02*
D03*
X140315D02*
D03*
X165827D02*
D03*
X191339D02*
D03*
X191732Y25197D02*
D03*
X166220D02*
D03*
X140709D02*
D03*
X115197D02*
D03*
X64173D02*
D03*
X252362Y6693D02*
D03*
Y12598D02*
D03*
X3543D02*
D03*
Y6693D02*
D03*
X241732Y25197D02*
D03*
X14567Y25591D02*
D03*
X216850Y109449D02*
D03*
X38268D02*
D03*
X63779D02*
D03*
X89291D02*
D03*
X114803D02*
D03*
X140315D02*
D03*
X165827D02*
D03*
X191339D02*
D03*
X191732Y88189D02*
D03*
X166220D02*
D03*
X140709D02*
D03*
X115197D02*
D03*
X64173D02*
D03*
X252362Y69685D02*
D03*
Y75591D02*
D03*
X3543D02*
D03*
Y69685D02*
D03*
X241732Y88189D02*
D03*
X14567Y88583D02*
D03*
X216850Y172441D02*
D03*
X38268D02*
D03*
X63779D02*
D03*
X89291D02*
D03*
X114803D02*
D03*
X140315D02*
D03*
X165827D02*
D03*
X191339D02*
D03*
X191732Y151181D02*
D03*
X166220D02*
D03*
X140709D02*
D03*
X115197D02*
D03*
X64173D02*
D03*
X252362Y132677D02*
D03*
Y138583D02*
D03*
X3543D02*
D03*
Y132677D02*
D03*
X241732Y151181D02*
D03*
X14567Y151575D02*
D03*
X216850Y235433D02*
D03*
X38268D02*
D03*
X63779D02*
D03*
X89291D02*
D03*
X114803D02*
D03*
X140315D02*
D03*
X165827D02*
D03*
X191339D02*
D03*
X191732Y214173D02*
D03*
X166220D02*
D03*
X140709D02*
D03*
X115197D02*
D03*
X64173D02*
D03*
X252362Y195669D02*
D03*
Y201575D02*
D03*
X3543D02*
D03*
Y195669D02*
D03*
X241732Y214173D02*
D03*
X14567Y214567D02*
D03*
X216850Y298425D02*
D03*
X38268D02*
D03*
X63779D02*
D03*
X89291D02*
D03*
X114803D02*
D03*
X140315D02*
D03*
X165827D02*
D03*
X191339D02*
D03*
X191732Y277165D02*
D03*
X166220D02*
D03*
X140709D02*
D03*
X115197D02*
D03*
X64173D02*
D03*
X252362Y258661D02*
D03*
Y264567D02*
D03*
X3543D02*
D03*
Y258661D02*
D03*
X241732Y277165D02*
D03*
X14567Y277559D02*
D03*
X216850Y361417D02*
D03*
X38268D02*
D03*
X63779D02*
D03*
X89291D02*
D03*
X114803D02*
D03*
X140315D02*
D03*
X165827D02*
D03*
X191339D02*
D03*
X191732Y340158D02*
D03*
X166220D02*
D03*
X140709D02*
D03*
X115197D02*
D03*
X64173D02*
D03*
X252362Y321654D02*
D03*
Y327559D02*
D03*
X3543D02*
D03*
Y321654D02*
D03*
X241732Y340158D02*
D03*
X14567Y340551D02*
D03*
D22*
X240748Y3150D02*
D03*
Y48031D02*
D03*
X16091Y48825D02*
D03*
Y3943D02*
D03*
X240748Y66142D02*
D03*
Y111024D02*
D03*
X16091Y111817D02*
D03*
Y66935D02*
D03*
X240748Y129134D02*
D03*
Y174016D02*
D03*
X16091Y174809D02*
D03*
Y129928D02*
D03*
X240748Y192126D02*
D03*
Y237008D02*
D03*
X16091Y237802D02*
D03*
Y192920D02*
D03*
X240748Y255118D02*
D03*
Y300000D02*
D03*
X16091Y300794D02*
D03*
Y255912D02*
D03*
X240748Y318110D02*
D03*
Y362992D02*
D03*
X16091Y363786D02*
D03*
Y318904D02*
D03*
D23*
X213976Y15748D02*
D03*
Y35433D02*
D03*
Y25591D02*
D03*
X42862Y36227D02*
D03*
Y16542D02*
D03*
Y26384D02*
D03*
X213976Y78740D02*
D03*
Y98425D02*
D03*
Y88583D02*
D03*
X42862Y99219D02*
D03*
Y79534D02*
D03*
Y89376D02*
D03*
X213976Y141732D02*
D03*
Y161417D02*
D03*
Y151575D02*
D03*
X42862Y162211D02*
D03*
Y142526D02*
D03*
Y152368D02*
D03*
X213976Y204724D02*
D03*
Y224410D02*
D03*
Y214567D02*
D03*
X42862Y225203D02*
D03*
Y205518D02*
D03*
Y215361D02*
D03*
X213976Y267717D02*
D03*
Y287402D02*
D03*
Y277559D02*
D03*
X42862Y288195D02*
D03*
Y268510D02*
D03*
Y278353D02*
D03*
X213976Y330709D02*
D03*
Y350394D02*
D03*
Y340551D02*
D03*
X42862Y351187D02*
D03*
Y331502D02*
D03*
Y341345D02*
D03*
M02*
