G04*
G04 #@! TF.GenerationSoftware,Altium Limited,Altium Designer,20.1.12 (249)*
G04*
G04 Layer_Color=65535*
%FSLAX25Y25*%
%MOIN*%
G70*
G04*
G04 #@! TF.SameCoordinates,880ED213-D7CF-42DA-8A1E-0FEEA66E8632*
G04*
G04*
G04 #@! TF.FilePolarity,Positive*
G04*
G01*
G75*
%ADD13C,0.01000*%
%ADD24C,0.00394*%
D13*
X207677Y15748D02*
Y16732D01*
Y15748D02*
X208661D01*
X226378D01*
X227362D01*
Y16732D01*
Y21654D02*
Y29528D01*
Y34449D02*
Y35433D01*
X226378D02*
X227362D01*
X212598D02*
X226378D01*
X207677Y21654D02*
Y29528D01*
X211614Y34449D02*
X212598Y35433D01*
X182087Y15748D02*
Y16732D01*
Y15748D02*
X183071D01*
X200787D01*
X201772D01*
Y16732D01*
Y21654D02*
Y29528D01*
Y34449D02*
Y35433D01*
X200787D02*
X201772D01*
X187008D02*
X200787D01*
X182087Y21654D02*
Y29528D01*
X186024Y34449D02*
X187008Y35433D01*
X156496Y15748D02*
Y16732D01*
Y15748D02*
X157480D01*
X175197D01*
X176181D01*
Y16732D01*
Y21654D02*
Y29528D01*
Y34449D02*
Y35433D01*
X175197D02*
X176181D01*
X161417D02*
X175197D01*
X156496Y21654D02*
Y29528D01*
X160433Y34449D02*
X161417Y35433D01*
X130905Y15748D02*
Y16732D01*
Y15748D02*
X131890D01*
X149606D01*
X150591D01*
Y16732D01*
Y21654D02*
Y29528D01*
Y34449D02*
Y35433D01*
X149606D02*
X150591D01*
X135827D02*
X149606D01*
X130905Y21654D02*
Y29528D01*
X134843Y34449D02*
X135827Y35433D01*
X105315Y15748D02*
Y16732D01*
Y15748D02*
X106299D01*
X124016D01*
X125000D01*
Y16732D01*
Y21654D02*
Y29528D01*
Y34449D02*
Y35433D01*
X124016D02*
X125000D01*
X110236D02*
X124016D01*
X105315Y21654D02*
Y29528D01*
X109252Y34449D02*
X110236Y35433D01*
X79724Y15748D02*
Y16732D01*
Y15748D02*
X80709D01*
X98425D01*
X99409D01*
Y16732D01*
Y21654D02*
Y29528D01*
Y34449D02*
Y35433D01*
X98425D02*
X99409D01*
X84646D02*
X98425D01*
X79724Y21654D02*
Y29528D01*
X83661Y34449D02*
X84646Y35433D01*
X54134Y15748D02*
Y16732D01*
Y15748D02*
X55118D01*
X72835D01*
X73819D01*
Y16732D01*
Y21654D02*
Y29528D01*
Y34449D02*
Y35433D01*
X72835D02*
X73819D01*
X59055D02*
X72835D01*
X54134Y21654D02*
Y29528D01*
X58071Y34449D02*
X59055Y35433D01*
X28543Y15748D02*
Y16732D01*
Y15748D02*
X29528D01*
X47244D01*
X48228D01*
Y16732D01*
Y21654D02*
Y29528D01*
Y34449D02*
Y35433D01*
X47244D02*
X48228D01*
X33465D02*
X47244D01*
X28543Y21654D02*
Y29528D01*
X32480Y34449D02*
X33465Y35433D01*
X233268Y15748D02*
Y16732D01*
Y15748D02*
X234252D01*
X251969D01*
X252953D01*
Y16732D01*
Y21654D02*
Y29528D01*
Y34449D02*
Y35433D01*
X251969D02*
X252953D01*
X238189D02*
X251969D01*
X233268Y21654D02*
Y29528D01*
X237205Y34449D02*
X238189Y35433D01*
X2953Y15748D02*
Y16732D01*
Y15748D02*
X3937D01*
X21654D01*
X22638D01*
Y16732D01*
Y21654D02*
Y29528D01*
Y34449D02*
Y35433D01*
X21654D02*
X22638D01*
X7874D02*
X21654D01*
X2953Y21654D02*
Y29528D01*
X6890Y34449D02*
X7874Y35433D01*
X207677Y78740D02*
Y79724D01*
Y78740D02*
X208661D01*
X226378D01*
X227362D01*
Y79724D01*
Y84646D02*
Y92520D01*
Y97441D02*
Y98425D01*
X226378D02*
X227362D01*
X212598D02*
X226378D01*
X207677Y84646D02*
Y92520D01*
X211614Y97441D02*
X212598Y98425D01*
X182087Y78740D02*
Y79724D01*
Y78740D02*
X183071D01*
X200787D01*
X201772D01*
Y79724D01*
Y84646D02*
Y92520D01*
Y97441D02*
Y98425D01*
X200787D02*
X201772D01*
X187008D02*
X200787D01*
X182087Y84646D02*
Y92520D01*
X186024Y97441D02*
X187008Y98425D01*
X156496Y78740D02*
Y79724D01*
Y78740D02*
X157480D01*
X175197D01*
X176181D01*
Y79724D01*
Y84646D02*
Y92520D01*
Y97441D02*
Y98425D01*
X175197D02*
X176181D01*
X161417D02*
X175197D01*
X156496Y84646D02*
Y92520D01*
X160433Y97441D02*
X161417Y98425D01*
X130905Y78740D02*
Y79724D01*
Y78740D02*
X131890D01*
X149606D01*
X150591D01*
Y79724D01*
Y84646D02*
Y92520D01*
Y97441D02*
Y98425D01*
X149606D02*
X150591D01*
X135827D02*
X149606D01*
X130905Y84646D02*
Y92520D01*
X134843Y97441D02*
X135827Y98425D01*
X105315Y78740D02*
Y79724D01*
Y78740D02*
X106299D01*
X124016D01*
X125000D01*
Y79724D01*
Y84646D02*
Y92520D01*
Y97441D02*
Y98425D01*
X124016D02*
X125000D01*
X110236D02*
X124016D01*
X105315Y84646D02*
Y92520D01*
X109252Y97441D02*
X110236Y98425D01*
X79724Y78740D02*
Y79724D01*
Y78740D02*
X80709D01*
X98425D01*
X99409D01*
Y79724D01*
Y84646D02*
Y92520D01*
Y97441D02*
Y98425D01*
X98425D02*
X99409D01*
X84646D02*
X98425D01*
X79724Y84646D02*
Y92520D01*
X83661Y97441D02*
X84646Y98425D01*
X54134Y78740D02*
Y79724D01*
Y78740D02*
X55118D01*
X72835D01*
X73819D01*
Y79724D01*
Y84646D02*
Y92520D01*
Y97441D02*
Y98425D01*
X72835D02*
X73819D01*
X59055D02*
X72835D01*
X54134Y84646D02*
Y92520D01*
X58071Y97441D02*
X59055Y98425D01*
X28543Y78740D02*
Y79724D01*
Y78740D02*
X29528D01*
X47244D01*
X48228D01*
Y79724D01*
Y84646D02*
Y92520D01*
Y97441D02*
Y98425D01*
X47244D02*
X48228D01*
X33465D02*
X47244D01*
X28543Y84646D02*
Y92520D01*
X32480Y97441D02*
X33465Y98425D01*
X233268Y78740D02*
Y79724D01*
Y78740D02*
X234252D01*
X251969D01*
X252953D01*
Y79724D01*
Y84646D02*
Y92520D01*
Y97441D02*
Y98425D01*
X251969D02*
X252953D01*
X238189D02*
X251969D01*
X233268Y84646D02*
Y92520D01*
X237205Y97441D02*
X238189Y98425D01*
X2953Y78740D02*
Y79724D01*
Y78740D02*
X3937D01*
X21654D01*
X22638D01*
Y79724D01*
Y84646D02*
Y92520D01*
Y97441D02*
Y98425D01*
X21654D02*
X22638D01*
X7874D02*
X21654D01*
X2953Y84646D02*
Y92520D01*
X6890Y97441D02*
X7874Y98425D01*
X207677Y141732D02*
Y142717D01*
Y141732D02*
X208661D01*
X226378D01*
X227362D01*
Y142717D01*
Y147638D02*
Y155512D01*
Y160433D02*
Y161417D01*
X226378D02*
X227362D01*
X212598D02*
X226378D01*
X207677Y147638D02*
Y155512D01*
X211614Y160433D02*
X212598Y161417D01*
X182087Y141732D02*
Y142717D01*
Y141732D02*
X183071D01*
X200787D01*
X201772D01*
Y142717D01*
Y147638D02*
Y155512D01*
Y160433D02*
Y161417D01*
X200787D02*
X201772D01*
X187008D02*
X200787D01*
X182087Y147638D02*
Y155512D01*
X186024Y160433D02*
X187008Y161417D01*
X156496Y141732D02*
Y142717D01*
Y141732D02*
X157480D01*
X175197D01*
X176181D01*
Y142717D01*
Y147638D02*
Y155512D01*
Y160433D02*
Y161417D01*
X175197D02*
X176181D01*
X161417D02*
X175197D01*
X156496Y147638D02*
Y155512D01*
X160433Y160433D02*
X161417Y161417D01*
X130905Y141732D02*
Y142717D01*
Y141732D02*
X131890D01*
X149606D01*
X150591D01*
Y142717D01*
Y147638D02*
Y155512D01*
Y160433D02*
Y161417D01*
X149606D02*
X150591D01*
X135827D02*
X149606D01*
X130905Y147638D02*
Y155512D01*
X134843Y160433D02*
X135827Y161417D01*
X105315Y141732D02*
Y142717D01*
Y141732D02*
X106299D01*
X124016D01*
X125000D01*
Y142717D01*
Y147638D02*
Y155512D01*
Y160433D02*
Y161417D01*
X124016D02*
X125000D01*
X110236D02*
X124016D01*
X105315Y147638D02*
Y155512D01*
X109252Y160433D02*
X110236Y161417D01*
X79724Y141732D02*
Y142717D01*
Y141732D02*
X80709D01*
X98425D01*
X99409D01*
Y142717D01*
Y147638D02*
Y155512D01*
Y160433D02*
Y161417D01*
X98425D02*
X99409D01*
X84646D02*
X98425D01*
X79724Y147638D02*
Y155512D01*
X83661Y160433D02*
X84646Y161417D01*
X54134Y141732D02*
Y142717D01*
Y141732D02*
X55118D01*
X72835D01*
X73819D01*
Y142717D01*
Y147638D02*
Y155512D01*
Y160433D02*
Y161417D01*
X72835D02*
X73819D01*
X59055D02*
X72835D01*
X54134Y147638D02*
Y155512D01*
X58071Y160433D02*
X59055Y161417D01*
X28543Y141732D02*
Y142717D01*
Y141732D02*
X29528D01*
X47244D01*
X48228D01*
Y142717D01*
Y147638D02*
Y155512D01*
Y160433D02*
Y161417D01*
X47244D02*
X48228D01*
X33465D02*
X47244D01*
X28543Y147638D02*
Y155512D01*
X32480Y160433D02*
X33465Y161417D01*
X233268Y141732D02*
Y142717D01*
Y141732D02*
X234252D01*
X251969D01*
X252953D01*
Y142717D01*
Y147638D02*
Y155512D01*
Y160433D02*
Y161417D01*
X251969D02*
X252953D01*
X238189D02*
X251969D01*
X233268Y147638D02*
Y155512D01*
X237205Y160433D02*
X238189Y161417D01*
X2953Y141732D02*
Y142717D01*
Y141732D02*
X3937D01*
X21654D01*
X22638D01*
Y142717D01*
Y147638D02*
Y155512D01*
Y160433D02*
Y161417D01*
X21654D02*
X22638D01*
X7874D02*
X21654D01*
X2953Y147638D02*
Y155512D01*
X6890Y160433D02*
X7874Y161417D01*
X207677Y204724D02*
Y205709D01*
Y204724D02*
X208661D01*
X226378D01*
X227362D01*
Y205709D01*
Y210630D02*
Y218504D01*
Y223425D02*
Y224410D01*
X226378D02*
X227362D01*
X212598D02*
X226378D01*
X207677Y210630D02*
Y218504D01*
X211614Y223425D02*
X212598Y224410D01*
X182087Y204724D02*
Y205709D01*
Y204724D02*
X183071D01*
X200787D01*
X201772D01*
Y205709D01*
Y210630D02*
Y218504D01*
Y223425D02*
Y224410D01*
X200787D02*
X201772D01*
X187008D02*
X200787D01*
X182087Y210630D02*
Y218504D01*
X186024Y223425D02*
X187008Y224410D01*
X156496Y204724D02*
Y205709D01*
Y204724D02*
X157480D01*
X175197D01*
X176181D01*
Y205709D01*
Y210630D02*
Y218504D01*
Y223425D02*
Y224410D01*
X175197D02*
X176181D01*
X161417D02*
X175197D01*
X156496Y210630D02*
Y218504D01*
X160433Y223425D02*
X161417Y224410D01*
X130905Y204724D02*
Y205709D01*
Y204724D02*
X131890D01*
X149606D01*
X150591D01*
Y205709D01*
Y210630D02*
Y218504D01*
Y223425D02*
Y224410D01*
X149606D02*
X150591D01*
X135827D02*
X149606D01*
X130905Y210630D02*
Y218504D01*
X134843Y223425D02*
X135827Y224410D01*
X105315Y204724D02*
Y205709D01*
Y204724D02*
X106299D01*
X124016D01*
X125000D01*
Y205709D01*
Y210630D02*
Y218504D01*
Y223425D02*
Y224410D01*
X124016D02*
X125000D01*
X110236D02*
X124016D01*
X105315Y210630D02*
Y218504D01*
X109252Y223425D02*
X110236Y224410D01*
X79724Y204724D02*
Y205709D01*
Y204724D02*
X80709D01*
X98425D01*
X99409D01*
Y205709D01*
Y210630D02*
Y218504D01*
Y223425D02*
Y224410D01*
X98425D02*
X99409D01*
X84646D02*
X98425D01*
X79724Y210630D02*
Y218504D01*
X83661Y223425D02*
X84646Y224410D01*
X54134Y204724D02*
Y205709D01*
Y204724D02*
X55118D01*
X72835D01*
X73819D01*
Y205709D01*
Y210630D02*
Y218504D01*
Y223425D02*
Y224410D01*
X72835D02*
X73819D01*
X59055D02*
X72835D01*
X54134Y210630D02*
Y218504D01*
X58071Y223425D02*
X59055Y224410D01*
X28543Y204724D02*
Y205709D01*
Y204724D02*
X29528D01*
X47244D01*
X48228D01*
Y205709D01*
Y210630D02*
Y218504D01*
Y223425D02*
Y224410D01*
X47244D02*
X48228D01*
X33465D02*
X47244D01*
X28543Y210630D02*
Y218504D01*
X32480Y223425D02*
X33465Y224410D01*
X233268Y204724D02*
Y205709D01*
Y204724D02*
X234252D01*
X251969D01*
X252953D01*
Y205709D01*
Y210630D02*
Y218504D01*
Y223425D02*
Y224410D01*
X251969D02*
X252953D01*
X238189D02*
X251969D01*
X233268Y210630D02*
Y218504D01*
X237205Y223425D02*
X238189Y224410D01*
X2953Y204724D02*
Y205709D01*
Y204724D02*
X3937D01*
X21654D01*
X22638D01*
Y205709D01*
Y210630D02*
Y218504D01*
Y223425D02*
Y224410D01*
X21654D02*
X22638D01*
X7874D02*
X21654D01*
X2953Y210630D02*
Y218504D01*
X6890Y223425D02*
X7874Y224410D01*
X207677Y267717D02*
Y268701D01*
Y267717D02*
X208661D01*
X226378D01*
X227362D01*
Y268701D01*
Y273622D02*
Y281496D01*
Y286417D02*
Y287402D01*
X226378D02*
X227362D01*
X212598D02*
X226378D01*
X207677Y273622D02*
Y281496D01*
X211614Y286417D02*
X212598Y287402D01*
X182087Y267717D02*
Y268701D01*
Y267717D02*
X183071D01*
X200787D01*
X201772D01*
Y268701D01*
Y273622D02*
Y281496D01*
Y286417D02*
Y287402D01*
X200787D02*
X201772D01*
X187008D02*
X200787D01*
X182087Y273622D02*
Y281496D01*
X186024Y286417D02*
X187008Y287402D01*
X156496Y267717D02*
Y268701D01*
Y267717D02*
X157480D01*
X175197D01*
X176181D01*
Y268701D01*
Y273622D02*
Y281496D01*
Y286417D02*
Y287402D01*
X175197D02*
X176181D01*
X161417D02*
X175197D01*
X156496Y273622D02*
Y281496D01*
X160433Y286417D02*
X161417Y287402D01*
X130905Y267717D02*
Y268701D01*
Y267717D02*
X131890D01*
X149606D01*
X150591D01*
Y268701D01*
Y273622D02*
Y281496D01*
Y286417D02*
Y287402D01*
X149606D02*
X150591D01*
X135827D02*
X149606D01*
X130905Y273622D02*
Y281496D01*
X134843Y286417D02*
X135827Y287402D01*
X105315Y267717D02*
Y268701D01*
Y267717D02*
X106299D01*
X124016D01*
X125000D01*
Y268701D01*
Y273622D02*
Y281496D01*
Y286417D02*
Y287402D01*
X124016D02*
X125000D01*
X110236D02*
X124016D01*
X105315Y273622D02*
Y281496D01*
X109252Y286417D02*
X110236Y287402D01*
X79724Y267717D02*
Y268701D01*
Y267717D02*
X80709D01*
X98425D01*
X99409D01*
Y268701D01*
Y273622D02*
Y281496D01*
Y286417D02*
Y287402D01*
X98425D02*
X99409D01*
X84646D02*
X98425D01*
X79724Y273622D02*
Y281496D01*
X83661Y286417D02*
X84646Y287402D01*
X54134Y267717D02*
Y268701D01*
Y267717D02*
X55118D01*
X72835D01*
X73819D01*
Y268701D01*
Y273622D02*
Y281496D01*
Y286417D02*
Y287402D01*
X72835D02*
X73819D01*
X59055D02*
X72835D01*
X54134Y273622D02*
Y281496D01*
X58071Y286417D02*
X59055Y287402D01*
X28543Y267717D02*
Y268701D01*
Y267717D02*
X29528D01*
X47244D01*
X48228D01*
Y268701D01*
Y273622D02*
Y281496D01*
Y286417D02*
Y287402D01*
X47244D02*
X48228D01*
X33465D02*
X47244D01*
X28543Y273622D02*
Y281496D01*
X32480Y286417D02*
X33465Y287402D01*
X233268Y267717D02*
Y268701D01*
Y267717D02*
X234252D01*
X251969D01*
X252953D01*
Y268701D01*
Y273622D02*
Y281496D01*
Y286417D02*
Y287402D01*
X251969D02*
X252953D01*
X238189D02*
X251969D01*
X233268Y273622D02*
Y281496D01*
X237205Y286417D02*
X238189Y287402D01*
X2953Y267717D02*
Y268701D01*
Y267717D02*
X3937D01*
X21654D01*
X22638D01*
Y268701D01*
Y273622D02*
Y281496D01*
Y286417D02*
Y287402D01*
X21654D02*
X22638D01*
X7874D02*
X21654D01*
X2953Y273622D02*
Y281496D01*
X6890Y286417D02*
X7874Y287402D01*
X207677Y330709D02*
Y331693D01*
Y330709D02*
X208661D01*
X226378D01*
X227362D01*
Y331693D01*
Y336614D02*
Y344488D01*
Y349410D02*
Y350394D01*
X226378D02*
X227362D01*
X212598D02*
X226378D01*
X207677Y336614D02*
Y344488D01*
X211614Y349410D02*
X212598Y350394D01*
X182087Y330709D02*
Y331693D01*
Y330709D02*
X183071D01*
X200787D01*
X201772D01*
Y331693D01*
Y336614D02*
Y344488D01*
Y349410D02*
Y350394D01*
X200787D02*
X201772D01*
X187008D02*
X200787D01*
X182087Y336614D02*
Y344488D01*
X186024Y349410D02*
X187008Y350394D01*
X156496Y330709D02*
Y331693D01*
Y330709D02*
X157480D01*
X175197D01*
X176181D01*
Y331693D01*
Y336614D02*
Y344488D01*
Y349410D02*
Y350394D01*
X175197D02*
X176181D01*
X161417D02*
X175197D01*
X156496Y336614D02*
Y344488D01*
X160433Y349410D02*
X161417Y350394D01*
X130905Y330709D02*
Y331693D01*
Y330709D02*
X131890D01*
X149606D01*
X150591D01*
Y331693D01*
Y336614D02*
Y344488D01*
Y349410D02*
Y350394D01*
X149606D02*
X150591D01*
X135827D02*
X149606D01*
X130905Y336614D02*
Y344488D01*
X134843Y349410D02*
X135827Y350394D01*
X105315Y330709D02*
Y331693D01*
Y330709D02*
X106299D01*
X124016D01*
X125000D01*
Y331693D01*
Y336614D02*
Y344488D01*
Y349410D02*
Y350394D01*
X124016D02*
X125000D01*
X110236D02*
X124016D01*
X105315Y336614D02*
Y344488D01*
X109252Y349410D02*
X110236Y350394D01*
X79724Y330709D02*
Y331693D01*
Y330709D02*
X80709D01*
X98425D01*
X99409D01*
Y331693D01*
Y336614D02*
Y344488D01*
Y349410D02*
Y350394D01*
X98425D02*
X99409D01*
X84646D02*
X98425D01*
X79724Y336614D02*
Y344488D01*
X83661Y349410D02*
X84646Y350394D01*
X54134Y330709D02*
Y331693D01*
Y330709D02*
X55118D01*
X72835D01*
X73819D01*
Y331693D01*
Y336614D02*
Y344488D01*
Y349410D02*
Y350394D01*
X72835D02*
X73819D01*
X59055D02*
X72835D01*
X54134Y336614D02*
Y344488D01*
X58071Y349410D02*
X59055Y350394D01*
X28543Y330709D02*
Y331693D01*
Y330709D02*
X29528D01*
X47244D01*
X48228D01*
Y331693D01*
Y336614D02*
Y344488D01*
Y349410D02*
Y350394D01*
X47244D02*
X48228D01*
X33465D02*
X47244D01*
X28543Y336614D02*
Y344488D01*
X32480Y349410D02*
X33465Y350394D01*
X233268Y330709D02*
Y331693D01*
Y330709D02*
X234252D01*
X251969D01*
X252953D01*
Y331693D01*
Y336614D02*
Y344488D01*
Y349410D02*
Y350394D01*
X251969D02*
X252953D01*
X238189D02*
X251969D01*
X233268Y336614D02*
Y344488D01*
X237205Y349410D02*
X238189Y350394D01*
X2953Y330709D02*
Y331693D01*
Y330709D02*
X3937D01*
X21654D01*
X22638D01*
Y331693D01*
Y336614D02*
Y344488D01*
Y349410D02*
Y350394D01*
X21654D02*
X22638D01*
X7874D02*
X21654D01*
X2953Y336614D02*
Y344488D01*
X6890Y349410D02*
X7874Y350394D01*
D24*
X216772Y14567D02*
X218740D01*
X216772Y9055D02*
X218740D01*
X191181Y14567D02*
X193150D01*
X191181Y9055D02*
X193150D01*
X241575Y14567D02*
X243543D01*
X241575Y9055D02*
X243543D01*
X164016Y14567D02*
X165984D01*
X164016Y9055D02*
X165984D01*
X140000Y14567D02*
X141969D01*
X140000Y9055D02*
X141969D01*
X112441Y14567D02*
X114409D01*
X112441Y9055D02*
X114409D01*
X89213Y14567D02*
X91181D01*
X89213Y9055D02*
X91181D01*
X63622Y14567D02*
X65591D01*
X63622Y9055D02*
X65591D01*
X37244Y14567D02*
X39213D01*
X37244Y9055D02*
X39213D01*
X11654Y14567D02*
X13622D01*
X11654Y9055D02*
X13622D01*
X216772Y77559D02*
X218740D01*
X216772Y72047D02*
X218740D01*
X191181Y77559D02*
X193150D01*
X191181Y72047D02*
X193150D01*
X241575Y77559D02*
X243543D01*
X241575Y72047D02*
X243543D01*
X164016Y77559D02*
X165984D01*
X164016Y72047D02*
X165984D01*
X140000Y77559D02*
X141969D01*
X140000Y72047D02*
X141969D01*
X112441Y77559D02*
X114409D01*
X112441Y72047D02*
X114409D01*
X89213Y77559D02*
X91181D01*
X89213Y72047D02*
X91181D01*
X63622Y77559D02*
X65591D01*
X63622Y72047D02*
X65591D01*
X37244Y77559D02*
X39213D01*
X37244Y72047D02*
X39213D01*
X11654Y77559D02*
X13622D01*
X11654Y72047D02*
X13622D01*
X216772Y140551D02*
X218740D01*
X216772Y135039D02*
X218740D01*
X191181Y140551D02*
X193150D01*
X191181Y135039D02*
X193150D01*
X241575Y140551D02*
X243543D01*
X241575Y135039D02*
X243543D01*
X164016Y140551D02*
X165984D01*
X164016Y135039D02*
X165984D01*
X140000Y140551D02*
X141969D01*
X140000Y135039D02*
X141969D01*
X112441Y140551D02*
X114409D01*
X112441Y135039D02*
X114409D01*
X89213Y140551D02*
X91181D01*
X89213Y135039D02*
X91181D01*
X63622Y140551D02*
X65591D01*
X63622Y135039D02*
X65591D01*
X37244Y140551D02*
X39213D01*
X37244Y135039D02*
X39213D01*
X11654Y140551D02*
X13622D01*
X11654Y135039D02*
X13622D01*
X216772Y203543D02*
X218740D01*
X216772Y198031D02*
X218740D01*
X191181Y203543D02*
X193150D01*
X191181Y198031D02*
X193150D01*
X241575Y203543D02*
X243543D01*
X241575Y198031D02*
X243543D01*
X164016Y203543D02*
X165984D01*
X164016Y198031D02*
X165984D01*
X140000Y203543D02*
X141969D01*
X140000Y198031D02*
X141969D01*
X112441Y203543D02*
X114409D01*
X112441Y198031D02*
X114409D01*
X89213Y203543D02*
X91181D01*
X89213Y198031D02*
X91181D01*
X63622Y203543D02*
X65591D01*
X63622Y198031D02*
X65591D01*
X37244Y203543D02*
X39213D01*
X37244Y198031D02*
X39213D01*
X11654Y203543D02*
X13622D01*
X11654Y198031D02*
X13622D01*
X216772Y266535D02*
X218740D01*
X216772Y261024D02*
X218740D01*
X191181Y266535D02*
X193150D01*
X191181Y261024D02*
X193150D01*
X241575Y266535D02*
X243543D01*
X241575Y261024D02*
X243543D01*
X164016Y266535D02*
X165984D01*
X164016Y261024D02*
X165984D01*
X140000Y266535D02*
X141969D01*
X140000Y261024D02*
X141969D01*
X112441Y266535D02*
X114409D01*
X112441Y261024D02*
X114409D01*
X89213Y266535D02*
X91181D01*
X89213Y261024D02*
X91181D01*
X63622Y266535D02*
X65591D01*
X63622Y261024D02*
X65591D01*
X37244Y266535D02*
X39213D01*
X37244Y261024D02*
X39213D01*
X11654Y266535D02*
X13622D01*
X11654Y261024D02*
X13622D01*
X216772Y329528D02*
X218740D01*
X216772Y324016D02*
X218740D01*
X191181Y329528D02*
X193150D01*
X191181Y324016D02*
X193150D01*
X241575Y329528D02*
X243543D01*
X241575Y324016D02*
X243543D01*
X164016Y329528D02*
X165984D01*
X164016Y324016D02*
X165984D01*
X140000Y329528D02*
X141969D01*
X140000Y324016D02*
X141969D01*
X112441Y329528D02*
X114409D01*
X112441Y324016D02*
X114409D01*
X89213Y329528D02*
X91181D01*
X89213Y324016D02*
X91181D01*
X63622Y329528D02*
X65591D01*
X63622Y324016D02*
X65591D01*
X37244Y329528D02*
X39213D01*
X37244Y324016D02*
X39213D01*
X11654Y329528D02*
X13622D01*
X11654Y324016D02*
X13622D01*
M02*
