G04*
G04 #@! TF.GenerationSoftware,Altium Limited,Altium Designer,20.1.12 (249)*
G04*
G04 Layer_Color=32768*
%FSLAX25Y25*%
%MOIN*%
G70*
G04*
G04 #@! TF.SameCoordinates,880ED213-D7CF-42DA-8A1E-0FEEA66E8632*
G04*
G04*
G04 #@! TF.FilePolarity,Positive*
G04*
G01*
G75*
%ADD24C,0.00394*%
D24*
X206929Y15748D02*
Y35433D01*
Y15748D02*
X228031D01*
X206929Y35433D02*
X228031D01*
Y15748D02*
Y35433D01*
X181339Y15748D02*
Y35433D01*
Y15748D02*
X202441D01*
X181339Y35433D02*
X202441D01*
Y15748D02*
Y35433D01*
X155748Y15748D02*
Y35433D01*
Y15748D02*
X176850D01*
X155748Y35433D02*
X176850D01*
Y15748D02*
Y35433D01*
X130157Y15748D02*
Y35433D01*
Y15748D02*
X151260D01*
X130157Y35433D02*
X151260D01*
Y15748D02*
Y35433D01*
X104567Y15748D02*
Y35433D01*
Y15748D02*
X125669D01*
X104567Y35433D02*
X125669D01*
Y15748D02*
Y35433D01*
X78976Y15748D02*
Y35433D01*
Y15748D02*
X100079D01*
X78976Y35433D02*
X100079D01*
Y15748D02*
Y35433D01*
X53386Y15748D02*
Y35433D01*
Y15748D02*
X74488D01*
X53386Y35433D02*
X74488D01*
Y15748D02*
Y35433D01*
X27795Y15748D02*
Y35433D01*
Y15748D02*
X48898D01*
X27795Y35433D02*
X48898D01*
Y15748D02*
Y35433D01*
X232520Y15748D02*
Y35433D01*
Y15748D02*
X253622D01*
X232520Y35433D02*
X253622D01*
Y15748D02*
Y35433D01*
X216929Y11811D02*
X218504D01*
X217717Y11024D02*
Y12598D01*
X211417Y14567D02*
X224016D01*
Y9055D02*
Y14567D01*
X211417Y9055D02*
X224016D01*
X211417D02*
Y14567D01*
X2205Y15748D02*
Y35433D01*
Y15748D02*
X23307D01*
X2205Y35433D02*
X23307D01*
Y15748D02*
Y35433D01*
X191339Y11811D02*
X192913D01*
X192126Y11024D02*
Y12598D01*
X185827Y14567D02*
X198425D01*
Y9055D02*
Y14567D01*
X185827Y9055D02*
X198425D01*
X185827D02*
Y14567D01*
X241732Y11811D02*
X243307D01*
X242520Y11024D02*
Y12598D01*
X236221Y14567D02*
X248819D01*
Y9055D02*
Y14567D01*
X236221Y9055D02*
X248819D01*
X236221D02*
Y14567D01*
X164173Y11811D02*
X165748D01*
X164961Y11024D02*
Y12598D01*
X158661Y14567D02*
X171260D01*
Y9055D02*
Y14567D01*
X158661Y9055D02*
X171260D01*
X158661D02*
Y14567D01*
X140157Y11811D02*
X141732D01*
X140945Y11024D02*
Y12598D01*
X134646Y14567D02*
X147244D01*
Y9055D02*
Y14567D01*
X134646Y9055D02*
X147244D01*
X134646D02*
Y14567D01*
X112598Y11811D02*
X114173D01*
X113386Y11024D02*
Y12598D01*
X107087Y14567D02*
X119685D01*
Y9055D02*
Y14567D01*
X107087Y9055D02*
X119685D01*
X107087D02*
Y14567D01*
X89370Y11811D02*
X90945D01*
X90158Y11024D02*
Y12598D01*
X83858Y14567D02*
X96457D01*
Y9055D02*
Y14567D01*
X83858Y9055D02*
X96457D01*
X83858D02*
Y14567D01*
X63779Y11811D02*
X65354D01*
X64567Y11024D02*
Y12598D01*
X58268Y14567D02*
X70866D01*
Y9055D02*
Y14567D01*
X58268Y9055D02*
X70866D01*
X58268D02*
Y14567D01*
X37402Y11811D02*
X38976D01*
X38189Y11024D02*
Y12598D01*
X31890Y14567D02*
X44488D01*
Y9055D02*
Y14567D01*
X31890Y9055D02*
X44488D01*
X31890D02*
Y14567D01*
X11811Y11811D02*
X13386D01*
X12598Y11024D02*
Y12598D01*
X6299Y14567D02*
X18898D01*
Y9055D02*
Y14567D01*
X6299Y9055D02*
X18898D01*
X6299D02*
Y14567D01*
X206929Y78740D02*
Y98425D01*
Y78740D02*
X228031D01*
X206929Y98425D02*
X228031D01*
Y78740D02*
Y98425D01*
X181339Y78740D02*
Y98425D01*
Y78740D02*
X202441D01*
X181339Y98425D02*
X202441D01*
Y78740D02*
Y98425D01*
X155748Y78740D02*
Y98425D01*
Y78740D02*
X176850D01*
X155748Y98425D02*
X176850D01*
Y78740D02*
Y98425D01*
X130157Y78740D02*
Y98425D01*
Y78740D02*
X151260D01*
X130157Y98425D02*
X151260D01*
Y78740D02*
Y98425D01*
X104567Y78740D02*
Y98425D01*
Y78740D02*
X125669D01*
X104567Y98425D02*
X125669D01*
Y78740D02*
Y98425D01*
X78976Y78740D02*
Y98425D01*
Y78740D02*
X100079D01*
X78976Y98425D02*
X100079D01*
Y78740D02*
Y98425D01*
X53386Y78740D02*
Y98425D01*
Y78740D02*
X74488D01*
X53386Y98425D02*
X74488D01*
Y78740D02*
Y98425D01*
X27795Y78740D02*
Y98425D01*
Y78740D02*
X48898D01*
X27795Y98425D02*
X48898D01*
Y78740D02*
Y98425D01*
X232520Y78740D02*
Y98425D01*
Y78740D02*
X253622D01*
X232520Y98425D02*
X253622D01*
Y78740D02*
Y98425D01*
X216929Y74803D02*
X218504D01*
X217717Y74016D02*
Y75590D01*
X211417Y77559D02*
X224016D01*
Y72047D02*
Y77559D01*
X211417Y72047D02*
X224016D01*
X211417D02*
Y77559D01*
X2205Y78740D02*
Y98425D01*
Y78740D02*
X23307D01*
X2205Y98425D02*
X23307D01*
Y78740D02*
Y98425D01*
X191339Y74803D02*
X192913D01*
X192126Y74016D02*
Y75590D01*
X185827Y77559D02*
X198425D01*
Y72047D02*
Y77559D01*
X185827Y72047D02*
X198425D01*
X185827D02*
Y77559D01*
X241732Y74803D02*
X243307D01*
X242520Y74016D02*
Y75590D01*
X236221Y77559D02*
X248819D01*
Y72047D02*
Y77559D01*
X236221Y72047D02*
X248819D01*
X236221D02*
Y77559D01*
X164173Y74803D02*
X165748D01*
X164961Y74016D02*
Y75590D01*
X158661Y77559D02*
X171260D01*
Y72047D02*
Y77559D01*
X158661Y72047D02*
X171260D01*
X158661D02*
Y77559D01*
X140157Y74803D02*
X141732D01*
X140945Y74016D02*
Y75590D01*
X134646Y77559D02*
X147244D01*
Y72047D02*
Y77559D01*
X134646Y72047D02*
X147244D01*
X134646D02*
Y77559D01*
X112598Y74803D02*
X114173D01*
X113386Y74016D02*
Y75590D01*
X107087Y77559D02*
X119685D01*
Y72047D02*
Y77559D01*
X107087Y72047D02*
X119685D01*
X107087D02*
Y77559D01*
X89370Y74803D02*
X90945D01*
X90158Y74016D02*
Y75590D01*
X83858Y77559D02*
X96457D01*
Y72047D02*
Y77559D01*
X83858Y72047D02*
X96457D01*
X83858D02*
Y77559D01*
X63779Y74803D02*
X65354D01*
X64567Y74016D02*
Y75590D01*
X58268Y77559D02*
X70866D01*
Y72047D02*
Y77559D01*
X58268Y72047D02*
X70866D01*
X58268D02*
Y77559D01*
X37402Y74803D02*
X38976D01*
X38189Y74016D02*
Y75590D01*
X31890Y77559D02*
X44488D01*
Y72047D02*
Y77559D01*
X31890Y72047D02*
X44488D01*
X31890D02*
Y77559D01*
X11811Y74803D02*
X13386D01*
X12598Y74016D02*
Y75590D01*
X6299Y77559D02*
X18898D01*
Y72047D02*
Y77559D01*
X6299Y72047D02*
X18898D01*
X6299D02*
Y77559D01*
X206929Y141732D02*
Y161417D01*
Y141732D02*
X228031D01*
X206929Y161417D02*
X228031D01*
Y141732D02*
Y161417D01*
X181339Y141732D02*
Y161417D01*
Y141732D02*
X202441D01*
X181339Y161417D02*
X202441D01*
Y141732D02*
Y161417D01*
X155748Y141732D02*
Y161417D01*
Y141732D02*
X176850D01*
X155748Y161417D02*
X176850D01*
Y141732D02*
Y161417D01*
X130157Y141732D02*
Y161417D01*
Y141732D02*
X151260D01*
X130157Y161417D02*
X151260D01*
Y141732D02*
Y161417D01*
X104567Y141732D02*
Y161417D01*
Y141732D02*
X125669D01*
X104567Y161417D02*
X125669D01*
Y141732D02*
Y161417D01*
X78976Y141732D02*
Y161417D01*
Y141732D02*
X100079D01*
X78976Y161417D02*
X100079D01*
Y141732D02*
Y161417D01*
X53386Y141732D02*
Y161417D01*
Y141732D02*
X74488D01*
X53386Y161417D02*
X74488D01*
Y141732D02*
Y161417D01*
X27795Y141732D02*
Y161417D01*
Y141732D02*
X48898D01*
X27795Y161417D02*
X48898D01*
Y141732D02*
Y161417D01*
X232520Y141732D02*
Y161417D01*
Y141732D02*
X253622D01*
X232520Y161417D02*
X253622D01*
Y141732D02*
Y161417D01*
X216929Y137795D02*
X218504D01*
X217717Y137008D02*
Y138583D01*
X211417Y140551D02*
X224016D01*
Y135039D02*
Y140551D01*
X211417Y135039D02*
X224016D01*
X211417D02*
Y140551D01*
X2205Y141732D02*
Y161417D01*
Y141732D02*
X23307D01*
X2205Y161417D02*
X23307D01*
Y141732D02*
Y161417D01*
X191339Y137795D02*
X192913D01*
X192126Y137008D02*
Y138583D01*
X185827Y140551D02*
X198425D01*
Y135039D02*
Y140551D01*
X185827Y135039D02*
X198425D01*
X185827D02*
Y140551D01*
X241732Y137795D02*
X243307D01*
X242520Y137008D02*
Y138583D01*
X236221Y140551D02*
X248819D01*
Y135039D02*
Y140551D01*
X236221Y135039D02*
X248819D01*
X236221D02*
Y140551D01*
X164173Y137795D02*
X165748D01*
X164961Y137008D02*
Y138583D01*
X158661Y140551D02*
X171260D01*
Y135039D02*
Y140551D01*
X158661Y135039D02*
X171260D01*
X158661D02*
Y140551D01*
X140157Y137795D02*
X141732D01*
X140945Y137008D02*
Y138583D01*
X134646Y140551D02*
X147244D01*
Y135039D02*
Y140551D01*
X134646Y135039D02*
X147244D01*
X134646D02*
Y140551D01*
X112598Y137795D02*
X114173D01*
X113386Y137008D02*
Y138583D01*
X107087Y140551D02*
X119685D01*
Y135039D02*
Y140551D01*
X107087Y135039D02*
X119685D01*
X107087D02*
Y140551D01*
X89370Y137795D02*
X90945D01*
X90158Y137008D02*
Y138583D01*
X83858Y140551D02*
X96457D01*
Y135039D02*
Y140551D01*
X83858Y135039D02*
X96457D01*
X83858D02*
Y140551D01*
X63779Y137795D02*
X65354D01*
X64567Y137008D02*
Y138583D01*
X58268Y140551D02*
X70866D01*
Y135039D02*
Y140551D01*
X58268Y135039D02*
X70866D01*
X58268D02*
Y140551D01*
X37402Y137795D02*
X38976D01*
X38189Y137008D02*
Y138583D01*
X31890Y140551D02*
X44488D01*
Y135039D02*
Y140551D01*
X31890Y135039D02*
X44488D01*
X31890D02*
Y140551D01*
X11811Y137795D02*
X13386D01*
X12598Y137008D02*
Y138583D01*
X6299Y140551D02*
X18898D01*
Y135039D02*
Y140551D01*
X6299Y135039D02*
X18898D01*
X6299D02*
Y140551D01*
X206929Y204724D02*
Y224410D01*
Y204724D02*
X228031D01*
X206929Y224410D02*
X228031D01*
Y204724D02*
Y224410D01*
X181339Y204724D02*
Y224410D01*
Y204724D02*
X202441D01*
X181339Y224410D02*
X202441D01*
Y204724D02*
Y224410D01*
X155748Y204724D02*
Y224410D01*
Y204724D02*
X176850D01*
X155748Y224410D02*
X176850D01*
Y204724D02*
Y224410D01*
X130157Y204724D02*
Y224410D01*
Y204724D02*
X151260D01*
X130157Y224410D02*
X151260D01*
Y204724D02*
Y224410D01*
X104567Y204724D02*
Y224410D01*
Y204724D02*
X125669D01*
X104567Y224410D02*
X125669D01*
Y204724D02*
Y224410D01*
X78976Y204724D02*
Y224410D01*
Y204724D02*
X100079D01*
X78976Y224410D02*
X100079D01*
Y204724D02*
Y224410D01*
X53386Y204724D02*
Y224410D01*
Y204724D02*
X74488D01*
X53386Y224410D02*
X74488D01*
Y204724D02*
Y224410D01*
X27795Y204724D02*
Y224410D01*
Y204724D02*
X48898D01*
X27795Y224410D02*
X48898D01*
Y204724D02*
Y224410D01*
X232520Y204724D02*
Y224410D01*
Y204724D02*
X253622D01*
X232520Y224410D02*
X253622D01*
Y204724D02*
Y224410D01*
X216929Y200787D02*
X218504D01*
X217717Y200000D02*
Y201575D01*
X211417Y203543D02*
X224016D01*
Y198031D02*
Y203543D01*
X211417Y198031D02*
X224016D01*
X211417D02*
Y203543D01*
X2205Y204724D02*
Y224410D01*
Y204724D02*
X23307D01*
X2205Y224410D02*
X23307D01*
Y204724D02*
Y224410D01*
X191339Y200787D02*
X192913D01*
X192126Y200000D02*
Y201575D01*
X185827Y203543D02*
X198425D01*
Y198031D02*
Y203543D01*
X185827Y198031D02*
X198425D01*
X185827D02*
Y203543D01*
X241732Y200787D02*
X243307D01*
X242520Y200000D02*
Y201575D01*
X236221Y203543D02*
X248819D01*
Y198031D02*
Y203543D01*
X236221Y198031D02*
X248819D01*
X236221D02*
Y203543D01*
X164173Y200787D02*
X165748D01*
X164961Y200000D02*
Y201575D01*
X158661Y203543D02*
X171260D01*
Y198031D02*
Y203543D01*
X158661Y198031D02*
X171260D01*
X158661D02*
Y203543D01*
X140157Y200787D02*
X141732D01*
X140945Y200000D02*
Y201575D01*
X134646Y203543D02*
X147244D01*
Y198031D02*
Y203543D01*
X134646Y198031D02*
X147244D01*
X134646D02*
Y203543D01*
X112598Y200787D02*
X114173D01*
X113386Y200000D02*
Y201575D01*
X107087Y203543D02*
X119685D01*
Y198031D02*
Y203543D01*
X107087Y198031D02*
X119685D01*
X107087D02*
Y203543D01*
X89370Y200787D02*
X90945D01*
X90158Y200000D02*
Y201575D01*
X83858Y203543D02*
X96457D01*
Y198031D02*
Y203543D01*
X83858Y198031D02*
X96457D01*
X83858D02*
Y203543D01*
X63779Y200787D02*
X65354D01*
X64567Y200000D02*
Y201575D01*
X58268Y203543D02*
X70866D01*
Y198031D02*
Y203543D01*
X58268Y198031D02*
X70866D01*
X58268D02*
Y203543D01*
X37402Y200787D02*
X38976D01*
X38189Y200000D02*
Y201575D01*
X31890Y203543D02*
X44488D01*
Y198031D02*
Y203543D01*
X31890Y198031D02*
X44488D01*
X31890D02*
Y203543D01*
X11811Y200787D02*
X13386D01*
X12598Y200000D02*
Y201575D01*
X6299Y203543D02*
X18898D01*
Y198031D02*
Y203543D01*
X6299Y198031D02*
X18898D01*
X6299D02*
Y203543D01*
X206929Y267717D02*
Y287402D01*
Y267717D02*
X228031D01*
X206929Y287402D02*
X228031D01*
Y267717D02*
Y287402D01*
X181339Y267717D02*
Y287402D01*
Y267717D02*
X202441D01*
X181339Y287402D02*
X202441D01*
Y267717D02*
Y287402D01*
X155748Y267717D02*
Y287402D01*
Y267717D02*
X176850D01*
X155748Y287402D02*
X176850D01*
Y267717D02*
Y287402D01*
X130157Y267717D02*
Y287402D01*
Y267717D02*
X151260D01*
X130157Y287402D02*
X151260D01*
Y267717D02*
Y287402D01*
X104567Y267717D02*
Y287402D01*
Y267717D02*
X125669D01*
X104567Y287402D02*
X125669D01*
Y267717D02*
Y287402D01*
X78976Y267717D02*
Y287402D01*
Y267717D02*
X100079D01*
X78976Y287402D02*
X100079D01*
Y267717D02*
Y287402D01*
X53386Y267717D02*
Y287402D01*
Y267717D02*
X74488D01*
X53386Y287402D02*
X74488D01*
Y267717D02*
Y287402D01*
X27795Y267717D02*
Y287402D01*
Y267717D02*
X48898D01*
X27795Y287402D02*
X48898D01*
Y267717D02*
Y287402D01*
X232520Y267717D02*
Y287402D01*
Y267717D02*
X253622D01*
X232520Y287402D02*
X253622D01*
Y267717D02*
Y287402D01*
X216929Y263779D02*
X218504D01*
X217717Y262992D02*
Y264567D01*
X211417Y266535D02*
X224016D01*
Y261024D02*
Y266535D01*
X211417Y261024D02*
X224016D01*
X211417D02*
Y266535D01*
X2205Y267717D02*
Y287402D01*
Y267717D02*
X23307D01*
X2205Y287402D02*
X23307D01*
Y267717D02*
Y287402D01*
X191339Y263779D02*
X192913D01*
X192126Y262992D02*
Y264567D01*
X185827Y266535D02*
X198425D01*
Y261024D02*
Y266535D01*
X185827Y261024D02*
X198425D01*
X185827D02*
Y266535D01*
X241732Y263779D02*
X243307D01*
X242520Y262992D02*
Y264567D01*
X236221Y266535D02*
X248819D01*
Y261024D02*
Y266535D01*
X236221Y261024D02*
X248819D01*
X236221D02*
Y266535D01*
X164173Y263779D02*
X165748D01*
X164961Y262992D02*
Y264567D01*
X158661Y266535D02*
X171260D01*
Y261024D02*
Y266535D01*
X158661Y261024D02*
X171260D01*
X158661D02*
Y266535D01*
X140157Y263779D02*
X141732D01*
X140945Y262992D02*
Y264567D01*
X134646Y266535D02*
X147244D01*
Y261024D02*
Y266535D01*
X134646Y261024D02*
X147244D01*
X134646D02*
Y266535D01*
X112598Y263779D02*
X114173D01*
X113386Y262992D02*
Y264567D01*
X107087Y266535D02*
X119685D01*
Y261024D02*
Y266535D01*
X107087Y261024D02*
X119685D01*
X107087D02*
Y266535D01*
X89370Y263779D02*
X90945D01*
X90158Y262992D02*
Y264567D01*
X83858Y266535D02*
X96457D01*
Y261024D02*
Y266535D01*
X83858Y261024D02*
X96457D01*
X83858D02*
Y266535D01*
X63779Y263779D02*
X65354D01*
X64567Y262992D02*
Y264567D01*
X58268Y266535D02*
X70866D01*
Y261024D02*
Y266535D01*
X58268Y261024D02*
X70866D01*
X58268D02*
Y266535D01*
X37402Y263779D02*
X38976D01*
X38189Y262992D02*
Y264567D01*
X31890Y266535D02*
X44488D01*
Y261024D02*
Y266535D01*
X31890Y261024D02*
X44488D01*
X31890D02*
Y266535D01*
X11811Y263779D02*
X13386D01*
X12598Y262992D02*
Y264567D01*
X6299Y266535D02*
X18898D01*
Y261024D02*
Y266535D01*
X6299Y261024D02*
X18898D01*
X6299D02*
Y266535D01*
X206929Y330709D02*
Y350394D01*
Y330709D02*
X228031D01*
X206929Y350394D02*
X228031D01*
Y330709D02*
Y350394D01*
X181339Y330709D02*
Y350394D01*
Y330709D02*
X202441D01*
X181339Y350394D02*
X202441D01*
Y330709D02*
Y350394D01*
X155748Y330709D02*
Y350394D01*
Y330709D02*
X176850D01*
X155748Y350394D02*
X176850D01*
Y330709D02*
Y350394D01*
X130157Y330709D02*
Y350394D01*
Y330709D02*
X151260D01*
X130157Y350394D02*
X151260D01*
Y330709D02*
Y350394D01*
X104567Y330709D02*
Y350394D01*
Y330709D02*
X125669D01*
X104567Y350394D02*
X125669D01*
Y330709D02*
Y350394D01*
X78976Y330709D02*
Y350394D01*
Y330709D02*
X100079D01*
X78976Y350394D02*
X100079D01*
Y330709D02*
Y350394D01*
X53386Y330709D02*
Y350394D01*
Y330709D02*
X74488D01*
X53386Y350394D02*
X74488D01*
Y330709D02*
Y350394D01*
X27795Y330709D02*
Y350394D01*
Y330709D02*
X48898D01*
X27795Y350394D02*
X48898D01*
Y330709D02*
Y350394D01*
X232520Y330709D02*
Y350394D01*
Y330709D02*
X253622D01*
X232520Y350394D02*
X253622D01*
Y330709D02*
Y350394D01*
X216929Y326772D02*
X218504D01*
X217717Y325984D02*
Y327559D01*
X211417Y329528D02*
X224016D01*
Y324016D02*
Y329528D01*
X211417Y324016D02*
X224016D01*
X211417D02*
Y329528D01*
X2205Y330709D02*
Y350394D01*
Y330709D02*
X23307D01*
X2205Y350394D02*
X23307D01*
Y330709D02*
Y350394D01*
X191339Y326772D02*
X192913D01*
X192126Y325984D02*
Y327559D01*
X185827Y329528D02*
X198425D01*
Y324016D02*
Y329528D01*
X185827Y324016D02*
X198425D01*
X185827D02*
Y329528D01*
X241732Y326772D02*
X243307D01*
X242520Y325984D02*
Y327559D01*
X236221Y329528D02*
X248819D01*
Y324016D02*
Y329528D01*
X236221Y324016D02*
X248819D01*
X236221D02*
Y329528D01*
X164173Y326772D02*
X165748D01*
X164961Y325984D02*
Y327559D01*
X158661Y329528D02*
X171260D01*
Y324016D02*
Y329528D01*
X158661Y324016D02*
X171260D01*
X158661D02*
Y329528D01*
X140157Y326772D02*
X141732D01*
X140945Y325984D02*
Y327559D01*
X134646Y329528D02*
X147244D01*
Y324016D02*
Y329528D01*
X134646Y324016D02*
X147244D01*
X134646D02*
Y329528D01*
X112598Y326772D02*
X114173D01*
X113386Y325984D02*
Y327559D01*
X107087Y329528D02*
X119685D01*
Y324016D02*
Y329528D01*
X107087Y324016D02*
X119685D01*
X107087D02*
Y329528D01*
X89370Y326772D02*
X90945D01*
X90158Y325984D02*
Y327559D01*
X83858Y329528D02*
X96457D01*
Y324016D02*
Y329528D01*
X83858Y324016D02*
X96457D01*
X83858D02*
Y329528D01*
X63779Y326772D02*
X65354D01*
X64567Y325984D02*
Y327559D01*
X58268Y329528D02*
X70866D01*
Y324016D02*
Y329528D01*
X58268Y324016D02*
X70866D01*
X58268D02*
Y329528D01*
X37402Y326772D02*
X38976D01*
X38189Y325984D02*
Y327559D01*
X31890Y329528D02*
X44488D01*
Y324016D02*
Y329528D01*
X31890Y324016D02*
X44488D01*
X31890D02*
Y329528D01*
X11811Y326772D02*
X13386D01*
X12598Y325984D02*
Y327559D01*
X6299Y329528D02*
X18898D01*
Y324016D02*
Y329528D01*
X6299Y324016D02*
X18898D01*
X6299D02*
Y329528D01*
M02*
