M48
;Layer_Color=9474304
;FILE_FORMAT=2:5
INCH,LZ
;TYPE=PLATED
T1F00S00C0.01968
T2F00S00C0.02800
%
T01
X006811Y0051181
X007126
X007441
X0077559
X0080709
X0083858
X0087008
X0166535
X0169685
X0172835
X0175984
X0179134
X0182283
X0185433
X0185433Y0062992
X0182283
X0179134
X0175984
X0172835
X0169685
X0166535
X0166542Y0113884
X0169691
X0172841
X017599
X017914
X018229
X0185439
X0185439Y0125695
X018229
X017914
X0175984Y0125984
X0172835
X0169685
X0166535
X0166535Y0177165
X0169685
X0172835
X0175984
X0179134
X0182283
X0185433
X0185433Y0188976
X0182283
X0179134
X0175984
X0172835
X0169685
X0166535
X0087008
X0083858
X0080709
X0077559
X007441
X007126
X006811
X006811Y0177165
X007126
X007441
X0077559
X0080709
X0083858
X0087008
X0087008Y0125984
X0083858
X0080709
X0077559
X007441
X007126
X006811
X006811Y0114173
X007126
X007441
X0077559
X0080709
X0083858
X0087008
X0087008Y0062992
X0083858
X0080709
X0077559
X007441
X007126
X006811
X006811Y0240158
X007126
X007441
X0077559
X0080709
X0083858
X0087008
X0087008Y0251969
X0083858
X0080709
X0077559
X007441
X007126
X006811
X006811Y030315
X007126
X007441
X0077559
X0080709
X0083858
X0087008
X0087008Y0314961
X0083858
X0080709
X0077559
X007441
X007126
X006811
X0166535
X0169685
X0172835
X0175984
X0179134
X0182283
X0185433
X0185433Y030315
X0182283
X0179134
X0175984
X0172835
X0169685
X0166535
X0166535Y0251969
X0169685
X0172835
X0175984
X0179134
X0182283
X0185433
X0185433Y0240158
X0182283
X0179134
X0175984
X0172835
X0169685
X0166535
T02
X0003543Y0006693
Y0012598
X0014567Y0025591
X0038268Y0046457
X0063779
X0064173Y0025197
X0089291Y0046457
X0114803
X0115197Y0025197
X0140709
X0140315Y0046457
X0165827
X016622Y0025197
X0191732
X0191339Y0046457
X021685
X0241732Y0025197
X0252362Y0012598
Y0006693
Y0069685
Y0075591
X0241732Y0088189
X021685Y0109449
X0252362Y0132677
Y0138583
X0241732Y0151181
X021685Y0172441
X0252362Y0195669
Y0201575
X0191339Y0172441
X0191732Y0151181
X016622
X0165827Y0172441
X0140315
X0140709Y0151181
X0115197
X0114803Y0172441
X0089291
X0063779
X0064173Y0151181
X0063779Y0109449
X0064173Y0088189
X0089291Y0109449
X0114803
X0115197Y0088189
X0140709
X0140315Y0109449
X0165827
X016622Y0088189
X0191732
X0191339Y0109449
X0038268
X0014567Y0088583
X0003543Y0075591
Y0069685
Y0132677
Y0138583
X0014567Y0151575
X0038268Y0172441
X0003543Y0195669
Y0201575
X0014567Y0214567
X0038268Y0235433
X0003543Y0258661
Y0264567
X0014567Y0277559
X0038268Y0298425
X0003543Y0321654
Y0327559
X0014567Y0340551
X0038268Y0361417
X0063779
X0064173Y0340158
X0063779Y0298425
X0064173Y0277165
X0063779Y0235433
X0064173Y0214173
X0089291Y0235433
X0114803
X0115197Y0214173
X0140709
X0140315Y0235433
X0165827
X016622Y0214173
X0191732
X0191339Y0235433
X0191732Y0277165
X0191339Y0298425
X0165827
X016622Y0277165
X0140709
X0140315Y0298425
X0114803
X0115197Y0277165
X0089291Y0298425
Y0361417
X0114803
X0115197Y0340158
X0140709
X0140315Y0361417
X0165827
X016622Y0340158
X0191732
X0191339Y0361417
X021685
X0241732Y0340158
X0252362Y0327559
Y0321654
X0241732Y0277165
X0252362Y0264567
Y0258661
X0241732Y0214173
X021685Y0235433
Y0298425
M30
