G04*
G04 #@! TF.GenerationSoftware,Altium Limited,Altium Designer,20.1.12 (249)*
G04*
G04 Layer_Color=16711935*
%FSLAX25Y25*%
%MOIN*%
G70*
G04*
G04 #@! TF.SameCoordinates,880ED213-D7CF-42DA-8A1E-0FEEA66E8632*
G04*
G04*
G04 #@! TF.FilePolarity,Positive*
G04*
G01*
G75*
%ADD24C,0.00394*%
D24*
X206929Y15748D02*
X228031D01*
X206929Y35433D02*
X228031D01*
Y15748D02*
Y35433D01*
X206929Y15748D02*
Y35433D01*
X181339Y15748D02*
X202441D01*
X181339Y35433D02*
X202441D01*
Y15748D02*
Y35433D01*
X181339Y15748D02*
Y35433D01*
X155748Y15748D02*
X176850D01*
X155748Y35433D02*
X176850D01*
Y15748D02*
Y35433D01*
X155748Y15748D02*
Y35433D01*
X130157Y15748D02*
X151260D01*
X130157Y35433D02*
X151260D01*
Y15748D02*
Y35433D01*
X130157Y15748D02*
Y35433D01*
X104567Y15748D02*
X125669D01*
X104567Y35433D02*
X125669D01*
Y15748D02*
Y35433D01*
X104567Y15748D02*
Y35433D01*
X78976Y15748D02*
X100079D01*
X78976Y35433D02*
X100079D01*
Y15748D02*
Y35433D01*
X78976Y15748D02*
Y35433D01*
X53386Y15748D02*
X74488D01*
X53386Y35433D02*
X74488D01*
Y15748D02*
Y35433D01*
X53386Y15748D02*
Y35433D01*
X27795Y15748D02*
X48898D01*
X27795Y35433D02*
X48898D01*
Y15748D02*
Y35433D01*
X27795Y15748D02*
Y35433D01*
X232520Y15748D02*
X253622D01*
X232520Y35433D02*
X253622D01*
Y15748D02*
Y35433D01*
X232520Y15748D02*
Y35433D01*
X2205Y15748D02*
X23307D01*
X2205Y35433D02*
X23307D01*
Y15748D02*
Y35433D01*
X2205Y15748D02*
Y35433D01*
X206929Y78740D02*
X228031D01*
X206929Y98425D02*
X228031D01*
Y78740D02*
Y98425D01*
X206929Y78740D02*
Y98425D01*
X181339Y78740D02*
X202441D01*
X181339Y98425D02*
X202441D01*
Y78740D02*
Y98425D01*
X181339Y78740D02*
Y98425D01*
X155748Y78740D02*
X176850D01*
X155748Y98425D02*
X176850D01*
Y78740D02*
Y98425D01*
X155748Y78740D02*
Y98425D01*
X130157Y78740D02*
X151260D01*
X130157Y98425D02*
X151260D01*
Y78740D02*
Y98425D01*
X130157Y78740D02*
Y98425D01*
X104567Y78740D02*
X125669D01*
X104567Y98425D02*
X125669D01*
Y78740D02*
Y98425D01*
X104567Y78740D02*
Y98425D01*
X78976Y78740D02*
X100079D01*
X78976Y98425D02*
X100079D01*
Y78740D02*
Y98425D01*
X78976Y78740D02*
Y98425D01*
X53386Y78740D02*
X74488D01*
X53386Y98425D02*
X74488D01*
Y78740D02*
Y98425D01*
X53386Y78740D02*
Y98425D01*
X27795Y78740D02*
X48898D01*
X27795Y98425D02*
X48898D01*
Y78740D02*
Y98425D01*
X27795Y78740D02*
Y98425D01*
X232520Y78740D02*
X253622D01*
X232520Y98425D02*
X253622D01*
Y78740D02*
Y98425D01*
X232520Y78740D02*
Y98425D01*
X2205Y78740D02*
X23307D01*
X2205Y98425D02*
X23307D01*
Y78740D02*
Y98425D01*
X2205Y78740D02*
Y98425D01*
X206929Y141732D02*
X228031D01*
X206929Y161417D02*
X228031D01*
Y141732D02*
Y161417D01*
X206929Y141732D02*
Y161417D01*
X181339Y141732D02*
X202441D01*
X181339Y161417D02*
X202441D01*
Y141732D02*
Y161417D01*
X181339Y141732D02*
Y161417D01*
X155748Y141732D02*
X176850D01*
X155748Y161417D02*
X176850D01*
Y141732D02*
Y161417D01*
X155748Y141732D02*
Y161417D01*
X130157Y141732D02*
X151260D01*
X130157Y161417D02*
X151260D01*
Y141732D02*
Y161417D01*
X130157Y141732D02*
Y161417D01*
X104567Y141732D02*
X125669D01*
X104567Y161417D02*
X125669D01*
Y141732D02*
Y161417D01*
X104567Y141732D02*
Y161417D01*
X78976Y141732D02*
X100079D01*
X78976Y161417D02*
X100079D01*
Y141732D02*
Y161417D01*
X78976Y141732D02*
Y161417D01*
X53386Y141732D02*
X74488D01*
X53386Y161417D02*
X74488D01*
Y141732D02*
Y161417D01*
X53386Y141732D02*
Y161417D01*
X27795Y141732D02*
X48898D01*
X27795Y161417D02*
X48898D01*
Y141732D02*
Y161417D01*
X27795Y141732D02*
Y161417D01*
X232520Y141732D02*
X253622D01*
X232520Y161417D02*
X253622D01*
Y141732D02*
Y161417D01*
X232520Y141732D02*
Y161417D01*
X2205Y141732D02*
X23307D01*
X2205Y161417D02*
X23307D01*
Y141732D02*
Y161417D01*
X2205Y141732D02*
Y161417D01*
X206929Y204724D02*
X228031D01*
X206929Y224410D02*
X228031D01*
Y204724D02*
Y224410D01*
X206929Y204724D02*
Y224410D01*
X181339Y204724D02*
X202441D01*
X181339Y224410D02*
X202441D01*
Y204724D02*
Y224410D01*
X181339Y204724D02*
Y224410D01*
X155748Y204724D02*
X176850D01*
X155748Y224410D02*
X176850D01*
Y204724D02*
Y224410D01*
X155748Y204724D02*
Y224410D01*
X130157Y204724D02*
X151260D01*
X130157Y224410D02*
X151260D01*
Y204724D02*
Y224410D01*
X130157Y204724D02*
Y224410D01*
X104567Y204724D02*
X125669D01*
X104567Y224410D02*
X125669D01*
Y204724D02*
Y224410D01*
X104567Y204724D02*
Y224410D01*
X78976Y204724D02*
X100079D01*
X78976Y224410D02*
X100079D01*
Y204724D02*
Y224410D01*
X78976Y204724D02*
Y224410D01*
X53386Y204724D02*
X74488D01*
X53386Y224410D02*
X74488D01*
Y204724D02*
Y224410D01*
X53386Y204724D02*
Y224410D01*
X27795Y204724D02*
X48898D01*
X27795Y224410D02*
X48898D01*
Y204724D02*
Y224410D01*
X27795Y204724D02*
Y224410D01*
X232520Y204724D02*
X253622D01*
X232520Y224410D02*
X253622D01*
Y204724D02*
Y224410D01*
X232520Y204724D02*
Y224410D01*
X2205Y204724D02*
X23307D01*
X2205Y224410D02*
X23307D01*
Y204724D02*
Y224410D01*
X2205Y204724D02*
Y224410D01*
X206929Y267717D02*
X228031D01*
X206929Y287402D02*
X228031D01*
Y267717D02*
Y287402D01*
X206929Y267717D02*
Y287402D01*
X181339Y267717D02*
X202441D01*
X181339Y287402D02*
X202441D01*
Y267717D02*
Y287402D01*
X181339Y267717D02*
Y287402D01*
X155748Y267717D02*
X176850D01*
X155748Y287402D02*
X176850D01*
Y267717D02*
Y287402D01*
X155748Y267717D02*
Y287402D01*
X130157Y267717D02*
X151260D01*
X130157Y287402D02*
X151260D01*
Y267717D02*
Y287402D01*
X130157Y267717D02*
Y287402D01*
X104567Y267717D02*
X125669D01*
X104567Y287402D02*
X125669D01*
Y267717D02*
Y287402D01*
X104567Y267717D02*
Y287402D01*
X78976Y267717D02*
X100079D01*
X78976Y287402D02*
X100079D01*
Y267717D02*
Y287402D01*
X78976Y267717D02*
Y287402D01*
X53386Y267717D02*
X74488D01*
X53386Y287402D02*
X74488D01*
Y267717D02*
Y287402D01*
X53386Y267717D02*
Y287402D01*
X27795Y267717D02*
X48898D01*
X27795Y287402D02*
X48898D01*
Y267717D02*
Y287402D01*
X27795Y267717D02*
Y287402D01*
X232520Y267717D02*
X253622D01*
X232520Y287402D02*
X253622D01*
Y267717D02*
Y287402D01*
X232520Y267717D02*
Y287402D01*
X2205Y267717D02*
X23307D01*
X2205Y287402D02*
X23307D01*
Y267717D02*
Y287402D01*
X2205Y267717D02*
Y287402D01*
X206929Y330709D02*
X228031D01*
X206929Y350394D02*
X228031D01*
Y330709D02*
Y350394D01*
X206929Y330709D02*
Y350394D01*
X181339Y330709D02*
X202441D01*
X181339Y350394D02*
X202441D01*
Y330709D02*
Y350394D01*
X181339Y330709D02*
Y350394D01*
X155748Y330709D02*
X176850D01*
X155748Y350394D02*
X176850D01*
Y330709D02*
Y350394D01*
X155748Y330709D02*
Y350394D01*
X130157Y330709D02*
X151260D01*
X130157Y350394D02*
X151260D01*
Y330709D02*
Y350394D01*
X130157Y330709D02*
Y350394D01*
X104567Y330709D02*
X125669D01*
X104567Y350394D02*
X125669D01*
Y330709D02*
Y350394D01*
X104567Y330709D02*
Y350394D01*
X78976Y330709D02*
X100079D01*
X78976Y350394D02*
X100079D01*
Y330709D02*
Y350394D01*
X78976Y330709D02*
Y350394D01*
X53386Y330709D02*
X74488D01*
X53386Y350394D02*
X74488D01*
Y330709D02*
Y350394D01*
X53386Y330709D02*
Y350394D01*
X27795Y330709D02*
X48898D01*
X27795Y350394D02*
X48898D01*
Y330709D02*
Y350394D01*
X27795Y330709D02*
Y350394D01*
X232520Y330709D02*
X253622D01*
X232520Y350394D02*
X253622D01*
Y330709D02*
Y350394D01*
X232520Y330709D02*
Y350394D01*
X2205Y330709D02*
X23307D01*
X2205Y350394D02*
X23307D01*
Y330709D02*
Y350394D01*
X2205Y330709D02*
Y350394D01*
M02*
