G04*
G04 #@! TF.GenerationSoftware,Altium Limited,Altium Designer,20.1.12 (249)*
G04*
G04 Layer_Color=128*
%FSLAX25Y25*%
%MOIN*%
G70*
G04*
G04 #@! TF.SameCoordinates,880ED213-D7CF-42DA-8A1E-0FEEA66E8632*
G04*
G04*
G04 #@! TF.FilePolarity,Positive*
G04*
G01*
G75*
%ADD22R,0.15354X0.07087*%
%ADD23R,0.17717X0.05118*%
D22*
X240748Y3150D02*
D03*
Y48031D02*
D03*
X16091Y48825D02*
D03*
Y3943D02*
D03*
X240748Y66142D02*
D03*
Y111024D02*
D03*
X16091Y111817D02*
D03*
Y66935D02*
D03*
X240748Y129134D02*
D03*
Y174016D02*
D03*
X16091Y174809D02*
D03*
Y129928D02*
D03*
X240748Y192126D02*
D03*
Y237008D02*
D03*
X16091Y237802D02*
D03*
Y192920D02*
D03*
X240748Y255118D02*
D03*
Y300000D02*
D03*
X16091Y300794D02*
D03*
Y255912D02*
D03*
X240748Y318110D02*
D03*
Y362992D02*
D03*
X16091Y363786D02*
D03*
Y318904D02*
D03*
D23*
X213976Y15748D02*
D03*
Y35433D02*
D03*
Y25591D02*
D03*
X42862Y36227D02*
D03*
Y16542D02*
D03*
Y26384D02*
D03*
X213976Y78740D02*
D03*
Y98425D02*
D03*
Y88583D02*
D03*
X42862Y99219D02*
D03*
Y79534D02*
D03*
Y89376D02*
D03*
X213976Y141732D02*
D03*
Y161417D02*
D03*
Y151575D02*
D03*
X42862Y162211D02*
D03*
Y142526D02*
D03*
Y152368D02*
D03*
X213976Y204724D02*
D03*
Y224410D02*
D03*
Y214567D02*
D03*
X42862Y225203D02*
D03*
Y205518D02*
D03*
Y215361D02*
D03*
X213976Y267717D02*
D03*
Y287402D02*
D03*
Y277559D02*
D03*
X42862Y288195D02*
D03*
Y268510D02*
D03*
Y278353D02*
D03*
X213976Y330709D02*
D03*
Y350394D02*
D03*
Y340551D02*
D03*
X42862Y351187D02*
D03*
Y331502D02*
D03*
Y341345D02*
D03*
M02*
