G04*
G04 #@! TF.GenerationSoftware,Altium Limited,Altium Designer,20.1.12 (249)*
G04*
G04 Layer_Color=16711935*
%FSLAX25Y25*%
%MOIN*%
G70*
G04*
G04 #@! TF.SameCoordinates,880ED213-D7CF-42DA-8A1E-0FEEA66E8632*
G04*
G04*
G04 #@! TF.FilePolarity,Positive*
G04*
G01*
G75*
%ADD33C,0.11024*%
%ADD34C,0.01968*%
D33*
X261417Y358268D02*
G03*
X261417Y358281I-5512J0D01*
G01*
X248045Y371654D02*
G03*
X248031Y371654I-14J-5512D01*
G01*
X248045Y371654D02*
G03*
X248031Y371654I-14J-13386D01*
G01*
X261417Y358281D02*
G03*
X248045Y371654I-13386J-14D01*
G01*
X261417Y358268D02*
G03*
X261417Y358281I-13386J0D01*
G01*
X248031Y309449D02*
G03*
X261417Y322835I0J13386D01*
G01*
X248045Y308662D02*
G03*
X248031Y308662I-14J-13386D01*
G01*
X261417Y295289D02*
G03*
X248045Y308662I-13386J-14D01*
G01*
X261417Y295276D02*
G03*
X261417Y295289I-13386J0D01*
G01*
X248045Y308662D02*
G03*
X248031Y308662I-14J-5512D01*
G01*
X261417Y295276D02*
G03*
X261417Y295289I-5512J0D01*
G01*
X261417Y232283D02*
G03*
X261417Y232297I-5512J0D01*
G01*
X248031Y246457D02*
G03*
X261417Y259842I0J13386D01*
G01*
X248045Y245669D02*
G03*
X248031Y245669I-14J-13386D01*
G01*
X261417Y232297D02*
G03*
X248045Y245669I-13386J-14D01*
G01*
X261417Y232283D02*
G03*
X261417Y232297I-13386J0D01*
G01*
X248031Y183465D02*
G03*
X261417Y196850I0J13386D01*
G01*
X248045Y245669D02*
G03*
X248031Y245669I-14J-5512D01*
G01*
X248045Y182677D02*
G03*
X248031Y182677I-14J-5512D01*
G01*
X261417Y169291D02*
G03*
X261417Y169305I-5512J0D01*
G01*
X261417Y106299D02*
G03*
X261417Y106313I-5512J0D01*
G01*
X248045Y182677D02*
G03*
X248031Y182677I-14J-13386D01*
G01*
X261417Y169305D02*
G03*
X248045Y182677I-13386J-14D01*
G01*
X261417Y169291D02*
G03*
X261417Y169305I-13386J0D01*
G01*
X248031Y120472D02*
G03*
X261417Y133858I0J13386D01*
G01*
X248045Y119685D02*
G03*
X248031Y119685I-14J-5512D01*
G01*
X248045Y119685D02*
G03*
X248031Y119685I-14J-13386D01*
G01*
X261417Y106313D02*
G03*
X248045Y119685I-13386J-14D01*
G01*
X261417Y106299D02*
G03*
X261417Y106313I-13386J0D01*
G01*
X261417Y43307D02*
G03*
X261417Y43321I-5512J0D01*
G01*
X248031Y57480D02*
G03*
X261417Y70866I0J13386D01*
G01*
X248045Y56693D02*
G03*
X248031Y56693I-14J-13386D01*
G01*
X261417Y43321D02*
G03*
X248045Y56693I-13386J-14D01*
G01*
X261417Y43307D02*
G03*
X261417Y43321I-13386J0D01*
G01*
X248031Y-5512D02*
G03*
X261417Y7874I0J13386D01*
G01*
X248045Y56693D02*
G03*
X248031Y56693I-14J-5512D01*
G01*
X-5512Y322835D02*
G03*
X7874Y309449I13386J0D01*
G01*
X7874Y308662D02*
G03*
X-5512Y295276I0J-13386D01*
G01*
Y259842D02*
G03*
X7874Y246457I13386J0D01*
G01*
X7874Y371654D02*
G03*
X-5512Y358268I0J-13386D01*
G01*
X7874Y245669D02*
G03*
X-5512Y232283I0J-13386D01*
G01*
Y196850D02*
G03*
X7874Y183465I13386J0D01*
G01*
X-5512Y133858D02*
G03*
X7874Y120472I13386J0D01*
G01*
X-5512Y70866D02*
G03*
X7874Y57480I13386J0D01*
G01*
X-5512Y7874D02*
G03*
X7874Y-5512I13386J0D01*
G01*
X7874Y182677D02*
G03*
X-5512Y169291I0J-13386D01*
G01*
X7874Y119685D02*
G03*
X-5512Y106299I0J-13386D01*
G01*
X7874Y56693D02*
G03*
X-5512Y43307I0J-13386D01*
G01*
X188976Y183465D02*
X248031D01*
X188976Y245669D02*
X248031D01*
X188976Y182677D02*
X248031D01*
X188976Y308662D02*
X248031D01*
X188976Y309449D02*
X248031D01*
X188976Y246457D02*
X248031D01*
X188976Y119685D02*
X248031D01*
X188976Y120472D02*
X248031D01*
X188976Y56693D02*
X248031D01*
X90551Y119685D02*
X165354Y119685D01*
X188976Y57480D02*
X248031D01*
X90551Y309449D02*
X165354D01*
X7874Y371654D02*
X248031Y371654D01*
X90551Y308662D02*
X165354Y308662D01*
X90551Y245669D02*
X165354Y245669D01*
X90551Y246457D02*
X165354D01*
X90551Y183465D02*
X165354D01*
X90551Y56693D02*
X165354Y56693D01*
X90551Y57480D02*
X165354D01*
X7874Y-5512D02*
X248031D01*
X90551Y182677D02*
X165354Y182677D01*
X90551Y120472D02*
X165354D01*
X7874Y183465D02*
X66929D01*
X7874Y309449D02*
X66929D01*
X7874Y308662D02*
X66929D01*
X7874Y246457D02*
X66929D01*
X7874Y245669D02*
X66929D01*
X7874Y182677D02*
X66929D01*
X7874Y57480D02*
X66929D01*
X7874Y56693D02*
X66929D01*
X7874Y120472D02*
X66929D01*
X7874Y119685D02*
X66929D01*
X261417Y322835D02*
Y358268D01*
Y259842D02*
Y295276D01*
Y196850D02*
Y232283D01*
X7874Y183465D02*
X7874D01*
X7874D02*
X7874D01*
X261417Y133858D02*
Y169291D01*
Y70866D02*
Y106299D01*
Y7874D02*
Y43307D01*
X7874Y120472D02*
X7874D01*
X7874D02*
X7874D01*
Y57480D02*
X7874D01*
X7874D02*
X7874D01*
Y-5512D02*
X7874D01*
X7874D02*
X7874D01*
Y309449D02*
X7874D01*
X7874D02*
X7874D01*
Y246457D02*
X7874D01*
X7874D02*
X7874D01*
X-5512Y259842D02*
Y295276D01*
Y259842D02*
Y259842D01*
Y259842D02*
Y259842D01*
Y322835D02*
Y358268D01*
Y322835D02*
Y322835D01*
Y322835D02*
Y322835D01*
Y196850D02*
Y232283D01*
Y196850D02*
Y196850D01*
Y196850D02*
Y196850D01*
Y133858D02*
Y169291D01*
Y133858D02*
Y133858D01*
Y133858D02*
Y133858D01*
Y70866D02*
Y106299D01*
Y70866D02*
Y70866D01*
Y70866D02*
Y70866D01*
Y7874D02*
Y43307D01*
Y7874D02*
Y7874D01*
Y7874D02*
Y7874D01*
D34*
X248031Y0D02*
G03*
X255906Y7874I0J7874D01*
G01*
X0Y7874D02*
G03*
X7874Y0I7874J-0D01*
G01*
X7874Y51181D02*
G03*
X0Y43307I0J-7874D01*
G01*
X255906D02*
G03*
X248031Y51181I-7874J0D01*
G01*
X255906Y7874D02*
Y43307D01*
X7874Y0D02*
X248031D01*
X0Y7874D02*
Y43307D01*
X7874Y51181D02*
X248031Y51181D01*
Y62992D02*
G03*
X255906Y70866I0J7874D01*
G01*
X0Y70866D02*
G03*
X7874Y62992I7874J-0D01*
G01*
X7874Y114173D02*
G03*
X0Y106299I0J-7874D01*
G01*
X255906D02*
G03*
X248031Y114173I-7874J0D01*
G01*
X255906Y70866D02*
Y106299D01*
X7874Y62992D02*
X248031D01*
X0Y70866D02*
Y106299D01*
X7874Y114173D02*
X248031Y114173D01*
Y125984D02*
G03*
X255906Y133858I0J7874D01*
G01*
X0Y133858D02*
G03*
X7874Y125984I7874J-0D01*
G01*
X7874Y177165D02*
G03*
X0Y169291I0J-7874D01*
G01*
X255906D02*
G03*
X248031Y177165I-7874J0D01*
G01*
X255906Y133858D02*
Y169291D01*
X7874Y125984D02*
X248031D01*
X0Y133858D02*
Y169291D01*
X7874Y177165D02*
X248031Y177165D01*
Y188976D02*
G03*
X255906Y196850I0J7874D01*
G01*
X0Y196850D02*
G03*
X7874Y188976I7874J-0D01*
G01*
X7874Y240158D02*
G03*
X0Y232283I0J-7874D01*
G01*
X255906D02*
G03*
X248031Y240158I-7874J0D01*
G01*
X255906Y196850D02*
Y232283D01*
X7874Y188976D02*
X248031D01*
X0Y196850D02*
Y232283D01*
X7874Y240158D02*
X248031Y240158D01*
Y251969D02*
G03*
X255906Y259842I0J7874D01*
G01*
X0Y259842D02*
G03*
X7874Y251969I7874J-0D01*
G01*
X7874Y303150D02*
G03*
X0Y295276I0J-7874D01*
G01*
X255906D02*
G03*
X248031Y303150I-7874J0D01*
G01*
X255906Y259842D02*
Y295276D01*
X7874Y251969D02*
X248031D01*
X0Y259842D02*
Y295276D01*
X7874Y303150D02*
X248031Y303150D01*
Y314961D02*
G03*
X255906Y322835I0J7874D01*
G01*
X0Y322835D02*
G03*
X7874Y314961I7874J-0D01*
G01*
X7874Y366142D02*
G03*
X0Y358268I0J-7874D01*
G01*
X255906D02*
G03*
X248031Y366142I-7874J0D01*
G01*
X255906Y322835D02*
Y358268D01*
X7874Y314961D02*
X248031D01*
X0Y322835D02*
Y358268D01*
X7874Y366142D02*
X248031Y366142D01*
M02*
