G04*
G04 #@! TF.GenerationSoftware,Altium Limited,Altium Designer,20.1.12 (249)*
G04*
G04 Layer_Color=16711935*
%FSLAX25Y25*%
%MOIN*%
G70*
G04*
G04 #@! TF.SameCoordinates,880ED213-D7CF-42DA-8A1E-0FEEA66E8632*
G04*
G04*
G04 #@! TF.FilePolarity,Positive*
G04*
G01*
G75*
%ADD32C,0.00100*%
D32*
X214516Y10211D02*
Y13411D01*
Y10211D02*
X220917D01*
Y13411D01*
X214516D02*
X220917D01*
X188926Y10211D02*
Y13411D01*
Y10211D02*
X195326D01*
Y13411D01*
X188926D02*
X195326D01*
X239320Y10211D02*
Y13411D01*
Y10211D02*
X245720D01*
Y13411D01*
X239320D02*
X245720D01*
X161761Y10211D02*
Y13411D01*
Y10211D02*
X168161D01*
Y13411D01*
X161761D02*
X168161D01*
X137745Y10211D02*
Y13411D01*
Y10211D02*
X144145D01*
Y13411D01*
X137745D02*
X144145D01*
X110186Y10211D02*
Y13411D01*
Y10211D02*
X116586D01*
Y13411D01*
X110186D02*
X116586D01*
X86958Y10211D02*
Y13411D01*
Y10211D02*
X93357D01*
Y13411D01*
X86958D02*
X93357D01*
X61367Y10211D02*
Y13411D01*
Y10211D02*
X67767D01*
Y13411D01*
X61367D02*
X67767D01*
X34989Y10211D02*
Y13411D01*
Y10211D02*
X41389D01*
Y13411D01*
X34989D02*
X41389D01*
X9398Y10211D02*
Y13411D01*
Y10211D02*
X15798D01*
Y13411D01*
X9398D02*
X15798D01*
X214516Y73203D02*
Y76403D01*
Y73203D02*
X220917D01*
Y76403D01*
X214516D02*
X220917D01*
X188926Y73203D02*
Y76403D01*
Y73203D02*
X195326D01*
Y76403D01*
X188926D02*
X195326D01*
X239320Y73203D02*
Y76403D01*
Y73203D02*
X245720D01*
Y76403D01*
X239320D02*
X245720D01*
X161761Y73203D02*
Y76403D01*
Y73203D02*
X168161D01*
Y76403D01*
X161761D02*
X168161D01*
X137745Y73203D02*
Y76403D01*
Y73203D02*
X144145D01*
Y76403D01*
X137745D02*
X144145D01*
X110186Y73203D02*
Y76403D01*
Y73203D02*
X116586D01*
Y76403D01*
X110186D02*
X116586D01*
X86958Y73203D02*
Y76403D01*
Y73203D02*
X93357D01*
Y76403D01*
X86958D02*
X93357D01*
X61367Y73203D02*
Y76403D01*
Y73203D02*
X67767D01*
Y76403D01*
X61367D02*
X67767D01*
X34989Y73203D02*
Y76403D01*
Y73203D02*
X41389D01*
Y76403D01*
X34989D02*
X41389D01*
X9398Y73203D02*
Y76403D01*
Y73203D02*
X15798D01*
Y76403D01*
X9398D02*
X15798D01*
X214516Y136195D02*
Y139395D01*
Y136195D02*
X220917D01*
Y139395D01*
X214516D02*
X220917D01*
X188926Y136195D02*
Y139395D01*
Y136195D02*
X195326D01*
Y139395D01*
X188926D02*
X195326D01*
X239320Y136195D02*
Y139395D01*
Y136195D02*
X245720D01*
Y139395D01*
X239320D02*
X245720D01*
X161761Y136195D02*
Y139395D01*
Y136195D02*
X168161D01*
Y139395D01*
X161761D02*
X168161D01*
X137745Y136195D02*
Y139395D01*
Y136195D02*
X144145D01*
Y139395D01*
X137745D02*
X144145D01*
X110186Y136195D02*
Y139395D01*
Y136195D02*
X116586D01*
Y139395D01*
X110186D02*
X116586D01*
X86958Y136195D02*
Y139395D01*
Y136195D02*
X93357D01*
Y139395D01*
X86958D02*
X93357D01*
X61367Y136195D02*
Y139395D01*
Y136195D02*
X67767D01*
Y139395D01*
X61367D02*
X67767D01*
X34989Y136195D02*
Y139395D01*
Y136195D02*
X41389D01*
Y139395D01*
X34989D02*
X41389D01*
X9398Y136195D02*
Y139395D01*
Y136195D02*
X15798D01*
Y139395D01*
X9398D02*
X15798D01*
X214516Y199187D02*
Y202387D01*
Y199187D02*
X220917D01*
Y202387D01*
X214516D02*
X220917D01*
X188926Y199187D02*
Y202387D01*
Y199187D02*
X195326D01*
Y202387D01*
X188926D02*
X195326D01*
X239320Y199187D02*
Y202387D01*
Y199187D02*
X245720D01*
Y202387D01*
X239320D02*
X245720D01*
X161761Y199187D02*
Y202387D01*
Y199187D02*
X168161D01*
Y202387D01*
X161761D02*
X168161D01*
X137745Y199187D02*
Y202387D01*
Y199187D02*
X144145D01*
Y202387D01*
X137745D02*
X144145D01*
X110186Y199187D02*
Y202387D01*
Y199187D02*
X116586D01*
Y202387D01*
X110186D02*
X116586D01*
X86958Y199187D02*
Y202387D01*
Y199187D02*
X93357D01*
Y202387D01*
X86958D02*
X93357D01*
X61367Y199187D02*
Y202387D01*
Y199187D02*
X67767D01*
Y202387D01*
X61367D02*
X67767D01*
X34989Y199187D02*
Y202387D01*
Y199187D02*
X41389D01*
Y202387D01*
X34989D02*
X41389D01*
X9398Y199187D02*
Y202387D01*
Y199187D02*
X15798D01*
Y202387D01*
X9398D02*
X15798D01*
X214516Y262179D02*
Y265380D01*
Y262179D02*
X220917D01*
Y265380D01*
X214516D02*
X220917D01*
X188926Y262179D02*
Y265380D01*
Y262179D02*
X195326D01*
Y265380D01*
X188926D02*
X195326D01*
X239320Y262179D02*
Y265380D01*
Y262179D02*
X245720D01*
Y265380D01*
X239320D02*
X245720D01*
X161761Y262179D02*
Y265380D01*
Y262179D02*
X168161D01*
Y265380D01*
X161761D02*
X168161D01*
X137745Y262179D02*
Y265380D01*
Y262179D02*
X144145D01*
Y265380D01*
X137745D02*
X144145D01*
X110186Y262179D02*
Y265380D01*
Y262179D02*
X116586D01*
Y265380D01*
X110186D02*
X116586D01*
X86958Y262179D02*
Y265380D01*
Y262179D02*
X93357D01*
Y265380D01*
X86958D02*
X93357D01*
X61367Y262179D02*
Y265380D01*
Y262179D02*
X67767D01*
Y265380D01*
X61367D02*
X67767D01*
X34989Y262179D02*
Y265380D01*
Y262179D02*
X41389D01*
Y265380D01*
X34989D02*
X41389D01*
X9398Y262179D02*
Y265380D01*
Y262179D02*
X15798D01*
Y265380D01*
X9398D02*
X15798D01*
X214516Y325172D02*
Y328372D01*
Y325172D02*
X220917D01*
Y328372D01*
X214516D02*
X220917D01*
X188926Y325172D02*
Y328372D01*
Y325172D02*
X195326D01*
Y328372D01*
X188926D02*
X195326D01*
X239320Y325172D02*
Y328372D01*
Y325172D02*
X245720D01*
Y328372D01*
X239320D02*
X245720D01*
X161761Y325172D02*
Y328372D01*
Y325172D02*
X168161D01*
Y328372D01*
X161761D02*
X168161D01*
X137745Y325172D02*
Y328372D01*
Y325172D02*
X144145D01*
Y328372D01*
X137745D02*
X144145D01*
X110186Y325172D02*
Y328372D01*
Y325172D02*
X116586D01*
Y328372D01*
X110186D02*
X116586D01*
X86958Y325172D02*
Y328372D01*
Y325172D02*
X93357D01*
Y328372D01*
X86958D02*
X93357D01*
X61367Y325172D02*
Y328372D01*
Y325172D02*
X67767D01*
Y328372D01*
X61367D02*
X67767D01*
X34989Y325172D02*
Y328372D01*
Y325172D02*
X41389D01*
Y328372D01*
X34989D02*
X41389D01*
X9398Y325172D02*
Y328372D01*
Y325172D02*
X15798D01*
Y328372D01*
X9398D02*
X15798D01*
M02*
