G04*
G04 #@! TF.GenerationSoftware,Altium Limited,Altium Designer,20.1.12 (249)*
G04*
G04 Layer_Physical_Order=1*
G04 Layer_Color=255*
%FSLAX25Y25*%
%MOIN*%
G70*
G04*
G04 #@! TF.SameCoordinates,880ED213-D7CF-42DA-8A1E-0FEEA66E8632*
G04*
G04*
G04 #@! TF.FilePolarity,Positive*
G04*
G01*
G75*
%ADD10C,0.03937*%
%ADD11R,0.05906X0.03543*%
%ADD12R,0.04331X0.03937*%
%ADD13C,0.01000*%
%ADD14C,0.02000*%
%ADD15C,0.03000*%
%ADD16C,0.09000*%
%ADD17C,0.07500*%
%ADD18C,0.01500*%
%ADD19C,0.05000*%
%ADD20C,0.01968*%
%ADD21C,0.05000*%
G36*
X255906Y349622D02*
X253891D01*
Y352156D01*
X254479Y352607D01*
X254955Y353227D01*
X255254Y353949D01*
X255356Y354724D01*
X255254Y355499D01*
X254955Y356222D01*
X254479Y356842D01*
X253859Y357317D01*
X253137Y357616D01*
X252362Y357719D01*
X251587Y357616D01*
X250865Y357317D01*
X250245Y356842D01*
X249769Y356222D01*
X249470Y355499D01*
X249368Y354724D01*
X249470Y353949D01*
X249769Y353227D01*
X250245Y352607D01*
X250833Y352156D01*
Y349622D01*
X248410D01*
Y346602D01*
X244672Y342864D01*
X244229Y342654D01*
X243497Y343215D01*
X242646Y343567D01*
X241732Y343688D01*
X240819Y343567D01*
X239967Y343215D01*
X239236Y342654D01*
X238675Y341923D01*
X238322Y341071D01*
X238202Y340158D01*
X238322Y339244D01*
X238675Y338392D01*
X239236Y337661D01*
X239967Y337100D01*
X240819Y336748D01*
X241732Y336627D01*
X242646Y336748D01*
X243497Y337100D01*
X244229Y337661D01*
X244790Y338392D01*
X245059Y339043D01*
X245158D01*
X245841Y339179D01*
X246420Y339565D01*
X250933Y344079D01*
X255906D01*
Y337024D01*
X254500D01*
X254127Y337309D01*
X253276Y337662D01*
X252362Y337782D01*
X251448Y337662D01*
X250597Y337309D01*
X250225Y337024D01*
X248410D01*
Y331480D01*
X248832D01*
Y329740D01*
X242701D01*
Y329740D01*
X242339D01*
Y329740D01*
X240673D01*
Y326772D01*
X239173D01*
Y325272D01*
X236008D01*
Y324839D01*
X230302D01*
Y326969D01*
Y331480D01*
X237811D01*
Y337024D01*
X232935D01*
Y339461D01*
X232819Y340046D01*
X232487Y340542D01*
X230754Y342275D01*
Y344079D01*
X232358D01*
Y346850D01*
Y349622D01*
X228345D01*
Y352156D01*
X228932Y352607D01*
X229408Y353227D01*
X229707Y353949D01*
X229809Y354724D01*
X229707Y355499D01*
X229408Y356222D01*
X228932Y356842D01*
X228312Y357317D01*
X227590Y357616D01*
X226815Y357719D01*
X226040Y357616D01*
X225318Y357317D01*
X224698Y356842D01*
X224222Y356222D01*
X223923Y355499D01*
X223821Y354724D01*
X223923Y353949D01*
X224222Y353227D01*
X224698Y352607D01*
X225286Y352156D01*
Y349622D01*
X222819D01*
Y344079D01*
X227695D01*
Y341642D01*
X227811Y341056D01*
X228143Y340560D01*
X229876Y338827D01*
Y337024D01*
X228909D01*
X228537Y337309D01*
X227685Y337662D01*
X226772Y337782D01*
X225858Y337662D01*
X225007Y337309D01*
X224634Y337024D01*
X222819D01*
Y331480D01*
X223241D01*
Y329740D01*
X217898D01*
Y329740D01*
X217535D01*
Y329740D01*
X215870D01*
Y326772D01*
X214370D01*
Y325272D01*
X211205D01*
Y324839D01*
X204711D01*
Y326969D01*
Y331480D01*
X212221D01*
Y337024D01*
X207344D01*
Y339461D01*
X207228Y340046D01*
X206896Y340542D01*
X205163Y342275D01*
Y344079D01*
X206768D01*
Y346850D01*
Y349622D01*
X202798D01*
Y352156D01*
X203386Y352607D01*
X203861Y353227D01*
X204161Y353949D01*
X204263Y354724D01*
X204161Y355499D01*
X203861Y356222D01*
X203386Y356842D01*
X202766Y357317D01*
X202044Y357616D01*
X201269Y357719D01*
X200494Y357616D01*
X199771Y357317D01*
X199151Y356842D01*
X198676Y356222D01*
X198376Y355499D01*
X198274Y354724D01*
X198376Y353949D01*
X198676Y353227D01*
X199151Y352607D01*
X199739Y352156D01*
Y349622D01*
X197228D01*
Y344079D01*
X202104D01*
Y341642D01*
X202221Y341056D01*
X202552Y340560D01*
X204286Y338827D01*
Y337024D01*
X203318D01*
X202946Y337309D01*
X202095Y337662D01*
X201181Y337782D01*
X200267Y337662D01*
X199416Y337309D01*
X199044Y337024D01*
X197228D01*
Y331480D01*
X197651D01*
Y329740D01*
X192307D01*
Y329740D01*
X191945D01*
Y329740D01*
X190279D01*
Y326772D01*
X188779D01*
Y325272D01*
X185614D01*
Y324839D01*
X179121D01*
Y326969D01*
Y331480D01*
X186630D01*
Y337024D01*
X181754D01*
Y339461D01*
X181637Y340046D01*
X181306Y340542D01*
X179573Y342275D01*
Y344079D01*
X181177D01*
Y346850D01*
Y349622D01*
X177251D01*
Y352156D01*
X177839Y352607D01*
X178315Y353227D01*
X178614Y353949D01*
X178716Y354724D01*
X178614Y355499D01*
X178315Y356222D01*
X177839Y356842D01*
X177219Y357317D01*
X176497Y357616D01*
X175722Y357719D01*
X174947Y357616D01*
X174225Y357317D01*
X173605Y356842D01*
X173129Y356222D01*
X172830Y355499D01*
X172728Y354724D01*
X172830Y353949D01*
X173129Y353227D01*
X173605Y352607D01*
X174192Y352156D01*
Y349622D01*
X171638D01*
Y344079D01*
X176514D01*
Y341642D01*
X176630Y341056D01*
X176962Y340560D01*
X178695Y338827D01*
Y337024D01*
X177728D01*
X177356Y337309D01*
X176504Y337662D01*
X175591Y337782D01*
X174677Y337662D01*
X173826Y337309D01*
X173453Y337024D01*
X171638D01*
Y331480D01*
X172060D01*
Y328556D01*
X171472D01*
Y329740D01*
X165142D01*
Y329740D01*
X164779D01*
Y329740D01*
X163114D01*
Y326772D01*
X161614D01*
Y325272D01*
X158449D01*
Y324839D01*
X153530D01*
Y326969D01*
Y331480D01*
X161039D01*
Y337024D01*
X156163D01*
Y339461D01*
X156047Y340046D01*
X155715Y340542D01*
X153982Y342275D01*
Y344079D01*
X155587D01*
Y346850D01*
Y349622D01*
X151704D01*
Y352156D01*
X152292Y352607D01*
X152768Y353227D01*
X153067Y353949D01*
X153169Y354724D01*
X153067Y355499D01*
X152768Y356222D01*
X152292Y356842D01*
X151672Y357317D01*
X150950Y357616D01*
X150175Y357719D01*
X149400Y357616D01*
X148678Y357317D01*
X148058Y356842D01*
X147582Y356222D01*
X147283Y355499D01*
X147181Y354724D01*
X147283Y353949D01*
X147582Y353227D01*
X148058Y352607D01*
X148646Y352156D01*
Y349622D01*
X146047D01*
Y344079D01*
X150923D01*
Y341642D01*
X151040Y341056D01*
X151371Y340560D01*
X153104Y338827D01*
Y337024D01*
X152137D01*
X151765Y337309D01*
X150914Y337662D01*
X150000Y337782D01*
X149086Y337662D01*
X148235Y337309D01*
X147863Y337024D01*
X146047D01*
Y331480D01*
X146470D01*
Y329740D01*
X141126D01*
Y329740D01*
X140764D01*
Y329740D01*
X139098D01*
Y326772D01*
X137598D01*
Y325272D01*
X134433D01*
Y324839D01*
X127940D01*
Y326969D01*
Y331480D01*
X135449D01*
Y337024D01*
X130573D01*
Y339461D01*
X130456Y340046D01*
X130125Y340542D01*
X128392Y342275D01*
Y344079D01*
X129996D01*
Y346850D01*
Y349622D01*
X126157D01*
Y352156D01*
X126745Y352607D01*
X127221Y353227D01*
X127520Y353949D01*
X127622Y354724D01*
X127520Y355499D01*
X127221Y356222D01*
X126745Y356842D01*
X126125Y357317D01*
X125403Y357616D01*
X124628Y357719D01*
X123853Y357616D01*
X123131Y357317D01*
X122511Y356842D01*
X122035Y356222D01*
X121736Y355499D01*
X121634Y354724D01*
X121736Y353949D01*
X122035Y353227D01*
X122511Y352607D01*
X123099Y352156D01*
Y349622D01*
X120457D01*
Y344079D01*
X125333D01*
Y341642D01*
X125449Y341056D01*
X125781Y340560D01*
X127514Y338827D01*
Y337024D01*
X126547D01*
X126174Y337309D01*
X125323Y337662D01*
X124409Y337782D01*
X123496Y337662D01*
X122644Y337309D01*
X122272Y337024D01*
X120457D01*
Y331480D01*
X120879D01*
Y328556D01*
X119898D01*
Y329740D01*
X113567D01*
Y329740D01*
X113205D01*
Y329740D01*
X111539D01*
Y326772D01*
X110039D01*
Y325272D01*
X106874D01*
Y324839D01*
X102349D01*
Y326969D01*
Y331480D01*
X109858D01*
Y337024D01*
X104982D01*
Y339461D01*
X104866Y340046D01*
X104534Y340542D01*
X102801Y342275D01*
Y344079D01*
X104405D01*
Y346850D01*
Y349622D01*
X100611D01*
Y352156D01*
X101198Y352607D01*
X101674Y353227D01*
X101973Y353949D01*
X102076Y354724D01*
X101973Y355499D01*
X101674Y356222D01*
X101198Y356842D01*
X100578Y357317D01*
X99856Y357616D01*
X99081Y357719D01*
X98306Y357616D01*
X97584Y357317D01*
X96964Y356842D01*
X96488Y356222D01*
X96189Y355499D01*
X96087Y354724D01*
X96189Y353949D01*
X96488Y353227D01*
X96964Y352607D01*
X97552Y352156D01*
Y349622D01*
X94866D01*
Y344079D01*
X99742D01*
Y341642D01*
X99859Y341056D01*
X100190Y340560D01*
X101923Y338827D01*
Y337024D01*
X100956D01*
X100584Y337309D01*
X99733Y337662D01*
X98819Y337782D01*
X97905Y337662D01*
X97054Y337309D01*
X96682Y337024D01*
X94866D01*
Y331480D01*
X95289D01*
Y329740D01*
X90339D01*
Y329740D01*
X89976D01*
Y329740D01*
X88311D01*
Y326772D01*
X86811D01*
Y325272D01*
X83646D01*
Y324839D01*
X76758D01*
Y326969D01*
Y331480D01*
X84268D01*
Y337024D01*
X79392D01*
Y339461D01*
X79275Y340046D01*
X78944Y340542D01*
X77210Y342275D01*
Y344079D01*
X78815D01*
Y346850D01*
Y349622D01*
X75064D01*
Y352156D01*
X75652Y352607D01*
X76127Y353227D01*
X76427Y353949D01*
X76529Y354724D01*
X76427Y355499D01*
X76127Y356222D01*
X75652Y356842D01*
X75032Y357317D01*
X74309Y357616D01*
X73535Y357719D01*
X72760Y357616D01*
X72038Y357317D01*
X71417Y356842D01*
X70942Y356222D01*
X70642Y355499D01*
X70540Y354724D01*
X70642Y353949D01*
X70942Y353227D01*
X71417Y352607D01*
X72005Y352156D01*
Y349622D01*
X69276D01*
Y344079D01*
X74152D01*
Y341642D01*
X74268Y341056D01*
X74600Y340560D01*
X76333Y338827D01*
Y337024D01*
X75366D01*
X74993Y337309D01*
X74142Y337662D01*
X73228Y337782D01*
X72315Y337662D01*
X71463Y337309D01*
X71091Y337024D01*
X69276D01*
Y331480D01*
X69698D01*
Y329740D01*
X64748D01*
Y329740D01*
X64386D01*
Y329740D01*
X62721D01*
Y326772D01*
X61221D01*
Y325272D01*
X58055D01*
Y324839D01*
X51168D01*
Y326969D01*
Y331480D01*
X58677D01*
Y337024D01*
X53801D01*
Y339461D01*
X53685Y340046D01*
X53353Y340542D01*
X51620Y342275D01*
Y344079D01*
X53224D01*
Y346850D01*
Y349622D01*
X49517D01*
Y352156D01*
X50105Y352607D01*
X50581Y353227D01*
X50880Y353949D01*
X50982Y354724D01*
X50880Y355499D01*
X50581Y356222D01*
X50105Y356842D01*
X49485Y357317D01*
X48763Y357616D01*
X47988Y357719D01*
X47213Y357616D01*
X46491Y357317D01*
X45871Y356842D01*
X45395Y356222D01*
X45096Y355499D01*
X44994Y354724D01*
X45096Y353949D01*
X45395Y353227D01*
X45871Y352607D01*
X46458Y352156D01*
Y349622D01*
X43685D01*
Y344079D01*
X48561D01*
Y341642D01*
X48678Y341056D01*
X49009Y340560D01*
X50742Y338827D01*
Y337024D01*
X49775D01*
X49403Y337309D01*
X48551Y337662D01*
X47638Y337782D01*
X46724Y337662D01*
X45873Y337309D01*
X45500Y337024D01*
X43685D01*
Y331480D01*
X44108D01*
Y329740D01*
X38370D01*
Y329740D01*
X38008D01*
Y329740D01*
X36342D01*
Y326772D01*
X34843D01*
Y325272D01*
X31677D01*
Y324839D01*
X26204D01*
X26171Y324872D01*
Y331480D01*
X33087D01*
Y337024D01*
X28210D01*
Y339461D01*
X28094Y340046D01*
X27762Y340542D01*
X26029Y342275D01*
Y344079D01*
X27634D01*
Y346850D01*
Y349622D01*
X23970D01*
Y352156D01*
X24558Y352607D01*
X25034Y353227D01*
X25333Y353949D01*
X25435Y354724D01*
X25333Y355499D01*
X25034Y356222D01*
X24558Y356842D01*
X23938Y357317D01*
X23216Y357616D01*
X22441Y357719D01*
X21666Y357616D01*
X20944Y357317D01*
X20324Y356842D01*
X19848Y356222D01*
X19549Y355499D01*
X19447Y354724D01*
X19549Y353949D01*
X19848Y353227D01*
X20324Y352607D01*
X20911Y352156D01*
Y349622D01*
X18094D01*
Y344079D01*
X22971D01*
Y341642D01*
X23087Y341056D01*
X23419Y340560D01*
X25152Y338827D01*
Y337024D01*
X24184D01*
X23812Y337309D01*
X22961Y337662D01*
X22047Y337782D01*
X21134Y337662D01*
X20282Y337309D01*
X19910Y337024D01*
X18094D01*
Y332334D01*
X17896Y332201D01*
X17675Y331871D01*
X17597Y331480D01*
Y329740D01*
X13744D01*
X13722Y329853D01*
X13713Y329866D01*
X13709Y329881D01*
X13602Y330031D01*
X13500Y330183D01*
X13487Y330192D01*
X13478Y330205D01*
X13322Y330302D01*
X13170Y330404D01*
X13154Y330408D01*
X13141Y330416D01*
X12960Y330446D01*
X12779Y330482D01*
X12764Y330479D01*
X12749Y330482D01*
X12714Y330481D01*
X12532Y330438D01*
X12349Y330401D01*
X12338Y330394D01*
X12326Y330391D01*
X12174Y330283D01*
X12019Y330178D01*
X12012Y330167D01*
X12002Y330160D01*
X11903Y330002D01*
X11800Y329846D01*
X11798Y329833D01*
X11791Y329823D01*
X11778Y329740D01*
X8106D01*
Y331478D01*
X8106Y331481D01*
X8106Y331484D01*
X8066Y331677D01*
X8029Y331868D01*
X8027Y331871D01*
X8026Y331874D01*
X7916Y332037D01*
X7808Y332199D01*
X7805Y332201D01*
X7803Y332203D01*
X7639Y332311D01*
X7496Y332407D01*
Y334500D01*
X11093Y338097D01*
X12038D01*
X12071Y338055D01*
X12802Y337494D01*
X13653Y337141D01*
X14567Y337021D01*
X15481Y337141D01*
X16332Y337494D01*
X17063Y338055D01*
X17624Y338786D01*
X17977Y339637D01*
X18097Y340551D01*
X17977Y341465D01*
X17624Y342316D01*
X17063Y343047D01*
X16332Y343608D01*
X15481Y343961D01*
X14567Y344081D01*
X13653Y343961D01*
X12802Y343608D01*
X12071Y343047D01*
X11510Y342316D01*
X11240Y341666D01*
X10354D01*
X9671Y341530D01*
X9092Y341143D01*
X9092Y341143D01*
X4973Y337024D01*
X0D01*
Y344079D01*
X2043D01*
Y346850D01*
Y349622D01*
X0D01*
Y366142D01*
X255906D01*
Y349622D01*
D02*
G37*
G36*
X23547Y331480D02*
X25152D01*
Y314961D01*
X0D01*
Y331434D01*
X7087Y331478D01*
Y329740D01*
X6087D01*
Y323803D01*
X12779D01*
X12745Y329461D01*
X12779Y329462D01*
Y328272D01*
X19110D01*
Y329740D01*
X18617D01*
Y331480D01*
X20547D01*
Y334252D01*
X23547D01*
Y331480D01*
D02*
G37*
G36*
X253862D02*
X255906D01*
Y314961D01*
X243307D01*
X243497Y315151D01*
Y323803D01*
X244366D01*
Y326772D01*
X245866D01*
Y328272D01*
X249031D01*
Y328760D01*
X249222Y328798D01*
X249553Y329019D01*
X249774Y329350D01*
X249852Y329740D01*
Y331480D01*
X250862D01*
Y334252D01*
X253862D01*
Y331480D01*
D02*
G37*
G36*
X255906Y286630D02*
X253891D01*
Y289164D01*
X254479Y289615D01*
X254955Y290235D01*
X255254Y290957D01*
X255356Y291732D01*
X255254Y292507D01*
X254955Y293229D01*
X254479Y293849D01*
X253859Y294325D01*
X253137Y294624D01*
X252362Y294726D01*
X251587Y294624D01*
X250865Y294325D01*
X250245Y293849D01*
X249769Y293229D01*
X249470Y292507D01*
X249368Y291732D01*
X249470Y290957D01*
X249769Y290235D01*
X250245Y289615D01*
X250833Y289164D01*
Y286630D01*
X248410D01*
Y283610D01*
X244672Y279872D01*
X244229Y279662D01*
X243497Y280223D01*
X242646Y280575D01*
X241732Y280696D01*
X240819Y280575D01*
X239967Y280223D01*
X239236Y279662D01*
X238675Y278930D01*
X238322Y278079D01*
X238202Y277165D01*
X238322Y276252D01*
X238675Y275400D01*
X239236Y274669D01*
X239967Y274108D01*
X240819Y273756D01*
X241732Y273635D01*
X242646Y273756D01*
X243497Y274108D01*
X244229Y274669D01*
X244790Y275400D01*
X245059Y276051D01*
X245158D01*
X245841Y276187D01*
X246420Y276573D01*
X250933Y281087D01*
X255906D01*
Y274031D01*
X254500D01*
X254127Y274317D01*
X253276Y274670D01*
X252362Y274790D01*
X251448Y274670D01*
X250597Y274317D01*
X250225Y274031D01*
X248410D01*
Y268488D01*
X248832D01*
Y266748D01*
X242701D01*
Y266748D01*
X242339D01*
Y266748D01*
X240673D01*
Y263779D01*
X239173D01*
Y262280D01*
X236008D01*
Y261847D01*
X230302D01*
Y263976D01*
Y268488D01*
X237811D01*
Y274031D01*
X232935D01*
Y276468D01*
X232819Y277054D01*
X232487Y277550D01*
X230754Y279283D01*
Y281087D01*
X232358D01*
Y283858D01*
Y286630D01*
X228345D01*
Y289164D01*
X228932Y289615D01*
X229408Y290235D01*
X229707Y290957D01*
X229809Y291732D01*
X229707Y292507D01*
X229408Y293229D01*
X228932Y293849D01*
X228312Y294325D01*
X227590Y294624D01*
X226815Y294726D01*
X226040Y294624D01*
X225318Y294325D01*
X224698Y293849D01*
X224222Y293229D01*
X223923Y292507D01*
X223821Y291732D01*
X223923Y290957D01*
X224222Y290235D01*
X224698Y289615D01*
X225286Y289164D01*
Y286630D01*
X222819D01*
Y281087D01*
X227695D01*
Y278650D01*
X227811Y278064D01*
X228143Y277568D01*
X229876Y275835D01*
Y274031D01*
X228909D01*
X228537Y274317D01*
X227685Y274670D01*
X226772Y274790D01*
X225858Y274670D01*
X225007Y274317D01*
X224634Y274031D01*
X222819D01*
Y268488D01*
X223241D01*
Y266748D01*
X217898D01*
Y266748D01*
X217535D01*
Y266748D01*
X215870D01*
Y263779D01*
X214370D01*
Y262280D01*
X211205D01*
Y261847D01*
X204711D01*
Y263976D01*
Y268488D01*
X212221D01*
Y274031D01*
X207344D01*
Y276468D01*
X207228Y277054D01*
X206896Y277550D01*
X205163Y279283D01*
Y281087D01*
X206768D01*
Y283858D01*
Y286630D01*
X202798D01*
Y289164D01*
X203386Y289615D01*
X203861Y290235D01*
X204161Y290957D01*
X204263Y291732D01*
X204161Y292507D01*
X203861Y293229D01*
X203386Y293849D01*
X202766Y294325D01*
X202044Y294624D01*
X201269Y294726D01*
X200494Y294624D01*
X199771Y294325D01*
X199151Y293849D01*
X198676Y293229D01*
X198376Y292507D01*
X198274Y291732D01*
X198376Y290957D01*
X198676Y290235D01*
X199151Y289615D01*
X199739Y289164D01*
Y286630D01*
X197228D01*
Y281087D01*
X202104D01*
Y278650D01*
X202221Y278064D01*
X202552Y277568D01*
X204286Y275835D01*
Y274031D01*
X203318D01*
X202946Y274317D01*
X202095Y274670D01*
X201181Y274790D01*
X200267Y274670D01*
X199416Y274317D01*
X199044Y274031D01*
X197228D01*
Y268488D01*
X197651D01*
Y266748D01*
X192307D01*
Y266748D01*
X191945D01*
Y266748D01*
X190279D01*
Y263779D01*
X188779D01*
Y262280D01*
X185614D01*
Y261847D01*
X179121D01*
Y263976D01*
Y268488D01*
X186630D01*
Y274031D01*
X181754D01*
Y276468D01*
X181637Y277054D01*
X181306Y277550D01*
X179573Y279283D01*
Y281087D01*
X181177D01*
Y283858D01*
Y286630D01*
X177251D01*
Y289164D01*
X177839Y289615D01*
X178315Y290235D01*
X178614Y290957D01*
X178716Y291732D01*
X178614Y292507D01*
X178315Y293229D01*
X177839Y293849D01*
X177219Y294325D01*
X176497Y294624D01*
X175722Y294726D01*
X174947Y294624D01*
X174225Y294325D01*
X173605Y293849D01*
X173129Y293229D01*
X172830Y292507D01*
X172728Y291732D01*
X172830Y290957D01*
X173129Y290235D01*
X173605Y289615D01*
X174192Y289164D01*
Y286630D01*
X171638D01*
Y281087D01*
X176514D01*
Y278650D01*
X176630Y278064D01*
X176962Y277568D01*
X178695Y275835D01*
Y274031D01*
X177728D01*
X177356Y274317D01*
X176504Y274670D01*
X175591Y274790D01*
X174677Y274670D01*
X173826Y274317D01*
X173453Y274031D01*
X171638D01*
Y268488D01*
X172060D01*
Y265564D01*
X171472D01*
Y266748D01*
X165142D01*
Y266748D01*
X164779D01*
Y266748D01*
X163114D01*
Y263779D01*
X161614D01*
Y262280D01*
X158449D01*
Y261847D01*
X153530D01*
Y263976D01*
Y268488D01*
X161039D01*
Y274031D01*
X156163D01*
Y276468D01*
X156047Y277054D01*
X155715Y277550D01*
X153982Y279283D01*
Y281087D01*
X155587D01*
Y283858D01*
Y286630D01*
X151704D01*
Y289164D01*
X152292Y289615D01*
X152768Y290235D01*
X153067Y290957D01*
X153169Y291732D01*
X153067Y292507D01*
X152768Y293229D01*
X152292Y293849D01*
X151672Y294325D01*
X150950Y294624D01*
X150175Y294726D01*
X149400Y294624D01*
X148678Y294325D01*
X148058Y293849D01*
X147582Y293229D01*
X147283Y292507D01*
X147181Y291732D01*
X147283Y290957D01*
X147582Y290235D01*
X148058Y289615D01*
X148646Y289164D01*
Y286630D01*
X146047D01*
Y281087D01*
X150923D01*
Y278650D01*
X151040Y278064D01*
X151371Y277568D01*
X153104Y275835D01*
Y274031D01*
X152137D01*
X151765Y274317D01*
X150914Y274670D01*
X150000Y274790D01*
X149086Y274670D01*
X148235Y274317D01*
X147863Y274031D01*
X146047D01*
Y268488D01*
X146470D01*
Y266748D01*
X141126D01*
Y266748D01*
X140764D01*
Y266748D01*
X139098D01*
Y263779D01*
X137598D01*
Y262280D01*
X134433D01*
Y261847D01*
X127940D01*
Y263976D01*
Y268488D01*
X135449D01*
Y274031D01*
X130573D01*
Y276468D01*
X130456Y277054D01*
X130125Y277550D01*
X128392Y279283D01*
Y281087D01*
X129996D01*
Y283858D01*
Y286630D01*
X126157D01*
Y289164D01*
X126745Y289615D01*
X127221Y290235D01*
X127520Y290957D01*
X127622Y291732D01*
X127520Y292507D01*
X127221Y293229D01*
X126745Y293849D01*
X126125Y294325D01*
X125403Y294624D01*
X124628Y294726D01*
X123853Y294624D01*
X123131Y294325D01*
X122511Y293849D01*
X122035Y293229D01*
X121736Y292507D01*
X121634Y291732D01*
X121736Y290957D01*
X122035Y290235D01*
X122511Y289615D01*
X123099Y289164D01*
Y286630D01*
X120457D01*
Y281087D01*
X125333D01*
Y278650D01*
X125449Y278064D01*
X125781Y277568D01*
X127514Y275835D01*
Y274031D01*
X126547D01*
X126174Y274317D01*
X125323Y274670D01*
X124409Y274790D01*
X123496Y274670D01*
X122644Y274317D01*
X122272Y274031D01*
X120457D01*
Y268488D01*
X120879D01*
Y265564D01*
X119898D01*
Y266748D01*
X113567D01*
Y266748D01*
X113205D01*
Y266748D01*
X111539D01*
Y263779D01*
X110039D01*
Y262280D01*
X106874D01*
Y261847D01*
X102349D01*
Y263976D01*
Y268488D01*
X109858D01*
Y274031D01*
X104982D01*
Y276468D01*
X104866Y277054D01*
X104534Y277550D01*
X102801Y279283D01*
Y281087D01*
X104405D01*
Y283858D01*
Y286630D01*
X100611D01*
Y289164D01*
X101198Y289615D01*
X101674Y290235D01*
X101973Y290957D01*
X102076Y291732D01*
X101973Y292507D01*
X101674Y293229D01*
X101198Y293849D01*
X100578Y294325D01*
X99856Y294624D01*
X99081Y294726D01*
X98306Y294624D01*
X97584Y294325D01*
X96964Y293849D01*
X96488Y293229D01*
X96189Y292507D01*
X96087Y291732D01*
X96189Y290957D01*
X96488Y290235D01*
X96964Y289615D01*
X97552Y289164D01*
Y286630D01*
X94866D01*
Y281087D01*
X99742D01*
Y278650D01*
X99859Y278064D01*
X100190Y277568D01*
X101923Y275835D01*
Y274031D01*
X100956D01*
X100584Y274317D01*
X99733Y274670D01*
X98819Y274790D01*
X97905Y274670D01*
X97054Y274317D01*
X96682Y274031D01*
X94866D01*
Y268488D01*
X95289D01*
Y266748D01*
X90339D01*
Y266748D01*
X89976D01*
Y266748D01*
X88311D01*
Y263779D01*
X86811D01*
Y262280D01*
X83646D01*
Y261847D01*
X76758D01*
Y263976D01*
Y268488D01*
X84268D01*
Y274031D01*
X79392D01*
Y276468D01*
X79275Y277054D01*
X78944Y277550D01*
X77210Y279283D01*
Y281087D01*
X78815D01*
Y283858D01*
Y286630D01*
X75064D01*
Y289164D01*
X75652Y289615D01*
X76127Y290235D01*
X76427Y290957D01*
X76529Y291732D01*
X76427Y292507D01*
X76127Y293229D01*
X75652Y293849D01*
X75032Y294325D01*
X74309Y294624D01*
X73535Y294726D01*
X72760Y294624D01*
X72038Y294325D01*
X71417Y293849D01*
X70942Y293229D01*
X70642Y292507D01*
X70540Y291732D01*
X70642Y290957D01*
X70942Y290235D01*
X71417Y289615D01*
X72005Y289164D01*
Y286630D01*
X69276D01*
Y281087D01*
X74152D01*
Y278650D01*
X74268Y278064D01*
X74600Y277568D01*
X76333Y275835D01*
Y274031D01*
X75366D01*
X74993Y274317D01*
X74142Y274670D01*
X73228Y274790D01*
X72315Y274670D01*
X71463Y274317D01*
X71091Y274031D01*
X69276D01*
Y268488D01*
X69698D01*
Y266748D01*
X64748D01*
Y266748D01*
X64386D01*
Y266748D01*
X62721D01*
Y263779D01*
X61221D01*
Y262280D01*
X58055D01*
Y261847D01*
X51168D01*
Y263976D01*
Y268488D01*
X58677D01*
Y274031D01*
X53801D01*
Y276468D01*
X53685Y277054D01*
X53353Y277550D01*
X51620Y279283D01*
Y281087D01*
X53224D01*
Y283858D01*
Y286630D01*
X49517D01*
Y289164D01*
X50105Y289615D01*
X50581Y290235D01*
X50880Y290957D01*
X50982Y291732D01*
X50880Y292507D01*
X50581Y293229D01*
X50105Y293849D01*
X49485Y294325D01*
X48763Y294624D01*
X47988Y294726D01*
X47213Y294624D01*
X46491Y294325D01*
X45871Y293849D01*
X45395Y293229D01*
X45096Y292507D01*
X44994Y291732D01*
X45096Y290957D01*
X45395Y290235D01*
X45871Y289615D01*
X46458Y289164D01*
Y286630D01*
X43685D01*
Y281087D01*
X48561D01*
Y278650D01*
X48678Y278064D01*
X49009Y277568D01*
X50742Y275835D01*
Y274031D01*
X49775D01*
X49403Y274317D01*
X48551Y274670D01*
X47638Y274790D01*
X46724Y274670D01*
X45873Y274317D01*
X45500Y274031D01*
X43685D01*
Y268488D01*
X44108D01*
Y266748D01*
X38370D01*
Y266748D01*
X38008D01*
Y266748D01*
X36342D01*
Y263779D01*
X34843D01*
Y262280D01*
X31677D01*
Y261847D01*
X26204D01*
X26171Y261880D01*
Y268488D01*
X33087D01*
Y274031D01*
X28210D01*
Y276468D01*
X28094Y277054D01*
X27762Y277550D01*
X26029Y279283D01*
Y281087D01*
X27634D01*
Y283858D01*
Y286630D01*
X23970D01*
Y289164D01*
X24558Y289615D01*
X25034Y290235D01*
X25333Y290957D01*
X25435Y291732D01*
X25333Y292507D01*
X25034Y293229D01*
X24558Y293849D01*
X23938Y294325D01*
X23216Y294624D01*
X22441Y294726D01*
X21666Y294624D01*
X20944Y294325D01*
X20324Y293849D01*
X19848Y293229D01*
X19549Y292507D01*
X19447Y291732D01*
X19549Y290957D01*
X19848Y290235D01*
X20324Y289615D01*
X20911Y289164D01*
Y286630D01*
X18094D01*
Y281087D01*
X22971D01*
Y278650D01*
X23087Y278064D01*
X23419Y277568D01*
X25152Y275835D01*
Y274031D01*
X24184D01*
X23812Y274317D01*
X22961Y274670D01*
X22047Y274790D01*
X21134Y274670D01*
X20282Y274317D01*
X19910Y274031D01*
X18094D01*
Y269342D01*
X17896Y269209D01*
X17675Y268878D01*
X17597Y268488D01*
Y266748D01*
X13744D01*
X13722Y266860D01*
X13713Y266874D01*
X13709Y266889D01*
X13602Y267039D01*
X13500Y267191D01*
X13487Y267200D01*
X13478Y267213D01*
X13322Y267310D01*
X13170Y267412D01*
X13154Y267415D01*
X13141Y267424D01*
X12960Y267454D01*
X12779Y267490D01*
X12764Y267487D01*
X12749Y267489D01*
X12714Y267488D01*
X12532Y267446D01*
X12349Y267409D01*
X12338Y267402D01*
X12326Y267399D01*
X12174Y267290D01*
X12019Y267186D01*
X12012Y267175D01*
X12002Y267168D01*
X11903Y267010D01*
X11800Y266854D01*
X11798Y266841D01*
X11791Y266830D01*
X11778Y266748D01*
X8106D01*
Y268486D01*
X8106Y268489D01*
X8106Y268492D01*
X8066Y268685D01*
X8029Y268876D01*
X8027Y268879D01*
X8026Y268882D01*
X7916Y269045D01*
X7808Y269207D01*
X7805Y269208D01*
X7803Y269211D01*
X7639Y269319D01*
X7496Y269415D01*
Y271508D01*
X11093Y275105D01*
X12038D01*
X12071Y275063D01*
X12802Y274502D01*
X13653Y274149D01*
X14567Y274029D01*
X15481Y274149D01*
X16332Y274502D01*
X17063Y275063D01*
X17624Y275794D01*
X17977Y276645D01*
X18097Y277559D01*
X17977Y278473D01*
X17624Y279324D01*
X17063Y280055D01*
X16332Y280616D01*
X15481Y280969D01*
X14567Y281089D01*
X13653Y280969D01*
X12802Y280616D01*
X12071Y280055D01*
X11510Y279324D01*
X11240Y278674D01*
X10354D01*
X9671Y278538D01*
X9092Y278151D01*
X9092Y278151D01*
X4973Y274031D01*
X0D01*
Y281087D01*
X2043D01*
Y283858D01*
Y286630D01*
X0D01*
Y303150D01*
X255906D01*
Y286630D01*
D02*
G37*
G36*
X23547Y268488D02*
X25152D01*
Y251969D01*
X0D01*
Y268442D01*
X7087Y268486D01*
Y266748D01*
X6087D01*
Y260811D01*
X12779D01*
X12745Y266469D01*
X12779Y266470D01*
Y265280D01*
X19110D01*
Y266748D01*
X18617D01*
Y268488D01*
X20547D01*
Y271260D01*
X23547D01*
Y268488D01*
D02*
G37*
G36*
X253862D02*
X255906D01*
Y251969D01*
X243307D01*
X243497Y252159D01*
Y260811D01*
X244366D01*
Y263779D01*
X245866D01*
Y265280D01*
X249031D01*
Y265768D01*
X249222Y265806D01*
X249553Y266027D01*
X249774Y266358D01*
X249852Y266748D01*
Y268488D01*
X250862D01*
Y271260D01*
X253862D01*
Y268488D01*
D02*
G37*
G36*
X255906Y223638D02*
X253891D01*
Y226172D01*
X254479Y226623D01*
X254955Y227243D01*
X255254Y227965D01*
X255356Y228740D01*
X255254Y229515D01*
X254955Y230237D01*
X254479Y230857D01*
X253859Y231333D01*
X253137Y231632D01*
X252362Y231734D01*
X251587Y231632D01*
X250865Y231333D01*
X250245Y230857D01*
X249769Y230237D01*
X249470Y229515D01*
X249368Y228740D01*
X249470Y227965D01*
X249769Y227243D01*
X250245Y226623D01*
X250833Y226172D01*
Y223638D01*
X248410D01*
Y220618D01*
X244672Y216880D01*
X244229Y216670D01*
X243497Y217231D01*
X242646Y217583D01*
X241732Y217703D01*
X240819Y217583D01*
X239967Y217231D01*
X239236Y216670D01*
X238675Y215938D01*
X238322Y215087D01*
X238202Y214173D01*
X238322Y213260D01*
X238675Y212408D01*
X239236Y211677D01*
X239967Y211116D01*
X240819Y210763D01*
X241732Y210643D01*
X242646Y210763D01*
X243497Y211116D01*
X244229Y211677D01*
X244790Y212408D01*
X245059Y213059D01*
X245158D01*
X245841Y213194D01*
X246420Y213581D01*
X250933Y218094D01*
X255906D01*
Y211039D01*
X254500D01*
X254127Y211325D01*
X253276Y211678D01*
X252362Y211798D01*
X251448Y211678D01*
X250597Y211325D01*
X250225Y211039D01*
X248410D01*
Y205496D01*
X248832D01*
Y203756D01*
X242701D01*
Y203756D01*
X242339D01*
Y203756D01*
X240673D01*
Y200787D01*
X239173D01*
Y199287D01*
X236008D01*
Y198855D01*
X230302D01*
Y200984D01*
Y205496D01*
X237811D01*
Y211039D01*
X232935D01*
Y213476D01*
X232819Y214062D01*
X232487Y214558D01*
X230754Y216291D01*
Y218094D01*
X232358D01*
Y220866D01*
Y223638D01*
X228345D01*
Y226172D01*
X228932Y226623D01*
X229408Y227243D01*
X229707Y227965D01*
X229809Y228740D01*
X229707Y229515D01*
X229408Y230237D01*
X228932Y230857D01*
X228312Y231333D01*
X227590Y231632D01*
X226815Y231734D01*
X226040Y231632D01*
X225318Y231333D01*
X224698Y230857D01*
X224222Y230237D01*
X223923Y229515D01*
X223821Y228740D01*
X223923Y227965D01*
X224222Y227243D01*
X224698Y226623D01*
X225286Y226172D01*
Y223638D01*
X222819D01*
Y218094D01*
X227695D01*
Y215657D01*
X227811Y215072D01*
X228143Y214576D01*
X229876Y212843D01*
Y211039D01*
X228909D01*
X228537Y211325D01*
X227685Y211678D01*
X226772Y211798D01*
X225858Y211678D01*
X225007Y211325D01*
X224634Y211039D01*
X222819D01*
Y205496D01*
X223241D01*
Y203756D01*
X217898D01*
Y203756D01*
X217535D01*
Y203756D01*
X215870D01*
Y200787D01*
X214370D01*
Y199287D01*
X211205D01*
Y198855D01*
X204711D01*
Y200984D01*
Y205496D01*
X212221D01*
Y211039D01*
X207344D01*
Y213476D01*
X207228Y214062D01*
X206896Y214558D01*
X205163Y216291D01*
Y218094D01*
X206768D01*
Y220866D01*
Y223638D01*
X202798D01*
Y226172D01*
X203386Y226623D01*
X203861Y227243D01*
X204161Y227965D01*
X204263Y228740D01*
X204161Y229515D01*
X203861Y230237D01*
X203386Y230857D01*
X202766Y231333D01*
X202044Y231632D01*
X201269Y231734D01*
X200494Y231632D01*
X199771Y231333D01*
X199151Y230857D01*
X198676Y230237D01*
X198376Y229515D01*
X198274Y228740D01*
X198376Y227965D01*
X198676Y227243D01*
X199151Y226623D01*
X199739Y226172D01*
Y223638D01*
X197228D01*
Y218094D01*
X202104D01*
Y215657D01*
X202221Y215072D01*
X202552Y214576D01*
X204286Y212843D01*
Y211039D01*
X203318D01*
X202946Y211325D01*
X202095Y211678D01*
X201181Y211798D01*
X200267Y211678D01*
X199416Y211325D01*
X199044Y211039D01*
X197228D01*
Y205496D01*
X197651D01*
Y203756D01*
X192307D01*
Y203756D01*
X191945D01*
Y203756D01*
X190279D01*
Y200787D01*
X188779D01*
Y199287D01*
X185614D01*
Y198855D01*
X179121D01*
Y200984D01*
Y205496D01*
X186630D01*
Y211039D01*
X181754D01*
Y213476D01*
X181637Y214062D01*
X181306Y214558D01*
X179573Y216291D01*
Y218094D01*
X181177D01*
Y220866D01*
Y223638D01*
X177251D01*
Y226172D01*
X177839Y226623D01*
X178315Y227243D01*
X178614Y227965D01*
X178716Y228740D01*
X178614Y229515D01*
X178315Y230237D01*
X177839Y230857D01*
X177219Y231333D01*
X176497Y231632D01*
X175722Y231734D01*
X174947Y231632D01*
X174225Y231333D01*
X173605Y230857D01*
X173129Y230237D01*
X172830Y229515D01*
X172728Y228740D01*
X172830Y227965D01*
X173129Y227243D01*
X173605Y226623D01*
X174192Y226172D01*
Y223638D01*
X171638D01*
Y218094D01*
X176514D01*
Y215657D01*
X176630Y215072D01*
X176962Y214576D01*
X178695Y212843D01*
Y211039D01*
X177728D01*
X177356Y211325D01*
X176504Y211678D01*
X175591Y211798D01*
X174677Y211678D01*
X173826Y211325D01*
X173453Y211039D01*
X171638D01*
Y205496D01*
X172060D01*
Y202572D01*
X171472D01*
Y203756D01*
X165142D01*
Y203756D01*
X164779D01*
Y203756D01*
X163114D01*
Y200787D01*
X161614D01*
Y199287D01*
X158449D01*
Y198855D01*
X153530D01*
Y200984D01*
Y205496D01*
X161039D01*
Y211039D01*
X156163D01*
Y213476D01*
X156047Y214062D01*
X155715Y214558D01*
X153982Y216291D01*
Y218094D01*
X155587D01*
Y220866D01*
Y223638D01*
X151704D01*
Y226172D01*
X152292Y226623D01*
X152768Y227243D01*
X153067Y227965D01*
X153169Y228740D01*
X153067Y229515D01*
X152768Y230237D01*
X152292Y230857D01*
X151672Y231333D01*
X150950Y231632D01*
X150175Y231734D01*
X149400Y231632D01*
X148678Y231333D01*
X148058Y230857D01*
X147582Y230237D01*
X147283Y229515D01*
X147181Y228740D01*
X147283Y227965D01*
X147582Y227243D01*
X148058Y226623D01*
X148646Y226172D01*
Y223638D01*
X146047D01*
Y218094D01*
X150923D01*
Y215657D01*
X151040Y215072D01*
X151371Y214576D01*
X153104Y212843D01*
Y211039D01*
X152137D01*
X151765Y211325D01*
X150914Y211678D01*
X150000Y211798D01*
X149086Y211678D01*
X148235Y211325D01*
X147863Y211039D01*
X146047D01*
Y205496D01*
X146470D01*
Y203756D01*
X141126D01*
Y203756D01*
X140764D01*
Y203756D01*
X139098D01*
Y200787D01*
X137598D01*
Y199287D01*
X134433D01*
Y198855D01*
X127940D01*
Y200984D01*
Y205496D01*
X135449D01*
Y211039D01*
X130573D01*
Y213476D01*
X130456Y214062D01*
X130125Y214558D01*
X128392Y216291D01*
Y218094D01*
X129996D01*
Y220866D01*
Y223638D01*
X126157D01*
Y226172D01*
X126745Y226623D01*
X127221Y227243D01*
X127520Y227965D01*
X127622Y228740D01*
X127520Y229515D01*
X127221Y230237D01*
X126745Y230857D01*
X126125Y231333D01*
X125403Y231632D01*
X124628Y231734D01*
X123853Y231632D01*
X123131Y231333D01*
X122511Y230857D01*
X122035Y230237D01*
X121736Y229515D01*
X121634Y228740D01*
X121736Y227965D01*
X122035Y227243D01*
X122511Y226623D01*
X123099Y226172D01*
Y223638D01*
X120457D01*
Y218094D01*
X125333D01*
Y215657D01*
X125449Y215072D01*
X125781Y214576D01*
X127514Y212843D01*
Y211039D01*
X126547D01*
X126174Y211325D01*
X125323Y211678D01*
X124409Y211798D01*
X123496Y211678D01*
X122644Y211325D01*
X122272Y211039D01*
X120457D01*
Y205496D01*
X120879D01*
Y202572D01*
X119898D01*
Y203756D01*
X113567D01*
Y203756D01*
X113205D01*
Y203756D01*
X111539D01*
Y200787D01*
X110039D01*
Y199287D01*
X106874D01*
Y198855D01*
X102349D01*
Y200984D01*
Y205496D01*
X109858D01*
Y211039D01*
X104982D01*
Y213476D01*
X104866Y214062D01*
X104534Y214558D01*
X102801Y216291D01*
Y218094D01*
X104405D01*
Y220866D01*
Y223638D01*
X100611D01*
Y226172D01*
X101198Y226623D01*
X101674Y227243D01*
X101973Y227965D01*
X102076Y228740D01*
X101973Y229515D01*
X101674Y230237D01*
X101198Y230857D01*
X100578Y231333D01*
X99856Y231632D01*
X99081Y231734D01*
X98306Y231632D01*
X97584Y231333D01*
X96964Y230857D01*
X96488Y230237D01*
X96189Y229515D01*
X96087Y228740D01*
X96189Y227965D01*
X96488Y227243D01*
X96964Y226623D01*
X97552Y226172D01*
Y223638D01*
X94866D01*
Y218094D01*
X99742D01*
Y215657D01*
X99859Y215072D01*
X100190Y214576D01*
X101923Y212843D01*
Y211039D01*
X100956D01*
X100584Y211325D01*
X99733Y211678D01*
X98819Y211798D01*
X97905Y211678D01*
X97054Y211325D01*
X96682Y211039D01*
X94866D01*
Y205496D01*
X95289D01*
Y203756D01*
X90339D01*
Y203756D01*
X89976D01*
Y203756D01*
X88311D01*
Y200787D01*
X86811D01*
Y199287D01*
X83646D01*
Y198855D01*
X76758D01*
Y200984D01*
Y205496D01*
X84268D01*
Y211039D01*
X79392D01*
Y213476D01*
X79275Y214062D01*
X78944Y214558D01*
X77210Y216291D01*
Y218094D01*
X78815D01*
Y220866D01*
Y223638D01*
X75064D01*
Y226172D01*
X75652Y226623D01*
X76127Y227243D01*
X76427Y227965D01*
X76529Y228740D01*
X76427Y229515D01*
X76127Y230237D01*
X75652Y230857D01*
X75032Y231333D01*
X74309Y231632D01*
X73535Y231734D01*
X72760Y231632D01*
X72038Y231333D01*
X71417Y230857D01*
X70942Y230237D01*
X70642Y229515D01*
X70540Y228740D01*
X70642Y227965D01*
X70942Y227243D01*
X71417Y226623D01*
X72005Y226172D01*
Y223638D01*
X69276D01*
Y218094D01*
X74152D01*
Y215657D01*
X74268Y215072D01*
X74600Y214576D01*
X76333Y212843D01*
Y211039D01*
X75366D01*
X74993Y211325D01*
X74142Y211678D01*
X73228Y211798D01*
X72315Y211678D01*
X71463Y211325D01*
X71091Y211039D01*
X69276D01*
Y205496D01*
X69698D01*
Y203756D01*
X64748D01*
Y203756D01*
X64386D01*
Y203756D01*
X62721D01*
Y200787D01*
X61221D01*
Y199287D01*
X58055D01*
Y198855D01*
X51168D01*
Y200984D01*
Y205496D01*
X58677D01*
Y211039D01*
X53801D01*
Y213476D01*
X53685Y214062D01*
X53353Y214558D01*
X51620Y216291D01*
Y218094D01*
X53224D01*
Y220866D01*
Y223638D01*
X49517D01*
Y226172D01*
X50105Y226623D01*
X50581Y227243D01*
X50880Y227965D01*
X50982Y228740D01*
X50880Y229515D01*
X50581Y230237D01*
X50105Y230857D01*
X49485Y231333D01*
X48763Y231632D01*
X47988Y231734D01*
X47213Y231632D01*
X46491Y231333D01*
X45871Y230857D01*
X45395Y230237D01*
X45096Y229515D01*
X44994Y228740D01*
X45096Y227965D01*
X45395Y227243D01*
X45871Y226623D01*
X46458Y226172D01*
Y223638D01*
X43685D01*
Y218094D01*
X48561D01*
Y215657D01*
X48678Y215072D01*
X49009Y214576D01*
X50742Y212843D01*
Y211039D01*
X49775D01*
X49403Y211325D01*
X48551Y211678D01*
X47638Y211798D01*
X46724Y211678D01*
X45873Y211325D01*
X45500Y211039D01*
X43685D01*
Y205496D01*
X44108D01*
Y203756D01*
X38370D01*
Y203756D01*
X38008D01*
Y203756D01*
X36342D01*
Y200787D01*
X34843D01*
Y199287D01*
X31677D01*
Y198855D01*
X26204D01*
X26171Y198888D01*
Y205496D01*
X33087D01*
Y211039D01*
X28210D01*
Y213476D01*
X28094Y214062D01*
X27762Y214558D01*
X26029Y216291D01*
Y218094D01*
X27634D01*
Y220866D01*
Y223638D01*
X23970D01*
Y226172D01*
X24558Y226623D01*
X25034Y227243D01*
X25333Y227965D01*
X25435Y228740D01*
X25333Y229515D01*
X25034Y230237D01*
X24558Y230857D01*
X23938Y231333D01*
X23216Y231632D01*
X22441Y231734D01*
X21666Y231632D01*
X20944Y231333D01*
X20324Y230857D01*
X19848Y230237D01*
X19549Y229515D01*
X19447Y228740D01*
X19549Y227965D01*
X19848Y227243D01*
X20324Y226623D01*
X20911Y226172D01*
Y223638D01*
X18094D01*
Y218094D01*
X22971D01*
Y215657D01*
X23087Y215072D01*
X23419Y214576D01*
X25152Y212843D01*
Y211039D01*
X24184D01*
X23812Y211325D01*
X22961Y211678D01*
X22047Y211798D01*
X21134Y211678D01*
X20282Y211325D01*
X19910Y211039D01*
X18094D01*
Y206350D01*
X17896Y206217D01*
X17675Y205886D01*
X17597Y205496D01*
Y203756D01*
X13744D01*
X13722Y203868D01*
X13713Y203881D01*
X13709Y203897D01*
X13602Y204047D01*
X13500Y204199D01*
X13487Y204208D01*
X13478Y204221D01*
X13322Y204318D01*
X13170Y204420D01*
X13154Y204423D01*
X13141Y204432D01*
X12960Y204462D01*
X12779Y204498D01*
X12764Y204495D01*
X12749Y204497D01*
X12714Y204496D01*
X12532Y204454D01*
X12349Y204417D01*
X12338Y204410D01*
X12326Y204407D01*
X12174Y204298D01*
X12019Y204194D01*
X12012Y204183D01*
X12002Y204176D01*
X11903Y204017D01*
X11800Y203861D01*
X11798Y203849D01*
X11791Y203838D01*
X11778Y203756D01*
X8106D01*
Y205493D01*
X8106Y205497D01*
X8106Y205500D01*
X8066Y205693D01*
X8029Y205884D01*
X8027Y205886D01*
X8026Y205890D01*
X7916Y206052D01*
X7808Y206214D01*
X7805Y206216D01*
X7803Y206219D01*
X7639Y206327D01*
X7496Y206423D01*
Y208516D01*
X11093Y212113D01*
X12038D01*
X12071Y212071D01*
X12802Y211510D01*
X13653Y211157D01*
X14567Y211037D01*
X15481Y211157D01*
X16332Y211510D01*
X17063Y212071D01*
X17624Y212802D01*
X17977Y213653D01*
X18097Y214567D01*
X17977Y215481D01*
X17624Y216332D01*
X17063Y217063D01*
X16332Y217624D01*
X15481Y217977D01*
X14567Y218097D01*
X13653Y217977D01*
X12802Y217624D01*
X12071Y217063D01*
X11510Y216332D01*
X11240Y215682D01*
X10354D01*
X9671Y215546D01*
X9092Y215159D01*
X9092Y215159D01*
X4973Y211039D01*
X0D01*
Y218094D01*
X2043D01*
Y220866D01*
Y223638D01*
X0D01*
Y240158D01*
X255906D01*
Y223638D01*
D02*
G37*
G36*
X23547Y205496D02*
X25152D01*
Y188976D01*
X0D01*
Y205450D01*
X7087Y205493D01*
Y203756D01*
X6087D01*
Y197819D01*
X12779D01*
X12745Y203477D01*
X12779Y203478D01*
Y202287D01*
X19110D01*
Y203756D01*
X18617D01*
Y205496D01*
X20547D01*
Y208268D01*
X23547D01*
Y205496D01*
D02*
G37*
G36*
X253862D02*
X255906D01*
Y188976D01*
X243307D01*
X243497Y189167D01*
Y197819D01*
X244366D01*
Y200787D01*
X245866D01*
Y202287D01*
X249031D01*
Y202776D01*
X249222Y202814D01*
X249553Y203035D01*
X249774Y203366D01*
X249852Y203756D01*
Y205496D01*
X250862D01*
Y208268D01*
X253862D01*
Y205496D01*
D02*
G37*
G36*
X255906Y160646D02*
X253891D01*
Y163180D01*
X254479Y163631D01*
X254955Y164251D01*
X255254Y164973D01*
X255356Y165748D01*
X255254Y166523D01*
X254955Y167245D01*
X254479Y167865D01*
X253859Y168341D01*
X253137Y168640D01*
X252362Y168742D01*
X251587Y168640D01*
X250865Y168341D01*
X250245Y167865D01*
X249769Y167245D01*
X249470Y166523D01*
X249368Y165748D01*
X249470Y164973D01*
X249769Y164251D01*
X250245Y163631D01*
X250833Y163180D01*
Y160646D01*
X248410D01*
Y157626D01*
X244672Y153888D01*
X244229Y153677D01*
X243497Y154238D01*
X242646Y154591D01*
X241732Y154711D01*
X240819Y154591D01*
X239967Y154238D01*
X239236Y153677D01*
X238675Y152946D01*
X238322Y152095D01*
X238202Y151181D01*
X238322Y150267D01*
X238675Y149416D01*
X239236Y148685D01*
X239967Y148124D01*
X240819Y147771D01*
X241732Y147651D01*
X242646Y147771D01*
X243497Y148124D01*
X244229Y148685D01*
X244790Y149416D01*
X245059Y150066D01*
X245158D01*
X245841Y150202D01*
X246420Y150589D01*
X250933Y155102D01*
X255906D01*
Y148047D01*
X254500D01*
X254127Y148333D01*
X253276Y148686D01*
X252362Y148806D01*
X251448Y148686D01*
X250597Y148333D01*
X250225Y148047D01*
X248410D01*
Y142504D01*
X248832D01*
Y140764D01*
X242701D01*
Y140764D01*
X242339D01*
Y140764D01*
X240673D01*
Y137795D01*
X239173D01*
Y136295D01*
X236008D01*
Y135862D01*
X230302D01*
Y137992D01*
Y142504D01*
X237811D01*
Y148047D01*
X232935D01*
Y150484D01*
X232819Y151069D01*
X232487Y151566D01*
X230754Y153299D01*
Y155102D01*
X232358D01*
Y157874D01*
Y160646D01*
X228345D01*
Y163180D01*
X228932Y163631D01*
X229408Y164251D01*
X229707Y164973D01*
X229809Y165748D01*
X229707Y166523D01*
X229408Y167245D01*
X228932Y167865D01*
X228312Y168341D01*
X227590Y168640D01*
X226815Y168742D01*
X226040Y168640D01*
X225318Y168341D01*
X224698Y167865D01*
X224222Y167245D01*
X223923Y166523D01*
X223821Y165748D01*
X223923Y164973D01*
X224222Y164251D01*
X224698Y163631D01*
X225286Y163180D01*
Y160646D01*
X222819D01*
Y155102D01*
X227695D01*
Y152665D01*
X227811Y152080D01*
X228143Y151584D01*
X229876Y149851D01*
Y148047D01*
X228909D01*
X228537Y148333D01*
X227685Y148686D01*
X226772Y148806D01*
X225858Y148686D01*
X225007Y148333D01*
X224634Y148047D01*
X222819D01*
Y142504D01*
X223241D01*
Y140764D01*
X217898D01*
Y140764D01*
X217535D01*
Y140764D01*
X215870D01*
Y137795D01*
X214370D01*
Y136295D01*
X211205D01*
Y135862D01*
X204711D01*
Y137992D01*
Y142504D01*
X212221D01*
Y148047D01*
X207344D01*
Y150484D01*
X207228Y151069D01*
X206896Y151566D01*
X205163Y153299D01*
Y155102D01*
X206768D01*
Y157874D01*
Y160646D01*
X202798D01*
Y163180D01*
X203386Y163631D01*
X203861Y164251D01*
X204161Y164973D01*
X204263Y165748D01*
X204161Y166523D01*
X203861Y167245D01*
X203386Y167865D01*
X202766Y168341D01*
X202044Y168640D01*
X201269Y168742D01*
X200494Y168640D01*
X199771Y168341D01*
X199151Y167865D01*
X198676Y167245D01*
X198376Y166523D01*
X198274Y165748D01*
X198376Y164973D01*
X198676Y164251D01*
X199151Y163631D01*
X199739Y163180D01*
Y160646D01*
X197228D01*
Y155102D01*
X202104D01*
Y152665D01*
X202221Y152080D01*
X202552Y151584D01*
X204286Y149851D01*
Y148047D01*
X203318D01*
X202946Y148333D01*
X202095Y148686D01*
X201181Y148806D01*
X200267Y148686D01*
X199416Y148333D01*
X199044Y148047D01*
X197228D01*
Y142504D01*
X197651D01*
Y140764D01*
X192307D01*
Y140764D01*
X191945D01*
Y140764D01*
X190279D01*
Y137795D01*
X188779D01*
Y136295D01*
X185614D01*
Y135862D01*
X179121D01*
Y137992D01*
Y142504D01*
X186630D01*
Y148047D01*
X181754D01*
Y150484D01*
X181637Y151069D01*
X181306Y151566D01*
X179573Y153299D01*
Y155102D01*
X181177D01*
Y157874D01*
Y160646D01*
X177251D01*
Y163180D01*
X177839Y163631D01*
X178315Y164251D01*
X178614Y164973D01*
X178716Y165748D01*
X178614Y166523D01*
X178315Y167245D01*
X177839Y167865D01*
X177219Y168341D01*
X176497Y168640D01*
X175722Y168742D01*
X174947Y168640D01*
X174225Y168341D01*
X173605Y167865D01*
X173129Y167245D01*
X172830Y166523D01*
X172728Y165748D01*
X172830Y164973D01*
X173129Y164251D01*
X173605Y163631D01*
X174192Y163180D01*
Y160646D01*
X171638D01*
Y155102D01*
X176514D01*
Y152665D01*
X176630Y152080D01*
X176962Y151584D01*
X178695Y149851D01*
Y148047D01*
X177728D01*
X177356Y148333D01*
X176504Y148686D01*
X175591Y148806D01*
X174677Y148686D01*
X173826Y148333D01*
X173453Y148047D01*
X171638D01*
Y142504D01*
X172060D01*
Y139580D01*
X171472D01*
Y140764D01*
X165142D01*
Y140764D01*
X164779D01*
Y140764D01*
X163114D01*
Y137795D01*
X161614D01*
Y136295D01*
X158449D01*
Y135862D01*
X153530D01*
Y137992D01*
Y142504D01*
X161039D01*
Y148047D01*
X156163D01*
Y150484D01*
X156047Y151069D01*
X155715Y151566D01*
X153982Y153299D01*
Y155102D01*
X155587D01*
Y157874D01*
Y160646D01*
X151704D01*
Y163180D01*
X152292Y163631D01*
X152768Y164251D01*
X153067Y164973D01*
X153169Y165748D01*
X153067Y166523D01*
X152768Y167245D01*
X152292Y167865D01*
X151672Y168341D01*
X150950Y168640D01*
X150175Y168742D01*
X149400Y168640D01*
X148678Y168341D01*
X148058Y167865D01*
X147582Y167245D01*
X147283Y166523D01*
X147181Y165748D01*
X147283Y164973D01*
X147582Y164251D01*
X148058Y163631D01*
X148646Y163180D01*
Y160646D01*
X146047D01*
Y155102D01*
X150923D01*
Y152665D01*
X151040Y152080D01*
X151371Y151584D01*
X153104Y149851D01*
Y148047D01*
X152137D01*
X151765Y148333D01*
X150914Y148686D01*
X150000Y148806D01*
X149086Y148686D01*
X148235Y148333D01*
X147863Y148047D01*
X146047D01*
Y142504D01*
X146470D01*
Y140764D01*
X141126D01*
Y140764D01*
X140764D01*
Y140764D01*
X139098D01*
Y137795D01*
X137598D01*
Y136295D01*
X134433D01*
Y135862D01*
X127940D01*
Y137992D01*
Y142504D01*
X135449D01*
Y148047D01*
X130573D01*
Y150484D01*
X130456Y151069D01*
X130125Y151566D01*
X128392Y153299D01*
Y155102D01*
X129996D01*
Y157874D01*
Y160646D01*
X126157D01*
Y163180D01*
X126745Y163631D01*
X127221Y164251D01*
X127520Y164973D01*
X127622Y165748D01*
X127520Y166523D01*
X127221Y167245D01*
X126745Y167865D01*
X126125Y168341D01*
X125403Y168640D01*
X124628Y168742D01*
X123853Y168640D01*
X123131Y168341D01*
X122511Y167865D01*
X122035Y167245D01*
X121736Y166523D01*
X121634Y165748D01*
X121736Y164973D01*
X122035Y164251D01*
X122511Y163631D01*
X123099Y163180D01*
Y160646D01*
X120457D01*
Y155102D01*
X125333D01*
Y152665D01*
X125449Y152080D01*
X125781Y151584D01*
X127514Y149851D01*
Y148047D01*
X126547D01*
X126174Y148333D01*
X125323Y148686D01*
X124409Y148806D01*
X123496Y148686D01*
X122644Y148333D01*
X122272Y148047D01*
X120457D01*
Y142504D01*
X120879D01*
Y139580D01*
X119898D01*
Y140764D01*
X113567D01*
Y140764D01*
X113205D01*
Y140764D01*
X111539D01*
Y137795D01*
X110039D01*
Y136295D01*
X106874D01*
Y135862D01*
X102349D01*
Y137992D01*
Y142504D01*
X109858D01*
Y148047D01*
X104982D01*
Y150484D01*
X104866Y151069D01*
X104534Y151566D01*
X102801Y153299D01*
Y155102D01*
X104405D01*
Y157874D01*
Y160646D01*
X100611D01*
Y163180D01*
X101198Y163631D01*
X101674Y164251D01*
X101973Y164973D01*
X102076Y165748D01*
X101973Y166523D01*
X101674Y167245D01*
X101198Y167865D01*
X100578Y168341D01*
X99856Y168640D01*
X99081Y168742D01*
X98306Y168640D01*
X97584Y168341D01*
X96964Y167865D01*
X96488Y167245D01*
X96189Y166523D01*
X96087Y165748D01*
X96189Y164973D01*
X96488Y164251D01*
X96964Y163631D01*
X97552Y163180D01*
Y160646D01*
X94866D01*
Y155102D01*
X99742D01*
Y152665D01*
X99859Y152080D01*
X100190Y151584D01*
X101923Y149851D01*
Y148047D01*
X100956D01*
X100584Y148333D01*
X99733Y148686D01*
X98819Y148806D01*
X97905Y148686D01*
X97054Y148333D01*
X96682Y148047D01*
X94866D01*
Y142504D01*
X95289D01*
Y140764D01*
X90339D01*
Y140764D01*
X89976D01*
Y140764D01*
X88311D01*
Y137795D01*
X86811D01*
Y136295D01*
X83646D01*
Y135862D01*
X76758D01*
Y137992D01*
Y142504D01*
X84268D01*
Y148047D01*
X79392D01*
Y150484D01*
X79275Y151069D01*
X78944Y151566D01*
X77210Y153299D01*
Y155102D01*
X78815D01*
Y157874D01*
Y160646D01*
X75064D01*
Y163180D01*
X75652Y163631D01*
X76127Y164251D01*
X76427Y164973D01*
X76529Y165748D01*
X76427Y166523D01*
X76127Y167245D01*
X75652Y167865D01*
X75032Y168341D01*
X74309Y168640D01*
X73535Y168742D01*
X72760Y168640D01*
X72038Y168341D01*
X71417Y167865D01*
X70942Y167245D01*
X70642Y166523D01*
X70540Y165748D01*
X70642Y164973D01*
X70942Y164251D01*
X71417Y163631D01*
X72005Y163180D01*
Y160646D01*
X69276D01*
Y155102D01*
X74152D01*
Y152665D01*
X74268Y152080D01*
X74600Y151584D01*
X76333Y149851D01*
Y148047D01*
X75366D01*
X74993Y148333D01*
X74142Y148686D01*
X73228Y148806D01*
X72315Y148686D01*
X71463Y148333D01*
X71091Y148047D01*
X69276D01*
Y142504D01*
X69698D01*
Y140764D01*
X64748D01*
Y140764D01*
X64386D01*
Y140764D01*
X62721D01*
Y137795D01*
X61221D01*
Y136295D01*
X58055D01*
Y135862D01*
X51168D01*
Y137992D01*
Y142504D01*
X58677D01*
Y148047D01*
X53801D01*
Y150484D01*
X53685Y151069D01*
X53353Y151566D01*
X51620Y153299D01*
Y155102D01*
X53224D01*
Y157874D01*
Y160646D01*
X49517D01*
Y163180D01*
X50105Y163631D01*
X50581Y164251D01*
X50880Y164973D01*
X50982Y165748D01*
X50880Y166523D01*
X50581Y167245D01*
X50105Y167865D01*
X49485Y168341D01*
X48763Y168640D01*
X47988Y168742D01*
X47213Y168640D01*
X46491Y168341D01*
X45871Y167865D01*
X45395Y167245D01*
X45096Y166523D01*
X44994Y165748D01*
X45096Y164973D01*
X45395Y164251D01*
X45871Y163631D01*
X46458Y163180D01*
Y160646D01*
X43685D01*
Y155102D01*
X48561D01*
Y152665D01*
X48678Y152080D01*
X49009Y151584D01*
X50742Y149851D01*
Y148047D01*
X49775D01*
X49403Y148333D01*
X48551Y148686D01*
X47638Y148806D01*
X46724Y148686D01*
X45873Y148333D01*
X45500Y148047D01*
X43685D01*
Y142504D01*
X44108D01*
Y140764D01*
X38370D01*
Y140764D01*
X38008D01*
Y140764D01*
X36342D01*
Y137795D01*
X34843D01*
Y136295D01*
X31677D01*
Y135862D01*
X26204D01*
X26171Y135895D01*
Y142504D01*
X33087D01*
Y148047D01*
X28210D01*
Y150484D01*
X28094Y151069D01*
X27762Y151566D01*
X26029Y153299D01*
Y155102D01*
X27634D01*
Y157874D01*
Y160646D01*
X23970D01*
Y163180D01*
X24558Y163631D01*
X25034Y164251D01*
X25333Y164973D01*
X25435Y165748D01*
X25333Y166523D01*
X25034Y167245D01*
X24558Y167865D01*
X23938Y168341D01*
X23216Y168640D01*
X22441Y168742D01*
X21666Y168640D01*
X20944Y168341D01*
X20324Y167865D01*
X19848Y167245D01*
X19549Y166523D01*
X19447Y165748D01*
X19549Y164973D01*
X19848Y164251D01*
X20324Y163631D01*
X20911Y163180D01*
Y160646D01*
X18094D01*
Y155102D01*
X22971D01*
Y152665D01*
X23087Y152080D01*
X23419Y151584D01*
X25152Y149851D01*
Y148047D01*
X24184D01*
X23812Y148333D01*
X22961Y148686D01*
X22047Y148806D01*
X21134Y148686D01*
X20282Y148333D01*
X19910Y148047D01*
X18094D01*
Y143358D01*
X17896Y143225D01*
X17675Y142894D01*
X17597Y142504D01*
Y140764D01*
X13744D01*
X13722Y140876D01*
X13713Y140889D01*
X13709Y140905D01*
X13602Y141054D01*
X13500Y141207D01*
X13487Y141216D01*
X13478Y141229D01*
X13322Y141326D01*
X13170Y141428D01*
X13154Y141431D01*
X13141Y141439D01*
X12960Y141470D01*
X12779Y141506D01*
X12764Y141502D01*
X12749Y141505D01*
X12714Y141504D01*
X12532Y141462D01*
X12349Y141425D01*
X12338Y141417D01*
X12326Y141415D01*
X12174Y141306D01*
X12019Y141201D01*
X12012Y141191D01*
X12002Y141184D01*
X11903Y141025D01*
X11800Y140869D01*
X11798Y140857D01*
X11791Y140846D01*
X11778Y140764D01*
X8106D01*
Y142501D01*
X8106Y142505D01*
X8106Y142508D01*
X8066Y142701D01*
X8029Y142892D01*
X8027Y142894D01*
X8026Y142897D01*
X7916Y143060D01*
X7808Y143222D01*
X7805Y143224D01*
X7803Y143227D01*
X7639Y143335D01*
X7496Y143430D01*
Y145524D01*
X11093Y149121D01*
X12038D01*
X12071Y149079D01*
X12802Y148518D01*
X13653Y148165D01*
X14567Y148045D01*
X15481Y148165D01*
X16332Y148518D01*
X17063Y149079D01*
X17624Y149810D01*
X17977Y150661D01*
X18097Y151575D01*
X17977Y152489D01*
X17624Y153340D01*
X17063Y154071D01*
X16332Y154632D01*
X15481Y154985D01*
X14567Y155105D01*
X13653Y154985D01*
X12802Y154632D01*
X12071Y154071D01*
X11510Y153340D01*
X11240Y152689D01*
X10354D01*
X9671Y152554D01*
X9092Y152167D01*
X9092Y152167D01*
X4973Y148047D01*
X0D01*
Y155102D01*
X2043D01*
Y157874D01*
Y160646D01*
X0D01*
Y177165D01*
X255906D01*
Y160646D01*
D02*
G37*
G36*
X23547Y142504D02*
X25152D01*
Y125984D01*
X0D01*
Y142458D01*
X7087Y142501D01*
Y140764D01*
X6087D01*
Y134827D01*
X12779D01*
X12745Y140485D01*
X12779Y140486D01*
Y139295D01*
X19110D01*
Y140764D01*
X18617D01*
Y142504D01*
X20547D01*
Y145276D01*
X23547D01*
Y142504D01*
D02*
G37*
G36*
X253862D02*
X255906D01*
Y125984D01*
X243307D01*
X243497Y126174D01*
Y134827D01*
X244366D01*
Y137795D01*
X245866D01*
Y139295D01*
X249031D01*
Y139784D01*
X249222Y139822D01*
X249553Y140043D01*
X249774Y140374D01*
X249852Y140764D01*
Y142504D01*
X250862D01*
Y145276D01*
X253862D01*
Y142504D01*
D02*
G37*
G36*
X255906Y97654D02*
X253891D01*
Y100188D01*
X254479Y100639D01*
X254955Y101259D01*
X255254Y101981D01*
X255356Y102756D01*
X255254Y103531D01*
X254955Y104253D01*
X254479Y104873D01*
X253859Y105349D01*
X253137Y105648D01*
X252362Y105750D01*
X251587Y105648D01*
X250865Y105349D01*
X250245Y104873D01*
X249769Y104253D01*
X249470Y103531D01*
X249368Y102756D01*
X249470Y101981D01*
X249769Y101259D01*
X250245Y100639D01*
X250833Y100188D01*
Y97654D01*
X248410D01*
Y94634D01*
X244672Y90896D01*
X244229Y90685D01*
X243497Y91246D01*
X242646Y91599D01*
X241732Y91719D01*
X240819Y91599D01*
X239967Y91246D01*
X239236Y90685D01*
X238675Y89954D01*
X238322Y89103D01*
X238202Y88189D01*
X238322Y87275D01*
X238675Y86424D01*
X239236Y85693D01*
X239967Y85132D01*
X240819Y84779D01*
X241732Y84659D01*
X242646Y84779D01*
X243497Y85132D01*
X244229Y85693D01*
X244790Y86424D01*
X245059Y87074D01*
X245158D01*
X245841Y87210D01*
X246420Y87597D01*
X250933Y92110D01*
X255906D01*
Y85055D01*
X254500D01*
X254127Y85341D01*
X253276Y85693D01*
X252362Y85814D01*
X251448Y85693D01*
X250597Y85341D01*
X250225Y85055D01*
X248410D01*
Y79512D01*
X248832D01*
Y77772D01*
X242701D01*
Y77772D01*
X242339D01*
Y77772D01*
X240673D01*
Y74803D01*
X239173D01*
Y73303D01*
X236008D01*
Y72870D01*
X230302D01*
Y75000D01*
Y79512D01*
X237811D01*
Y85055D01*
X232935D01*
Y87492D01*
X232819Y88077D01*
X232487Y88574D01*
X230754Y90307D01*
Y92110D01*
X232358D01*
Y94882D01*
Y97654D01*
X228345D01*
Y100188D01*
X228932Y100639D01*
X229408Y101259D01*
X229707Y101981D01*
X229809Y102756D01*
X229707Y103531D01*
X229408Y104253D01*
X228932Y104873D01*
X228312Y105349D01*
X227590Y105648D01*
X226815Y105750D01*
X226040Y105648D01*
X225318Y105349D01*
X224698Y104873D01*
X224222Y104253D01*
X223923Y103531D01*
X223821Y102756D01*
X223923Y101981D01*
X224222Y101259D01*
X224698Y100639D01*
X225286Y100188D01*
Y97654D01*
X222819D01*
Y92110D01*
X227695D01*
Y89673D01*
X227811Y89088D01*
X228143Y88592D01*
X229876Y86859D01*
Y85055D01*
X228909D01*
X228537Y85341D01*
X227685Y85693D01*
X226772Y85814D01*
X225858Y85693D01*
X225007Y85341D01*
X224634Y85055D01*
X222819D01*
Y79512D01*
X223241D01*
Y77772D01*
X217898D01*
Y77772D01*
X217535D01*
Y77772D01*
X215870D01*
Y74803D01*
X214370D01*
Y73303D01*
X211205D01*
Y72870D01*
X204711D01*
Y75000D01*
Y79512D01*
X212221D01*
Y85055D01*
X207344D01*
Y87492D01*
X207228Y88077D01*
X206896Y88574D01*
X205163Y90307D01*
Y92110D01*
X206768D01*
Y94882D01*
Y97654D01*
X202798D01*
Y100188D01*
X203386Y100639D01*
X203861Y101259D01*
X204161Y101981D01*
X204263Y102756D01*
X204161Y103531D01*
X203861Y104253D01*
X203386Y104873D01*
X202766Y105349D01*
X202044Y105648D01*
X201269Y105750D01*
X200494Y105648D01*
X199771Y105349D01*
X199151Y104873D01*
X198676Y104253D01*
X198376Y103531D01*
X198274Y102756D01*
X198376Y101981D01*
X198676Y101259D01*
X199151Y100639D01*
X199739Y100188D01*
Y97654D01*
X197228D01*
Y92110D01*
X202104D01*
Y89673D01*
X202221Y89088D01*
X202552Y88592D01*
X204286Y86859D01*
Y85055D01*
X203318D01*
X202946Y85341D01*
X202095Y85693D01*
X201181Y85814D01*
X200267Y85693D01*
X199416Y85341D01*
X199044Y85055D01*
X197228D01*
Y79512D01*
X197651D01*
Y77772D01*
X192307D01*
Y77772D01*
X191945D01*
Y77772D01*
X190279D01*
Y74803D01*
X188779D01*
Y73303D01*
X185614D01*
Y72870D01*
X179121D01*
Y75000D01*
Y79512D01*
X186630D01*
Y85055D01*
X181754D01*
Y87492D01*
X181637Y88077D01*
X181306Y88574D01*
X179573Y90307D01*
Y92110D01*
X181177D01*
Y94882D01*
Y97654D01*
X177251D01*
Y100188D01*
X177839Y100639D01*
X178315Y101259D01*
X178614Y101981D01*
X178716Y102756D01*
X178614Y103531D01*
X178315Y104253D01*
X177839Y104873D01*
X177219Y105349D01*
X176497Y105648D01*
X175722Y105750D01*
X174947Y105648D01*
X174225Y105349D01*
X173605Y104873D01*
X173129Y104253D01*
X172830Y103531D01*
X172728Y102756D01*
X172830Y101981D01*
X173129Y101259D01*
X173605Y100639D01*
X174192Y100188D01*
Y97654D01*
X171638D01*
Y92110D01*
X176514D01*
Y89673D01*
X176630Y89088D01*
X176962Y88592D01*
X178695Y86859D01*
Y85055D01*
X177728D01*
X177356Y85341D01*
X176504Y85693D01*
X175591Y85814D01*
X174677Y85693D01*
X173826Y85341D01*
X173453Y85055D01*
X171638D01*
Y79512D01*
X172060D01*
Y76587D01*
X171472D01*
Y77772D01*
X165142D01*
Y77772D01*
X164779D01*
Y77772D01*
X163114D01*
Y74803D01*
X161614D01*
Y73303D01*
X158449D01*
Y72870D01*
X153530D01*
Y75000D01*
Y79512D01*
X161039D01*
Y85055D01*
X156163D01*
Y87492D01*
X156047Y88077D01*
X155715Y88574D01*
X153982Y90307D01*
Y92110D01*
X155587D01*
Y94882D01*
Y97654D01*
X151704D01*
Y100188D01*
X152292Y100639D01*
X152768Y101259D01*
X153067Y101981D01*
X153169Y102756D01*
X153067Y103531D01*
X152768Y104253D01*
X152292Y104873D01*
X151672Y105349D01*
X150950Y105648D01*
X150175Y105750D01*
X149400Y105648D01*
X148678Y105349D01*
X148058Y104873D01*
X147582Y104253D01*
X147283Y103531D01*
X147181Y102756D01*
X147283Y101981D01*
X147582Y101259D01*
X148058Y100639D01*
X148646Y100188D01*
Y97654D01*
X146047D01*
Y92110D01*
X150923D01*
Y89673D01*
X151040Y89088D01*
X151371Y88592D01*
X153104Y86859D01*
Y85055D01*
X152137D01*
X151765Y85341D01*
X150914Y85693D01*
X150000Y85814D01*
X149086Y85693D01*
X148235Y85341D01*
X147863Y85055D01*
X146047D01*
Y79512D01*
X146470D01*
Y77772D01*
X141126D01*
Y77772D01*
X140764D01*
Y77772D01*
X139098D01*
Y74803D01*
X137598D01*
Y73303D01*
X134433D01*
Y72870D01*
X127940D01*
Y75000D01*
Y79512D01*
X135449D01*
Y85055D01*
X130573D01*
Y87492D01*
X130456Y88077D01*
X130125Y88574D01*
X128392Y90307D01*
Y92110D01*
X129996D01*
Y94882D01*
Y97654D01*
X126157D01*
Y100188D01*
X126745Y100639D01*
X127221Y101259D01*
X127520Y101981D01*
X127622Y102756D01*
X127520Y103531D01*
X127221Y104253D01*
X126745Y104873D01*
X126125Y105349D01*
X125403Y105648D01*
X124628Y105750D01*
X123853Y105648D01*
X123131Y105349D01*
X122511Y104873D01*
X122035Y104253D01*
X121736Y103531D01*
X121634Y102756D01*
X121736Y101981D01*
X122035Y101259D01*
X122511Y100639D01*
X123099Y100188D01*
Y97654D01*
X120457D01*
Y92110D01*
X125333D01*
Y89673D01*
X125449Y89088D01*
X125781Y88592D01*
X127514Y86859D01*
Y85055D01*
X126547D01*
X126174Y85341D01*
X125323Y85693D01*
X124409Y85814D01*
X123496Y85693D01*
X122644Y85341D01*
X122272Y85055D01*
X120457D01*
Y79512D01*
X120879D01*
Y76587D01*
X119898D01*
Y77772D01*
X113567D01*
Y77772D01*
X113205D01*
Y77772D01*
X111539D01*
Y74803D01*
X110039D01*
Y73303D01*
X106874D01*
Y72870D01*
X102349D01*
Y75000D01*
Y79512D01*
X109858D01*
Y85055D01*
X104982D01*
Y87492D01*
X104866Y88077D01*
X104534Y88574D01*
X102801Y90307D01*
Y92110D01*
X104405D01*
Y94882D01*
Y97654D01*
X100611D01*
Y100188D01*
X101198Y100639D01*
X101674Y101259D01*
X101973Y101981D01*
X102076Y102756D01*
X101973Y103531D01*
X101674Y104253D01*
X101198Y104873D01*
X100578Y105349D01*
X99856Y105648D01*
X99081Y105750D01*
X98306Y105648D01*
X97584Y105349D01*
X96964Y104873D01*
X96488Y104253D01*
X96189Y103531D01*
X96087Y102756D01*
X96189Y101981D01*
X96488Y101259D01*
X96964Y100639D01*
X97552Y100188D01*
Y97654D01*
X94866D01*
Y92110D01*
X99742D01*
Y89673D01*
X99859Y89088D01*
X100190Y88592D01*
X101923Y86859D01*
Y85055D01*
X100956D01*
X100584Y85341D01*
X99733Y85693D01*
X98819Y85814D01*
X97905Y85693D01*
X97054Y85341D01*
X96682Y85055D01*
X94866D01*
Y79512D01*
X95289D01*
Y77772D01*
X90339D01*
Y77772D01*
X89976D01*
Y77772D01*
X88311D01*
Y74803D01*
X86811D01*
Y73303D01*
X83646D01*
Y72870D01*
X76758D01*
Y75000D01*
Y79512D01*
X84268D01*
Y85055D01*
X79392D01*
Y87492D01*
X79275Y88077D01*
X78944Y88574D01*
X77210Y90307D01*
Y92110D01*
X78815D01*
Y94882D01*
Y97654D01*
X75064D01*
Y100188D01*
X75652Y100639D01*
X76127Y101259D01*
X76427Y101981D01*
X76529Y102756D01*
X76427Y103531D01*
X76127Y104253D01*
X75652Y104873D01*
X75032Y105349D01*
X74309Y105648D01*
X73535Y105750D01*
X72760Y105648D01*
X72038Y105349D01*
X71417Y104873D01*
X70942Y104253D01*
X70642Y103531D01*
X70540Y102756D01*
X70642Y101981D01*
X70942Y101259D01*
X71417Y100639D01*
X72005Y100188D01*
Y97654D01*
X69276D01*
Y92110D01*
X74152D01*
Y89673D01*
X74268Y89088D01*
X74600Y88592D01*
X76333Y86859D01*
Y85055D01*
X75366D01*
X74993Y85341D01*
X74142Y85693D01*
X73228Y85814D01*
X72315Y85693D01*
X71463Y85341D01*
X71091Y85055D01*
X69276D01*
Y79512D01*
X69698D01*
Y77772D01*
X64748D01*
Y77772D01*
X64386D01*
Y77772D01*
X62721D01*
Y74803D01*
X61221D01*
Y73303D01*
X58055D01*
Y72870D01*
X51168D01*
Y75000D01*
Y79512D01*
X58677D01*
Y85055D01*
X53801D01*
Y87492D01*
X53685Y88077D01*
X53353Y88574D01*
X51620Y90307D01*
Y92110D01*
X53224D01*
Y94882D01*
Y97654D01*
X49517D01*
Y100188D01*
X50105Y100639D01*
X50581Y101259D01*
X50880Y101981D01*
X50982Y102756D01*
X50880Y103531D01*
X50581Y104253D01*
X50105Y104873D01*
X49485Y105349D01*
X48763Y105648D01*
X47988Y105750D01*
X47213Y105648D01*
X46491Y105349D01*
X45871Y104873D01*
X45395Y104253D01*
X45096Y103531D01*
X44994Y102756D01*
X45096Y101981D01*
X45395Y101259D01*
X45871Y100639D01*
X46458Y100188D01*
Y97654D01*
X43685D01*
Y92110D01*
X48561D01*
Y89673D01*
X48678Y89088D01*
X49009Y88592D01*
X50742Y86859D01*
Y85055D01*
X49775D01*
X49403Y85341D01*
X48551Y85693D01*
X47638Y85814D01*
X46724Y85693D01*
X45873Y85341D01*
X45500Y85055D01*
X43685D01*
Y79512D01*
X44108D01*
Y77772D01*
X38370D01*
Y77772D01*
X38008D01*
Y77772D01*
X36342D01*
Y74803D01*
X34843D01*
Y73303D01*
X31677D01*
Y72870D01*
X26204D01*
X26171Y72903D01*
Y79512D01*
X33087D01*
Y85055D01*
X28210D01*
Y87492D01*
X28094Y88077D01*
X27762Y88574D01*
X26029Y90307D01*
Y92110D01*
X27634D01*
Y94882D01*
Y97654D01*
X23970D01*
Y100188D01*
X24558Y100639D01*
X25034Y101259D01*
X25333Y101981D01*
X25435Y102756D01*
X25333Y103531D01*
X25034Y104253D01*
X24558Y104873D01*
X23938Y105349D01*
X23216Y105648D01*
X22441Y105750D01*
X21666Y105648D01*
X20944Y105349D01*
X20324Y104873D01*
X19848Y104253D01*
X19549Y103531D01*
X19447Y102756D01*
X19549Y101981D01*
X19848Y101259D01*
X20324Y100639D01*
X20911Y100188D01*
Y97654D01*
X18094D01*
Y92110D01*
X22971D01*
Y89673D01*
X23087Y89088D01*
X23419Y88592D01*
X25152Y86859D01*
Y85055D01*
X24184D01*
X23812Y85341D01*
X22961Y85693D01*
X22047Y85814D01*
X21134Y85693D01*
X20282Y85341D01*
X19910Y85055D01*
X18094D01*
Y80366D01*
X17896Y80233D01*
X17675Y79902D01*
X17597Y79512D01*
Y77772D01*
X13744D01*
X13722Y77884D01*
X13713Y77897D01*
X13709Y77913D01*
X13602Y78062D01*
X13500Y78215D01*
X13487Y78224D01*
X13478Y78237D01*
X13322Y78334D01*
X13170Y78436D01*
X13154Y78439D01*
X13141Y78447D01*
X12960Y78478D01*
X12779Y78513D01*
X12764Y78510D01*
X12749Y78513D01*
X12714Y78512D01*
X12532Y78470D01*
X12349Y78432D01*
X12338Y78425D01*
X12326Y78422D01*
X12174Y78314D01*
X12019Y78209D01*
X12012Y78199D01*
X12002Y78192D01*
X11903Y78033D01*
X11800Y77877D01*
X11798Y77865D01*
X11791Y77854D01*
X11778Y77772D01*
X8106D01*
Y79509D01*
X8106Y79512D01*
X8106Y79516D01*
X8066Y79709D01*
X8029Y79900D01*
X8027Y79902D01*
X8026Y79905D01*
X7916Y80068D01*
X7808Y80230D01*
X7805Y80232D01*
X7803Y80235D01*
X7639Y80343D01*
X7496Y80438D01*
Y82532D01*
X11093Y86129D01*
X12038D01*
X12071Y86086D01*
X12802Y85525D01*
X13653Y85173D01*
X14567Y85053D01*
X15481Y85173D01*
X16332Y85525D01*
X17063Y86086D01*
X17624Y86818D01*
X17977Y87669D01*
X18097Y88583D01*
X17977Y89496D01*
X17624Y90348D01*
X17063Y91079D01*
X16332Y91640D01*
X15481Y91993D01*
X14567Y92113D01*
X13653Y91993D01*
X12802Y91640D01*
X12071Y91079D01*
X11510Y90348D01*
X11240Y89697D01*
X10354D01*
X9671Y89561D01*
X9092Y89175D01*
X9092Y89175D01*
X4973Y85055D01*
X0D01*
Y92110D01*
X2043D01*
Y94882D01*
Y97654D01*
X0D01*
Y114173D01*
X255906D01*
Y97654D01*
D02*
G37*
G36*
X23547Y79512D02*
X25152D01*
Y62992D01*
X0D01*
Y79466D01*
X7087Y79509D01*
Y77772D01*
X6087D01*
Y71835D01*
X12779D01*
X12745Y77493D01*
X12779Y77494D01*
Y76303D01*
X19110D01*
Y77772D01*
X18617D01*
Y79512D01*
X20547D01*
Y82284D01*
X23547D01*
Y79512D01*
D02*
G37*
G36*
X253862D02*
X255906D01*
Y62992D01*
X243307D01*
X243497Y63182D01*
Y71835D01*
X244366D01*
Y74803D01*
X245866D01*
Y76303D01*
X249031D01*
Y76792D01*
X249222Y76830D01*
X249553Y77051D01*
X249774Y77381D01*
X249852Y77772D01*
Y79512D01*
X250862D01*
Y82284D01*
X253862D01*
Y79512D01*
D02*
G37*
G36*
X255906Y34661D02*
X253891D01*
Y37196D01*
X254479Y37647D01*
X254955Y38267D01*
X255254Y38989D01*
X255356Y39764D01*
X255254Y40539D01*
X254955Y41261D01*
X254479Y41881D01*
X253859Y42357D01*
X253137Y42656D01*
X252362Y42758D01*
X251587Y42656D01*
X250865Y42357D01*
X250245Y41881D01*
X249769Y41261D01*
X249470Y40539D01*
X249368Y39764D01*
X249470Y38989D01*
X249769Y38267D01*
X250245Y37647D01*
X250833Y37196D01*
Y34661D01*
X248410D01*
Y31642D01*
X244672Y27904D01*
X244229Y27693D01*
X243497Y28254D01*
X242646Y28607D01*
X241732Y28727D01*
X240819Y28607D01*
X239967Y28254D01*
X239236Y27693D01*
X238675Y26962D01*
X238322Y26111D01*
X238202Y25197D01*
X238322Y24283D01*
X238675Y23432D01*
X239236Y22701D01*
X239967Y22140D01*
X240819Y21787D01*
X241732Y21667D01*
X242646Y21787D01*
X243497Y22140D01*
X244229Y22701D01*
X244790Y23432D01*
X245059Y24082D01*
X245158D01*
X245841Y24218D01*
X246420Y24605D01*
X250933Y29118D01*
X255906D01*
Y22063D01*
X254500D01*
X254127Y22349D01*
X253276Y22701D01*
X252362Y22821D01*
X251448Y22701D01*
X250597Y22349D01*
X250225Y22063D01*
X248410D01*
Y16520D01*
X248832D01*
Y14780D01*
X242701D01*
Y14780D01*
X242339D01*
Y14780D01*
X240673D01*
Y11811D01*
X239173D01*
Y10311D01*
X236008D01*
Y9878D01*
X230302D01*
Y12008D01*
Y16520D01*
X237811D01*
Y22063D01*
X232935D01*
Y24500D01*
X232819Y25085D01*
X232487Y25581D01*
X230754Y27315D01*
Y29118D01*
X232358D01*
Y31890D01*
Y34661D01*
X228345D01*
Y37196D01*
X228932Y37647D01*
X229408Y38267D01*
X229707Y38989D01*
X229809Y39764D01*
X229707Y40539D01*
X229408Y41261D01*
X228932Y41881D01*
X228312Y42357D01*
X227590Y42656D01*
X226815Y42758D01*
X226040Y42656D01*
X225318Y42357D01*
X224698Y41881D01*
X224222Y41261D01*
X223923Y40539D01*
X223821Y39764D01*
X223923Y38989D01*
X224222Y38267D01*
X224698Y37647D01*
X225286Y37196D01*
Y34661D01*
X222819D01*
Y29118D01*
X227695D01*
Y26681D01*
X227811Y26096D01*
X228143Y25600D01*
X229876Y23866D01*
Y22063D01*
X228909D01*
X228537Y22349D01*
X227685Y22701D01*
X226772Y22821D01*
X225858Y22701D01*
X225007Y22349D01*
X224634Y22063D01*
X222819D01*
Y16520D01*
X223241D01*
Y14780D01*
X217898D01*
Y14780D01*
X217535D01*
Y14780D01*
X215870D01*
Y11811D01*
X214370D01*
Y10311D01*
X211205D01*
Y9878D01*
X204711D01*
Y12008D01*
Y16520D01*
X212221D01*
Y22063D01*
X207344D01*
Y24500D01*
X207228Y25085D01*
X206896Y25581D01*
X205163Y27315D01*
Y29118D01*
X206768D01*
Y31890D01*
Y34661D01*
X202798D01*
Y37196D01*
X203386Y37647D01*
X203861Y38267D01*
X204161Y38989D01*
X204263Y39764D01*
X204161Y40539D01*
X203861Y41261D01*
X203386Y41881D01*
X202766Y42357D01*
X202044Y42656D01*
X201269Y42758D01*
X200494Y42656D01*
X199771Y42357D01*
X199151Y41881D01*
X198676Y41261D01*
X198376Y40539D01*
X198274Y39764D01*
X198376Y38989D01*
X198676Y38267D01*
X199151Y37647D01*
X199739Y37196D01*
Y34661D01*
X197228D01*
Y29118D01*
X202104D01*
Y26681D01*
X202221Y26096D01*
X202552Y25600D01*
X204286Y23866D01*
Y22063D01*
X203318D01*
X202946Y22349D01*
X202095Y22701D01*
X201181Y22821D01*
X200267Y22701D01*
X199416Y22349D01*
X199044Y22063D01*
X197228D01*
Y16520D01*
X197651D01*
Y14780D01*
X192307D01*
Y14780D01*
X191945D01*
Y14780D01*
X190279D01*
Y11811D01*
X188779D01*
Y10311D01*
X185614D01*
Y9878D01*
X179121D01*
Y12008D01*
Y16520D01*
X186630D01*
Y22063D01*
X181754D01*
Y24500D01*
X181637Y25085D01*
X181306Y25581D01*
X179573Y27315D01*
Y29118D01*
X181177D01*
Y31890D01*
Y34661D01*
X177251D01*
Y37196D01*
X177839Y37647D01*
X178315Y38267D01*
X178614Y38989D01*
X178716Y39764D01*
X178614Y40539D01*
X178315Y41261D01*
X177839Y41881D01*
X177219Y42357D01*
X176497Y42656D01*
X175722Y42758D01*
X174947Y42656D01*
X174225Y42357D01*
X173605Y41881D01*
X173129Y41261D01*
X172830Y40539D01*
X172728Y39764D01*
X172830Y38989D01*
X173129Y38267D01*
X173605Y37647D01*
X174192Y37196D01*
Y34661D01*
X171638D01*
Y29118D01*
X176514D01*
Y26681D01*
X176630Y26096D01*
X176962Y25600D01*
X178695Y23866D01*
Y22063D01*
X177728D01*
X177356Y22349D01*
X176504Y22701D01*
X175591Y22821D01*
X174677Y22701D01*
X173826Y22349D01*
X173453Y22063D01*
X171638D01*
Y16520D01*
X172060D01*
Y13595D01*
X171472D01*
Y14780D01*
X165142D01*
Y14780D01*
X164779D01*
Y14780D01*
X163114D01*
Y11811D01*
X161614D01*
Y10311D01*
X158449D01*
Y9878D01*
X153530D01*
Y12008D01*
Y16520D01*
X161039D01*
Y22063D01*
X156163D01*
Y24500D01*
X156047Y25085D01*
X155715Y25581D01*
X153982Y27315D01*
Y29118D01*
X155587D01*
Y31890D01*
Y34661D01*
X151704D01*
Y37196D01*
X152292Y37647D01*
X152768Y38267D01*
X153067Y38989D01*
X153169Y39764D01*
X153067Y40539D01*
X152768Y41261D01*
X152292Y41881D01*
X151672Y42357D01*
X150950Y42656D01*
X150175Y42758D01*
X149400Y42656D01*
X148678Y42357D01*
X148058Y41881D01*
X147582Y41261D01*
X147283Y40539D01*
X147181Y39764D01*
X147283Y38989D01*
X147582Y38267D01*
X148058Y37647D01*
X148646Y37196D01*
Y34661D01*
X146047D01*
Y29118D01*
X150923D01*
Y26681D01*
X151040Y26096D01*
X151371Y25600D01*
X153104Y23866D01*
Y22063D01*
X152137D01*
X151765Y22349D01*
X150914Y22701D01*
X150000Y22821D01*
X149086Y22701D01*
X148235Y22349D01*
X147863Y22063D01*
X146047D01*
Y16520D01*
X146470D01*
Y14780D01*
X141126D01*
Y14780D01*
X140764D01*
Y14780D01*
X139098D01*
Y11811D01*
X137598D01*
Y10311D01*
X134433D01*
Y9878D01*
X127940D01*
Y12008D01*
Y16520D01*
X135449D01*
Y22063D01*
X130573D01*
Y24500D01*
X130456Y25085D01*
X130125Y25581D01*
X128392Y27315D01*
Y29118D01*
X129996D01*
Y31890D01*
Y34661D01*
X126157D01*
Y37196D01*
X126745Y37647D01*
X127221Y38267D01*
X127520Y38989D01*
X127622Y39764D01*
X127520Y40539D01*
X127221Y41261D01*
X126745Y41881D01*
X126125Y42357D01*
X125403Y42656D01*
X124628Y42758D01*
X123853Y42656D01*
X123131Y42357D01*
X122511Y41881D01*
X122035Y41261D01*
X121736Y40539D01*
X121634Y39764D01*
X121736Y38989D01*
X122035Y38267D01*
X122511Y37647D01*
X123099Y37196D01*
Y34661D01*
X120457D01*
Y29118D01*
X125333D01*
Y26681D01*
X125449Y26096D01*
X125781Y25600D01*
X127514Y23866D01*
Y22063D01*
X126547D01*
X126174Y22349D01*
X125323Y22701D01*
X124409Y22821D01*
X123496Y22701D01*
X122644Y22349D01*
X122272Y22063D01*
X120457D01*
Y16520D01*
X120879D01*
Y13595D01*
X119898D01*
Y14780D01*
X113567D01*
Y14780D01*
X113205D01*
Y14780D01*
X111539D01*
Y11811D01*
X110039D01*
Y10311D01*
X106874D01*
Y9878D01*
X102349D01*
Y12008D01*
Y16520D01*
X109858D01*
Y22063D01*
X104982D01*
Y24500D01*
X104866Y25085D01*
X104534Y25581D01*
X102801Y27315D01*
Y29118D01*
X104405D01*
Y31890D01*
Y34661D01*
X100611D01*
Y37196D01*
X101198Y37647D01*
X101674Y38267D01*
X101973Y38989D01*
X102076Y39764D01*
X101973Y40539D01*
X101674Y41261D01*
X101198Y41881D01*
X100578Y42357D01*
X99856Y42656D01*
X99081Y42758D01*
X98306Y42656D01*
X97584Y42357D01*
X96964Y41881D01*
X96488Y41261D01*
X96189Y40539D01*
X96087Y39764D01*
X96189Y38989D01*
X96488Y38267D01*
X96964Y37647D01*
X97552Y37196D01*
Y34661D01*
X94866D01*
Y29118D01*
X99742D01*
Y26681D01*
X99859Y26096D01*
X100190Y25600D01*
X101923Y23866D01*
Y22063D01*
X100956D01*
X100584Y22349D01*
X99733Y22701D01*
X98819Y22821D01*
X97905Y22701D01*
X97054Y22349D01*
X96682Y22063D01*
X94866D01*
Y16520D01*
X95289D01*
Y14780D01*
X90339D01*
Y14780D01*
X89976D01*
Y14780D01*
X88311D01*
Y11811D01*
X86811D01*
Y10311D01*
X83646D01*
Y9878D01*
X76758D01*
Y12008D01*
Y16520D01*
X84268D01*
Y22063D01*
X79392D01*
Y24500D01*
X79275Y25085D01*
X78944Y25581D01*
X77210Y27315D01*
Y29118D01*
X78815D01*
Y31890D01*
Y34661D01*
X75064D01*
Y37196D01*
X75652Y37647D01*
X76127Y38267D01*
X76427Y38989D01*
X76529Y39764D01*
X76427Y40539D01*
X76127Y41261D01*
X75652Y41881D01*
X75032Y42357D01*
X74309Y42656D01*
X73535Y42758D01*
X72760Y42656D01*
X72038Y42357D01*
X71417Y41881D01*
X70942Y41261D01*
X70642Y40539D01*
X70540Y39764D01*
X70642Y38989D01*
X70942Y38267D01*
X71417Y37647D01*
X72005Y37196D01*
Y34661D01*
X69276D01*
Y29118D01*
X74152D01*
Y26681D01*
X74268Y26096D01*
X74600Y25600D01*
X76333Y23866D01*
Y22063D01*
X75366D01*
X74993Y22349D01*
X74142Y22701D01*
X73228Y22821D01*
X72315Y22701D01*
X71463Y22349D01*
X71091Y22063D01*
X69276D01*
Y16520D01*
X69698D01*
Y14780D01*
X64748D01*
Y14780D01*
X64386D01*
Y14780D01*
X62721D01*
Y11811D01*
X61221D01*
Y10311D01*
X58055D01*
Y9878D01*
X51168D01*
Y12008D01*
Y16520D01*
X58677D01*
Y22063D01*
X53801D01*
Y24500D01*
X53685Y25085D01*
X53353Y25581D01*
X51620Y27315D01*
Y29118D01*
X53224D01*
Y31890D01*
Y34661D01*
X49517D01*
Y37196D01*
X50105Y37647D01*
X50581Y38267D01*
X50880Y38989D01*
X50982Y39764D01*
X50880Y40539D01*
X50581Y41261D01*
X50105Y41881D01*
X49485Y42357D01*
X48763Y42656D01*
X47988Y42758D01*
X47213Y42656D01*
X46491Y42357D01*
X45871Y41881D01*
X45395Y41261D01*
X45096Y40539D01*
X44994Y39764D01*
X45096Y38989D01*
X45395Y38267D01*
X45871Y37647D01*
X46458Y37196D01*
Y34661D01*
X43685D01*
Y29118D01*
X48561D01*
Y26681D01*
X48678Y26096D01*
X49009Y25600D01*
X50742Y23866D01*
Y22063D01*
X49775D01*
X49403Y22349D01*
X48551Y22701D01*
X47638Y22821D01*
X46724Y22701D01*
X45873Y22349D01*
X45500Y22063D01*
X43685D01*
Y16520D01*
X44108D01*
Y14780D01*
X38370D01*
Y14780D01*
X38008D01*
Y14780D01*
X36342D01*
Y11811D01*
X34843D01*
Y10311D01*
X31677D01*
Y9878D01*
X26204D01*
X26171Y9911D01*
Y16520D01*
X33087D01*
Y22063D01*
X28210D01*
Y24500D01*
X28094Y25085D01*
X27762Y25581D01*
X26029Y27315D01*
Y29118D01*
X27634D01*
Y31890D01*
Y34661D01*
X23970D01*
Y37196D01*
X24558Y37647D01*
X25034Y38267D01*
X25333Y38989D01*
X25435Y39764D01*
X25333Y40539D01*
X25034Y41261D01*
X24558Y41881D01*
X23938Y42357D01*
X23216Y42656D01*
X22441Y42758D01*
X21666Y42656D01*
X20944Y42357D01*
X20324Y41881D01*
X19848Y41261D01*
X19549Y40539D01*
X19447Y39764D01*
X19549Y38989D01*
X19848Y38267D01*
X20324Y37647D01*
X20911Y37196D01*
Y34661D01*
X18094D01*
Y29118D01*
X22971D01*
Y26681D01*
X23087Y26096D01*
X23419Y25600D01*
X25152Y23866D01*
Y22063D01*
X24184D01*
X23812Y22349D01*
X22961Y22701D01*
X22047Y22821D01*
X21134Y22701D01*
X20282Y22349D01*
X19910Y22063D01*
X18094D01*
Y17373D01*
X17896Y17241D01*
X17675Y16910D01*
X17597Y16520D01*
Y14780D01*
X13744D01*
X13722Y14892D01*
X13713Y14905D01*
X13709Y14920D01*
X13602Y15070D01*
X13500Y15223D01*
X13487Y15232D01*
X13478Y15244D01*
X13322Y15342D01*
X13170Y15444D01*
X13154Y15447D01*
X13141Y15455D01*
X12960Y15485D01*
X12779Y15521D01*
X12764Y15518D01*
X12749Y15521D01*
X12714Y15520D01*
X12532Y15478D01*
X12349Y15440D01*
X12338Y15433D01*
X12326Y15430D01*
X12174Y15322D01*
X12019Y15217D01*
X12012Y15207D01*
X12002Y15199D01*
X11903Y15041D01*
X11800Y14885D01*
X11798Y14873D01*
X11791Y14862D01*
X11778Y14780D01*
X8106D01*
Y16517D01*
X8106Y16520D01*
X8106Y16523D01*
X8066Y16716D01*
X8029Y16907D01*
X8027Y16910D01*
X8026Y16913D01*
X7916Y17076D01*
X7808Y17238D01*
X7805Y17240D01*
X7803Y17243D01*
X7639Y17351D01*
X7496Y17446D01*
Y19540D01*
X11093Y23137D01*
X12038D01*
X12071Y23094D01*
X12802Y22533D01*
X13653Y22181D01*
X14567Y22060D01*
X15481Y22181D01*
X16332Y22533D01*
X17063Y23094D01*
X17624Y23825D01*
X17977Y24677D01*
X18097Y25591D01*
X17977Y26504D01*
X17624Y27356D01*
X17063Y28087D01*
X16332Y28648D01*
X15481Y29000D01*
X14567Y29121D01*
X13653Y29000D01*
X12802Y28648D01*
X12071Y28087D01*
X11510Y27356D01*
X11240Y26705D01*
X10354D01*
X9671Y26569D01*
X9092Y26182D01*
X9092Y26182D01*
X4973Y22063D01*
X0D01*
Y29118D01*
X2043D01*
Y31890D01*
Y34661D01*
X0D01*
Y51181D01*
X255906D01*
Y34661D01*
D02*
G37*
G36*
X23547Y16520D02*
X25152D01*
Y0D01*
X0D01*
Y16473D01*
X7087Y16517D01*
Y14780D01*
X6087D01*
Y8843D01*
X12779D01*
X12745Y14501D01*
X12779Y14502D01*
Y13311D01*
X19110D01*
Y14780D01*
X18617D01*
Y16520D01*
X20547D01*
Y19291D01*
X23547D01*
Y16520D01*
D02*
G37*
G36*
X253862D02*
X255906D01*
Y0D01*
X243307D01*
X243497Y190D01*
Y8843D01*
X244366D01*
Y11811D01*
X245866D01*
Y13311D01*
X249031D01*
Y13800D01*
X249222Y13837D01*
X249553Y14059D01*
X249774Y14389D01*
X249852Y14780D01*
Y16520D01*
X250862D01*
Y19291D01*
X253862D01*
Y16520D01*
D02*
G37*
%LPC*%
G36*
X237811Y349622D02*
X235358D01*
Y348350D01*
X237811D01*
Y349622D01*
D02*
G37*
G36*
X212221D02*
X209768D01*
Y348350D01*
X212221D01*
Y349622D01*
D02*
G37*
G36*
X186630D02*
X184177D01*
Y348350D01*
X186630D01*
Y349622D01*
D02*
G37*
G36*
X161039D02*
X158587D01*
Y348350D01*
X161039D01*
Y349622D01*
D02*
G37*
G36*
X135449D02*
X132996D01*
Y348350D01*
X135449D01*
Y349622D01*
D02*
G37*
G36*
X109858D02*
X107405D01*
Y348350D01*
X109858D01*
Y349622D01*
D02*
G37*
G36*
X84268D02*
X81815D01*
Y348350D01*
X84268D01*
Y349622D01*
D02*
G37*
G36*
X58677D02*
X56224D01*
Y348350D01*
X58677D01*
Y349622D01*
D02*
G37*
G36*
X33087D02*
X30634D01*
Y348350D01*
X33087D01*
Y349622D01*
D02*
G37*
G36*
X7496D02*
X5043D01*
Y348350D01*
X7496D01*
Y349622D01*
D02*
G37*
G36*
X237811Y345350D02*
X235358D01*
Y344079D01*
X237811D01*
Y345350D01*
D02*
G37*
G36*
X212221D02*
X209768D01*
Y344079D01*
X212221D01*
Y345350D01*
D02*
G37*
G36*
X186630D02*
X184177D01*
Y344079D01*
X186630D01*
Y345350D01*
D02*
G37*
G36*
X161039D02*
X158587D01*
Y344079D01*
X161039D01*
Y345350D01*
D02*
G37*
G36*
X135449D02*
X132996D01*
Y344079D01*
X135449D01*
Y345350D01*
D02*
G37*
G36*
X109858D02*
X107405D01*
Y344079D01*
X109858D01*
Y345350D01*
D02*
G37*
G36*
X84268D02*
X81815D01*
Y344079D01*
X84268D01*
Y345350D01*
D02*
G37*
G36*
X58677D02*
X56224D01*
Y344079D01*
X58677D01*
Y345350D01*
D02*
G37*
G36*
X33087D02*
X30634D01*
Y344079D01*
X33087D01*
Y345350D01*
D02*
G37*
G36*
X7496D02*
X5043D01*
Y344079D01*
X7496D01*
Y345350D01*
D02*
G37*
G36*
X237673Y329740D02*
X236008D01*
Y328272D01*
X237673D01*
Y329740D01*
D02*
G37*
G36*
X212870D02*
X211205D01*
Y328272D01*
X212870D01*
Y329740D01*
D02*
G37*
G36*
X187279D02*
X185614D01*
Y328272D01*
X187279D01*
Y329740D01*
D02*
G37*
G36*
X160114D02*
X158449D01*
Y328272D01*
X160114D01*
Y329740D01*
D02*
G37*
G36*
X136098D02*
X134433D01*
Y328272D01*
X136098D01*
Y329740D01*
D02*
G37*
G36*
X108539D02*
X106874D01*
Y328272D01*
X108539D01*
Y329740D01*
D02*
G37*
G36*
X85311D02*
X83646D01*
Y328272D01*
X85311D01*
Y329740D01*
D02*
G37*
G36*
X59720D02*
X58055D01*
Y328272D01*
X59720D01*
Y329740D01*
D02*
G37*
G36*
X33342D02*
X31677D01*
Y328272D01*
X33342D01*
Y329740D01*
D02*
G37*
G36*
X19110Y325272D02*
X17445D01*
Y323803D01*
X19110D01*
Y325272D01*
D02*
G37*
G36*
X14445D02*
X12779D01*
Y323803D01*
X14445D01*
Y325272D01*
D02*
G37*
G36*
X249031D02*
X247366D01*
Y323803D01*
X249031D01*
Y325272D01*
D02*
G37*
G36*
X237811Y286630D02*
X235358D01*
Y285358D01*
X237811D01*
Y286630D01*
D02*
G37*
G36*
X212221D02*
X209768D01*
Y285358D01*
X212221D01*
Y286630D01*
D02*
G37*
G36*
X186630D02*
X184177D01*
Y285358D01*
X186630D01*
Y286630D01*
D02*
G37*
G36*
X161039D02*
X158587D01*
Y285358D01*
X161039D01*
Y286630D01*
D02*
G37*
G36*
X135449D02*
X132996D01*
Y285358D01*
X135449D01*
Y286630D01*
D02*
G37*
G36*
X109858D02*
X107405D01*
Y285358D01*
X109858D01*
Y286630D01*
D02*
G37*
G36*
X84268D02*
X81815D01*
Y285358D01*
X84268D01*
Y286630D01*
D02*
G37*
G36*
X58677D02*
X56224D01*
Y285358D01*
X58677D01*
Y286630D01*
D02*
G37*
G36*
X33087D02*
X30634D01*
Y285358D01*
X33087D01*
Y286630D01*
D02*
G37*
G36*
X7496D02*
X5043D01*
Y285358D01*
X7496D01*
Y286630D01*
D02*
G37*
G36*
X237811Y282358D02*
X235358D01*
Y281087D01*
X237811D01*
Y282358D01*
D02*
G37*
G36*
X212221D02*
X209768D01*
Y281087D01*
X212221D01*
Y282358D01*
D02*
G37*
G36*
X186630D02*
X184177D01*
Y281087D01*
X186630D01*
Y282358D01*
D02*
G37*
G36*
X161039D02*
X158587D01*
Y281087D01*
X161039D01*
Y282358D01*
D02*
G37*
G36*
X135449D02*
X132996D01*
Y281087D01*
X135449D01*
Y282358D01*
D02*
G37*
G36*
X109858D02*
X107405D01*
Y281087D01*
X109858D01*
Y282358D01*
D02*
G37*
G36*
X84268D02*
X81815D01*
Y281087D01*
X84268D01*
Y282358D01*
D02*
G37*
G36*
X58677D02*
X56224D01*
Y281087D01*
X58677D01*
Y282358D01*
D02*
G37*
G36*
X33087D02*
X30634D01*
Y281087D01*
X33087D01*
Y282358D01*
D02*
G37*
G36*
X7496D02*
X5043D01*
Y281087D01*
X7496D01*
Y282358D01*
D02*
G37*
G36*
X237673Y266748D02*
X236008D01*
Y265280D01*
X237673D01*
Y266748D01*
D02*
G37*
G36*
X212870D02*
X211205D01*
Y265280D01*
X212870D01*
Y266748D01*
D02*
G37*
G36*
X187279D02*
X185614D01*
Y265280D01*
X187279D01*
Y266748D01*
D02*
G37*
G36*
X160114D02*
X158449D01*
Y265280D01*
X160114D01*
Y266748D01*
D02*
G37*
G36*
X136098D02*
X134433D01*
Y265280D01*
X136098D01*
Y266748D01*
D02*
G37*
G36*
X108539D02*
X106874D01*
Y265280D01*
X108539D01*
Y266748D01*
D02*
G37*
G36*
X85311D02*
X83646D01*
Y265280D01*
X85311D01*
Y266748D01*
D02*
G37*
G36*
X59720D02*
X58055D01*
Y265280D01*
X59720D01*
Y266748D01*
D02*
G37*
G36*
X33342D02*
X31677D01*
Y265280D01*
X33342D01*
Y266748D01*
D02*
G37*
G36*
X19110Y262280D02*
X17445D01*
Y260811D01*
X19110D01*
Y262280D01*
D02*
G37*
G36*
X14445D02*
X12779D01*
Y260811D01*
X14445D01*
Y262280D01*
D02*
G37*
G36*
X249031D02*
X247366D01*
Y260811D01*
X249031D01*
Y262280D01*
D02*
G37*
G36*
X237811Y223638D02*
X235358D01*
Y222366D01*
X237811D01*
Y223638D01*
D02*
G37*
G36*
X212221D02*
X209768D01*
Y222366D01*
X212221D01*
Y223638D01*
D02*
G37*
G36*
X186630D02*
X184177D01*
Y222366D01*
X186630D01*
Y223638D01*
D02*
G37*
G36*
X161039D02*
X158587D01*
Y222366D01*
X161039D01*
Y223638D01*
D02*
G37*
G36*
X135449D02*
X132996D01*
Y222366D01*
X135449D01*
Y223638D01*
D02*
G37*
G36*
X109858D02*
X107405D01*
Y222366D01*
X109858D01*
Y223638D01*
D02*
G37*
G36*
X84268D02*
X81815D01*
Y222366D01*
X84268D01*
Y223638D01*
D02*
G37*
G36*
X58677D02*
X56224D01*
Y222366D01*
X58677D01*
Y223638D01*
D02*
G37*
G36*
X33087D02*
X30634D01*
Y222366D01*
X33087D01*
Y223638D01*
D02*
G37*
G36*
X7496D02*
X5043D01*
Y222366D01*
X7496D01*
Y223638D01*
D02*
G37*
G36*
X237811Y219366D02*
X235358D01*
Y218094D01*
X237811D01*
Y219366D01*
D02*
G37*
G36*
X212221D02*
X209768D01*
Y218094D01*
X212221D01*
Y219366D01*
D02*
G37*
G36*
X186630D02*
X184177D01*
Y218094D01*
X186630D01*
Y219366D01*
D02*
G37*
G36*
X161039D02*
X158587D01*
Y218094D01*
X161039D01*
Y219366D01*
D02*
G37*
G36*
X135449D02*
X132996D01*
Y218094D01*
X135449D01*
Y219366D01*
D02*
G37*
G36*
X109858D02*
X107405D01*
Y218094D01*
X109858D01*
Y219366D01*
D02*
G37*
G36*
X84268D02*
X81815D01*
Y218094D01*
X84268D01*
Y219366D01*
D02*
G37*
G36*
X58677D02*
X56224D01*
Y218094D01*
X58677D01*
Y219366D01*
D02*
G37*
G36*
X33087D02*
X30634D01*
Y218094D01*
X33087D01*
Y219366D01*
D02*
G37*
G36*
X7496D02*
X5043D01*
Y218094D01*
X7496D01*
Y219366D01*
D02*
G37*
G36*
X237673Y203756D02*
X236008D01*
Y202287D01*
X237673D01*
Y203756D01*
D02*
G37*
G36*
X212870D02*
X211205D01*
Y202287D01*
X212870D01*
Y203756D01*
D02*
G37*
G36*
X187279D02*
X185614D01*
Y202287D01*
X187279D01*
Y203756D01*
D02*
G37*
G36*
X160114D02*
X158449D01*
Y202287D01*
X160114D01*
Y203756D01*
D02*
G37*
G36*
X136098D02*
X134433D01*
Y202287D01*
X136098D01*
Y203756D01*
D02*
G37*
G36*
X108539D02*
X106874D01*
Y202287D01*
X108539D01*
Y203756D01*
D02*
G37*
G36*
X85311D02*
X83646D01*
Y202287D01*
X85311D01*
Y203756D01*
D02*
G37*
G36*
X59720D02*
X58055D01*
Y202287D01*
X59720D01*
Y203756D01*
D02*
G37*
G36*
X33342D02*
X31677D01*
Y202287D01*
X33342D01*
Y203756D01*
D02*
G37*
G36*
X19110Y199287D02*
X17445D01*
Y197819D01*
X19110D01*
Y199287D01*
D02*
G37*
G36*
X14445D02*
X12779D01*
Y197819D01*
X14445D01*
Y199287D01*
D02*
G37*
G36*
X249031D02*
X247366D01*
Y197819D01*
X249031D01*
Y199287D01*
D02*
G37*
G36*
X237811Y160646D02*
X235358D01*
Y159374D01*
X237811D01*
Y160646D01*
D02*
G37*
G36*
X212221D02*
X209768D01*
Y159374D01*
X212221D01*
Y160646D01*
D02*
G37*
G36*
X186630D02*
X184177D01*
Y159374D01*
X186630D01*
Y160646D01*
D02*
G37*
G36*
X161039D02*
X158587D01*
Y159374D01*
X161039D01*
Y160646D01*
D02*
G37*
G36*
X135449D02*
X132996D01*
Y159374D01*
X135449D01*
Y160646D01*
D02*
G37*
G36*
X109858D02*
X107405D01*
Y159374D01*
X109858D01*
Y160646D01*
D02*
G37*
G36*
X84268D02*
X81815D01*
Y159374D01*
X84268D01*
Y160646D01*
D02*
G37*
G36*
X58677D02*
X56224D01*
Y159374D01*
X58677D01*
Y160646D01*
D02*
G37*
G36*
X33087D02*
X30634D01*
Y159374D01*
X33087D01*
Y160646D01*
D02*
G37*
G36*
X7496D02*
X5043D01*
Y159374D01*
X7496D01*
Y160646D01*
D02*
G37*
G36*
X237811Y156374D02*
X235358D01*
Y155102D01*
X237811D01*
Y156374D01*
D02*
G37*
G36*
X212221D02*
X209768D01*
Y155102D01*
X212221D01*
Y156374D01*
D02*
G37*
G36*
X186630D02*
X184177D01*
Y155102D01*
X186630D01*
Y156374D01*
D02*
G37*
G36*
X161039D02*
X158587D01*
Y155102D01*
X161039D01*
Y156374D01*
D02*
G37*
G36*
X135449D02*
X132996D01*
Y155102D01*
X135449D01*
Y156374D01*
D02*
G37*
G36*
X109858D02*
X107405D01*
Y155102D01*
X109858D01*
Y156374D01*
D02*
G37*
G36*
X84268D02*
X81815D01*
Y155102D01*
X84268D01*
Y156374D01*
D02*
G37*
G36*
X58677D02*
X56224D01*
Y155102D01*
X58677D01*
Y156374D01*
D02*
G37*
G36*
X33087D02*
X30634D01*
Y155102D01*
X33087D01*
Y156374D01*
D02*
G37*
G36*
X7496D02*
X5043D01*
Y155102D01*
X7496D01*
Y156374D01*
D02*
G37*
G36*
X237673Y140764D02*
X236008D01*
Y139295D01*
X237673D01*
Y140764D01*
D02*
G37*
G36*
X212870D02*
X211205D01*
Y139295D01*
X212870D01*
Y140764D01*
D02*
G37*
G36*
X187279D02*
X185614D01*
Y139295D01*
X187279D01*
Y140764D01*
D02*
G37*
G36*
X160114D02*
X158449D01*
Y139295D01*
X160114D01*
Y140764D01*
D02*
G37*
G36*
X136098D02*
X134433D01*
Y139295D01*
X136098D01*
Y140764D01*
D02*
G37*
G36*
X108539D02*
X106874D01*
Y139295D01*
X108539D01*
Y140764D01*
D02*
G37*
G36*
X85311D02*
X83646D01*
Y139295D01*
X85311D01*
Y140764D01*
D02*
G37*
G36*
X59720D02*
X58055D01*
Y139295D01*
X59720D01*
Y140764D01*
D02*
G37*
G36*
X33342D02*
X31677D01*
Y139295D01*
X33342D01*
Y140764D01*
D02*
G37*
G36*
X19110Y136295D02*
X17445D01*
Y134827D01*
X19110D01*
Y136295D01*
D02*
G37*
G36*
X14445D02*
X12779D01*
Y134827D01*
X14445D01*
Y136295D01*
D02*
G37*
G36*
X249031D02*
X247366D01*
Y134827D01*
X249031D01*
Y136295D01*
D02*
G37*
G36*
X237811Y97654D02*
X235358D01*
Y96382D01*
X237811D01*
Y97654D01*
D02*
G37*
G36*
X212221D02*
X209768D01*
Y96382D01*
X212221D01*
Y97654D01*
D02*
G37*
G36*
X186630D02*
X184177D01*
Y96382D01*
X186630D01*
Y97654D01*
D02*
G37*
G36*
X161039D02*
X158587D01*
Y96382D01*
X161039D01*
Y97654D01*
D02*
G37*
G36*
X135449D02*
X132996D01*
Y96382D01*
X135449D01*
Y97654D01*
D02*
G37*
G36*
X109858D02*
X107405D01*
Y96382D01*
X109858D01*
Y97654D01*
D02*
G37*
G36*
X84268D02*
X81815D01*
Y96382D01*
X84268D01*
Y97654D01*
D02*
G37*
G36*
X58677D02*
X56224D01*
Y96382D01*
X58677D01*
Y97654D01*
D02*
G37*
G36*
X33087D02*
X30634D01*
Y96382D01*
X33087D01*
Y97654D01*
D02*
G37*
G36*
X7496D02*
X5043D01*
Y96382D01*
X7496D01*
Y97654D01*
D02*
G37*
G36*
X237811Y93382D02*
X235358D01*
Y92110D01*
X237811D01*
Y93382D01*
D02*
G37*
G36*
X212221D02*
X209768D01*
Y92110D01*
X212221D01*
Y93382D01*
D02*
G37*
G36*
X186630D02*
X184177D01*
Y92110D01*
X186630D01*
Y93382D01*
D02*
G37*
G36*
X161039D02*
X158587D01*
Y92110D01*
X161039D01*
Y93382D01*
D02*
G37*
G36*
X135449D02*
X132996D01*
Y92110D01*
X135449D01*
Y93382D01*
D02*
G37*
G36*
X109858D02*
X107405D01*
Y92110D01*
X109858D01*
Y93382D01*
D02*
G37*
G36*
X84268D02*
X81815D01*
Y92110D01*
X84268D01*
Y93382D01*
D02*
G37*
G36*
X58677D02*
X56224D01*
Y92110D01*
X58677D01*
Y93382D01*
D02*
G37*
G36*
X33087D02*
X30634D01*
Y92110D01*
X33087D01*
Y93382D01*
D02*
G37*
G36*
X7496D02*
X5043D01*
Y92110D01*
X7496D01*
Y93382D01*
D02*
G37*
G36*
X237673Y77772D02*
X236008D01*
Y76303D01*
X237673D01*
Y77772D01*
D02*
G37*
G36*
X212870D02*
X211205D01*
Y76303D01*
X212870D01*
Y77772D01*
D02*
G37*
G36*
X187279D02*
X185614D01*
Y76303D01*
X187279D01*
Y77772D01*
D02*
G37*
G36*
X160114D02*
X158449D01*
Y76303D01*
X160114D01*
Y77772D01*
D02*
G37*
G36*
X136098D02*
X134433D01*
Y76303D01*
X136098D01*
Y77772D01*
D02*
G37*
G36*
X108539D02*
X106874D01*
Y76303D01*
X108539D01*
Y77772D01*
D02*
G37*
G36*
X85311D02*
X83646D01*
Y76303D01*
X85311D01*
Y77772D01*
D02*
G37*
G36*
X59720D02*
X58055D01*
Y76303D01*
X59720D01*
Y77772D01*
D02*
G37*
G36*
X33342D02*
X31677D01*
Y76303D01*
X33342D01*
Y77772D01*
D02*
G37*
G36*
X19110Y73303D02*
X17445D01*
Y71835D01*
X19110D01*
Y73303D01*
D02*
G37*
G36*
X14445D02*
X12779D01*
Y71835D01*
X14445D01*
Y73303D01*
D02*
G37*
G36*
X249031D02*
X247366D01*
Y71835D01*
X249031D01*
Y73303D01*
D02*
G37*
G36*
X237811Y34661D02*
X235358D01*
Y33390D01*
X237811D01*
Y34661D01*
D02*
G37*
G36*
X212221D02*
X209768D01*
Y33390D01*
X212221D01*
Y34661D01*
D02*
G37*
G36*
X186630D02*
X184177D01*
Y33390D01*
X186630D01*
Y34661D01*
D02*
G37*
G36*
X161039D02*
X158587D01*
Y33390D01*
X161039D01*
Y34661D01*
D02*
G37*
G36*
X135449D02*
X132996D01*
Y33390D01*
X135449D01*
Y34661D01*
D02*
G37*
G36*
X109858D02*
X107405D01*
Y33390D01*
X109858D01*
Y34661D01*
D02*
G37*
G36*
X84268D02*
X81815D01*
Y33390D01*
X84268D01*
Y34661D01*
D02*
G37*
G36*
X58677D02*
X56224D01*
Y33390D01*
X58677D01*
Y34661D01*
D02*
G37*
G36*
X33087D02*
X30634D01*
Y33390D01*
X33087D01*
Y34661D01*
D02*
G37*
G36*
X7496D02*
X5043D01*
Y33390D01*
X7496D01*
Y34661D01*
D02*
G37*
G36*
X237811Y30390D02*
X235358D01*
Y29118D01*
X237811D01*
Y30390D01*
D02*
G37*
G36*
X212221D02*
X209768D01*
Y29118D01*
X212221D01*
Y30390D01*
D02*
G37*
G36*
X186630D02*
X184177D01*
Y29118D01*
X186630D01*
Y30390D01*
D02*
G37*
G36*
X161039D02*
X158587D01*
Y29118D01*
X161039D01*
Y30390D01*
D02*
G37*
G36*
X135449D02*
X132996D01*
Y29118D01*
X135449D01*
Y30390D01*
D02*
G37*
G36*
X109858D02*
X107405D01*
Y29118D01*
X109858D01*
Y30390D01*
D02*
G37*
G36*
X84268D02*
X81815D01*
Y29118D01*
X84268D01*
Y30390D01*
D02*
G37*
G36*
X58677D02*
X56224D01*
Y29118D01*
X58677D01*
Y30390D01*
D02*
G37*
G36*
X33087D02*
X30634D01*
Y29118D01*
X33087D01*
Y30390D01*
D02*
G37*
G36*
X7496D02*
X5043D01*
Y29118D01*
X7496D01*
Y30390D01*
D02*
G37*
G36*
X237673Y14780D02*
X236008D01*
Y13311D01*
X237673D01*
Y14780D01*
D02*
G37*
G36*
X212870D02*
X211205D01*
Y13311D01*
X212870D01*
Y14780D01*
D02*
G37*
G36*
X187279D02*
X185614D01*
Y13311D01*
X187279D01*
Y14780D01*
D02*
G37*
G36*
X160114D02*
X158449D01*
Y13311D01*
X160114D01*
Y14780D01*
D02*
G37*
G36*
X136098D02*
X134433D01*
Y13311D01*
X136098D01*
Y14780D01*
D02*
G37*
G36*
X108539D02*
X106874D01*
Y13311D01*
X108539D01*
Y14780D01*
D02*
G37*
G36*
X85311D02*
X83646D01*
Y13311D01*
X85311D01*
Y14780D01*
D02*
G37*
G36*
X59720D02*
X58055D01*
Y13311D01*
X59720D01*
Y14780D01*
D02*
G37*
G36*
X33342D02*
X31677D01*
Y13311D01*
X33342D01*
Y14780D01*
D02*
G37*
G36*
X19110Y10311D02*
X17445D01*
Y8843D01*
X19110D01*
Y10311D01*
D02*
G37*
G36*
X14445D02*
X12779D01*
Y8843D01*
X14445D01*
Y10311D01*
D02*
G37*
G36*
X249031D02*
X247366D01*
Y8843D01*
X249031D01*
Y10311D01*
D02*
G37*
%LPD*%
D10*
X150175Y39764D02*
D03*
X175722D02*
D03*
X201269D02*
D03*
X226815D02*
D03*
X124628D02*
D03*
X22441D02*
D03*
X47988D02*
D03*
X73535D02*
D03*
X99081D02*
D03*
X252362D02*
D03*
X150175Y102756D02*
D03*
X175722D02*
D03*
X201269D02*
D03*
X226815D02*
D03*
X124628D02*
D03*
X22441D02*
D03*
X47988D02*
D03*
X73535D02*
D03*
X99081D02*
D03*
X252362D02*
D03*
X150175Y165748D02*
D03*
X175722D02*
D03*
X201269D02*
D03*
X226815D02*
D03*
X124628D02*
D03*
X22441D02*
D03*
X47988D02*
D03*
X73535D02*
D03*
X99081D02*
D03*
X252362D02*
D03*
X150175Y228740D02*
D03*
X175722D02*
D03*
X201269D02*
D03*
X226815D02*
D03*
X124628D02*
D03*
X22441D02*
D03*
X47988D02*
D03*
X73535D02*
D03*
X99081D02*
D03*
X252362D02*
D03*
X150175Y291732D02*
D03*
X175722D02*
D03*
X201269D02*
D03*
X226815D02*
D03*
X124628D02*
D03*
X22441D02*
D03*
X47988D02*
D03*
X73535D02*
D03*
X99081D02*
D03*
X252362D02*
D03*
X150175Y354724D02*
D03*
X175722D02*
D03*
X201269D02*
D03*
X226815D02*
D03*
X124628D02*
D03*
X22441D02*
D03*
X47988D02*
D03*
X73535D02*
D03*
X99081D02*
D03*
X252362D02*
D03*
D11*
X208268Y31890D02*
D03*
Y19291D02*
D03*
X226772D02*
D03*
Y31890D02*
D03*
X182677D02*
D03*
Y19291D02*
D03*
X201181D02*
D03*
Y31890D02*
D03*
X157087D02*
D03*
Y19291D02*
D03*
X175591D02*
D03*
Y31890D02*
D03*
X131496D02*
D03*
Y19291D02*
D03*
X150000D02*
D03*
Y31890D02*
D03*
X105905D02*
D03*
Y19291D02*
D03*
X124409D02*
D03*
Y31890D02*
D03*
X80315D02*
D03*
Y19291D02*
D03*
X98819D02*
D03*
Y31890D02*
D03*
X54724D02*
D03*
Y19291D02*
D03*
X73228D02*
D03*
Y31890D02*
D03*
X29134D02*
D03*
Y19291D02*
D03*
X47638D02*
D03*
Y31890D02*
D03*
X233858D02*
D03*
Y19291D02*
D03*
X252362D02*
D03*
Y31890D02*
D03*
X3543D02*
D03*
Y19291D02*
D03*
X22047D02*
D03*
Y31890D02*
D03*
X208268Y94882D02*
D03*
Y82284D02*
D03*
X226772D02*
D03*
Y94882D02*
D03*
X182677D02*
D03*
Y82284D02*
D03*
X201181D02*
D03*
Y94882D02*
D03*
X157087D02*
D03*
Y82284D02*
D03*
X175591D02*
D03*
Y94882D02*
D03*
X131496D02*
D03*
Y82284D02*
D03*
X150000D02*
D03*
Y94882D02*
D03*
X105905D02*
D03*
Y82284D02*
D03*
X124409D02*
D03*
Y94882D02*
D03*
X80315D02*
D03*
Y82284D02*
D03*
X98819D02*
D03*
Y94882D02*
D03*
X54724D02*
D03*
Y82284D02*
D03*
X73228D02*
D03*
Y94882D02*
D03*
X29134D02*
D03*
Y82284D02*
D03*
X47638D02*
D03*
Y94882D02*
D03*
X233858D02*
D03*
Y82284D02*
D03*
X252362D02*
D03*
Y94882D02*
D03*
X3543D02*
D03*
Y82284D02*
D03*
X22047D02*
D03*
Y94882D02*
D03*
X208268Y157874D02*
D03*
Y145276D02*
D03*
X226772D02*
D03*
Y157874D02*
D03*
X182677D02*
D03*
Y145276D02*
D03*
X201181D02*
D03*
Y157874D02*
D03*
X157087D02*
D03*
Y145276D02*
D03*
X175591D02*
D03*
Y157874D02*
D03*
X131496D02*
D03*
Y145276D02*
D03*
X150000D02*
D03*
Y157874D02*
D03*
X105905D02*
D03*
Y145276D02*
D03*
X124409D02*
D03*
Y157874D02*
D03*
X80315D02*
D03*
Y145276D02*
D03*
X98819D02*
D03*
Y157874D02*
D03*
X54724D02*
D03*
Y145276D02*
D03*
X73228D02*
D03*
Y157874D02*
D03*
X29134D02*
D03*
Y145276D02*
D03*
X47638D02*
D03*
Y157874D02*
D03*
X233858D02*
D03*
Y145276D02*
D03*
X252362D02*
D03*
Y157874D02*
D03*
X3543D02*
D03*
Y145276D02*
D03*
X22047D02*
D03*
Y157874D02*
D03*
X208268Y220866D02*
D03*
Y208268D02*
D03*
X226772D02*
D03*
Y220866D02*
D03*
X182677D02*
D03*
Y208268D02*
D03*
X201181D02*
D03*
Y220866D02*
D03*
X157087D02*
D03*
Y208268D02*
D03*
X175591D02*
D03*
Y220866D02*
D03*
X131496D02*
D03*
Y208268D02*
D03*
X150000D02*
D03*
Y220866D02*
D03*
X105905D02*
D03*
Y208268D02*
D03*
X124409D02*
D03*
Y220866D02*
D03*
X80315D02*
D03*
Y208268D02*
D03*
X98819D02*
D03*
Y220866D02*
D03*
X54724D02*
D03*
Y208268D02*
D03*
X73228D02*
D03*
Y220866D02*
D03*
X29134D02*
D03*
Y208268D02*
D03*
X47638D02*
D03*
Y220866D02*
D03*
X233858D02*
D03*
Y208268D02*
D03*
X252362D02*
D03*
Y220866D02*
D03*
X3543D02*
D03*
Y208268D02*
D03*
X22047D02*
D03*
Y220866D02*
D03*
X208268Y283858D02*
D03*
Y271260D02*
D03*
X226772D02*
D03*
Y283858D02*
D03*
X182677D02*
D03*
Y271260D02*
D03*
X201181D02*
D03*
Y283858D02*
D03*
X157087D02*
D03*
Y271260D02*
D03*
X175591D02*
D03*
Y283858D02*
D03*
X131496D02*
D03*
Y271260D02*
D03*
X150000D02*
D03*
Y283858D02*
D03*
X105905D02*
D03*
Y271260D02*
D03*
X124409D02*
D03*
Y283858D02*
D03*
X80315D02*
D03*
Y271260D02*
D03*
X98819D02*
D03*
Y283858D02*
D03*
X54724D02*
D03*
Y271260D02*
D03*
X73228D02*
D03*
Y283858D02*
D03*
X29134D02*
D03*
Y271260D02*
D03*
X47638D02*
D03*
Y283858D02*
D03*
X233858D02*
D03*
Y271260D02*
D03*
X252362D02*
D03*
Y283858D02*
D03*
X3543D02*
D03*
Y271260D02*
D03*
X22047D02*
D03*
Y283858D02*
D03*
X208268Y346850D02*
D03*
Y334252D02*
D03*
X226772D02*
D03*
Y346850D02*
D03*
X182677D02*
D03*
Y334252D02*
D03*
X201181D02*
D03*
Y346850D02*
D03*
X157087D02*
D03*
Y334252D02*
D03*
X175591D02*
D03*
Y346850D02*
D03*
X131496D02*
D03*
Y334252D02*
D03*
X150000D02*
D03*
Y346850D02*
D03*
X105905D02*
D03*
Y334252D02*
D03*
X124409D02*
D03*
Y346850D02*
D03*
X80315D02*
D03*
Y334252D02*
D03*
X98819D02*
D03*
Y346850D02*
D03*
X54724D02*
D03*
Y334252D02*
D03*
X73228D02*
D03*
Y346850D02*
D03*
X29134D02*
D03*
Y334252D02*
D03*
X47638D02*
D03*
Y346850D02*
D03*
X233858D02*
D03*
Y334252D02*
D03*
X252362D02*
D03*
Y346850D02*
D03*
X3543D02*
D03*
Y334252D02*
D03*
X22047D02*
D03*
Y346850D02*
D03*
D12*
X214370Y11811D02*
D03*
X221063D02*
D03*
X188779D02*
D03*
X195472D02*
D03*
X239173D02*
D03*
X245866D02*
D03*
X161614D02*
D03*
X168307D02*
D03*
X137598D02*
D03*
X144291D02*
D03*
X110039D02*
D03*
X116732D02*
D03*
X86811D02*
D03*
X93504D02*
D03*
X61221D02*
D03*
X67913D02*
D03*
X34843D02*
D03*
X41535D02*
D03*
X9252D02*
D03*
X15945D02*
D03*
X214370Y74803D02*
D03*
X221063D02*
D03*
X188779D02*
D03*
X195472D02*
D03*
X239173D02*
D03*
X245866D02*
D03*
X161614D02*
D03*
X168307D02*
D03*
X137598D02*
D03*
X144291D02*
D03*
X110039D02*
D03*
X116732D02*
D03*
X86811D02*
D03*
X93504D02*
D03*
X61221D02*
D03*
X67913D02*
D03*
X34843D02*
D03*
X41535D02*
D03*
X9252D02*
D03*
X15945D02*
D03*
X214370Y137795D02*
D03*
X221063D02*
D03*
X188779D02*
D03*
X195472D02*
D03*
X239173D02*
D03*
X245866D02*
D03*
X161614D02*
D03*
X168307D02*
D03*
X137598D02*
D03*
X144291D02*
D03*
X110039D02*
D03*
X116732D02*
D03*
X86811D02*
D03*
X93504D02*
D03*
X61221D02*
D03*
X67913D02*
D03*
X34843D02*
D03*
X41535D02*
D03*
X9252D02*
D03*
X15945D02*
D03*
X214370Y200787D02*
D03*
X221063D02*
D03*
X188779D02*
D03*
X195472D02*
D03*
X239173D02*
D03*
X245866D02*
D03*
X161614D02*
D03*
X168307D02*
D03*
X137598D02*
D03*
X144291D02*
D03*
X110039D02*
D03*
X116732D02*
D03*
X86811D02*
D03*
X93504D02*
D03*
X61221D02*
D03*
X67913D02*
D03*
X34843D02*
D03*
X41535D02*
D03*
X9252D02*
D03*
X15945D02*
D03*
X214370Y263779D02*
D03*
X221063D02*
D03*
X188779D02*
D03*
X195472D02*
D03*
X239173D02*
D03*
X245866D02*
D03*
X161614D02*
D03*
X168307D02*
D03*
X137598D02*
D03*
X144291D02*
D03*
X110039D02*
D03*
X116732D02*
D03*
X86811D02*
D03*
X93504D02*
D03*
X61221D02*
D03*
X67913D02*
D03*
X34843D02*
D03*
X41535D02*
D03*
X9252D02*
D03*
X15945D02*
D03*
X214370Y326772D02*
D03*
X221063D02*
D03*
X188779D02*
D03*
X195472D02*
D03*
X239173D02*
D03*
X245866D02*
D03*
X161614D02*
D03*
X168307D02*
D03*
X137598D02*
D03*
X144291D02*
D03*
X110039D02*
D03*
X116732D02*
D03*
X86811D02*
D03*
X93504D02*
D03*
X61221D02*
D03*
X67913D02*
D03*
X34843D02*
D03*
X41535D02*
D03*
X9252D02*
D03*
X15945D02*
D03*
D13*
X9843Y17323D02*
X14110Y21590D01*
X14567D01*
X252362Y32283D02*
Y39764D01*
X226815Y32283D02*
Y39764D01*
X201269Y32283D02*
Y39764D01*
X175722Y32283D02*
Y39764D01*
X150175Y32283D02*
Y39764D01*
X124628Y32283D02*
Y39764D01*
X99081Y32283D02*
Y39764D01*
X73535Y32283D02*
Y39764D01*
X47988Y32283D02*
Y39764D01*
X22047Y31890D02*
X22441Y32283D01*
Y39764D01*
X231405Y19549D02*
X231547Y19407D01*
X231405Y19549D02*
Y24500D01*
X229224Y26681D02*
X231405Y24500D01*
X229224Y26681D02*
Y30618D01*
X227953Y31890D02*
X229224Y30618D01*
X226772Y31890D02*
X227953D01*
X205815Y19549D02*
X205956Y19407D01*
X205815Y19549D02*
Y24500D01*
X203634Y26681D02*
X205815Y24500D01*
X203634Y26681D02*
Y30618D01*
X202362Y31890D02*
X203634Y30618D01*
X201181Y31890D02*
X202362D01*
X180224Y19549D02*
X180366Y19407D01*
X180224Y19549D02*
Y24500D01*
X178043Y26681D02*
X180224Y24500D01*
X178043Y26681D02*
Y30618D01*
X176772Y31890D02*
X178043Y30618D01*
X175591Y31890D02*
X176772D01*
X154634Y19549D02*
X154775Y19407D01*
X154634Y19549D02*
Y24500D01*
X152453Y26681D02*
X154634Y24500D01*
X152453Y26681D02*
Y30618D01*
X151181Y31890D02*
X152453Y30618D01*
X150000Y31890D02*
X151181D01*
X129043Y19549D02*
X129185Y19407D01*
X129043Y19549D02*
Y24500D01*
X126862Y26681D02*
X129043Y24500D01*
X126862Y26681D02*
Y30618D01*
X125591Y31890D02*
X126862Y30618D01*
X124409Y31890D02*
X125591D01*
X103453Y19549D02*
X103594Y19407D01*
X103453Y19549D02*
Y24500D01*
X101272Y26681D02*
X103453Y24500D01*
X101272Y26681D02*
Y30618D01*
X100000Y31890D02*
X101272Y30618D01*
X98819Y31890D02*
X100000D01*
X77862Y19549D02*
X78004Y19407D01*
X77862Y19549D02*
Y24500D01*
X75681Y26681D02*
X77862Y24500D01*
X75681Y26681D02*
Y30618D01*
X74409Y31890D02*
X75681Y30618D01*
X73228Y31890D02*
X74409D01*
X52272Y19549D02*
X52413Y19407D01*
X52272Y19549D02*
Y24500D01*
X50091Y26681D02*
X52272Y24500D01*
X50091Y26681D02*
Y30618D01*
X48819Y31890D02*
X50091Y30618D01*
X47638Y31890D02*
X48819D01*
X22047D02*
X23228D01*
X24500Y30618D01*
Y26681D02*
Y30618D01*
Y26681D02*
X26681Y24500D01*
Y19549D02*
Y24500D01*
Y19549D02*
X26823Y19407D01*
X9843Y80315D02*
X14110Y84583D01*
X14567D01*
X252362Y95276D02*
Y102756D01*
X226815Y95276D02*
Y102756D01*
X201269Y95276D02*
Y102756D01*
X175722Y95276D02*
Y102756D01*
X150175Y95276D02*
Y102756D01*
X124628Y95276D02*
Y102756D01*
X99081Y95276D02*
Y102756D01*
X73535Y95276D02*
Y102756D01*
X47988Y95276D02*
Y102756D01*
X22047Y94882D02*
X22441Y95276D01*
Y102756D01*
X231405Y82541D02*
X231547Y82399D01*
X231405Y82541D02*
Y87492D01*
X229224Y89673D02*
X231405Y87492D01*
X229224Y89673D02*
Y93610D01*
X227953Y94882D02*
X229224Y93610D01*
X226772Y94882D02*
X227953D01*
X205815Y82541D02*
X205956Y82399D01*
X205815Y82541D02*
Y87492D01*
X203634Y89673D02*
X205815Y87492D01*
X203634Y89673D02*
Y93610D01*
X202362Y94882D02*
X203634Y93610D01*
X201181Y94882D02*
X202362D01*
X180224Y82541D02*
X180366Y82399D01*
X180224Y82541D02*
Y87492D01*
X178043Y89673D02*
X180224Y87492D01*
X178043Y89673D02*
Y93610D01*
X176772Y94882D02*
X178043Y93610D01*
X175591Y94882D02*
X176772D01*
X154634Y82541D02*
X154775Y82399D01*
X154634Y82541D02*
Y87492D01*
X152453Y89673D02*
X154634Y87492D01*
X152453Y89673D02*
Y93610D01*
X151181Y94882D02*
X152453Y93610D01*
X150000Y94882D02*
X151181D01*
X129043Y82541D02*
X129185Y82399D01*
X129043Y82541D02*
Y87492D01*
X126862Y89673D02*
X129043Y87492D01*
X126862Y89673D02*
Y93610D01*
X125591Y94882D02*
X126862Y93610D01*
X124409Y94882D02*
X125591D01*
X103453Y82541D02*
X103594Y82399D01*
X103453Y82541D02*
Y87492D01*
X101272Y89673D02*
X103453Y87492D01*
X101272Y89673D02*
Y93610D01*
X100000Y94882D02*
X101272Y93610D01*
X98819Y94882D02*
X100000D01*
X77862Y82541D02*
X78004Y82399D01*
X77862Y82541D02*
Y87492D01*
X75681Y89673D02*
X77862Y87492D01*
X75681Y89673D02*
Y93610D01*
X74409Y94882D02*
X75681Y93610D01*
X73228Y94882D02*
X74409D01*
X52272Y82541D02*
X52413Y82399D01*
X52272Y82541D02*
Y87492D01*
X50091Y89673D02*
X52272Y87492D01*
X50091Y89673D02*
Y93610D01*
X48819Y94882D02*
X50091Y93610D01*
X47638Y94882D02*
X48819D01*
X22047D02*
X23228D01*
X24500Y93610D01*
Y89673D02*
Y93610D01*
Y89673D02*
X26681Y87492D01*
Y82541D02*
Y87492D01*
Y82541D02*
X26823Y82399D01*
X9843Y143307D02*
X14110Y147575D01*
X14567D01*
X252362Y158268D02*
Y165748D01*
X226815Y158268D02*
Y165748D01*
X201269Y158268D02*
Y165748D01*
X175722Y158268D02*
Y165748D01*
X150175Y158268D02*
Y165748D01*
X124628Y158268D02*
Y165748D01*
X99081Y158268D02*
Y165748D01*
X73535Y158268D02*
Y165748D01*
X47988Y158268D02*
Y165748D01*
X22047Y157874D02*
X22441Y158268D01*
Y165748D01*
X231405Y145533D02*
X231547Y145391D01*
X231405Y145533D02*
Y150484D01*
X229224Y152665D02*
X231405Y150484D01*
X229224Y152665D02*
Y156602D01*
X227953Y157874D02*
X229224Y156602D01*
X226772Y157874D02*
X227953D01*
X205815Y145533D02*
X205956Y145391D01*
X205815Y145533D02*
Y150484D01*
X203634Y152665D02*
X205815Y150484D01*
X203634Y152665D02*
Y156602D01*
X202362Y157874D02*
X203634Y156602D01*
X201181Y157874D02*
X202362D01*
X180224Y145533D02*
X180366Y145391D01*
X180224Y145533D02*
Y150484D01*
X178043Y152665D02*
X180224Y150484D01*
X178043Y152665D02*
Y156602D01*
X176772Y157874D02*
X178043Y156602D01*
X175591Y157874D02*
X176772D01*
X154634Y145533D02*
X154775Y145391D01*
X154634Y145533D02*
Y150484D01*
X152453Y152665D02*
X154634Y150484D01*
X152453Y152665D02*
Y156602D01*
X151181Y157874D02*
X152453Y156602D01*
X150000Y157874D02*
X151181D01*
X129043Y145533D02*
X129185Y145391D01*
X129043Y145533D02*
Y150484D01*
X126862Y152665D02*
X129043Y150484D01*
X126862Y152665D02*
Y156602D01*
X125591Y157874D02*
X126862Y156602D01*
X124409Y157874D02*
X125591D01*
X103453Y145533D02*
X103594Y145391D01*
X103453Y145533D02*
Y150484D01*
X101272Y152665D02*
X103453Y150484D01*
X101272Y152665D02*
Y156602D01*
X100000Y157874D02*
X101272Y156602D01*
X98819Y157874D02*
X100000D01*
X77862Y145533D02*
X78004Y145391D01*
X77862Y145533D02*
Y150484D01*
X75681Y152665D02*
X77862Y150484D01*
X75681Y152665D02*
Y156602D01*
X74409Y157874D02*
X75681Y156602D01*
X73228Y157874D02*
X74409D01*
X52272Y145533D02*
X52413Y145391D01*
X52272Y145533D02*
Y150484D01*
X50091Y152665D02*
X52272Y150484D01*
X50091Y152665D02*
Y156602D01*
X48819Y157874D02*
X50091Y156602D01*
X47638Y157874D02*
X48819D01*
X22047D02*
X23228D01*
X24500Y156602D01*
Y152665D02*
Y156602D01*
Y152665D02*
X26681Y150484D01*
Y145533D02*
Y150484D01*
Y145533D02*
X26823Y145391D01*
X9843Y206299D02*
X14110Y210567D01*
X14567D01*
X252362Y221260D02*
Y228740D01*
X226815Y221260D02*
Y228740D01*
X201269Y221260D02*
Y228740D01*
X175722Y221260D02*
Y228740D01*
X150175Y221260D02*
Y228740D01*
X124628Y221260D02*
Y228740D01*
X99081Y221260D02*
Y228740D01*
X73535Y221260D02*
Y228740D01*
X47988Y221260D02*
Y228740D01*
X22047Y220866D02*
X22441Y221260D01*
Y228740D01*
X231405Y208525D02*
X231547Y208384D01*
X231405Y208525D02*
Y213476D01*
X229224Y215657D02*
X231405Y213476D01*
X229224Y215657D02*
Y219595D01*
X227953Y220866D02*
X229224Y219595D01*
X226772Y220866D02*
X227953D01*
X205815Y208525D02*
X205956Y208384D01*
X205815Y208525D02*
Y213476D01*
X203634Y215657D02*
X205815Y213476D01*
X203634Y215657D02*
Y219595D01*
X202362Y220866D02*
X203634Y219595D01*
X201181Y220866D02*
X202362D01*
X180224Y208525D02*
X180366Y208384D01*
X180224Y208525D02*
Y213476D01*
X178043Y215657D02*
X180224Y213476D01*
X178043Y215657D02*
Y219595D01*
X176772Y220866D02*
X178043Y219595D01*
X175591Y220866D02*
X176772D01*
X154634Y208525D02*
X154775Y208384D01*
X154634Y208525D02*
Y213476D01*
X152453Y215657D02*
X154634Y213476D01*
X152453Y215657D02*
Y219595D01*
X151181Y220866D02*
X152453Y219595D01*
X150000Y220866D02*
X151181D01*
X129043Y208525D02*
X129185Y208384D01*
X129043Y208525D02*
Y213476D01*
X126862Y215657D02*
X129043Y213476D01*
X126862Y215657D02*
Y219595D01*
X125591Y220866D02*
X126862Y219595D01*
X124409Y220866D02*
X125591D01*
X103453Y208525D02*
X103594Y208384D01*
X103453Y208525D02*
Y213476D01*
X101272Y215657D02*
X103453Y213476D01*
X101272Y215657D02*
Y219595D01*
X100000Y220866D02*
X101272Y219595D01*
X98819Y220866D02*
X100000D01*
X77862Y208525D02*
X78004Y208384D01*
X77862Y208525D02*
Y213476D01*
X75681Y215657D02*
X77862Y213476D01*
X75681Y215657D02*
Y219595D01*
X74409Y220866D02*
X75681Y219595D01*
X73228Y220866D02*
X74409D01*
X52272Y208525D02*
X52413Y208384D01*
X52272Y208525D02*
Y213476D01*
X50091Y215657D02*
X52272Y213476D01*
X50091Y215657D02*
Y219595D01*
X48819Y220866D02*
X50091Y219595D01*
X47638Y220866D02*
X48819D01*
X22047D02*
X23228D01*
X24500Y219595D01*
Y215657D02*
Y219595D01*
Y215657D02*
X26681Y213476D01*
Y208525D02*
Y213476D01*
Y208525D02*
X26823Y208384D01*
X9843Y269291D02*
X14110Y273559D01*
X14567D01*
X252362Y284252D02*
Y291732D01*
X226815Y284252D02*
Y291732D01*
X201269Y284252D02*
Y291732D01*
X175722Y284252D02*
Y291732D01*
X150175Y284252D02*
Y291732D01*
X124628Y284252D02*
Y291732D01*
X99081Y284252D02*
Y291732D01*
X73535Y284252D02*
Y291732D01*
X47988Y284252D02*
Y291732D01*
X22047Y283858D02*
X22441Y284252D01*
Y291732D01*
X231405Y271517D02*
X231547Y271376D01*
X231405Y271517D02*
Y276468D01*
X229224Y278650D02*
X231405Y276468D01*
X229224Y278650D02*
Y282587D01*
X227953Y283858D02*
X229224Y282587D01*
X226772Y283858D02*
X227953D01*
X205815Y271517D02*
X205956Y271376D01*
X205815Y271517D02*
Y276468D01*
X203634Y278650D02*
X205815Y276468D01*
X203634Y278650D02*
Y282587D01*
X202362Y283858D02*
X203634Y282587D01*
X201181Y283858D02*
X202362D01*
X180224Y271517D02*
X180366Y271376D01*
X180224Y271517D02*
Y276468D01*
X178043Y278650D02*
X180224Y276468D01*
X178043Y278650D02*
Y282587D01*
X176772Y283858D02*
X178043Y282587D01*
X175591Y283858D02*
X176772D01*
X154634Y271517D02*
X154775Y271376D01*
X154634Y271517D02*
Y276468D01*
X152453Y278650D02*
X154634Y276468D01*
X152453Y278650D02*
Y282587D01*
X151181Y283858D02*
X152453Y282587D01*
X150000Y283858D02*
X151181D01*
X129043Y271517D02*
X129185Y271376D01*
X129043Y271517D02*
Y276468D01*
X126862Y278650D02*
X129043Y276468D01*
X126862Y278650D02*
Y282587D01*
X125591Y283858D02*
X126862Y282587D01*
X124409Y283858D02*
X125591D01*
X103453Y271517D02*
X103594Y271376D01*
X103453Y271517D02*
Y276468D01*
X101272Y278650D02*
X103453Y276468D01*
X101272Y278650D02*
Y282587D01*
X100000Y283858D02*
X101272Y282587D01*
X98819Y283858D02*
X100000D01*
X77862Y271517D02*
X78004Y271376D01*
X77862Y271517D02*
Y276468D01*
X75681Y278650D02*
X77862Y276468D01*
X75681Y278650D02*
Y282587D01*
X74409Y283858D02*
X75681Y282587D01*
X73228Y283858D02*
X74409D01*
X52272Y271517D02*
X52413Y271376D01*
X52272Y271517D02*
Y276468D01*
X50091Y278650D02*
X52272Y276468D01*
X50091Y278650D02*
Y282587D01*
X48819Y283858D02*
X50091Y282587D01*
X47638Y283858D02*
X48819D01*
X22047D02*
X23228D01*
X24500Y282587D01*
Y278650D02*
Y282587D01*
Y278650D02*
X26681Y276468D01*
Y271517D02*
Y276468D01*
Y271517D02*
X26823Y271376D01*
X9843Y332283D02*
X14110Y336551D01*
X14567D01*
X252362Y347244D02*
Y354724D01*
X226815Y347244D02*
Y354724D01*
X201269Y347244D02*
Y354724D01*
X175722Y347244D02*
Y354724D01*
X150175Y347244D02*
Y354724D01*
X124628Y347244D02*
Y354724D01*
X99081Y347244D02*
Y354724D01*
X73535Y347244D02*
Y354724D01*
X47988Y347244D02*
Y354724D01*
X22047Y346850D02*
X22441Y347244D01*
Y354724D01*
X231405Y334509D02*
X231547Y334368D01*
X231405Y334509D02*
Y339461D01*
X229224Y341642D02*
X231405Y339461D01*
X229224Y341642D02*
Y345579D01*
X227953Y346850D02*
X229224Y345579D01*
X226772Y346850D02*
X227953D01*
X205815Y334509D02*
X205956Y334368D01*
X205815Y334509D02*
Y339461D01*
X203634Y341642D02*
X205815Y339461D01*
X203634Y341642D02*
Y345579D01*
X202362Y346850D02*
X203634Y345579D01*
X201181Y346850D02*
X202362D01*
X180224Y334509D02*
X180366Y334368D01*
X180224Y334509D02*
Y339461D01*
X178043Y341642D02*
X180224Y339461D01*
X178043Y341642D02*
Y345579D01*
X176772Y346850D02*
X178043Y345579D01*
X175591Y346850D02*
X176772D01*
X154634Y334509D02*
X154775Y334368D01*
X154634Y334509D02*
Y339461D01*
X152453Y341642D02*
X154634Y339461D01*
X152453Y341642D02*
Y345579D01*
X151181Y346850D02*
X152453Y345579D01*
X150000Y346850D02*
X151181D01*
X129043Y334509D02*
X129185Y334368D01*
X129043Y334509D02*
Y339461D01*
X126862Y341642D02*
X129043Y339461D01*
X126862Y341642D02*
Y345579D01*
X125591Y346850D02*
X126862Y345579D01*
X124409Y346850D02*
X125591D01*
X103453Y334509D02*
X103594Y334368D01*
X103453Y334509D02*
Y339461D01*
X101272Y341642D02*
X103453Y339461D01*
X101272Y341642D02*
Y345579D01*
X100000Y346850D02*
X101272Y345579D01*
X98819Y346850D02*
X100000D01*
X77862Y334509D02*
X78004Y334368D01*
X77862Y334509D02*
Y339461D01*
X75681Y341642D02*
X77862Y339461D01*
X75681Y341642D02*
Y345579D01*
X74409Y346850D02*
X75681Y345579D01*
X73228Y346850D02*
X74409D01*
X52272Y334509D02*
X52413Y334368D01*
X52272Y334509D02*
Y339461D01*
X50091Y341642D02*
X52272Y339461D01*
X50091Y341642D02*
Y345579D01*
X48819Y346850D02*
X50091Y345579D01*
X47638Y346850D02*
X48819D01*
X22047D02*
X23228D01*
X24500Y345579D01*
Y341642D02*
Y345579D01*
Y341642D02*
X26681Y339461D01*
Y334509D02*
Y339461D01*
Y334509D02*
X26823Y334368D01*
D14*
X9252Y11811D02*
X9843Y12402D01*
X9252Y74803D02*
X9843Y75394D01*
X9252Y137795D02*
X9843Y138386D01*
X9252Y200787D02*
X9843Y201378D01*
X9252Y263779D02*
X9843Y264370D01*
X9252Y326772D02*
X9843Y327362D01*
D15*
Y12402D02*
Y17323D01*
Y75394D02*
Y80315D01*
Y138386D02*
Y143307D01*
Y201378D02*
Y206299D01*
Y264370D02*
Y269291D01*
Y327362D02*
Y332283D01*
D16*
X201181Y4331D02*
X226772D01*
X175591D02*
X201181D01*
X150000D02*
X175591D01*
X226772D02*
X249433D01*
X124409D02*
X150000D01*
X73228D02*
X98819D01*
X124409D01*
X47244D02*
X73228D01*
X24976D02*
X47244D01*
X201181Y67323D02*
X226772D01*
X175591D02*
X201181D01*
X150000D02*
X175591D01*
X226772D02*
X249433D01*
X124409D02*
X150000D01*
X73228D02*
X98819D01*
X124409D01*
X47244D02*
X73228D01*
X24976D02*
X47244D01*
X201181Y130315D02*
X226772D01*
X175591D02*
X201181D01*
X150000D02*
X175591D01*
X226772D02*
X249433D01*
X124409D02*
X150000D01*
X73228D02*
X98819D01*
X124409D01*
X47244D02*
X73228D01*
X24976D02*
X47244D01*
X201181Y193307D02*
X226772D01*
X175591D02*
X201181D01*
X150000D02*
X175591D01*
X226772D02*
X249433D01*
X124409D02*
X150000D01*
X73228D02*
X98819D01*
X124409D01*
X47244D02*
X73228D01*
X24976D02*
X47244D01*
X201181Y256299D02*
X226772D01*
X175591D02*
X201181D01*
X150000D02*
X175591D01*
X226772D02*
X249433D01*
X124409D02*
X150000D01*
X73228D02*
X98819D01*
X124409D01*
X47244D02*
X73228D01*
X24976D02*
X47244D01*
X201181Y319291D02*
X226772D01*
X175591D02*
X201181D01*
X150000D02*
X175591D01*
X226772D02*
X249433D01*
X124409D02*
X150000D01*
X73228D02*
X98819D01*
X124409D01*
X47244D02*
X73228D01*
X24976D02*
X47244D01*
D17*
X22047Y7260D02*
X24976Y4331D01*
X249433D02*
X252362Y7260D01*
X22047Y70252D02*
X24976Y67323D01*
X249433D02*
X252362Y70252D01*
X22047Y133244D02*
X24976Y130315D01*
X249433D02*
X252362Y133244D01*
X22047Y196236D02*
X24976Y193307D01*
X249433D02*
X252362Y196236D01*
X22047Y259228D02*
X24976Y256299D01*
X249433D02*
X252362Y259228D01*
X22047Y322220D02*
X24976Y319291D01*
X249433D02*
X252362Y322220D01*
D18*
X251181Y31890D02*
X252362D01*
X245158Y25866D02*
X251181Y31890D01*
X242402Y25866D02*
X245158D01*
X241732Y25197D02*
X242402Y25866D01*
X3543Y19291D02*
X4724D01*
X10354Y24921D01*
X13897D01*
X14567Y25591D01*
X245866Y11811D02*
X252362D01*
X221063D02*
X226575D01*
X226772Y12008D01*
X195472Y11811D02*
X200984D01*
X201181Y12008D01*
X168307Y11811D02*
X175394D01*
X175591Y12008D01*
X144291Y11811D02*
X149803D01*
X150000Y12008D01*
X116732Y11811D02*
X124213D01*
X124409Y12008D01*
X93504Y11811D02*
X98622D01*
X98819Y12008D01*
X67913Y11811D02*
X73032D01*
X73228Y12008D01*
X41535Y11811D02*
X47441D01*
X47638Y12008D01*
X15945Y11811D02*
X22047D01*
X251181Y94882D02*
X252362D01*
X245158Y88859D02*
X251181Y94882D01*
X242402Y88859D02*
X245158D01*
X241732Y88189D02*
X242402Y88859D01*
X3543Y82284D02*
X4724D01*
X10354Y87913D01*
X13897D01*
X14567Y88583D01*
X245866Y74803D02*
X252362D01*
X221063D02*
X226575D01*
X226772Y75000D01*
X195472Y74803D02*
X200984D01*
X201181Y75000D01*
X168307Y74803D02*
X175394D01*
X175591Y75000D01*
X144291Y74803D02*
X149803D01*
X150000Y75000D01*
X116732Y74803D02*
X124213D01*
X124409Y75000D01*
X93504Y74803D02*
X98622D01*
X98819Y75000D01*
X67913Y74803D02*
X73032D01*
X73228Y75000D01*
X41535Y74803D02*
X47441D01*
X47638Y75000D01*
X15945Y74803D02*
X22047D01*
X251181Y157874D02*
X252362D01*
X245158Y151851D02*
X251181Y157874D01*
X242402Y151851D02*
X245158D01*
X241732Y151181D02*
X242402Y151851D01*
X3543Y145276D02*
X4724D01*
X10354Y150905D01*
X13897D01*
X14567Y151575D01*
X245866Y137795D02*
X252362D01*
X221063D02*
X226575D01*
X226772Y137992D01*
X195472Y137795D02*
X200984D01*
X201181Y137992D01*
X168307Y137795D02*
X175394D01*
X175591Y137992D01*
X144291Y137795D02*
X149803D01*
X150000Y137992D01*
X116732Y137795D02*
X124213D01*
X124409Y137992D01*
X93504Y137795D02*
X98622D01*
X98819Y137992D01*
X67913Y137795D02*
X73032D01*
X73228Y137992D01*
X41535Y137795D02*
X47441D01*
X47638Y137992D01*
X15945Y137795D02*
X22047D01*
X251181Y220866D02*
X252362D01*
X245158Y214843D02*
X251181Y220866D01*
X242402Y214843D02*
X245158D01*
X241732Y214173D02*
X242402Y214843D01*
X3543Y208268D02*
X4724D01*
X10354Y213897D01*
X13897D01*
X14567Y214567D01*
X245866Y200787D02*
X252362D01*
X221063D02*
X226575D01*
X226772Y200984D01*
X195472Y200787D02*
X200984D01*
X201181Y200984D01*
X168307Y200787D02*
X175394D01*
X175591Y200984D01*
X144291Y200787D02*
X149803D01*
X150000Y200984D01*
X116732Y200787D02*
X124213D01*
X124409Y200984D01*
X93504Y200787D02*
X98622D01*
X98819Y200984D01*
X67913Y200787D02*
X73032D01*
X73228Y200984D01*
X41535Y200787D02*
X47441D01*
X47638Y200984D01*
X15945Y200787D02*
X22047D01*
X251181Y283858D02*
X252362D01*
X245158Y277835D02*
X251181Y283858D01*
X242402Y277835D02*
X245158D01*
X241732Y277165D02*
X242402Y277835D01*
X3543Y271260D02*
X4724D01*
X10354Y276889D01*
X13897D01*
X14567Y277559D01*
X245866Y263779D02*
X252362D01*
X221063D02*
X226575D01*
X226772Y263976D01*
X195472Y263779D02*
X200984D01*
X201181Y263976D01*
X168307Y263779D02*
X175394D01*
X175591Y263976D01*
X144291Y263779D02*
X149803D01*
X150000Y263976D01*
X116732Y263779D02*
X124213D01*
X124409Y263976D01*
X93504Y263779D02*
X98622D01*
X98819Y263976D01*
X67913Y263779D02*
X73032D01*
X73228Y263976D01*
X41535Y263779D02*
X47441D01*
X47638Y263976D01*
X15945Y263779D02*
X22047D01*
X251181Y346850D02*
X252362D01*
X245158Y340827D02*
X251181Y346850D01*
X242402Y340827D02*
X245158D01*
X241732Y340158D02*
X242402Y340827D01*
X3543Y334252D02*
X4724D01*
X10354Y339881D01*
X13897D01*
X14567Y340551D01*
X245866Y326772D02*
X252362D01*
X221063D02*
X226575D01*
X226772Y326969D01*
X195472Y326772D02*
X200984D01*
X201181Y326969D01*
X168307Y326772D02*
X175394D01*
X175591Y326969D01*
X144291Y326772D02*
X149803D01*
X150000Y326969D01*
X116732Y326772D02*
X124213D01*
X124409Y326969D01*
X93504Y326772D02*
X98622D01*
X98819Y326969D01*
X67913Y326772D02*
X73032D01*
X73228Y326969D01*
X41535Y326772D02*
X47441D01*
X47638Y326969D01*
X15945Y326772D02*
X22047D01*
D19*
X252362Y11811D02*
Y19291D01*
Y7260D02*
Y11811D01*
X226772Y12008D02*
Y19291D01*
Y4724D02*
Y12008D01*
X201181D02*
Y19291D01*
Y4724D02*
Y12008D01*
X175591D02*
Y19291D01*
Y4724D02*
Y12008D01*
X150000D02*
Y19291D01*
Y4724D02*
Y12008D01*
X124409D02*
Y19291D01*
Y4724D02*
Y12008D01*
X98819D02*
Y19291D01*
Y4724D02*
Y12008D01*
X73228D02*
Y19291D01*
Y4724D02*
Y12008D01*
X47638D02*
Y19291D01*
Y4724D02*
Y12008D01*
X22047Y11811D02*
Y19291D01*
Y7260D02*
Y11811D01*
X47244Y4331D02*
X47638Y4724D01*
X252362Y74803D02*
Y82284D01*
Y70252D02*
Y74803D01*
X226772Y75000D02*
Y82284D01*
Y67716D02*
Y75000D01*
X201181D02*
Y82284D01*
Y67716D02*
Y75000D01*
X175591D02*
Y82284D01*
Y67716D02*
Y75000D01*
X150000D02*
Y82284D01*
Y67716D02*
Y75000D01*
X124409D02*
Y82284D01*
Y67716D02*
Y75000D01*
X98819D02*
Y82284D01*
Y67716D02*
Y75000D01*
X73228D02*
Y82284D01*
Y67716D02*
Y75000D01*
X47638D02*
Y82284D01*
Y67716D02*
Y75000D01*
X22047Y74803D02*
Y82284D01*
Y70252D02*
Y74803D01*
X47244Y67323D02*
X47638Y67716D01*
X252362Y137795D02*
Y145276D01*
Y133244D02*
Y137795D01*
X226772Y137992D02*
Y145276D01*
Y130709D02*
Y137992D01*
X201181D02*
Y145276D01*
Y130709D02*
Y137992D01*
X175591D02*
Y145276D01*
Y130709D02*
Y137992D01*
X150000D02*
Y145276D01*
Y130709D02*
Y137992D01*
X124409D02*
Y145276D01*
Y130709D02*
Y137992D01*
X98819D02*
Y145276D01*
Y130709D02*
Y137992D01*
X73228D02*
Y145276D01*
Y130709D02*
Y137992D01*
X47638D02*
Y145276D01*
Y130709D02*
Y137992D01*
X22047Y137795D02*
Y145276D01*
Y133244D02*
Y137795D01*
X47244Y130315D02*
X47638Y130709D01*
X252362Y200787D02*
Y208268D01*
Y196236D02*
Y200787D01*
X226772Y200984D02*
Y208268D01*
Y193701D02*
Y200984D01*
X201181D02*
Y208268D01*
Y193701D02*
Y200984D01*
X175591D02*
Y208268D01*
Y193701D02*
Y200984D01*
X150000D02*
Y208268D01*
Y193701D02*
Y200984D01*
X124409D02*
Y208268D01*
Y193701D02*
Y200984D01*
X98819D02*
Y208268D01*
Y193701D02*
Y200984D01*
X73228D02*
Y208268D01*
Y193701D02*
Y200984D01*
X47638D02*
Y208268D01*
Y193701D02*
Y200984D01*
X22047Y200787D02*
Y208268D01*
Y196236D02*
Y200787D01*
X47244Y193307D02*
X47638Y193701D01*
X252362Y263779D02*
Y271260D01*
Y259228D02*
Y263779D01*
X226772Y263976D02*
Y271260D01*
Y256693D02*
Y263976D01*
X201181D02*
Y271260D01*
Y256693D02*
Y263976D01*
X175591D02*
Y271260D01*
Y256693D02*
Y263976D01*
X150000D02*
Y271260D01*
Y256693D02*
Y263976D01*
X124409D02*
Y271260D01*
Y256693D02*
Y263976D01*
X98819D02*
Y271260D01*
Y256693D02*
Y263976D01*
X73228D02*
Y271260D01*
Y256693D02*
Y263976D01*
X47638D02*
Y271260D01*
Y256693D02*
Y263976D01*
X22047Y263779D02*
Y271260D01*
Y259228D02*
Y263779D01*
X47244Y256299D02*
X47638Y256693D01*
X252362Y326772D02*
Y334252D01*
Y322220D02*
Y326772D01*
X226772Y326969D02*
Y334252D01*
Y319685D02*
Y326969D01*
X201181D02*
Y334252D01*
Y319685D02*
Y326969D01*
X175591D02*
Y334252D01*
Y319685D02*
Y326969D01*
X150000D02*
Y334252D01*
Y319685D02*
Y326969D01*
X124409D02*
Y334252D01*
Y319685D02*
Y326969D01*
X98819D02*
Y334252D01*
Y319685D02*
Y326969D01*
X73228D02*
Y334252D01*
Y319685D02*
Y326969D01*
X47638D02*
Y334252D01*
Y319685D02*
Y326969D01*
X22047Y326772D02*
Y334252D01*
Y322220D02*
Y326772D01*
X47244Y319291D02*
X47638Y319685D01*
D20*
X179134Y62992D02*
D03*
X182283D02*
D03*
X185433D02*
D03*
X179134Y51181D02*
D03*
X182283D02*
D03*
X185433D02*
D03*
X80709Y62992D02*
D03*
X83858D02*
D03*
X87008D02*
D03*
X80709Y51181D02*
D03*
X83858D02*
D03*
X87008D02*
D03*
X80709Y125984D02*
D03*
X83858D02*
D03*
X87008D02*
D03*
X80709Y114173D02*
D03*
X83858D02*
D03*
X87008D02*
D03*
X179140Y125695D02*
D03*
X182290D02*
D03*
X185439D02*
D03*
X179140Y113884D02*
D03*
X182290D02*
D03*
X185439D02*
D03*
X179134Y188976D02*
D03*
X182283D02*
D03*
X185433D02*
D03*
X179134Y177165D02*
D03*
X182283D02*
D03*
X185433D02*
D03*
X80709Y188976D02*
D03*
X83858D02*
D03*
X87008D02*
D03*
X80709Y177165D02*
D03*
X83858D02*
D03*
X87008D02*
D03*
X80709Y251969D02*
D03*
X83858D02*
D03*
X87008D02*
D03*
X80709Y240158D02*
D03*
X83858D02*
D03*
X87008D02*
D03*
X179134Y251969D02*
D03*
X182283D02*
D03*
X185433D02*
D03*
X179134Y240158D02*
D03*
X182283D02*
D03*
X185433D02*
D03*
X179134Y314961D02*
D03*
X182283D02*
D03*
X185433D02*
D03*
X179134Y303150D02*
D03*
X182283D02*
D03*
X185433D02*
D03*
X87008D02*
D03*
X83858D02*
D03*
X80709D02*
D03*
X87008Y314961D02*
D03*
X83858D02*
D03*
X80709D02*
D03*
X77559Y51181D02*
D03*
X74410D02*
D03*
X71260D02*
D03*
X68110D02*
D03*
X68110Y62992D02*
D03*
X71260D02*
D03*
X74410D02*
D03*
X77559D02*
D03*
X166535D02*
D03*
X169685D02*
D03*
X172835D02*
D03*
X175984D02*
D03*
X175984Y51181D02*
D03*
X172835D02*
D03*
X169685D02*
D03*
X166535D02*
D03*
X175990Y113884D02*
D03*
X172841D02*
D03*
X169691D02*
D03*
X166542D02*
D03*
X166535Y125984D02*
D03*
X169685D02*
D03*
X172835D02*
D03*
X175984D02*
D03*
X77559Y114173D02*
D03*
X74410D02*
D03*
X71260D02*
D03*
X68110D02*
D03*
X68110Y125984D02*
D03*
X71260D02*
D03*
X74410D02*
D03*
X77559D02*
D03*
X68110Y188976D02*
D03*
X71260D02*
D03*
X74410D02*
D03*
X77559D02*
D03*
X77559Y177165D02*
D03*
X74410D02*
D03*
X71260D02*
D03*
X68110D02*
D03*
X175984D02*
D03*
X172835D02*
D03*
X169685D02*
D03*
X166535D02*
D03*
X166535Y188976D02*
D03*
X169685D02*
D03*
X172835D02*
D03*
X175984D02*
D03*
X166535Y251969D02*
D03*
X169685D02*
D03*
X172835D02*
D03*
X175984D02*
D03*
X175984Y240158D02*
D03*
X172835D02*
D03*
X169685D02*
D03*
X166535D02*
D03*
X77559D02*
D03*
X74410D02*
D03*
X71260D02*
D03*
X68110D02*
D03*
X68110Y251969D02*
D03*
X71260D02*
D03*
X74410D02*
D03*
X77559D02*
D03*
X166535Y314961D02*
D03*
X169685D02*
D03*
X172835D02*
D03*
X175984D02*
D03*
X175984Y303150D02*
D03*
X172835D02*
D03*
X169685D02*
D03*
X166535D02*
D03*
X77559D02*
D03*
X74410D02*
D03*
X71260D02*
D03*
X68110D02*
D03*
X77559Y314961D02*
D03*
X74410D02*
D03*
X71260D02*
D03*
X68110D02*
D03*
D21*
X216850Y46457D02*
D03*
X38268D02*
D03*
X63779D02*
D03*
X89291D02*
D03*
X114803D02*
D03*
X140315D02*
D03*
X165827D02*
D03*
X191339D02*
D03*
X191732Y25197D02*
D03*
X166220D02*
D03*
X140709D02*
D03*
X115197D02*
D03*
X64173D02*
D03*
X252362Y6693D02*
D03*
Y12598D02*
D03*
X3543D02*
D03*
Y6693D02*
D03*
X241732Y25197D02*
D03*
X14567Y25591D02*
D03*
X216850Y109449D02*
D03*
X38268D02*
D03*
X63779D02*
D03*
X89291D02*
D03*
X114803D02*
D03*
X140315D02*
D03*
X165827D02*
D03*
X191339D02*
D03*
X191732Y88189D02*
D03*
X166220D02*
D03*
X140709D02*
D03*
X115197D02*
D03*
X64173D02*
D03*
X252362Y69685D02*
D03*
Y75591D02*
D03*
X3543D02*
D03*
Y69685D02*
D03*
X241732Y88189D02*
D03*
X14567Y88583D02*
D03*
X216850Y172441D02*
D03*
X38268D02*
D03*
X63779D02*
D03*
X89291D02*
D03*
X114803D02*
D03*
X140315D02*
D03*
X165827D02*
D03*
X191339D02*
D03*
X191732Y151181D02*
D03*
X166220D02*
D03*
X140709D02*
D03*
X115197D02*
D03*
X64173D02*
D03*
X252362Y132677D02*
D03*
Y138583D02*
D03*
X3543D02*
D03*
Y132677D02*
D03*
X241732Y151181D02*
D03*
X14567Y151575D02*
D03*
X216850Y235433D02*
D03*
X38268D02*
D03*
X63779D02*
D03*
X89291D02*
D03*
X114803D02*
D03*
X140315D02*
D03*
X165827D02*
D03*
X191339D02*
D03*
X191732Y214173D02*
D03*
X166220D02*
D03*
X140709D02*
D03*
X115197D02*
D03*
X64173D02*
D03*
X252362Y195669D02*
D03*
Y201575D02*
D03*
X3543D02*
D03*
Y195669D02*
D03*
X241732Y214173D02*
D03*
X14567Y214567D02*
D03*
X216850Y298425D02*
D03*
X38268D02*
D03*
X63779D02*
D03*
X89291D02*
D03*
X114803D02*
D03*
X140315D02*
D03*
X165827D02*
D03*
X191339D02*
D03*
X191732Y277165D02*
D03*
X166220D02*
D03*
X140709D02*
D03*
X115197D02*
D03*
X64173D02*
D03*
X252362Y258661D02*
D03*
Y264567D02*
D03*
X3543D02*
D03*
Y258661D02*
D03*
X241732Y277165D02*
D03*
X14567Y277559D02*
D03*
X216850Y361417D02*
D03*
X38268D02*
D03*
X63779D02*
D03*
X89291D02*
D03*
X114803D02*
D03*
X140315D02*
D03*
X165827D02*
D03*
X191339D02*
D03*
X191732Y340158D02*
D03*
X166220D02*
D03*
X140709D02*
D03*
X115197D02*
D03*
X64173D02*
D03*
X252362Y321654D02*
D03*
Y327559D02*
D03*
X3543D02*
D03*
Y321654D02*
D03*
X241732Y340158D02*
D03*
X14567Y340551D02*
D03*
M02*
