G04*
G04 #@! TF.GenerationSoftware,Altium Limited,Altium Designer,20.1.12 (249)*
G04*
G04 Layer_Color=16711935*
%FSLAX25Y25*%
%MOIN*%
G70*
G04*
G04 #@! TF.SameCoordinates,9F8D7EE4-A703-4B50-B93F-D04A273BC2B7*
G04*
G04*
G04 #@! TF.FilePolarity,Positive*
G04*
G01*
G75*
%ADD11C,0.00394*%
D11*
X206929Y15748D02*
X228031D01*
X206929Y35433D02*
X228031D01*
Y15748D02*
Y35433D01*
X206929Y15748D02*
Y35433D01*
X181339Y15748D02*
X202441D01*
X181339Y35433D02*
X202441D01*
Y15748D02*
Y35433D01*
X181339Y15748D02*
Y35433D01*
X155748Y15748D02*
X176850D01*
X155748Y35433D02*
X176850D01*
Y15748D02*
Y35433D01*
X155748Y15748D02*
Y35433D01*
X130157Y15748D02*
X151260D01*
X130157Y35433D02*
X151260D01*
Y15748D02*
Y35433D01*
X130157Y15748D02*
Y35433D01*
X104567Y15748D02*
X125669D01*
X104567Y35433D02*
X125669D01*
Y15748D02*
Y35433D01*
X104567Y15748D02*
Y35433D01*
X78976Y15748D02*
X100079D01*
X78976Y35433D02*
X100079D01*
Y15748D02*
Y35433D01*
X78976Y15748D02*
Y35433D01*
X53386Y15748D02*
X74488D01*
X53386Y35433D02*
X74488D01*
Y15748D02*
Y35433D01*
X53386Y15748D02*
Y35433D01*
X27795Y15748D02*
X48898D01*
X27795Y35433D02*
X48898D01*
Y15748D02*
Y35433D01*
X27795Y15748D02*
Y35433D01*
X232520Y15748D02*
X253622D01*
X232520Y35433D02*
X253622D01*
Y15748D02*
Y35433D01*
X232520Y15748D02*
Y35433D01*
X2205Y15748D02*
X23307D01*
X2205Y35433D02*
X23307D01*
Y15748D02*
Y35433D01*
X2205Y15748D02*
Y35433D01*
M02*
