G04*
G04 #@! TF.GenerationSoftware,Altium Limited,Altium Designer,20.1.12 (249)*
G04*
G04 Layer_Color=32896*
%FSLAX25Y25*%
%MOIN*%
G70*
G04*
G04 #@! TF.SameCoordinates,9F8D7EE4-A703-4B50-B93F-D04A273BC2B7*
G04*
G04*
G04 #@! TF.FilePolarity,Positive*
G04*
G01*
G75*
%ADD29C,0.00787*%
G36*
X116957Y41000D02*
Y40918D01*
Y40837D01*
Y40755D01*
Y40674D01*
Y40592D01*
Y40511D01*
Y40429D01*
Y40348D01*
Y40266D01*
Y40185D01*
Y40104D01*
Y40022D01*
Y39941D01*
Y39859D01*
Y39778D01*
Y39696D01*
Y39615D01*
Y39533D01*
Y39452D01*
Y39370D01*
Y39289D01*
Y39208D01*
Y39126D01*
Y39045D01*
Y38963D01*
Y38882D01*
Y38800D01*
Y38719D01*
Y38637D01*
Y38556D01*
Y38474D01*
Y38393D01*
Y38311D01*
Y38230D01*
Y38149D01*
Y38067D01*
Y37986D01*
Y37904D01*
Y37823D01*
Y37741D01*
Y37660D01*
Y37578D01*
Y37497D01*
Y37415D01*
Y37334D01*
Y37253D01*
Y37171D01*
Y37090D01*
Y37008D01*
Y36927D01*
Y36845D01*
Y36764D01*
Y36682D01*
Y36601D01*
Y36519D01*
Y36438D01*
Y36356D01*
Y36275D01*
Y36193D01*
Y36112D01*
Y36031D01*
Y35949D01*
Y35868D01*
Y35786D01*
Y35705D01*
Y35623D01*
Y35542D01*
Y35460D01*
Y35379D01*
Y35298D01*
Y35216D01*
Y35135D01*
Y35053D01*
Y34972D01*
Y34890D01*
Y34809D01*
Y34727D01*
Y34646D01*
Y34564D01*
Y34483D01*
Y34402D01*
Y34320D01*
Y34238D01*
Y34157D01*
Y34076D01*
Y33994D01*
Y33913D01*
Y33831D01*
Y33750D01*
Y33668D01*
Y33587D01*
Y33505D01*
Y33424D01*
Y33342D01*
Y33261D01*
Y33180D01*
Y33098D01*
Y33017D01*
Y32935D01*
Y32854D01*
Y32772D01*
Y32691D01*
Y32609D01*
Y32528D01*
Y32447D01*
Y32365D01*
Y32284D01*
Y32202D01*
Y32121D01*
Y32039D01*
Y31958D01*
Y31876D01*
Y31795D01*
Y31713D01*
Y31632D01*
Y31550D01*
Y31469D01*
Y31387D01*
Y31306D01*
Y31225D01*
Y31143D01*
Y31062D01*
Y30980D01*
Y30899D01*
Y30817D01*
Y30736D01*
Y30654D01*
Y30573D01*
Y30492D01*
Y30410D01*
Y30329D01*
Y30247D01*
Y30166D01*
Y30084D01*
Y30003D01*
Y29921D01*
Y29840D01*
Y29758D01*
Y29677D01*
Y29595D01*
Y29514D01*
Y29432D01*
Y29351D01*
Y29270D01*
Y29188D01*
Y29107D01*
Y29025D01*
Y28944D01*
Y28862D01*
Y28781D01*
Y28699D01*
Y28618D01*
Y28536D01*
Y28455D01*
Y28374D01*
Y28292D01*
Y28211D01*
Y28129D01*
Y28048D01*
Y27966D01*
Y27885D01*
Y27803D01*
Y27722D01*
Y27640D01*
Y27559D01*
Y27477D01*
Y27396D01*
Y27315D01*
Y27233D01*
Y27152D01*
Y27070D01*
Y26989D01*
Y26907D01*
Y26826D01*
Y26744D01*
Y26663D01*
Y26581D01*
Y26500D01*
Y26419D01*
Y26337D01*
Y26256D01*
Y26174D01*
Y26093D01*
Y26011D01*
Y25930D01*
Y25848D01*
Y25767D01*
Y25685D01*
Y25604D01*
Y25523D01*
Y25441D01*
Y25360D01*
Y25278D01*
Y25197D01*
Y25115D01*
Y25034D01*
Y24952D01*
Y24871D01*
Y24789D01*
Y24708D01*
Y24626D01*
Y24545D01*
Y24464D01*
Y24382D01*
Y24301D01*
Y24219D01*
Y24138D01*
Y24056D01*
Y23975D01*
Y23893D01*
Y23812D01*
Y23730D01*
Y23649D01*
Y23568D01*
Y23486D01*
Y23405D01*
Y23323D01*
Y23242D01*
Y23160D01*
Y23079D01*
Y22997D01*
Y22916D01*
Y22834D01*
Y22753D01*
Y22671D01*
Y22590D01*
Y22509D01*
Y22427D01*
Y22346D01*
Y22264D01*
Y22183D01*
Y22101D01*
Y22020D01*
Y21938D01*
Y21857D01*
Y21775D01*
Y21694D01*
Y21612D01*
Y21531D01*
Y21450D01*
Y21368D01*
Y21287D01*
Y21205D01*
Y21124D01*
Y21042D01*
Y20961D01*
Y20879D01*
Y20798D01*
Y20717D01*
Y20635D01*
Y20554D01*
Y20472D01*
Y20391D01*
Y20309D01*
Y20228D01*
Y20146D01*
Y20065D01*
Y19983D01*
Y19902D01*
Y19820D01*
Y19739D01*
Y19658D01*
Y19576D01*
Y19495D01*
Y19413D01*
Y19332D01*
Y19250D01*
Y19169D01*
Y19087D01*
Y19006D01*
Y18924D01*
Y18843D01*
Y18762D01*
Y18680D01*
Y18599D01*
Y18517D01*
Y18436D01*
Y18354D01*
Y18273D01*
Y18191D01*
Y18110D01*
Y18028D01*
Y17947D01*
Y17865D01*
Y17784D01*
Y17703D01*
Y17621D01*
Y17540D01*
Y17458D01*
Y17377D01*
Y17295D01*
Y17214D01*
Y17132D01*
Y17051D01*
Y16969D01*
Y16888D01*
Y16806D01*
Y16725D01*
Y16644D01*
Y16562D01*
Y16481D01*
Y16399D01*
Y16318D01*
Y16236D01*
Y16155D01*
Y16073D01*
Y15992D01*
Y15910D01*
Y15829D01*
Y15747D01*
Y15666D01*
Y15585D01*
Y15503D01*
Y15422D01*
Y15340D01*
Y15259D01*
Y15177D01*
Y15096D01*
Y15014D01*
Y14933D01*
Y14852D01*
Y14770D01*
Y14689D01*
Y14607D01*
Y14526D01*
Y14444D01*
Y14363D01*
Y14281D01*
Y14200D01*
Y14118D01*
Y14037D01*
Y13955D01*
Y13874D01*
Y13792D01*
Y13711D01*
Y13630D01*
Y13548D01*
Y13467D01*
Y13385D01*
Y13304D01*
Y13222D01*
Y13141D01*
Y13059D01*
Y12978D01*
Y12897D01*
Y12815D01*
Y12733D01*
Y12652D01*
Y12571D01*
Y12489D01*
Y12408D01*
Y12326D01*
Y12245D01*
Y12163D01*
Y12082D01*
Y12000D01*
Y11919D01*
Y11838D01*
Y11756D01*
Y11675D01*
Y11593D01*
Y11512D01*
Y11430D01*
Y11349D01*
Y11267D01*
Y11186D01*
Y11104D01*
Y11023D01*
Y10942D01*
Y10860D01*
Y10779D01*
Y10697D01*
Y10616D01*
Y10534D01*
Y10453D01*
Y10371D01*
Y10290D01*
X70281D01*
Y10371D01*
Y10453D01*
Y10534D01*
Y10616D01*
Y10697D01*
Y10779D01*
Y10860D01*
Y10942D01*
Y11023D01*
Y11104D01*
Y11186D01*
Y11267D01*
Y11349D01*
Y11430D01*
Y11512D01*
Y11593D01*
Y11675D01*
Y11756D01*
Y11838D01*
Y11919D01*
Y12000D01*
Y12082D01*
Y12163D01*
Y12245D01*
Y12326D01*
Y12408D01*
Y12489D01*
Y12571D01*
Y12652D01*
Y12733D01*
Y12815D01*
Y12897D01*
Y12978D01*
Y13059D01*
Y13141D01*
Y13222D01*
Y13304D01*
Y13385D01*
Y13467D01*
Y13548D01*
Y13630D01*
Y13711D01*
Y13792D01*
Y13874D01*
Y13955D01*
Y14037D01*
Y14118D01*
Y14200D01*
Y14281D01*
Y14363D01*
Y14444D01*
Y14526D01*
Y14607D01*
Y14689D01*
Y14770D01*
Y14852D01*
Y14933D01*
Y15014D01*
Y15096D01*
Y15177D01*
Y15259D01*
Y15340D01*
Y15422D01*
Y15503D01*
Y15585D01*
Y15666D01*
Y15747D01*
Y15829D01*
Y15910D01*
Y15992D01*
Y16073D01*
Y16155D01*
Y16236D01*
Y16318D01*
Y16399D01*
Y16481D01*
Y16562D01*
Y16644D01*
Y16725D01*
Y16806D01*
Y16888D01*
Y16969D01*
Y17051D01*
Y17132D01*
Y17214D01*
Y17295D01*
Y17377D01*
Y17458D01*
Y17540D01*
Y17621D01*
Y17703D01*
Y17784D01*
Y17865D01*
Y17947D01*
Y18028D01*
Y18110D01*
Y18191D01*
Y18273D01*
Y18354D01*
Y18436D01*
Y18517D01*
Y18599D01*
Y18680D01*
Y18762D01*
Y18843D01*
Y18924D01*
Y19006D01*
Y19087D01*
Y19169D01*
Y19250D01*
Y19332D01*
Y19413D01*
Y19495D01*
Y19576D01*
Y19658D01*
Y19739D01*
Y19820D01*
Y19902D01*
Y19983D01*
Y20065D01*
Y20146D01*
Y20228D01*
Y20309D01*
Y20391D01*
Y20472D01*
Y20554D01*
Y20635D01*
Y20717D01*
Y20798D01*
Y20879D01*
Y20961D01*
Y21042D01*
Y21124D01*
Y21205D01*
Y21287D01*
Y21368D01*
Y21450D01*
Y21531D01*
Y21612D01*
Y21694D01*
Y21775D01*
Y21857D01*
Y21938D01*
Y22020D01*
Y22101D01*
Y22183D01*
Y22264D01*
Y22346D01*
Y22427D01*
Y22509D01*
Y22590D01*
Y22671D01*
Y22753D01*
Y22834D01*
Y22916D01*
Y22997D01*
Y23079D01*
Y23160D01*
Y23242D01*
Y23323D01*
Y23405D01*
Y23486D01*
Y23568D01*
Y23649D01*
Y23730D01*
Y23812D01*
Y23893D01*
Y23975D01*
Y24056D01*
Y24138D01*
Y24219D01*
Y24301D01*
Y24382D01*
Y24464D01*
Y24545D01*
Y24626D01*
Y24708D01*
Y24789D01*
Y24871D01*
Y24952D01*
Y25034D01*
Y25115D01*
Y25197D01*
Y25278D01*
Y25360D01*
Y25441D01*
Y25523D01*
Y25604D01*
Y25685D01*
Y25767D01*
Y25848D01*
Y25930D01*
Y26011D01*
Y26093D01*
Y26174D01*
Y26256D01*
Y26337D01*
Y26419D01*
Y26500D01*
Y26581D01*
Y26663D01*
Y26744D01*
Y26826D01*
Y26907D01*
Y26989D01*
Y27070D01*
Y27152D01*
Y27233D01*
Y27315D01*
Y27396D01*
Y27477D01*
Y27559D01*
Y27640D01*
Y27722D01*
Y27803D01*
Y27885D01*
Y27966D01*
Y28048D01*
Y28129D01*
Y28211D01*
Y28292D01*
Y28374D01*
Y28455D01*
Y28536D01*
Y28618D01*
Y28699D01*
Y28781D01*
Y28862D01*
Y28944D01*
Y29025D01*
Y29107D01*
Y29188D01*
Y29270D01*
Y29351D01*
Y29432D01*
Y29514D01*
Y29595D01*
Y29677D01*
Y29758D01*
Y29840D01*
Y29921D01*
Y30003D01*
Y30084D01*
Y30166D01*
Y30247D01*
Y30329D01*
Y30410D01*
Y30492D01*
Y30573D01*
Y30654D01*
Y30736D01*
Y30817D01*
Y30899D01*
Y30980D01*
Y31062D01*
Y31143D01*
Y31225D01*
Y31306D01*
Y31387D01*
Y31469D01*
Y31550D01*
Y31632D01*
Y31713D01*
Y31795D01*
Y31876D01*
Y31958D01*
Y32039D01*
Y32121D01*
Y32202D01*
Y32284D01*
Y32365D01*
Y32447D01*
Y32528D01*
Y32609D01*
Y32691D01*
Y32772D01*
Y32854D01*
Y32935D01*
Y33017D01*
Y33098D01*
Y33180D01*
Y33261D01*
Y33342D01*
Y33424D01*
Y33505D01*
Y33587D01*
Y33668D01*
Y33750D01*
Y33831D01*
Y33913D01*
Y33994D01*
Y34076D01*
Y34157D01*
Y34238D01*
Y34320D01*
Y34402D01*
Y34483D01*
Y34564D01*
Y34646D01*
Y34727D01*
Y34809D01*
Y34890D01*
Y34972D01*
Y35053D01*
Y35135D01*
Y35216D01*
Y35298D01*
Y35379D01*
Y35460D01*
Y35542D01*
Y35623D01*
Y35705D01*
Y35786D01*
Y35868D01*
Y35949D01*
Y36031D01*
Y36112D01*
Y36193D01*
Y36275D01*
Y36356D01*
Y36438D01*
Y36519D01*
Y36601D01*
Y36682D01*
Y36764D01*
Y36845D01*
Y36927D01*
Y37008D01*
Y37090D01*
Y37171D01*
Y37253D01*
Y37334D01*
Y37415D01*
Y37497D01*
Y37578D01*
Y37660D01*
Y37741D01*
Y37823D01*
Y37904D01*
Y37986D01*
Y38067D01*
Y38149D01*
Y38230D01*
Y38311D01*
Y38393D01*
Y38474D01*
Y38556D01*
Y38637D01*
Y38719D01*
Y38800D01*
Y38882D01*
Y38963D01*
Y39045D01*
Y39126D01*
Y39208D01*
Y39289D01*
Y39370D01*
Y39452D01*
Y39533D01*
Y39615D01*
Y39696D01*
Y39778D01*
Y39859D01*
Y39941D01*
Y40022D01*
Y40104D01*
Y40185D01*
Y40266D01*
Y40348D01*
Y40429D01*
Y40511D01*
Y40592D01*
Y40674D01*
Y40755D01*
Y40837D01*
Y40918D01*
Y41000D01*
Y41081D01*
X116957D01*
Y41000D01*
D02*
G37*
G36*
X65301Y13853D02*
X64247D01*
X62609Y19237D01*
X63756D01*
X64774Y15352D01*
X65782Y19237D01*
X66929D01*
X65301Y13853D01*
D02*
G37*
G36*
X60380Y19302D02*
X60537Y19283D01*
X60676Y19255D01*
X60806Y19228D01*
X60907Y19191D01*
X60981Y19163D01*
X61028Y19144D01*
X61046Y19135D01*
X61176Y19061D01*
X61296Y18987D01*
X61407Y18904D01*
X61499Y18821D01*
X61573Y18747D01*
X61629Y18691D01*
X61666Y18654D01*
X61675Y18636D01*
X61768Y18516D01*
X61842Y18386D01*
X61916Y18257D01*
X61971Y18136D01*
X62017Y18034D01*
X62045Y17951D01*
X62064Y17896D01*
X62073Y17887D01*
Y17877D01*
X62119Y17711D01*
X62156Y17535D01*
X62175Y17368D01*
X62193Y17221D01*
X62202Y17091D01*
X62212Y16989D01*
Y16952D01*
Y16925D01*
Y16906D01*
Y16897D01*
Y16175D01*
X62202Y15981D01*
X62193Y15796D01*
X62175Y15630D01*
X62147Y15482D01*
X62119Y15361D01*
X62101Y15269D01*
X62091Y15241D01*
Y15213D01*
X62082Y15204D01*
Y15195D01*
X62027Y15037D01*
X61962Y14889D01*
X61897Y14760D01*
X61832Y14649D01*
X61777Y14557D01*
X61731Y14492D01*
X61703Y14455D01*
X61694Y14436D01*
X61592Y14325D01*
X61490Y14223D01*
X61388Y14140D01*
X61287Y14075D01*
X61203Y14020D01*
X61139Y13983D01*
X61092Y13955D01*
X61074Y13946D01*
X60935Y13891D01*
X60787Y13853D01*
X60639Y13816D01*
X60510Y13798D01*
X60399Y13789D01*
X60306Y13780D01*
X60223D01*
X60066Y13789D01*
X59927Y13798D01*
X59797Y13816D01*
X59686Y13844D01*
X59585Y13863D01*
X59520Y13881D01*
X59474Y13891D01*
X59455Y13900D01*
X59326Y13946D01*
X59215Y14002D01*
X59113Y14057D01*
X59020Y14112D01*
X58956Y14168D01*
X58900Y14205D01*
X58863Y14233D01*
X58854Y14242D01*
X58761Y14334D01*
X58687Y14427D01*
X58613Y14520D01*
X58558Y14603D01*
X58512Y14686D01*
X58484Y14741D01*
X58465Y14778D01*
X58456Y14797D01*
X58410Y14927D01*
X58364Y15056D01*
X58336Y15176D01*
X58308Y15296D01*
X58299Y15389D01*
X58290Y15472D01*
X58280Y15518D01*
Y15537D01*
X59316D01*
X59335Y15371D01*
X59372Y15223D01*
X59409Y15102D01*
X59464Y15000D01*
X59511Y14927D01*
X59548Y14871D01*
X59575Y14843D01*
X59585Y14834D01*
X59677Y14760D01*
X59779Y14714D01*
X59890Y14677D01*
X59992Y14649D01*
X60084Y14630D01*
X60158Y14621D01*
X60223D01*
X60389Y14640D01*
X60537Y14677D01*
X60667Y14741D01*
X60759Y14816D01*
X60843Y14880D01*
X60889Y14945D01*
X60926Y14982D01*
X60935Y15000D01*
X60972Y15075D01*
X61009Y15158D01*
X61065Y15343D01*
X61102Y15537D01*
X61129Y15731D01*
X61148Y15907D01*
Y15981D01*
X61157Y16046D01*
Y16101D01*
Y16138D01*
Y16166D01*
Y16175D01*
Y16906D01*
Y17045D01*
X61148Y17165D01*
X61139Y17276D01*
X61129Y17378D01*
X61120Y17452D01*
X61111Y17516D01*
X61102Y17553D01*
Y17563D01*
X61074Y17664D01*
X61055Y17766D01*
X61028Y17850D01*
X61000Y17923D01*
X60972Y17979D01*
X60954Y18016D01*
X60935Y18044D01*
Y18053D01*
X60889Y18127D01*
X60833Y18182D01*
X60787Y18238D01*
X60741Y18284D01*
X60704Y18312D01*
X60667Y18340D01*
X60648Y18358D01*
X60639D01*
X60565Y18395D01*
X60491Y18423D01*
X60352Y18460D01*
X60297D01*
X60251Y18469D01*
X60214D01*
X60056Y18460D01*
X59992Y18451D01*
X59936Y18441D01*
X59890Y18423D01*
X59853Y18414D01*
X59834Y18405D01*
X59825D01*
X59714Y18349D01*
X59622Y18284D01*
X59566Y18238D01*
X59557Y18229D01*
X59548Y18219D01*
X59474Y18118D01*
X59418Y18025D01*
X59400Y17979D01*
X59390Y17942D01*
X59381Y17923D01*
Y17914D01*
X59344Y17775D01*
X59326Y17637D01*
X59316Y17581D01*
X59307Y17535D01*
Y17507D01*
Y17498D01*
X58271D01*
X58290Y17655D01*
X58317Y17794D01*
X58345Y17923D01*
X58373Y18034D01*
X58410Y18127D01*
X58428Y18201D01*
X58447Y18238D01*
X58456Y18257D01*
X58512Y18377D01*
X58576Y18488D01*
X58641Y18589D01*
X58706Y18673D01*
X58761Y18737D01*
X58808Y18793D01*
X58835Y18821D01*
X58845Y18830D01*
X58937Y18913D01*
X59039Y18987D01*
X59131Y19043D01*
X59224Y19089D01*
X59307Y19135D01*
X59372Y19163D01*
X59409Y19172D01*
X59427Y19182D01*
X59557Y19228D01*
X59696Y19255D01*
X59825Y19283D01*
X59945Y19293D01*
X60056Y19302D01*
X60140Y19311D01*
X60214D01*
X60380Y19302D01*
D02*
G37*
G36*
X55838D02*
X55996Y19283D01*
X56134Y19255D01*
X56264Y19228D01*
X56366Y19191D01*
X56440Y19163D01*
X56486Y19144D01*
X56504Y19135D01*
X56634Y19061D01*
X56754Y18987D01*
X56865Y18904D01*
X56958Y18821D01*
X57032Y18747D01*
X57087Y18691D01*
X57124Y18654D01*
X57133Y18636D01*
X57226Y18516D01*
X57300Y18386D01*
X57374Y18257D01*
X57429Y18136D01*
X57476Y18034D01*
X57503Y17951D01*
X57522Y17896D01*
X57531Y17887D01*
Y17877D01*
X57577Y17711D01*
X57614Y17535D01*
X57633Y17368D01*
X57651Y17221D01*
X57661Y17091D01*
X57670Y16989D01*
Y16952D01*
Y16925D01*
Y16906D01*
Y16897D01*
Y16175D01*
X57661Y15981D01*
X57651Y15796D01*
X57633Y15630D01*
X57605Y15482D01*
X57577Y15361D01*
X57559Y15269D01*
X57550Y15241D01*
Y15213D01*
X57540Y15204D01*
Y15195D01*
X57485Y15037D01*
X57420Y14889D01*
X57355Y14760D01*
X57291Y14649D01*
X57235Y14557D01*
X57189Y14492D01*
X57161Y14455D01*
X57152Y14436D01*
X57050Y14325D01*
X56948Y14223D01*
X56847Y14140D01*
X56745Y14075D01*
X56662Y14020D01*
X56597Y13983D01*
X56551Y13955D01*
X56532Y13946D01*
X56393Y13891D01*
X56245Y13853D01*
X56097Y13816D01*
X55968Y13798D01*
X55857Y13789D01*
X55764Y13780D01*
X55681D01*
X55524Y13789D01*
X55385Y13798D01*
X55256Y13816D01*
X55145Y13844D01*
X55043Y13863D01*
X54978Y13881D01*
X54932Y13891D01*
X54913Y13900D01*
X54784Y13946D01*
X54673Y14002D01*
X54571Y14057D01*
X54479Y14112D01*
X54414Y14168D01*
X54358Y14205D01*
X54321Y14233D01*
X54312Y14242D01*
X54220Y14334D01*
X54146Y14427D01*
X54072Y14520D01*
X54016Y14603D01*
X53970Y14686D01*
X53942Y14741D01*
X53924Y14778D01*
X53914Y14797D01*
X53868Y14927D01*
X53822Y15056D01*
X53794Y15176D01*
X53766Y15296D01*
X53757Y15389D01*
X53748Y15472D01*
X53739Y15518D01*
Y15537D01*
X54775D01*
X54793Y15371D01*
X54830Y15223D01*
X54867Y15102D01*
X54923Y15000D01*
X54969Y14927D01*
X55006Y14871D01*
X55034Y14843D01*
X55043Y14834D01*
X55135Y14760D01*
X55237Y14714D01*
X55348Y14677D01*
X55450Y14649D01*
X55542Y14630D01*
X55616Y14621D01*
X55681D01*
X55848Y14640D01*
X55996Y14677D01*
X56125Y14741D01*
X56218Y14816D01*
X56301Y14880D01*
X56347Y14945D01*
X56384Y14982D01*
X56393Y15000D01*
X56430Y15075D01*
X56467Y15158D01*
X56523Y15343D01*
X56560Y15537D01*
X56588Y15731D01*
X56606Y15907D01*
Y15981D01*
X56615Y16046D01*
Y16101D01*
Y16138D01*
Y16166D01*
Y16175D01*
Y16906D01*
Y17045D01*
X56606Y17165D01*
X56597Y17276D01*
X56588Y17378D01*
X56578Y17452D01*
X56569Y17516D01*
X56560Y17553D01*
Y17563D01*
X56532Y17664D01*
X56514Y17766D01*
X56486Y17850D01*
X56458Y17923D01*
X56430Y17979D01*
X56412Y18016D01*
X56393Y18044D01*
Y18053D01*
X56347Y18127D01*
X56292Y18182D01*
X56245Y18238D01*
X56199Y18284D01*
X56162Y18312D01*
X56125Y18340D01*
X56107Y18358D01*
X56097D01*
X56023Y18395D01*
X55949Y18423D01*
X55811Y18460D01*
X55755D01*
X55709Y18469D01*
X55672D01*
X55515Y18460D01*
X55450Y18451D01*
X55394Y18441D01*
X55348Y18423D01*
X55311Y18414D01*
X55293Y18405D01*
X55283D01*
X55172Y18349D01*
X55080Y18284D01*
X55024Y18238D01*
X55015Y18229D01*
X55006Y18219D01*
X54932Y18118D01*
X54876Y18025D01*
X54858Y17979D01*
X54849Y17942D01*
X54839Y17923D01*
Y17914D01*
X54802Y17775D01*
X54784Y17637D01*
X54775Y17581D01*
X54765Y17535D01*
Y17507D01*
Y17498D01*
X53729D01*
X53748Y17655D01*
X53776Y17794D01*
X53803Y17923D01*
X53831Y18034D01*
X53868Y18127D01*
X53887Y18201D01*
X53905Y18238D01*
X53914Y18257D01*
X53970Y18377D01*
X54035Y18488D01*
X54099Y18589D01*
X54164Y18673D01*
X54220Y18737D01*
X54266Y18793D01*
X54294Y18821D01*
X54303Y18830D01*
X54395Y18913D01*
X54497Y18987D01*
X54590Y19043D01*
X54682Y19089D01*
X54765Y19135D01*
X54830Y19163D01*
X54867Y19172D01*
X54886Y19182D01*
X55015Y19228D01*
X55154Y19255D01*
X55283Y19283D01*
X55404Y19293D01*
X55515Y19302D01*
X55598Y19311D01*
X55672D01*
X55838Y19302D01*
D02*
G37*
G36*
X62258Y33539D02*
X61213D01*
Y37007D01*
X59714Y33539D01*
X58678D01*
Y38922D01*
X59723D01*
Y35463D01*
X61213Y38922D01*
X62258D01*
Y33539D01*
D02*
G37*
G36*
X65125Y38987D02*
X65273Y38968D01*
X65403Y38941D01*
X65523Y38913D01*
X65616Y38885D01*
X65690Y38857D01*
X65736Y38839D01*
X65754Y38830D01*
X65884Y38765D01*
X65995Y38691D01*
X66106Y38608D01*
X66198Y38534D01*
X66272Y38469D01*
X66328Y38413D01*
X66365Y38376D01*
X66374Y38358D01*
X66467Y38238D01*
X66550Y38108D01*
X66624Y37979D01*
X66679Y37858D01*
X66726Y37757D01*
X66763Y37673D01*
X66781Y37618D01*
X66790Y37609D01*
Y37599D01*
X66837Y37433D01*
X66874Y37257D01*
X66901Y37081D01*
X66920Y36933D01*
X66929Y36795D01*
X66938Y36684D01*
Y36647D01*
Y36619D01*
Y36600D01*
Y36591D01*
Y35860D01*
X66929Y35657D01*
X66920Y35463D01*
X66892Y35287D01*
X66864Y35139D01*
X66846Y35009D01*
X66818Y34926D01*
X66809Y34889D01*
Y34861D01*
X66800Y34852D01*
Y34843D01*
X66735Y34686D01*
X66670Y34538D01*
X66605Y34408D01*
X66541Y34306D01*
X66485Y34214D01*
X66439Y34149D01*
X66402Y34112D01*
X66393Y34094D01*
X66291Y33983D01*
X66180Y33890D01*
X66069Y33807D01*
X65976Y33742D01*
X65884Y33687D01*
X65819Y33650D01*
X65773Y33631D01*
X65754Y33622D01*
X65616Y33566D01*
X65468Y33529D01*
X65329Y33502D01*
X65199Y33483D01*
X65098Y33474D01*
X65005Y33465D01*
X64802D01*
X64691Y33474D01*
X64580Y33483D01*
X64487Y33502D01*
X64404Y33511D01*
X64348Y33520D01*
X64302Y33529D01*
X64293D01*
X64182Y33548D01*
X64080Y33576D01*
X63997Y33603D01*
X63914Y33631D01*
X63849Y33650D01*
X63803Y33668D01*
X63766Y33687D01*
X63756D01*
X63590Y33761D01*
X63525Y33798D01*
X63460Y33835D01*
X63414Y33862D01*
X63377Y33890D01*
X63359Y33899D01*
X63349Y33909D01*
X63229Y34001D01*
X63146Y34084D01*
X63090Y34140D01*
X63072Y34149D01*
Y34158D01*
Y36286D01*
X65005D01*
Y35509D01*
X64108D01*
X64117Y34528D01*
X64154Y34491D01*
X64191Y34464D01*
X64219Y34445D01*
X64237Y34436D01*
X64293Y34408D01*
X64358Y34390D01*
X64404Y34371D01*
X64413Y34362D01*
X64422D01*
X64496Y34343D01*
X64570Y34325D01*
X64626Y34316D01*
X64644D01*
X64728Y34306D01*
X64802Y34297D01*
X64876D01*
X64968Y34306D01*
X65061Y34316D01*
X65218Y34362D01*
X65347Y34427D01*
X65449Y34501D01*
X65532Y34565D01*
X65597Y34630D01*
X65634Y34676D01*
X65643Y34695D01*
X65727Y34861D01*
X65782Y35046D01*
X65828Y35241D01*
X65856Y35435D01*
X65875Y35601D01*
X65884Y35675D01*
Y35740D01*
X65893Y35786D01*
Y35823D01*
Y35851D01*
Y35860D01*
Y36600D01*
Y36739D01*
X65884Y36869D01*
X65865Y36980D01*
X65856Y37072D01*
X65838Y37155D01*
X65828Y37220D01*
X65819Y37257D01*
Y37266D01*
X65791Y37368D01*
X65754Y37470D01*
X65717Y37553D01*
X65690Y37627D01*
X65662Y37683D01*
X65634Y37720D01*
X65625Y37747D01*
X65616Y37757D01*
X65514Y37886D01*
X65421Y37979D01*
X65375Y38006D01*
X65347Y38034D01*
X65329Y38053D01*
X65320D01*
X65255Y38090D01*
X65190Y38108D01*
X65070Y38145D01*
X65024D01*
X64987Y38154D01*
X64950D01*
X64802Y38145D01*
X64681Y38117D01*
X64570Y38090D01*
X64487Y38053D01*
X64422Y38006D01*
X64376Y37979D01*
X64348Y37951D01*
X64339Y37942D01*
X64265Y37858D01*
X64210Y37757D01*
X64173Y37655D01*
X64136Y37553D01*
X64117Y37461D01*
X64099Y37387D01*
X64089Y37340D01*
Y37331D01*
Y37322D01*
X63072D01*
X63090Y37461D01*
X63118Y37590D01*
X63146Y37710D01*
X63174Y37812D01*
X63201Y37895D01*
X63229Y37960D01*
X63238Y38006D01*
X63248Y38016D01*
X63303Y38127D01*
X63359Y38228D01*
X63414Y38321D01*
X63479Y38395D01*
X63525Y38460D01*
X63571Y38506D01*
X63599Y38534D01*
X63608Y38543D01*
X63701Y38617D01*
X63793Y38691D01*
X63895Y38746D01*
X63978Y38793D01*
X64062Y38830D01*
X64126Y38857D01*
X64163Y38867D01*
X64182Y38876D01*
X64311Y38913D01*
X64450Y38950D01*
X64580Y38968D01*
X64709Y38978D01*
X64820Y38987D01*
X64903Y38996D01*
X64977D01*
X65125Y38987D01*
D02*
G37*
G36*
X57716Y33539D02*
X56264D01*
X56079Y33548D01*
X55903Y33566D01*
X55746Y33594D01*
X55607Y33631D01*
X55487Y33659D01*
X55404Y33687D01*
X55348Y33705D01*
X55330Y33714D01*
X55172Y33788D01*
X55034Y33872D01*
X54913Y33955D01*
X54802Y34038D01*
X54719Y34112D01*
X54654Y34168D01*
X54608Y34205D01*
X54599Y34223D01*
X54488Y34353D01*
X54395Y34482D01*
X54312Y34612D01*
X54247Y34732D01*
X54192Y34843D01*
X54155Y34926D01*
X54136Y34982D01*
X54127Y34991D01*
Y35000D01*
X54072Y35176D01*
X54035Y35352D01*
X53998Y35518D01*
X53979Y35666D01*
X53970Y35805D01*
X53961Y35907D01*
Y35944D01*
Y35971D01*
Y35990D01*
Y35999D01*
Y36443D01*
X53970Y36647D01*
X53988Y36832D01*
X54016Y36998D01*
X54044Y37146D01*
X54072Y37266D01*
X54099Y37359D01*
X54109Y37396D01*
X54118Y37424D01*
X54127Y37433D01*
Y37442D01*
X54192Y37609D01*
X54275Y37757D01*
X54349Y37886D01*
X54432Y37997D01*
X54497Y38090D01*
X54553Y38164D01*
X54590Y38201D01*
X54608Y38219D01*
X54728Y38339D01*
X54849Y38441D01*
X54978Y38534D01*
X55089Y38608D01*
X55191Y38663D01*
X55274Y38700D01*
X55330Y38728D01*
X55339Y38737D01*
X55348D01*
X55515Y38802D01*
X55681Y38848D01*
X55848Y38876D01*
X55996Y38904D01*
X56125Y38913D01*
X56227Y38922D01*
X57716D01*
Y33539D01*
D02*
G37*
G36*
X57855Y23622D02*
X56810D01*
Y27091D01*
X55311Y23622D01*
X54275D01*
Y29006D01*
X55320D01*
Y25546D01*
X56810Y29006D01*
X57855D01*
Y23622D01*
D02*
G37*
G36*
X66938D02*
X65486D01*
X65301Y23631D01*
X65125Y23650D01*
X64968Y23677D01*
X64829Y23715D01*
X64709Y23742D01*
X64626Y23770D01*
X64570Y23789D01*
X64552Y23798D01*
X64395Y23872D01*
X64256Y23955D01*
X64136Y24038D01*
X64025Y24122D01*
X63941Y24196D01*
X63877Y24251D01*
X63830Y24288D01*
X63821Y24306D01*
X63710Y24436D01*
X63618Y24566D01*
X63534Y24695D01*
X63470Y24815D01*
X63414Y24926D01*
X63377Y25010D01*
X63359Y25065D01*
X63349Y25074D01*
Y25084D01*
X63294Y25259D01*
X63257Y25435D01*
X63220Y25602D01*
X63201Y25749D01*
X63192Y25888D01*
X63183Y25990D01*
Y26027D01*
Y26055D01*
Y26073D01*
Y26083D01*
Y26526D01*
X63192Y26730D01*
X63211Y26915D01*
X63238Y27082D01*
X63266Y27230D01*
X63294Y27350D01*
X63322Y27442D01*
X63331Y27479D01*
X63340Y27507D01*
X63349Y27516D01*
Y27525D01*
X63414Y27692D01*
X63497Y27840D01*
X63571Y27970D01*
X63655Y28080D01*
X63719Y28173D01*
X63775Y28247D01*
X63812Y28284D01*
X63830Y28303D01*
X63951Y28423D01*
X64071Y28525D01*
X64200Y28617D01*
X64311Y28691D01*
X64413Y28747D01*
X64496Y28784D01*
X64552Y28811D01*
X64561Y28820D01*
X64570D01*
X64737Y28885D01*
X64903Y28931D01*
X65070Y28959D01*
X65218Y28987D01*
X65347Y28996D01*
X65449Y29006D01*
X66938D01*
Y23622D01*
D02*
G37*
G36*
X62138Y28164D02*
X61120D01*
Y24455D01*
X62138D01*
Y23622D01*
X59030D01*
Y24455D01*
X60075D01*
Y28164D01*
X59030D01*
Y29006D01*
X62138D01*
Y28164D01*
D02*
G37*
G36*
X134123Y20856D02*
Y19959D01*
X132763Y20449D01*
Y16323D01*
X131727D01*
Y21707D01*
X131782D01*
X134123Y20856D01*
D02*
G37*
G36*
X137564Y16323D02*
X136509D01*
X134872Y21707D01*
X136019D01*
X137036Y17822D01*
X138045Y21707D01*
X139191D01*
X137564Y16323D01*
D02*
G37*
G36*
X128073Y17581D02*
X128165Y17563D01*
X128202Y17554D01*
X128221Y17544D01*
X128240Y17535D01*
X128249D01*
X128341Y17498D01*
X128406Y17452D01*
X128452Y17415D01*
X128471Y17396D01*
X128535Y17322D01*
X128582Y17248D01*
X128610Y17193D01*
X128619Y17184D01*
Y17174D01*
X128647Y17082D01*
X128656Y16999D01*
X128665Y16962D01*
Y16943D01*
Y16925D01*
Y16915D01*
X128656Y16814D01*
X128637Y16730D01*
Y16693D01*
X128628Y16666D01*
X128619Y16656D01*
Y16647D01*
X128572Y16564D01*
X128526Y16499D01*
X128489Y16453D01*
X128471Y16434D01*
X128397Y16379D01*
X128323Y16342D01*
X128267Y16314D01*
X128258Y16305D01*
X128249D01*
X128147Y16277D01*
X128054Y16259D01*
X128008Y16249D01*
X127953D01*
X127832Y16259D01*
X127740Y16277D01*
X127703Y16286D01*
X127675Y16296D01*
X127666Y16305D01*
X127657D01*
X127564Y16342D01*
X127490Y16388D01*
X127444Y16425D01*
X127426Y16434D01*
X127361Y16508D01*
X127324Y16573D01*
X127296Y16629D01*
X127287Y16638D01*
Y16647D01*
X127250Y16740D01*
X127241Y16832D01*
X127231Y16869D01*
Y16888D01*
Y16906D01*
Y16915D01*
X127241Y17017D01*
X127259Y17100D01*
X127278Y17156D01*
X127287Y17165D01*
Y17174D01*
X127324Y17267D01*
X127370Y17332D01*
X127407Y17378D01*
X127426Y17396D01*
X127499Y17461D01*
X127574Y17498D01*
X127629Y17526D01*
X127647Y17535D01*
X127657D01*
X127759Y17572D01*
X127851Y17581D01*
X127897Y17591D01*
X127953D01*
X128073Y17581D01*
D02*
G37*
G36*
X123559Y21772D02*
X123698Y21762D01*
X123818Y21735D01*
X123929Y21716D01*
X124021Y21688D01*
X124086Y21661D01*
X124123Y21651D01*
X124142Y21642D01*
X124262Y21587D01*
X124364Y21522D01*
X124456Y21457D01*
X124539Y21392D01*
X124604Y21337D01*
X124660Y21291D01*
X124688Y21254D01*
X124697Y21244D01*
X124771Y21143D01*
X124845Y21032D01*
X124900Y20921D01*
X124946Y20810D01*
X124993Y20717D01*
X125021Y20643D01*
X125030Y20597D01*
X125039Y20588D01*
Y20578D01*
X125076Y20421D01*
X125104Y20264D01*
X125131Y20107D01*
X125141Y19968D01*
X125150Y19838D01*
X125159Y19746D01*
Y19709D01*
Y19681D01*
Y19663D01*
Y19653D01*
Y18368D01*
X125150Y18183D01*
X125141Y18007D01*
X125122Y17850D01*
X125094Y17720D01*
X125076Y17609D01*
X125057Y17526D01*
X125048Y17470D01*
X125039Y17461D01*
Y17452D01*
X124984Y17313D01*
X124928Y17184D01*
X124873Y17063D01*
X124817Y16971D01*
X124761Y16888D01*
X124724Y16832D01*
X124697Y16795D01*
X124688Y16786D01*
X124595Y16693D01*
X124503Y16610D01*
X124410Y16536D01*
X124327Y16481D01*
X124243Y16434D01*
X124188Y16407D01*
X124151Y16388D01*
X124133Y16379D01*
X124012Y16333D01*
X123883Y16305D01*
X123763Y16277D01*
X123642Y16268D01*
X123550Y16259D01*
X123467Y16249D01*
X123402D01*
X123254Y16259D01*
X123115Y16268D01*
X122995Y16286D01*
X122884Y16314D01*
X122791Y16342D01*
X122727Y16360D01*
X122689Y16370D01*
X122671Y16379D01*
X122551Y16434D01*
X122449Y16499D01*
X122356Y16573D01*
X122273Y16638D01*
X122208Y16693D01*
X122162Y16740D01*
X122134Y16777D01*
X122125Y16786D01*
X122042Y16888D01*
X121968Y17008D01*
X121913Y17119D01*
X121866Y17221D01*
X121820Y17313D01*
X121792Y17387D01*
X121783Y17433D01*
X121774Y17452D01*
X121737Y17609D01*
X121700Y17766D01*
X121681Y17914D01*
X121672Y18062D01*
X121663Y18183D01*
X121653Y18284D01*
Y18321D01*
Y18349D01*
Y18358D01*
Y18368D01*
Y19653D01*
X121663Y19848D01*
X121672Y20023D01*
X121690Y20181D01*
X121709Y20310D01*
X121737Y20421D01*
X121755Y20504D01*
X121765Y20560D01*
X121774Y20578D01*
X121820Y20717D01*
X121876Y20847D01*
X121940Y20967D01*
X121996Y21059D01*
X122042Y21143D01*
X122088Y21198D01*
X122116Y21235D01*
X122125Y21244D01*
X122218Y21337D01*
X122310Y21420D01*
X122403Y21485D01*
X122486Y21540D01*
X122569Y21587D01*
X122625Y21614D01*
X122662Y21633D01*
X122680Y21642D01*
X122801Y21688D01*
X122930Y21725D01*
X123050Y21744D01*
X123170Y21762D01*
X123263Y21772D01*
X123346Y21781D01*
X123411D01*
X123559Y21772D01*
D02*
G37*
G36*
X128434Y13841D02*
X128554Y13831D01*
X128665Y13813D01*
X128748Y13794D01*
X128813Y13776D01*
X128850Y13767D01*
X128868Y13757D01*
X128980Y13720D01*
X129081Y13674D01*
X129174Y13628D01*
X129257Y13582D01*
X129322Y13545D01*
X129368Y13508D01*
X129396Y13489D01*
X129405Y13480D01*
X129479Y13415D01*
X129544Y13350D01*
X129599Y13286D01*
X129646Y13221D01*
X129683Y13165D01*
X129710Y13119D01*
X129719Y13091D01*
X129729Y13082D01*
X129766Y12999D01*
X129794Y12906D01*
X129812Y12823D01*
X129821Y12749D01*
X129831Y12684D01*
X129840Y12638D01*
Y12601D01*
Y12592D01*
X128813D01*
X128804Y12675D01*
X128795Y12749D01*
X128767Y12805D01*
X128739Y12860D01*
X128720Y12897D01*
X128693Y12925D01*
X128683Y12943D01*
X128674Y12953D01*
X128610Y12999D01*
X128535Y13036D01*
X128462Y13054D01*
X128387Y13073D01*
X128323Y13082D01*
X128267Y13091D01*
X128212D01*
X128082Y13082D01*
X127971Y13064D01*
X127879Y13036D01*
X127805Y13008D01*
X127740Y12980D01*
X127703Y12953D01*
X127675Y12934D01*
X127666Y12925D01*
X127601Y12860D01*
X127555Y12786D01*
X127518Y12703D01*
X127499Y12629D01*
X127481Y12564D01*
X127472Y12509D01*
Y12472D01*
Y12462D01*
Y12231D01*
X128212D01*
X128378Y12213D01*
X128526Y12203D01*
X128665Y12176D01*
X128795Y12148D01*
X128905Y12120D01*
X129016Y12092D01*
X129109Y12055D01*
X129192Y12018D01*
X129257Y11991D01*
X129322Y11963D01*
X129368Y11935D01*
X129414Y11917D01*
X129442Y11898D01*
X129451Y11880D01*
X129461D01*
X129544Y11815D01*
X129618Y11741D01*
X129683Y11667D01*
X129729Y11584D01*
X129821Y11426D01*
X129877Y11269D01*
X129904Y11121D01*
X129914Y11066D01*
X129923Y11010D01*
X129932Y10973D01*
Y10936D01*
Y10918D01*
Y10908D01*
X129923Y10816D01*
X129914Y10723D01*
X129895Y10640D01*
X129877Y10575D01*
X129858Y10511D01*
X129849Y10464D01*
X129831Y10437D01*
Y10427D01*
X129738Y10279D01*
X129692Y10215D01*
X129636Y10159D01*
X129599Y10113D01*
X129562Y10076D01*
X129544Y10057D01*
X129534Y10048D01*
X129386Y9946D01*
X129248Y9863D01*
X129192Y9835D01*
X129137Y9817D01*
X129109Y9798D01*
X129100D01*
X128896Y9752D01*
X128804Y9734D01*
X128711Y9724D01*
X128637D01*
X128582Y9715D01*
X128526D01*
X128397Y9724D01*
X128286Y9734D01*
X128240Y9743D01*
X128212D01*
X128193Y9752D01*
X128184D01*
X128064Y9780D01*
X127971Y9817D01*
X127934Y9826D01*
X127907Y9835D01*
X127897Y9845D01*
X127888D01*
X127786Y9891D01*
X127712Y9937D01*
X127657Y9974D01*
X127647Y9983D01*
X127638D01*
X127555Y10048D01*
X127490Y10104D01*
X127453Y10141D01*
X127435Y10159D01*
X127416Y10085D01*
X127407Y10020D01*
X127398Y9974D01*
Y9956D01*
X127379Y9891D01*
X127351Y9835D01*
X127342Y9798D01*
X127333Y9789D01*
X126288Y9789D01*
Y9845D01*
X126334Y9965D01*
X126371Y10085D01*
X126390Y10131D01*
X126399Y10168D01*
X126408Y10196D01*
Y10205D01*
X126417Y10289D01*
X126426Y10381D01*
X126436Y10464D01*
Y10557D01*
X126445Y10631D01*
Y10686D01*
Y10723D01*
Y10742D01*
Y12462D01*
X126454Y12583D01*
X126463Y12703D01*
X126482Y12805D01*
X126510Y12888D01*
X126538Y12962D01*
X126556Y13017D01*
X126565Y13054D01*
X126575Y13064D01*
X126630Y13156D01*
X126686Y13249D01*
X126741Y13323D01*
X126806Y13387D01*
X126852Y13434D01*
X126898Y13480D01*
X126926Y13498D01*
X126935Y13508D01*
X127120Y13619D01*
X127213Y13665D01*
X127296Y13702D01*
X127370Y13730D01*
X127426Y13748D01*
X127462Y13767D01*
X127481D01*
X127712Y13822D01*
X127832Y13841D01*
X127934Y13850D01*
X128027Y13859D01*
X128304D01*
X128434Y13841D01*
D02*
G37*
G36*
X152512Y9789D02*
X148941D01*
Y10622D01*
X151466D01*
Y15173D01*
X152512D01*
Y9789D01*
D02*
G37*
G36*
X147979D02*
X144344D01*
Y10622D01*
X146934D01*
Y12148D01*
X144723D01*
Y12962D01*
X146934D01*
Y14322D01*
X144362D01*
Y15173D01*
X147979D01*
Y9789D01*
D02*
G37*
G36*
X143520D02*
X142068D01*
X141883Y9798D01*
X141708Y9817D01*
X141550Y9845D01*
X141411Y9882D01*
X141291Y9909D01*
X141208Y9937D01*
X141153Y9956D01*
X141134Y9965D01*
X140977Y10039D01*
X140838Y10122D01*
X140718Y10205D01*
X140607Y10289D01*
X140524Y10363D01*
X140459Y10418D01*
X140412Y10455D01*
X140403Y10474D01*
X140292Y10603D01*
X140200Y10733D01*
X140117Y10862D01*
X140052Y10982D01*
X139996Y11093D01*
X139959Y11177D01*
X139941Y11232D01*
X139931Y11241D01*
Y11251D01*
X139876Y11426D01*
X139839Y11602D01*
X139802Y11769D01*
X139784Y11917D01*
X139774Y12055D01*
X139765Y12157D01*
Y12194D01*
Y12222D01*
Y12240D01*
Y12250D01*
Y12694D01*
X139774Y12897D01*
X139793Y13082D01*
X139821Y13249D01*
X139848Y13397D01*
X139876Y13517D01*
X139904Y13609D01*
X139913Y13646D01*
X139922Y13674D01*
X139931Y13683D01*
Y13693D01*
X139996Y13859D01*
X140079Y14007D01*
X140154Y14137D01*
X140237Y14248D01*
X140302Y14340D01*
X140357Y14414D01*
X140394Y14451D01*
X140412Y14470D01*
X140533Y14590D01*
X140653Y14692D01*
X140782Y14784D01*
X140893Y14858D01*
X140995Y14914D01*
X141078Y14951D01*
X141134Y14978D01*
X141143Y14988D01*
X141153D01*
X141319Y15052D01*
X141486Y15099D01*
X141652Y15126D01*
X141800Y15154D01*
X141929Y15163D01*
X142031Y15173D01*
X143520D01*
Y9789D01*
D02*
G37*
G36*
X134418D02*
X132291D01*
X132143Y9808D01*
X132013Y9817D01*
X131893Y9835D01*
X131801Y9854D01*
X131727Y9863D01*
X131681Y9882D01*
X131662D01*
X131533Y9928D01*
X131412Y9974D01*
X131310Y10020D01*
X131218Y10067D01*
X131153Y10113D01*
X131098Y10150D01*
X131061Y10168D01*
X131052Y10178D01*
X130959Y10261D01*
X130885Y10344D01*
X130820Y10427D01*
X130765Y10501D01*
X130728Y10575D01*
X130700Y10631D01*
X130682Y10668D01*
X130672Y10677D01*
X130626Y10788D01*
X130589Y10908D01*
X130570Y11029D01*
X130552Y11130D01*
X130543Y11223D01*
X130534Y11297D01*
Y11343D01*
Y11362D01*
X130543Y11510D01*
X130552Y11574D01*
X130561Y11630D01*
X130570Y11685D01*
X130580Y11722D01*
X130589Y11741D01*
Y11750D01*
X130635Y11889D01*
X130691Y12000D01*
X130719Y12046D01*
X130737Y12074D01*
X130746Y12092D01*
X130755Y12102D01*
X130848Y12213D01*
X130940Y12305D01*
X130977Y12342D01*
X131015Y12370D01*
X131033Y12379D01*
X131042Y12388D01*
X131172Y12462D01*
X131301Y12518D01*
X131357Y12536D01*
X131403Y12555D01*
X131431Y12564D01*
X131440D01*
X131310Y12629D01*
X131190Y12703D01*
X131088Y12777D01*
X131015Y12851D01*
X130950Y12916D01*
X130903Y12971D01*
X130876Y13008D01*
X130867Y13017D01*
X130802Y13138D01*
X130746Y13258D01*
X130709Y13369D01*
X130691Y13471D01*
X130672Y13563D01*
X130663Y13637D01*
Y13683D01*
Y13702D01*
X130672Y13841D01*
X130682Y13961D01*
X130709Y14072D01*
X130728Y14164D01*
X130755Y14238D01*
X130783Y14303D01*
X130792Y14340D01*
X130802Y14349D01*
X130857Y14451D01*
X130922Y14544D01*
X130987Y14618D01*
X131052Y14682D01*
X131107Y14738D01*
X131153Y14775D01*
X131190Y14803D01*
X131200Y14812D01*
X131301Y14877D01*
X131403Y14932D01*
X131505Y14978D01*
X131597Y15015D01*
X131681Y15043D01*
X131745Y15062D01*
X131791Y15080D01*
X131810D01*
X132088Y15136D01*
X132217Y15154D01*
X132346Y15163D01*
X132448Y15173D01*
X134418D01*
Y9789D01*
D02*
G37*
G36*
X122560Y13850D02*
X122699Y13831D01*
X122828Y13794D01*
X122939Y13767D01*
X123032Y13730D01*
X123097Y13693D01*
X123143Y13674D01*
X123161Y13665D01*
X123282Y13591D01*
X123392Y13498D01*
X123494Y13406D01*
X123577Y13323D01*
X123652Y13249D01*
X123698Y13184D01*
X123735Y13147D01*
X123744Y13128D01*
X123790Y13785D01*
X124752D01*
Y9789D01*
X123725D01*
Y12185D01*
X123670Y12296D01*
X123605Y12398D01*
X123550Y12472D01*
X123485Y12546D01*
X123430Y12601D01*
X123383Y12638D01*
X123346Y12657D01*
X123337Y12666D01*
X123226Y12721D01*
X123115Y12758D01*
X122995Y12795D01*
X122884Y12814D01*
X122782Y12823D01*
X122708Y12832D01*
X122495D01*
X122366Y12823D01*
X122310Y12814D01*
X122273D01*
X122246Y12805D01*
X122236D01*
X122079Y12786D01*
X122014Y12777D01*
X121950Y12768D01*
X121894Y12758D01*
X121857Y12749D01*
X121829Y12740D01*
X121820D01*
X121663Y13757D01*
X121765Y13785D01*
X121866Y13804D01*
X121913Y13813D01*
X121950Y13822D01*
X121986D01*
X122134Y13841D01*
X122273Y13859D01*
X122412D01*
X122560Y13850D01*
D02*
G37*
G36*
X198070Y12653D02*
X197025D01*
Y16122D01*
X195527Y12653D01*
X194491D01*
Y18036D01*
X195536D01*
Y14577D01*
X197025Y18036D01*
X198070D01*
Y12653D01*
D02*
G37*
G36*
X200938Y18101D02*
X201086Y18082D01*
X201215Y18055D01*
X201336Y18027D01*
X201428Y17999D01*
X201502Y17971D01*
X201548Y17953D01*
X201567Y17944D01*
X201696Y17879D01*
X201807Y17805D01*
X201918Y17722D01*
X202011Y17648D01*
X202085Y17583D01*
X202140Y17527D01*
X202177Y17491D01*
X202186Y17472D01*
X202279Y17352D01*
X202362Y17222D01*
X202436Y17093D01*
X202492Y16973D01*
X202538Y16871D01*
X202575Y16788D01*
X202593Y16732D01*
X202603Y16723D01*
Y16714D01*
X202649Y16547D01*
X202686Y16371D01*
X202714Y16195D01*
X202732Y16048D01*
X202742Y15909D01*
X202751Y15798D01*
Y15761D01*
Y15733D01*
Y15714D01*
Y15705D01*
Y14975D01*
X202742Y14771D01*
X202732Y14577D01*
X202705Y14401D01*
X202677Y14253D01*
X202658Y14123D01*
X202630Y14040D01*
X202621Y14003D01*
Y13975D01*
X202612Y13966D01*
Y13957D01*
X202547Y13800D01*
X202483Y13652D01*
X202418Y13522D01*
X202353Y13420D01*
X202297Y13328D01*
X202251Y13263D01*
X202214Y13226D01*
X202205Y13208D01*
X202103Y13097D01*
X201992Y13004D01*
X201881Y12921D01*
X201789Y12856D01*
X201696Y12801D01*
X201631Y12764D01*
X201585Y12745D01*
X201567Y12736D01*
X201428Y12680D01*
X201280Y12643D01*
X201141Y12616D01*
X201012Y12597D01*
X200910Y12588D01*
X200817Y12579D01*
X200614D01*
X200503Y12588D01*
X200392Y12597D01*
X200300Y12616D01*
X200216Y12625D01*
X200161Y12634D01*
X200114Y12643D01*
X200105D01*
X199994Y12662D01*
X199892Y12690D01*
X199809Y12718D01*
X199726Y12745D01*
X199661Y12764D01*
X199615Y12782D01*
X199578Y12801D01*
X199569D01*
X199402Y12875D01*
X199337Y12912D01*
X199273Y12949D01*
X199226Y12977D01*
X199189Y13004D01*
X199171Y13013D01*
X199162Y13023D01*
X199041Y13115D01*
X198958Y13198D01*
X198903Y13254D01*
X198884Y13263D01*
Y13273D01*
Y15400D01*
X200817D01*
Y14623D01*
X199920D01*
X199929Y13643D01*
X199967Y13605D01*
X200004Y13578D01*
X200031Y13559D01*
X200050Y13550D01*
X200105Y13522D01*
X200170Y13504D01*
X200216Y13485D01*
X200225Y13476D01*
X200235D01*
X200309Y13457D01*
X200383Y13439D01*
X200438Y13430D01*
X200457D01*
X200540Y13420D01*
X200614Y13411D01*
X200688D01*
X200781Y13420D01*
X200873Y13430D01*
X201030Y13476D01*
X201160Y13541D01*
X201261Y13615D01*
X201345Y13679D01*
X201410Y13744D01*
X201447Y13791D01*
X201456Y13809D01*
X201539Y13975D01*
X201594Y14161D01*
X201641Y14355D01*
X201669Y14549D01*
X201687Y14716D01*
X201696Y14789D01*
Y14854D01*
X201706Y14900D01*
Y14938D01*
Y14965D01*
Y14975D01*
Y15714D01*
Y15853D01*
X201696Y15983D01*
X201678Y16094D01*
X201669Y16186D01*
X201650Y16270D01*
X201641Y16334D01*
X201631Y16371D01*
Y16380D01*
X201604Y16482D01*
X201567Y16584D01*
X201530Y16667D01*
X201502Y16741D01*
X201474Y16797D01*
X201447Y16834D01*
X201437Y16861D01*
X201428Y16871D01*
X201326Y17000D01*
X201234Y17093D01*
X201187Y17120D01*
X201160Y17148D01*
X201141Y17167D01*
X201132D01*
X201067Y17204D01*
X201003Y17222D01*
X200882Y17259D01*
X200836D01*
X200799Y17268D01*
X200762D01*
X200614Y17259D01*
X200494Y17232D01*
X200383Y17204D01*
X200300Y17167D01*
X200235Y17120D01*
X200188Y17093D01*
X200161Y17065D01*
X200151Y17056D01*
X200078Y16973D01*
X200022Y16871D01*
X199985Y16769D01*
X199948Y16667D01*
X199929Y16575D01*
X199911Y16501D01*
X199902Y16454D01*
Y16445D01*
Y16436D01*
X198884D01*
X198903Y16575D01*
X198931Y16704D01*
X198958Y16825D01*
X198986Y16926D01*
X199014Y17009D01*
X199041Y17074D01*
X199051Y17120D01*
X199060Y17130D01*
X199116Y17241D01*
X199171Y17343D01*
X199226Y17435D01*
X199291Y17509D01*
X199337Y17574D01*
X199384Y17620D01*
X199411Y17648D01*
X199421Y17657D01*
X199513Y17731D01*
X199606Y17805D01*
X199707Y17861D01*
X199791Y17907D01*
X199874Y17944D01*
X199939Y17971D01*
X199976Y17981D01*
X199994Y17990D01*
X200124Y18027D01*
X200262Y18064D01*
X200392Y18082D01*
X200521Y18092D01*
X200633Y18101D01*
X200716Y18110D01*
X200790D01*
X200938Y18101D01*
D02*
G37*
G36*
X193528Y12653D02*
X192076D01*
X191891Y12662D01*
X191716Y12680D01*
X191558Y12708D01*
X191419Y12745D01*
X191299Y12773D01*
X191216Y12801D01*
X191161Y12819D01*
X191142Y12829D01*
X190985Y12902D01*
X190846Y12986D01*
X190726Y13069D01*
X190615Y13152D01*
X190532Y13226D01*
X190467Y13282D01*
X190420Y13319D01*
X190411Y13337D01*
X190300Y13467D01*
X190208Y13596D01*
X190124Y13726D01*
X190060Y13846D01*
X190004Y13957D01*
X189967Y14040D01*
X189949Y14096D01*
X189939Y14105D01*
Y14114D01*
X189884Y14290D01*
X189847Y14466D01*
X189810Y14632D01*
X189792Y14780D01*
X189782Y14919D01*
X189773Y15021D01*
Y15058D01*
Y15086D01*
Y15104D01*
Y15113D01*
Y15557D01*
X189782Y15761D01*
X189801Y15946D01*
X189829Y16112D01*
X189856Y16260D01*
X189884Y16380D01*
X189912Y16473D01*
X189921Y16510D01*
X189930Y16538D01*
X189939Y16547D01*
Y16556D01*
X190004Y16723D01*
X190087Y16871D01*
X190162Y17000D01*
X190245Y17111D01*
X190310Y17204D01*
X190365Y17278D01*
X190402Y17315D01*
X190420Y17333D01*
X190541Y17454D01*
X190661Y17555D01*
X190790Y17648D01*
X190902Y17722D01*
X191003Y17777D01*
X191086Y17814D01*
X191142Y17842D01*
X191151Y17851D01*
X191161D01*
X191327Y17916D01*
X191493Y17962D01*
X191660Y17990D01*
X191808Y18018D01*
X191937Y18027D01*
X192039Y18036D01*
X193528D01*
Y12653D01*
D02*
G37*
G36*
X201336Y32338D02*
X200281D01*
X198644Y37721D01*
X199791D01*
X200808Y33836D01*
X201817Y37721D01*
X202963D01*
X201336Y32338D01*
D02*
G37*
G36*
X196414Y37786D02*
X196572Y37767D01*
X196711Y37740D01*
X196840Y37712D01*
X196942Y37675D01*
X197016Y37647D01*
X197062Y37629D01*
X197081Y37620D01*
X197210Y37545D01*
X197330Y37472D01*
X197441Y37388D01*
X197534Y37305D01*
X197608Y37231D01*
X197663Y37176D01*
X197700Y37139D01*
X197710Y37120D01*
X197802Y37000D01*
X197876Y36870D01*
X197950Y36741D01*
X198005Y36621D01*
X198052Y36519D01*
X198080Y36435D01*
X198098Y36380D01*
X198107Y36371D01*
Y36362D01*
X198153Y36195D01*
X198190Y36019D01*
X198209Y35853D01*
X198228Y35705D01*
X198237Y35575D01*
X198246Y35473D01*
Y35436D01*
Y35409D01*
Y35390D01*
Y35381D01*
Y34659D01*
X198237Y34465D01*
X198228Y34280D01*
X198209Y34114D01*
X198181Y33966D01*
X198153Y33845D01*
X198135Y33753D01*
X198126Y33725D01*
Y33698D01*
X198117Y33688D01*
Y33679D01*
X198061Y33522D01*
X197996Y33374D01*
X197932Y33244D01*
X197867Y33133D01*
X197811Y33041D01*
X197765Y32976D01*
X197737Y32939D01*
X197728Y32921D01*
X197626Y32809D01*
X197524Y32708D01*
X197423Y32625D01*
X197321Y32560D01*
X197238Y32504D01*
X197173Y32467D01*
X197127Y32440D01*
X197108Y32430D01*
X196969Y32375D01*
X196821Y32338D01*
X196674Y32301D01*
X196544Y32282D01*
X196433Y32273D01*
X196341Y32264D01*
X196257D01*
X196100Y32273D01*
X195961Y32282D01*
X195832Y32301D01*
X195721Y32329D01*
X195619Y32347D01*
X195554Y32366D01*
X195508Y32375D01*
X195490Y32384D01*
X195360Y32430D01*
X195249Y32486D01*
X195147Y32541D01*
X195055Y32597D01*
X194990Y32652D01*
X194934Y32689D01*
X194897Y32717D01*
X194888Y32726D01*
X194796Y32819D01*
X194722Y32911D01*
X194648Y33004D01*
X194592Y33087D01*
X194546Y33170D01*
X194518Y33226D01*
X194500Y33263D01*
X194491Y33281D01*
X194444Y33411D01*
X194398Y33540D01*
X194370Y33661D01*
X194343Y33781D01*
X194333Y33873D01*
X194324Y33957D01*
X194315Y34003D01*
Y34021D01*
X195351D01*
X195369Y33855D01*
X195406Y33707D01*
X195443Y33586D01*
X195499Y33485D01*
X195545Y33411D01*
X195582Y33355D01*
X195610Y33327D01*
X195619Y33318D01*
X195712Y33244D01*
X195813Y33198D01*
X195924Y33161D01*
X196026Y33133D01*
X196118Y33115D01*
X196193Y33105D01*
X196257D01*
X196424Y33124D01*
X196572Y33161D01*
X196701Y33226D01*
X196794Y33300D01*
X196877Y33364D01*
X196923Y33429D01*
X196960Y33466D01*
X196969Y33485D01*
X197006Y33559D01*
X197044Y33642D01*
X197099Y33827D01*
X197136Y34021D01*
X197164Y34216D01*
X197182Y34391D01*
Y34465D01*
X197192Y34530D01*
Y34585D01*
Y34622D01*
Y34650D01*
Y34659D01*
Y35390D01*
Y35529D01*
X197182Y35649D01*
X197173Y35760D01*
X197164Y35862D01*
X197154Y35936D01*
X197145Y36001D01*
X197136Y36038D01*
Y36047D01*
X197108Y36149D01*
X197090Y36250D01*
X197062Y36334D01*
X197034Y36408D01*
X197006Y36463D01*
X196988Y36500D01*
X196969Y36528D01*
Y36537D01*
X196923Y36611D01*
X196868Y36667D01*
X196821Y36722D01*
X196775Y36768D01*
X196738Y36796D01*
X196701Y36824D01*
X196683Y36843D01*
X196674D01*
X196599Y36880D01*
X196526Y36907D01*
X196387Y36944D01*
X196331D01*
X196285Y36953D01*
X196248D01*
X196091Y36944D01*
X196026Y36935D01*
X195970Y36926D01*
X195924Y36907D01*
X195887Y36898D01*
X195869Y36889D01*
X195860D01*
X195748Y36833D01*
X195656Y36768D01*
X195600Y36722D01*
X195591Y36713D01*
X195582Y36704D01*
X195508Y36602D01*
X195452Y36509D01*
X195434Y36463D01*
X195425Y36426D01*
X195415Y36408D01*
Y36399D01*
X195378Y36260D01*
X195360Y36121D01*
X195351Y36066D01*
X195342Y36019D01*
Y35991D01*
Y35982D01*
X194306D01*
X194324Y36140D01*
X194352Y36278D01*
X194379Y36408D01*
X194407Y36519D01*
X194444Y36611D01*
X194463Y36685D01*
X194481Y36722D01*
X194491Y36741D01*
X194546Y36861D01*
X194611Y36972D01*
X194676Y37074D01*
X194740Y37157D01*
X194796Y37222D01*
X194842Y37277D01*
X194870Y37305D01*
X194879Y37314D01*
X194972Y37398D01*
X195073Y37472D01*
X195166Y37527D01*
X195258Y37573D01*
X195342Y37620D01*
X195406Y37647D01*
X195443Y37657D01*
X195462Y37666D01*
X195591Y37712D01*
X195730Y37740D01*
X195860Y37767D01*
X195980Y37777D01*
X196091Y37786D01*
X196174Y37795D01*
X196248D01*
X196414Y37786D01*
D02*
G37*
G36*
X191873D02*
X192030Y37767D01*
X192169Y37740D01*
X192298Y37712D01*
X192400Y37675D01*
X192474Y37647D01*
X192520Y37629D01*
X192539Y37620D01*
X192668Y37545D01*
X192789Y37472D01*
X192900Y37388D01*
X192992Y37305D01*
X193066Y37231D01*
X193122Y37176D01*
X193158Y37139D01*
X193168Y37120D01*
X193260Y37000D01*
X193334Y36870D01*
X193408Y36741D01*
X193464Y36621D01*
X193510Y36519D01*
X193538Y36435D01*
X193556Y36380D01*
X193565Y36371D01*
Y36362D01*
X193612Y36195D01*
X193649Y36019D01*
X193667Y35853D01*
X193686Y35705D01*
X193695Y35575D01*
X193704Y35473D01*
Y35436D01*
Y35409D01*
Y35390D01*
Y35381D01*
Y34659D01*
X193695Y34465D01*
X193686Y34280D01*
X193667Y34114D01*
X193640Y33966D01*
X193612Y33845D01*
X193593Y33753D01*
X193584Y33725D01*
Y33698D01*
X193575Y33688D01*
Y33679D01*
X193519Y33522D01*
X193455Y33374D01*
X193390Y33244D01*
X193325Y33133D01*
X193270Y33041D01*
X193223Y32976D01*
X193195Y32939D01*
X193186Y32921D01*
X193085Y32809D01*
X192983Y32708D01*
X192881Y32625D01*
X192779Y32560D01*
X192696Y32504D01*
X192631Y32467D01*
X192585Y32440D01*
X192567Y32430D01*
X192428Y32375D01*
X192280Y32338D01*
X192132Y32301D01*
X192002Y32282D01*
X191891Y32273D01*
X191799Y32264D01*
X191716D01*
X191558Y32273D01*
X191419Y32282D01*
X191290Y32301D01*
X191179Y32329D01*
X191077Y32347D01*
X191013Y32366D01*
X190966Y32375D01*
X190948Y32384D01*
X190818Y32430D01*
X190707Y32486D01*
X190605Y32541D01*
X190513Y32597D01*
X190448Y32652D01*
X190393Y32689D01*
X190356Y32717D01*
X190347Y32726D01*
X190254Y32819D01*
X190180Y32911D01*
X190106Y33004D01*
X190050Y33087D01*
X190004Y33170D01*
X189977Y33226D01*
X189958Y33263D01*
X189949Y33281D01*
X189902Y33411D01*
X189856Y33540D01*
X189829Y33661D01*
X189801Y33781D01*
X189792Y33873D01*
X189782Y33957D01*
X189773Y34003D01*
Y34021D01*
X190809D01*
X190828Y33855D01*
X190865Y33707D01*
X190902Y33586D01*
X190957Y33485D01*
X191003Y33411D01*
X191040Y33355D01*
X191068Y33327D01*
X191077Y33318D01*
X191170Y33244D01*
X191271Y33198D01*
X191383Y33161D01*
X191484Y33133D01*
X191577Y33115D01*
X191651Y33105D01*
X191716D01*
X191882Y33124D01*
X192030Y33161D01*
X192159Y33226D01*
X192252Y33300D01*
X192335Y33364D01*
X192382Y33429D01*
X192419Y33466D01*
X192428Y33485D01*
X192465Y33559D01*
X192502Y33642D01*
X192557Y33827D01*
X192594Y34021D01*
X192622Y34216D01*
X192640Y34391D01*
Y34465D01*
X192650Y34530D01*
Y34585D01*
Y34622D01*
Y34650D01*
Y34659D01*
Y35390D01*
Y35529D01*
X192640Y35649D01*
X192631Y35760D01*
X192622Y35862D01*
X192613Y35936D01*
X192604Y36001D01*
X192594Y36038D01*
Y36047D01*
X192567Y36149D01*
X192548Y36250D01*
X192520Y36334D01*
X192492Y36408D01*
X192465Y36463D01*
X192446Y36500D01*
X192428Y36528D01*
Y36537D01*
X192382Y36611D01*
X192326Y36667D01*
X192280Y36722D01*
X192234Y36768D01*
X192197Y36796D01*
X192159Y36824D01*
X192141Y36843D01*
X192132D01*
X192058Y36880D01*
X191984Y36907D01*
X191845Y36944D01*
X191789D01*
X191743Y36953D01*
X191706D01*
X191549Y36944D01*
X191484Y36935D01*
X191429Y36926D01*
X191383Y36907D01*
X191346Y36898D01*
X191327Y36889D01*
X191318D01*
X191207Y36833D01*
X191114Y36768D01*
X191059Y36722D01*
X191050Y36713D01*
X191040Y36704D01*
X190966Y36602D01*
X190911Y36509D01*
X190892Y36463D01*
X190883Y36426D01*
X190874Y36408D01*
Y36399D01*
X190837Y36260D01*
X190818Y36121D01*
X190809Y36066D01*
X190800Y36019D01*
Y35991D01*
Y35982D01*
X189764D01*
X189782Y36140D01*
X189810Y36278D01*
X189838Y36408D01*
X189866Y36519D01*
X189902Y36611D01*
X189921Y36685D01*
X189939Y36722D01*
X189949Y36741D01*
X190004Y36861D01*
X190069Y36972D01*
X190134Y37074D01*
X190199Y37157D01*
X190254Y37222D01*
X190300Y37277D01*
X190328Y37305D01*
X190337Y37314D01*
X190430Y37398D01*
X190532Y37472D01*
X190624Y37527D01*
X190717Y37573D01*
X190800Y37620D01*
X190865Y37647D01*
X190902Y37657D01*
X190920Y37666D01*
X191050Y37712D01*
X191188Y37740D01*
X191318Y37767D01*
X191438Y37777D01*
X191549Y37786D01*
X191632Y37795D01*
X191706D01*
X191873Y37786D01*
D02*
G37*
G36*
X123758Y41549D02*
X123832Y41540D01*
X123888Y41521D01*
X123897Y41512D01*
X123907D01*
X123980Y41475D01*
X124036Y41447D01*
X124073Y41410D01*
X124091Y41401D01*
X124138Y41346D01*
X124175Y41290D01*
X124203Y41253D01*
X124212Y41244D01*
Y41235D01*
X124230Y41161D01*
X124240Y41087D01*
X124249Y41031D01*
Y41022D01*
Y41013D01*
X124240Y40929D01*
X124230Y40855D01*
X124221Y40809D01*
X124212Y40800D01*
Y40791D01*
X124175Y40717D01*
X124138Y40661D01*
X124101Y40624D01*
X124091Y40615D01*
X124027Y40569D01*
X123971Y40532D01*
X123925Y40513D01*
X123907Y40504D01*
X123823Y40485D01*
X123740Y40476D01*
X123675Y40467D01*
X123657D01*
X123564Y40476D01*
X123481Y40495D01*
X123407Y40513D01*
X123342Y40541D01*
X123296Y40569D01*
X123259Y40596D01*
X123240Y40606D01*
X123231Y40615D01*
X123176Y40680D01*
X123139Y40744D01*
X123102Y40809D01*
X123083Y40874D01*
X123074Y40929D01*
X123065Y40976D01*
Y41003D01*
Y41013D01*
X123074Y41096D01*
X123092Y41179D01*
X123120Y41244D01*
X123148Y41299D01*
X123176Y41346D01*
X123204Y41373D01*
X123222Y41392D01*
X123231Y41401D01*
X123296Y41457D01*
X123361Y41494D01*
X123435Y41521D01*
X123500Y41540D01*
X123564Y41549D01*
X123610Y41558D01*
X123657D01*
X123758Y41549D01*
D02*
G37*
G36*
X171054Y35990D02*
X170009D01*
Y37572D01*
X169444Y38201D01*
X168112Y35990D01*
X166873D01*
X168751Y38987D01*
X166937Y41373D01*
X168214D01*
X169518Y39560D01*
X170009Y38904D01*
Y41373D01*
X171054D01*
Y35990D01*
D02*
G37*
G36*
X155985Y40041D02*
X156106Y40032D01*
X156217Y40014D01*
X156300Y39995D01*
X156365Y39977D01*
X156402Y39967D01*
X156420Y39958D01*
X156531Y39921D01*
X156633Y39875D01*
X156726Y39829D01*
X156809Y39782D01*
X156874Y39745D01*
X156920Y39708D01*
X156948Y39690D01*
X156957Y39681D01*
X157031Y39616D01*
X157096Y39551D01*
X157151Y39486D01*
X157197Y39422D01*
X157234Y39366D01*
X157262Y39320D01*
X157271Y39292D01*
X157281Y39283D01*
X157317Y39200D01*
X157345Y39107D01*
X157364Y39024D01*
X157373Y38950D01*
X157382Y38885D01*
X157392Y38839D01*
Y38802D01*
Y38793D01*
X156365D01*
X156356Y38876D01*
X156346Y38950D01*
X156318Y39005D01*
X156291Y39061D01*
X156272Y39098D01*
X156245Y39126D01*
X156235Y39144D01*
X156226Y39153D01*
X156161Y39200D01*
X156087Y39237D01*
X156013Y39255D01*
X155939Y39274D01*
X155875Y39283D01*
X155819Y39292D01*
X155763D01*
X155634Y39283D01*
X155523Y39264D01*
X155430Y39237D01*
X155357Y39209D01*
X155292Y39181D01*
X155255Y39153D01*
X155227Y39135D01*
X155218Y39126D01*
X155153Y39061D01*
X155107Y38987D01*
X155070Y38904D01*
X155051Y38830D01*
X155033Y38765D01*
X155024Y38709D01*
Y38672D01*
Y38663D01*
Y38432D01*
X155763Y38432D01*
X155930Y38413D01*
X156078Y38404D01*
X156217Y38376D01*
X156346Y38349D01*
X156457Y38321D01*
X156568Y38293D01*
X156661Y38256D01*
X156744Y38219D01*
X156809Y38191D01*
X156874Y38164D01*
X156920Y38136D01*
X156966Y38117D01*
X156994Y38099D01*
X157003Y38080D01*
X157012D01*
X157096Y38016D01*
X157169Y37942D01*
X157234Y37868D01*
X157281Y37784D01*
X157373Y37627D01*
X157429Y37470D01*
X157456Y37322D01*
X157466Y37266D01*
X157475Y37211D01*
X157484Y37174D01*
Y37137D01*
Y37118D01*
Y37109D01*
X157475Y37017D01*
X157466Y36924D01*
X157447Y36841D01*
X157429Y36776D01*
X157410Y36711D01*
X157401Y36665D01*
X157382Y36637D01*
Y36628D01*
X157290Y36480D01*
X157244Y36415D01*
X157188Y36360D01*
X157151Y36314D01*
X157114Y36277D01*
X157096Y36258D01*
X157086Y36249D01*
X156938Y36147D01*
X156799Y36064D01*
X156744Y36036D01*
X156688Y36018D01*
X156661Y35999D01*
X156651D01*
X156448Y35953D01*
X156356Y35934D01*
X156263Y35925D01*
X156189D01*
X156133Y35916D01*
X156078D01*
X155948Y35925D01*
X155838Y35934D01*
X155791Y35944D01*
X155763D01*
X155745Y35953D01*
X155736D01*
X155615Y35981D01*
X155523Y36018D01*
X155486Y36027D01*
X155458Y36036D01*
X155449Y36045D01*
X155440D01*
X155338Y36092D01*
X155264Y36138D01*
X155209Y36175D01*
X155199Y36184D01*
X155190D01*
X155107Y36249D01*
X155042Y36304D01*
X155005Y36341D01*
X154987Y36360D01*
X154968Y36286D01*
X154959Y36221D01*
X154949Y36175D01*
Y36156D01*
X154931Y36092D01*
X154903Y36036D01*
X154894Y35999D01*
X154885Y35990D01*
X153840D01*
Y36045D01*
X153886Y36166D01*
X153923Y36286D01*
X153941Y36332D01*
X153951Y36369D01*
X153960Y36397D01*
Y36406D01*
X153969Y36489D01*
X153978Y36582D01*
X153988Y36665D01*
Y36758D01*
X153997Y36832D01*
Y36887D01*
Y36924D01*
Y36943D01*
Y38663D01*
X154006Y38783D01*
X154015Y38904D01*
X154034Y39005D01*
X154061Y39089D01*
X154089Y39163D01*
X154108Y39218D01*
X154117Y39255D01*
X154126Y39264D01*
X154182Y39357D01*
X154237Y39449D01*
X154293Y39523D01*
X154358Y39588D01*
X154404Y39634D01*
X154450Y39681D01*
X154478Y39699D01*
X154487Y39708D01*
X154672Y39819D01*
X154764Y39866D01*
X154848Y39903D01*
X154922Y39930D01*
X154977Y39949D01*
X155014Y39967D01*
X155033D01*
X155264Y40023D01*
X155384Y40041D01*
X155486Y40051D01*
X155578Y40060D01*
X155856D01*
X155985Y40041D01*
D02*
G37*
G36*
X128735Y40041D02*
X128855Y40032D01*
X128966Y40014D01*
X129050Y39995D01*
X129114Y39977D01*
X129151Y39967D01*
X129170Y39958D01*
X129281Y39921D01*
X129383Y39875D01*
X129475Y39829D01*
X129558Y39782D01*
X129623Y39745D01*
X129669Y39708D01*
X129697Y39690D01*
X129706Y39681D01*
X129780Y39616D01*
X129845Y39551D01*
X129901Y39486D01*
X129947Y39422D01*
X129984Y39366D01*
X130011Y39320D01*
X130021Y39292D01*
X130030Y39283D01*
X130067Y39200D01*
X130095Y39107D01*
X130113Y39024D01*
X130122Y38950D01*
X130132Y38885D01*
X130141Y38839D01*
Y38802D01*
Y38793D01*
X129114D01*
X129105Y38876D01*
X129096Y38950D01*
X129068Y39005D01*
X129040Y39061D01*
X129022Y39098D01*
X128994Y39126D01*
X128985Y39144D01*
X128975Y39153D01*
X128911Y39200D01*
X128837Y39237D01*
X128763Y39255D01*
X128689Y39274D01*
X128624Y39283D01*
X128568Y39292D01*
X128513D01*
X128384Y39283D01*
X128272Y39264D01*
X128180Y39237D01*
X128106Y39209D01*
X128041Y39181D01*
X128004Y39153D01*
X127977Y39135D01*
X127967Y39126D01*
X127902Y39061D01*
X127856Y38987D01*
X127819Y38904D01*
X127801Y38830D01*
X127782Y38765D01*
X127773Y38709D01*
Y38672D01*
Y38663D01*
Y38432D01*
X128513D01*
X128680Y38413D01*
X128828Y38404D01*
X128966Y38376D01*
X129096Y38349D01*
X129207Y38321D01*
X129318Y38293D01*
X129410Y38256D01*
X129493Y38219D01*
X129558Y38191D01*
X129623Y38164D01*
X129669Y38136D01*
X129716Y38117D01*
X129743Y38099D01*
X129753Y38080D01*
X129762D01*
X129845Y38016D01*
X129919Y37942D01*
X129984Y37868D01*
X130030Y37784D01*
X130122Y37627D01*
X130178Y37470D01*
X130206Y37322D01*
X130215Y37266D01*
X130224Y37211D01*
X130234Y37174D01*
Y37137D01*
Y37118D01*
Y37109D01*
X130224Y37017D01*
X130215Y36924D01*
X130196Y36841D01*
X130178Y36776D01*
X130159Y36711D01*
X130150Y36665D01*
X130132Y36637D01*
Y36628D01*
X130039Y36480D01*
X129993Y36415D01*
X129938Y36360D01*
X129901Y36314D01*
X129864Y36277D01*
X129845Y36258D01*
X129836Y36249D01*
X129688Y36147D01*
X129549Y36064D01*
X129493Y36036D01*
X129438Y36018D01*
X129410Y35999D01*
X129401D01*
X129198Y35953D01*
X129105Y35934D01*
X129013Y35925D01*
X128938D01*
X128883Y35916D01*
X128828D01*
X128698Y35925D01*
X128587Y35934D01*
X128541Y35944D01*
X128513D01*
X128495Y35953D01*
X128485D01*
X128365Y35981D01*
X128272Y36018D01*
X128235Y36027D01*
X128208Y36036D01*
X128199Y36045D01*
X128189D01*
X128087Y36092D01*
X128014Y36138D01*
X127958Y36175D01*
X127949Y36184D01*
X127939D01*
X127856Y36249D01*
X127792Y36304D01*
X127754Y36341D01*
X127736Y36360D01*
X127717Y36286D01*
X127708Y36221D01*
X127699Y36175D01*
Y36156D01*
X127681Y36092D01*
X127653Y36036D01*
X127644Y35999D01*
X127634Y35990D01*
X126589D01*
Y36045D01*
X126635Y36166D01*
X126672Y36286D01*
X126691Y36332D01*
X126700Y36369D01*
X126709Y36397D01*
Y36406D01*
X126718Y36489D01*
X126728Y36582D01*
X126737Y36665D01*
Y36758D01*
X126746Y36832D01*
Y36887D01*
Y36924D01*
Y36943D01*
Y38663D01*
X126755Y38783D01*
X126765Y38904D01*
X126783Y39005D01*
X126811Y39089D01*
X126839Y39163D01*
X126857Y39218D01*
X126866Y39255D01*
X126876Y39264D01*
X126931Y39357D01*
X126987Y39449D01*
X127042Y39523D01*
X127107Y39588D01*
X127153Y39634D01*
X127199Y39681D01*
X127227Y39699D01*
X127236Y39708D01*
X127421Y39819D01*
X127514Y39866D01*
X127597Y39903D01*
X127671Y39930D01*
X127727Y39949D01*
X127764Y39967D01*
X127782D01*
X128014Y40023D01*
X128134Y40041D01*
X128235Y40051D01*
X128328Y40060D01*
X128605D01*
X128735Y40041D01*
D02*
G37*
G36*
X161064Y39986D02*
X161979D01*
Y39227D01*
X161064D01*
Y37405D01*
X161055Y37266D01*
X161045Y37137D01*
X161027Y37017D01*
X161008Y36924D01*
X160990Y36841D01*
X160980Y36785D01*
X160962Y36739D01*
Y36730D01*
X160916Y36628D01*
X160870Y36536D01*
X160823Y36452D01*
X160777Y36388D01*
X160740Y36332D01*
X160703Y36295D01*
X160685Y36267D01*
X160675Y36258D01*
X160518Y36147D01*
X160370Y36064D01*
X160305Y36036D01*
X160259Y36018D01*
X160222Y35999D01*
X160213D01*
X160009Y35953D01*
X159907Y35934D01*
X159815Y35925D01*
X159732D01*
X159667Y35916D01*
X159491D01*
X159380Y35925D01*
X159334D01*
X159297Y35934D01*
X159269D01*
X159140Y35953D01*
X159038Y35962D01*
X158992Y35971D01*
X158964Y35981D01*
X158936D01*
X158816Y35999D01*
X158714Y36018D01*
X158677Y36027D01*
X158650Y36036D01*
X158631Y36045D01*
X158622D01*
X158520Y36082D01*
X158437Y36119D01*
X158390Y36147D01*
X158372Y36156D01*
X158474Y36859D01*
X158529Y36850D01*
X158585Y36832D01*
X158622Y36822D01*
X158640D01*
X158714Y36813D01*
X158779Y36795D01*
X158835Y36785D01*
X158853D01*
X158936Y36776D01*
X159010Y36767D01*
X159075Y36758D01*
X159093D01*
X159177Y36748D01*
X159325D01*
X159445Y36758D01*
X159537Y36767D01*
X159574Y36776D01*
X159593D01*
X159611Y36785D01*
X159621D01*
X159713Y36822D01*
X159778Y36859D01*
X159824Y36896D01*
X159843Y36906D01*
X159907Y36980D01*
X159954Y37063D01*
X159982Y37118D01*
X159991Y37137D01*
Y37146D01*
X160019Y37266D01*
X160028Y37387D01*
X160037Y37433D01*
Y37470D01*
Y37498D01*
Y37507D01*
Y39227D01*
X158548D01*
Y39986D01*
X160037D01*
Y40966D01*
X161064D01*
Y39986D01*
D02*
G37*
G36*
X164792Y40051D02*
X164939Y40032D01*
X165069Y40014D01*
X165189Y39986D01*
X165282Y39949D01*
X165356Y39930D01*
X165402Y39912D01*
X165420Y39903D01*
X165550Y39838D01*
X165661Y39773D01*
X165772Y39699D01*
X165855Y39634D01*
X165929Y39570D01*
X165985Y39523D01*
X166022Y39486D01*
X166031Y39477D01*
X166123Y39375D01*
X166207Y39264D01*
X166271Y39153D01*
X166327Y39052D01*
X166373Y38968D01*
X166410Y38894D01*
X166429Y38848D01*
X166438Y38830D01*
X166484Y38682D01*
X166521Y38543D01*
X166540Y38404D01*
X166558Y38275D01*
X166568Y38164D01*
X166577Y38071D01*
Y38016D01*
Y38006D01*
Y37997D01*
Y37849D01*
X166568Y37701D01*
X166549Y37562D01*
X166531Y37433D01*
X166503Y37322D01*
X166475Y37220D01*
X166447Y37155D01*
X166438Y37109D01*
X166429Y37091D01*
X166364Y36961D01*
X166299Y36850D01*
X166235Y36739D01*
X166161Y36647D01*
X166105Y36573D01*
X166059Y36517D01*
X166022Y36480D01*
X166013Y36471D01*
X165911Y36378D01*
X165800Y36295D01*
X165689Y36230D01*
X165587Y36175D01*
X165495Y36129D01*
X165430Y36092D01*
X165384Y36073D01*
X165365Y36064D01*
X165217Y36018D01*
X165069Y35981D01*
X164930Y35953D01*
X164801Y35934D01*
X164690Y35925D01*
X164597Y35916D01*
X164523D01*
X164311Y35925D01*
X164218Y35934D01*
X164135Y35953D01*
X164070Y35962D01*
X164024Y35971D01*
X163987Y35981D01*
X163978D01*
X163793Y36027D01*
X163718Y36055D01*
X163645Y36082D01*
X163589Y36101D01*
X163552Y36119D01*
X163524Y36138D01*
X163515D01*
X163367Y36221D01*
X163312Y36258D01*
X163256Y36295D01*
X163210Y36323D01*
X163182Y36351D01*
X163163Y36360D01*
X163154Y36369D01*
X163043Y36462D01*
X162969Y36554D01*
X162932Y36591D01*
X162914Y36610D01*
X162895Y36628D01*
Y36637D01*
X163413Y37192D01*
X163478Y37118D01*
X163543Y37054D01*
X163598Y37007D01*
X163608Y36989D01*
X163617D01*
X163709Y36933D01*
X163793Y36887D01*
X163830Y36869D01*
X163848Y36859D01*
X163866Y36850D01*
X163876D01*
X163978Y36813D01*
X164070Y36785D01*
X164107Y36776D01*
X164135D01*
X164153Y36767D01*
X164163D01*
X164274Y36748D01*
X164366Y36739D01*
X164459D01*
X164616Y36748D01*
X164681Y36758D01*
X164745Y36776D01*
X164792Y36785D01*
X164829Y36795D01*
X164856Y36804D01*
X164866D01*
X164986Y36859D01*
X165087Y36924D01*
X165124Y36952D01*
X165152Y36970D01*
X165171Y36980D01*
X165180Y36989D01*
X165272Y37081D01*
X165347Y37174D01*
X165374Y37220D01*
X165393Y37248D01*
X165411Y37266D01*
Y37276D01*
X165467Y37405D01*
X165504Y37535D01*
X165513Y37581D01*
X165522Y37618D01*
X165532Y37646D01*
Y37655D01*
X162812D01*
Y38090D01*
X162821Y38256D01*
X162830Y38404D01*
X162849Y38543D01*
X162877Y38663D01*
X162905Y38756D01*
X162923Y38830D01*
X162932Y38876D01*
X162942Y38894D01*
X162988Y39024D01*
X163052Y39144D01*
X163108Y39246D01*
X163163Y39338D01*
X163219Y39412D01*
X163265Y39468D01*
X163293Y39505D01*
X163302Y39514D01*
X163395Y39607D01*
X163487Y39690D01*
X163589Y39755D01*
X163672Y39810D01*
X163756Y39856D01*
X163820Y39884D01*
X163857Y39903D01*
X163876Y39912D01*
X164005Y39958D01*
X164135Y39995D01*
X164264Y40023D01*
X164384Y40041D01*
X164486Y40051D01*
X164569Y40060D01*
X164644D01*
X164792Y40051D01*
D02*
G37*
G36*
X137541Y40051D02*
X137689Y40032D01*
X137819Y40014D01*
X137939Y39986D01*
X138031Y39949D01*
X138105Y39930D01*
X138152Y39912D01*
X138170Y39903D01*
X138300Y39838D01*
X138410Y39773D01*
X138522Y39699D01*
X138605Y39634D01*
X138679Y39570D01*
X138734Y39523D01*
X138771Y39486D01*
X138780Y39477D01*
X138873Y39375D01*
X138956Y39264D01*
X139021Y39153D01*
X139076Y39052D01*
X139123Y38968D01*
X139160Y38894D01*
X139178Y38848D01*
X139188Y38830D01*
X139234Y38682D01*
X139271Y38543D01*
X139289Y38404D01*
X139308Y38275D01*
X139317Y38164D01*
X139326Y38071D01*
Y38016D01*
Y38006D01*
Y37997D01*
Y37849D01*
X139317Y37701D01*
X139298Y37562D01*
X139280Y37433D01*
X139252Y37322D01*
X139225Y37220D01*
X139197Y37155D01*
X139188Y37109D01*
X139178Y37091D01*
X139113Y36961D01*
X139049Y36850D01*
X138984Y36739D01*
X138910Y36647D01*
X138855Y36573D01*
X138808Y36517D01*
X138771Y36480D01*
X138762Y36471D01*
X138660Y36378D01*
X138549Y36295D01*
X138438Y36230D01*
X138337Y36175D01*
X138244Y36129D01*
X138179Y36092D01*
X138133Y36073D01*
X138115Y36064D01*
X137967Y36018D01*
X137819Y35981D01*
X137680Y35953D01*
X137550Y35934D01*
X137439Y35925D01*
X137347Y35916D01*
X137273D01*
X137060Y35925D01*
X136968Y35934D01*
X136884Y35953D01*
X136820Y35962D01*
X136773Y35971D01*
X136736Y35981D01*
X136727D01*
X136542Y36027D01*
X136468Y36055D01*
X136394Y36082D01*
X136338Y36101D01*
X136302Y36119D01*
X136274Y36138D01*
X136265D01*
X136117Y36221D01*
X136061Y36258D01*
X136005Y36295D01*
X135959Y36323D01*
X135932Y36351D01*
X135913Y36360D01*
X135904Y36369D01*
X135793Y36462D01*
X135719Y36554D01*
X135682Y36591D01*
X135663Y36610D01*
X135645Y36628D01*
Y36637D01*
X136163Y37192D01*
X136228Y37118D01*
X136292Y37054D01*
X136348Y37007D01*
X136357Y36989D01*
X136366D01*
X136459Y36933D01*
X136542Y36887D01*
X136579Y36869D01*
X136598Y36859D01*
X136616Y36850D01*
X136625D01*
X136727Y36813D01*
X136820Y36785D01*
X136856Y36776D01*
X136884D01*
X136903Y36767D01*
X136912D01*
X137023Y36748D01*
X137116Y36739D01*
X137208D01*
X137365Y36748D01*
X137430Y36758D01*
X137495Y36776D01*
X137541Y36785D01*
X137578Y36795D01*
X137606Y36804D01*
X137615D01*
X137735Y36859D01*
X137837Y36924D01*
X137874Y36952D01*
X137902Y36970D01*
X137920Y36980D01*
X137929Y36989D01*
X138022Y37081D01*
X138096Y37174D01*
X138124Y37220D01*
X138142Y37248D01*
X138161Y37266D01*
Y37276D01*
X138216Y37405D01*
X138253Y37535D01*
X138262Y37581D01*
X138272Y37618D01*
X138281Y37646D01*
Y37655D01*
X135562D01*
Y38090D01*
X135571Y38256D01*
X135580Y38404D01*
X135599Y38543D01*
X135626Y38663D01*
X135654Y38756D01*
X135672Y38830D01*
X135682Y38876D01*
X135691Y38894D01*
X135737Y39024D01*
X135802Y39144D01*
X135857Y39246D01*
X135913Y39338D01*
X135968Y39412D01*
X136015Y39468D01*
X136042Y39505D01*
X136052Y39514D01*
X136144Y39607D01*
X136237Y39690D01*
X136338Y39755D01*
X136422Y39810D01*
X136505Y39856D01*
X136570Y39884D01*
X136607Y39903D01*
X136625Y39912D01*
X136755Y39958D01*
X136884Y39995D01*
X137014Y40023D01*
X137134Y40041D01*
X137236Y40051D01*
X137319Y40060D01*
X137393D01*
X137541Y40051D01*
D02*
G37*
G36*
X150787D02*
X150907Y40032D01*
X151028Y40004D01*
X151120Y39977D01*
X151203Y39949D01*
X151268Y39921D01*
X151305Y39903D01*
X151323Y39893D01*
X151435Y39829D01*
X151536Y39755D01*
X151629Y39681D01*
X151703Y39607D01*
X151768Y39533D01*
X151814Y39477D01*
X151841Y39440D01*
X151851Y39431D01*
X151906Y39986D01*
X152840D01*
Y35990D01*
X151814D01*
Y38830D01*
X151712Y38950D01*
X151620Y39042D01*
X151573Y39070D01*
X151536Y39098D01*
X151518Y39116D01*
X151508D01*
X151435Y39153D01*
X151360Y39181D01*
X151213Y39218D01*
X151157D01*
X151111Y39227D01*
X151065D01*
X150944Y39218D01*
X150842Y39209D01*
X150805Y39200D01*
X150778D01*
X150759Y39190D01*
X150750D01*
X150648Y39153D01*
X150574Y39116D01*
X150528Y39079D01*
X150510Y39061D01*
X150445Y38987D01*
X150389Y38913D01*
X150371Y38876D01*
X150362Y38848D01*
X150352Y38830D01*
Y38820D01*
X150315Y38700D01*
X150306Y38571D01*
X150297Y38515D01*
Y38469D01*
Y38441D01*
Y38432D01*
Y35990D01*
X149270D01*
Y38450D01*
Y38608D01*
X149288Y38746D01*
X149298Y38876D01*
X149316Y38987D01*
X149335Y39070D01*
X149353Y39135D01*
X149363Y39181D01*
X149372Y39190D01*
X149409Y39301D01*
X149455Y39394D01*
X149511Y39486D01*
X149557Y39551D01*
X149594Y39616D01*
X149631Y39653D01*
X149649Y39681D01*
X149659Y39690D01*
X149723Y39755D01*
X149797Y39819D01*
X149871Y39866D01*
X149945Y39903D01*
X150001Y39930D01*
X150047Y39949D01*
X150084Y39967D01*
X150093D01*
X150287Y40023D01*
X150380Y40041D01*
X150463Y40051D01*
X150537Y40060D01*
X150648D01*
X150787Y40051D01*
D02*
G37*
G36*
X143822Y35990D02*
X142369D01*
X142184Y35999D01*
X142009Y36018D01*
X141851Y36045D01*
X141713Y36082D01*
X141593Y36110D01*
X141509Y36138D01*
X141454Y36156D01*
X141435Y36166D01*
X141278Y36240D01*
X141139Y36323D01*
X141019Y36406D01*
X140908Y36489D01*
X140825Y36563D01*
X140760Y36619D01*
X140714Y36656D01*
X140705Y36674D01*
X140594Y36804D01*
X140501Y36933D01*
X140418Y37063D01*
X140353Y37183D01*
X140297Y37294D01*
X140261Y37377D01*
X140242Y37433D01*
X140233Y37442D01*
Y37451D01*
X140177Y37627D01*
X140140Y37803D01*
X140103Y37969D01*
X140085Y38117D01*
X140076Y38256D01*
X140066Y38358D01*
Y38395D01*
Y38423D01*
Y38441D01*
Y38450D01*
Y38894D01*
X140076Y39098D01*
X140094Y39283D01*
X140122Y39449D01*
X140149Y39597D01*
X140177Y39718D01*
X140205Y39810D01*
X140214Y39847D01*
X140224Y39875D01*
X140233Y39884D01*
Y39893D01*
X140297Y40060D01*
X140381Y40208D01*
X140455Y40337D01*
X140538Y40448D01*
X140603Y40541D01*
X140658Y40615D01*
X140695Y40652D01*
X140714Y40670D01*
X140834Y40791D01*
X140954Y40892D01*
X141084Y40985D01*
X141195Y41059D01*
X141297Y41114D01*
X141380Y41151D01*
X141435Y41179D01*
X141445Y41188D01*
X141454D01*
X141620Y41253D01*
X141787Y41299D01*
X141953Y41327D01*
X142101Y41355D01*
X142231Y41364D01*
X142332Y41373D01*
X143822D01*
Y35990D01*
D02*
G37*
G36*
X125322Y39144D02*
X124175D01*
Y36822D01*
X125322D01*
Y35990D01*
X122056D01*
Y36822D01*
X123139D01*
Y39986D01*
X125322D01*
Y39144D01*
D02*
G37*
G36*
X133175Y40041D02*
X133305Y40032D01*
X133406Y40014D01*
X133499Y39995D01*
X133563Y39977D01*
X133600Y39967D01*
X133619Y39958D01*
X133730Y39921D01*
X133832Y39875D01*
X133924Y39829D01*
X134008Y39792D01*
X134072Y39755D01*
X134118Y39718D01*
X134146Y39699D01*
X134155Y39690D01*
X134230Y39625D01*
X134303Y39560D01*
X134359Y39496D01*
X134405Y39431D01*
X134451Y39375D01*
X134479Y39329D01*
X134488Y39301D01*
X134498Y39292D01*
X134535Y39209D01*
X134563Y39126D01*
X134590Y39042D01*
X134599Y38978D01*
X134609Y38913D01*
X134618Y38867D01*
Y38830D01*
Y38820D01*
X134609Y38728D01*
X134599Y38645D01*
X134581Y38571D01*
X134563Y38497D01*
X134544Y38441D01*
X134526Y38404D01*
X134507Y38376D01*
Y38367D01*
X134405Y38228D01*
X134303Y38127D01*
X134257Y38080D01*
X134220Y38053D01*
X134193Y38034D01*
X134183Y38025D01*
X134017Y37923D01*
X133933Y37877D01*
X133850Y37840D01*
X133785Y37812D01*
X133730Y37784D01*
X133693Y37775D01*
X133684Y37766D01*
X133462Y37692D01*
X133351Y37664D01*
X133249Y37636D01*
X133166Y37618D01*
X133092Y37599D01*
X133055Y37590D01*
X133036D01*
X132934Y37572D01*
X132851Y37553D01*
X132768Y37535D01*
X132703Y37525D01*
X132657Y37507D01*
X132611Y37498D01*
X132592Y37488D01*
X132583D01*
X132463Y37451D01*
X132361Y37414D01*
X132333Y37405D01*
X132306Y37387D01*
X132296Y37377D01*
X132287D01*
X132213Y37331D01*
X132167Y37285D01*
X132148Y37248D01*
X132139Y37239D01*
X132111Y37183D01*
X132102Y37137D01*
X132093Y37100D01*
Y37081D01*
X132102Y37017D01*
X132121Y36952D01*
X132158Y36896D01*
X132194Y36850D01*
X132231Y36813D01*
X132269Y36785D01*
X132287Y36776D01*
X132296Y36767D01*
X132379Y36730D01*
X132472Y36702D01*
X132657Y36665D01*
X132740Y36656D01*
X132805Y36647D01*
X132870D01*
X132990Y36656D01*
X133092Y36665D01*
X133138D01*
X133166Y36674D01*
X133194D01*
X133305Y36711D01*
X133397Y36748D01*
X133434Y36758D01*
X133462Y36776D01*
X133471Y36785D01*
X133480D01*
X133563Y36850D01*
X133628Y36906D01*
X133665Y36952D01*
X133684Y36970D01*
X133730Y37063D01*
X133748Y37155D01*
X133758Y37202D01*
X133767Y37229D01*
Y37248D01*
Y37257D01*
X134748D01*
X134738Y37165D01*
X134729Y37072D01*
X134711Y36989D01*
X134683Y36915D01*
X134664Y36859D01*
X134646Y36813D01*
X134636Y36776D01*
X134627Y36767D01*
X134581Y36684D01*
X134526Y36600D01*
X134461Y36526D01*
X134405Y36462D01*
X134359Y36406D01*
X134313Y36369D01*
X134285Y36341D01*
X134276Y36332D01*
X134183Y36267D01*
X134081Y36203D01*
X133989Y36156D01*
X133897Y36110D01*
X133813Y36073D01*
X133748Y36045D01*
X133712Y36036D01*
X133693Y36027D01*
X133563Y35990D01*
X133425Y35962D01*
X133286Y35944D01*
X133166Y35934D01*
X133055Y35925D01*
X132972Y35916D01*
X132749D01*
X132601Y35925D01*
X132481Y35944D01*
X132370Y35962D01*
X132278Y35971D01*
X132204Y35990D01*
X132167Y35999D01*
X132148D01*
X132028Y36036D01*
X131917Y36073D01*
X131825Y36119D01*
X131741Y36156D01*
X131676Y36193D01*
X131621Y36221D01*
X131593Y36240D01*
X131584Y36249D01*
X131501Y36314D01*
X131427Y36378D01*
X131371Y36443D01*
X131316Y36508D01*
X131279Y36554D01*
X131251Y36600D01*
X131233Y36628D01*
X131223Y36637D01*
X131177Y36721D01*
X131149Y36804D01*
X131122Y36887D01*
X131112Y36970D01*
X131103Y37035D01*
X131094Y37081D01*
Y37118D01*
Y37128D01*
X131103Y37229D01*
X131112Y37322D01*
X131131Y37405D01*
X131158Y37479D01*
X131186Y37535D01*
X131205Y37581D01*
X131214Y37609D01*
X131223Y37618D01*
X131334Y37766D01*
X131390Y37821D01*
X131445Y37877D01*
X131501Y37923D01*
X131538Y37951D01*
X131565Y37969D01*
X131575Y37979D01*
X131751Y38080D01*
X131843Y38117D01*
X131926Y38154D01*
X132000Y38182D01*
X132056Y38201D01*
X132093Y38219D01*
X132111D01*
X132352Y38284D01*
X132463Y38302D01*
X132564Y38330D01*
X132657Y38349D01*
X132722Y38358D01*
X132768Y38367D01*
X132787D01*
X132879Y38386D01*
X132953Y38395D01*
X133027Y38413D01*
X133092Y38423D01*
X133138Y38432D01*
X133175Y38441D01*
X133194Y38450D01*
X133203D01*
X133314Y38487D01*
X133388Y38524D01*
X133443Y38552D01*
X133452Y38561D01*
X133462D01*
X133517Y38608D01*
X133563Y38654D01*
X133582Y38691D01*
X133591Y38700D01*
X133610Y38765D01*
X133619Y38811D01*
X133628Y38848D01*
Y38867D01*
X133619Y38941D01*
X133600Y38996D01*
X133536Y39098D01*
X133499Y39135D01*
X133471Y39172D01*
X133452Y39181D01*
X133443Y39190D01*
X133369Y39237D01*
X133277Y39264D01*
X133101Y39301D01*
X133018Y39311D01*
X132953Y39320D01*
X132897D01*
X132768Y39311D01*
X132648Y39292D01*
X132555Y39274D01*
X132472Y39246D01*
X132407Y39209D01*
X132370Y39190D01*
X132343Y39172D01*
X132333Y39163D01*
X132269Y39098D01*
X132222Y39033D01*
X132185Y38968D01*
X132167Y38913D01*
X132148Y38857D01*
X132139Y38811D01*
Y38783D01*
Y38774D01*
X131112D01*
X131122Y38876D01*
X131131Y38968D01*
X131149Y39061D01*
X131168Y39135D01*
X131195Y39200D01*
X131214Y39246D01*
X131223Y39274D01*
X131233Y39283D01*
X131279Y39366D01*
X131334Y39449D01*
X131399Y39514D01*
X131455Y39579D01*
X131501Y39625D01*
X131547Y39662D01*
X131575Y39681D01*
X131584Y39690D01*
X131676Y39755D01*
X131769Y39810D01*
X131861Y39856D01*
X131954Y39893D01*
X132028Y39921D01*
X132093Y39940D01*
X132130Y39958D01*
X132148D01*
X132278Y39995D01*
X132407Y40014D01*
X132527Y40032D01*
X132648Y40051D01*
X132749D01*
X132824Y40060D01*
X133045D01*
X133175Y40041D01*
D02*
G37*
G36*
X137689Y34830D02*
X137837Y34821D01*
X137976Y34793D01*
X138087Y34775D01*
X138179Y34747D01*
X138253Y34719D01*
X138300Y34710D01*
X138318Y34701D01*
X138447Y34645D01*
X138558Y34580D01*
X138660Y34516D01*
X138753Y34460D01*
X138818Y34405D01*
X138873Y34358D01*
X138910Y34330D01*
X138919Y34321D01*
X139012Y34229D01*
X139086Y34136D01*
X139151Y34034D01*
X139206Y33951D01*
X139252Y33868D01*
X139280Y33812D01*
X139298Y33775D01*
X139308Y33757D01*
X139354Y33637D01*
X139382Y33516D01*
X139409Y33406D01*
X139419Y33304D01*
X139428Y33211D01*
X139437Y33147D01*
Y33100D01*
Y33082D01*
X138410D01*
X138401Y33230D01*
X138383Y33369D01*
X138346Y33479D01*
X138309Y33572D01*
X138272Y33646D01*
X138235Y33692D01*
X138216Y33729D01*
X138207Y33738D01*
X138115Y33822D01*
X138013Y33877D01*
X137911Y33924D01*
X137809Y33951D01*
X137717Y33970D01*
X137643Y33979D01*
X137569D01*
X137458Y33970D01*
X137365Y33951D01*
X137328Y33942D01*
X137301Y33933D01*
X137291Y33924D01*
X137282D01*
X137189Y33877D01*
X137116Y33831D01*
X137069Y33794D01*
X137051Y33785D01*
Y33775D01*
X136986Y33702D01*
X136949Y33618D01*
X136921Y33563D01*
X136912Y33544D01*
Y33535D01*
X136875Y33424D01*
X136866Y33322D01*
X136856Y33285D01*
Y33248D01*
Y33230D01*
Y33220D01*
X136866Y33128D01*
X136875Y33045D01*
X136884Y32980D01*
X136893Y32971D01*
Y32961D01*
X136931Y32860D01*
X136968Y32776D01*
X136995Y32739D01*
X137004Y32712D01*
X137023Y32693D01*
Y32684D01*
X137097Y32573D01*
X137162Y32462D01*
X137199Y32416D01*
X137217Y32379D01*
X137236Y32360D01*
X137245Y32351D01*
X137356Y32212D01*
X137467Y32083D01*
X137513Y32037D01*
X137550Y31990D01*
X137578Y31962D01*
X137587Y31953D01*
X139336Y30075D01*
Y29382D01*
X135654D01*
Y30205D01*
X138022D01*
X137004Y31278D01*
X136820Y31472D01*
X136746Y31556D01*
X136671Y31629D01*
X136616Y31694D01*
X136570Y31750D01*
X136542Y31778D01*
X136533Y31787D01*
X136385Y31972D01*
X136320Y32046D01*
X136265Y32120D01*
X136228Y32184D01*
X136190Y32231D01*
X136172Y32258D01*
X136163Y32268D01*
X136061Y32443D01*
X136015Y32527D01*
X135987Y32601D01*
X135959Y32656D01*
X135941Y32712D01*
X135922Y32739D01*
Y32749D01*
X135876Y32934D01*
X135857Y33017D01*
X135848Y33100D01*
X135839Y33165D01*
Y33211D01*
Y33248D01*
Y33257D01*
Y33387D01*
X135857Y33507D01*
X135876Y33618D01*
X135895Y33711D01*
X135913Y33785D01*
X135932Y33849D01*
X135941Y33887D01*
X135950Y33896D01*
X135996Y34007D01*
X136042Y34099D01*
X136098Y34183D01*
X136153Y34257D01*
X136200Y34312D01*
X136237Y34358D01*
X136265Y34386D01*
X136274Y34395D01*
X136357Y34469D01*
X136450Y34534D01*
X136533Y34589D01*
X136625Y34636D01*
X136699Y34673D01*
X136755Y34701D01*
X136792Y34710D01*
X136810Y34719D01*
X136931Y34756D01*
X137051Y34793D01*
X137180Y34811D01*
X137291Y34821D01*
X137384Y34830D01*
X137467Y34839D01*
X137532D01*
X137689Y34830D01*
D02*
G37*
G36*
X128605D02*
X128753Y34821D01*
X128892Y34793D01*
X129003Y34775D01*
X129096Y34747D01*
X129170Y34719D01*
X129216Y34710D01*
X129235Y34701D01*
X129364Y34645D01*
X129475Y34580D01*
X129577Y34516D01*
X129669Y34460D01*
X129734Y34405D01*
X129789Y34358D01*
X129826Y34330D01*
X129836Y34321D01*
X129928Y34229D01*
X130002Y34136D01*
X130067Y34034D01*
X130122Y33951D01*
X130169Y33868D01*
X130196Y33812D01*
X130215Y33775D01*
X130224Y33757D01*
X130271Y33637D01*
X130298Y33516D01*
X130326Y33406D01*
X130335Y33304D01*
X130344Y33211D01*
X130354Y33147D01*
Y33100D01*
Y33082D01*
X129327D01*
X129318Y33230D01*
X129299Y33369D01*
X129262Y33479D01*
X129225Y33572D01*
X129188Y33646D01*
X129151Y33692D01*
X129133Y33729D01*
X129123Y33738D01*
X129031Y33822D01*
X128929Y33877D01*
X128828Y33924D01*
X128726Y33951D01*
X128633Y33970D01*
X128559Y33979D01*
X128485D01*
X128374Y33970D01*
X128282Y33951D01*
X128245Y33942D01*
X128217Y33933D01*
X128208Y33924D01*
X128199D01*
X128106Y33877D01*
X128032Y33831D01*
X127986Y33794D01*
X127967Y33785D01*
Y33775D01*
X127902Y33702D01*
X127866Y33618D01*
X127838Y33563D01*
X127829Y33544D01*
Y33535D01*
X127792Y33424D01*
X127782Y33322D01*
X127773Y33285D01*
Y33248D01*
Y33230D01*
Y33220D01*
X127782Y33128D01*
X127792Y33045D01*
X127801Y32980D01*
X127810Y32971D01*
Y32961D01*
X127847Y32860D01*
X127884Y32776D01*
X127912Y32739D01*
X127921Y32712D01*
X127939Y32693D01*
Y32684D01*
X128014Y32573D01*
X128078Y32462D01*
X128115Y32416D01*
X128134Y32379D01*
X128152Y32360D01*
X128162Y32351D01*
X128272Y32212D01*
X128384Y32083D01*
X128430Y32037D01*
X128467Y31990D01*
X128495Y31962D01*
X128504Y31953D01*
X130252Y30075D01*
Y29382D01*
X126570D01*
Y30205D01*
X128938D01*
X127921Y31278D01*
X127736Y31472D01*
X127662Y31556D01*
X127588Y31629D01*
X127532Y31694D01*
X127486Y31750D01*
X127459Y31778D01*
X127449Y31787D01*
X127301Y31972D01*
X127236Y32046D01*
X127181Y32120D01*
X127144Y32184D01*
X127107Y32231D01*
X127088Y32258D01*
X127079Y32268D01*
X126978Y32443D01*
X126931Y32527D01*
X126903Y32601D01*
X126876Y32656D01*
X126857Y32712D01*
X126839Y32739D01*
Y32749D01*
X126793Y32934D01*
X126774Y33017D01*
X126765Y33100D01*
X126755Y33165D01*
Y33211D01*
Y33248D01*
Y33257D01*
Y33387D01*
X126774Y33507D01*
X126793Y33618D01*
X126811Y33711D01*
X126830Y33785D01*
X126848Y33849D01*
X126857Y33887D01*
X126866Y33896D01*
X126913Y34007D01*
X126959Y34099D01*
X127015Y34183D01*
X127070Y34257D01*
X127116Y34312D01*
X127153Y34358D01*
X127181Y34386D01*
X127190Y34395D01*
X127273Y34469D01*
X127366Y34534D01*
X127449Y34589D01*
X127542Y34636D01*
X127616Y34673D01*
X127671Y34701D01*
X127708Y34710D01*
X127727Y34719D01*
X127847Y34756D01*
X127967Y34793D01*
X128097Y34811D01*
X128208Y34821D01*
X128300Y34830D01*
X128384Y34839D01*
X128448D01*
X128605Y34830D01*
D02*
G37*
G36*
X133036D02*
X133175Y34821D01*
X133295Y34793D01*
X133406Y34775D01*
X133499Y34747D01*
X133563Y34719D01*
X133600Y34710D01*
X133619Y34701D01*
X133739Y34645D01*
X133841Y34580D01*
X133933Y34516D01*
X134017Y34451D01*
X134081Y34395D01*
X134137Y34349D01*
X134165Y34312D01*
X134174Y34303D01*
X134248Y34201D01*
X134322Y34090D01*
X134378Y33979D01*
X134424Y33868D01*
X134470Y33775D01*
X134498Y33702D01*
X134507Y33655D01*
X134516Y33646D01*
Y33637D01*
X134553Y33479D01*
X134581Y33322D01*
X134609Y33165D01*
X134618Y33026D01*
X134627Y32897D01*
X134636Y32804D01*
Y32767D01*
Y32739D01*
Y32721D01*
Y32712D01*
Y31426D01*
X134627Y31241D01*
X134618Y31065D01*
X134599Y30908D01*
X134572Y30779D01*
X134553Y30667D01*
X134535Y30584D01*
X134526Y30529D01*
X134516Y30520D01*
Y30510D01*
X134461Y30371D01*
X134405Y30242D01*
X134350Y30122D01*
X134294Y30029D01*
X134239Y29946D01*
X134202Y29890D01*
X134174Y29853D01*
X134165Y29844D01*
X134072Y29752D01*
X133980Y29669D01*
X133887Y29594D01*
X133804Y29539D01*
X133721Y29493D01*
X133665Y29465D01*
X133628Y29447D01*
X133610Y29437D01*
X133490Y29391D01*
X133360Y29363D01*
X133240Y29335D01*
X133119Y29326D01*
X133027Y29317D01*
X132944Y29308D01*
X132879D01*
X132731Y29317D01*
X132592Y29326D01*
X132472Y29345D01*
X132361Y29373D01*
X132269Y29400D01*
X132204Y29419D01*
X132167Y29428D01*
X132148Y29437D01*
X132028Y29493D01*
X131926Y29557D01*
X131834Y29632D01*
X131751Y29696D01*
X131686Y29752D01*
X131640Y29798D01*
X131612Y29835D01*
X131603Y29844D01*
X131519Y29946D01*
X131445Y30066D01*
X131390Y30177D01*
X131343Y30279D01*
X131297Y30371D01*
X131270Y30446D01*
X131260Y30492D01*
X131251Y30510D01*
X131214Y30667D01*
X131177Y30825D01*
X131158Y30973D01*
X131149Y31121D01*
X131140Y31241D01*
X131131Y31343D01*
Y31380D01*
Y31407D01*
Y31417D01*
Y31426D01*
Y32712D01*
X131140Y32906D01*
X131149Y33082D01*
X131168Y33239D01*
X131186Y33369D01*
X131214Y33479D01*
X131233Y33563D01*
X131242Y33618D01*
X131251Y33637D01*
X131297Y33775D01*
X131353Y33905D01*
X131418Y34025D01*
X131473Y34118D01*
X131519Y34201D01*
X131565Y34257D01*
X131593Y34293D01*
X131603Y34303D01*
X131695Y34395D01*
X131788Y34479D01*
X131880Y34543D01*
X131963Y34599D01*
X132046Y34645D01*
X132102Y34673D01*
X132139Y34691D01*
X132158Y34701D01*
X132278Y34747D01*
X132407Y34784D01*
X132527Y34802D01*
X132648Y34821D01*
X132740Y34830D01*
X132824Y34839D01*
X132888D01*
X133036Y34830D01*
D02*
G37*
G36*
X123953D02*
X124091Y34821D01*
X124212Y34793D01*
X124323Y34775D01*
X124415Y34747D01*
X124480Y34719D01*
X124517Y34710D01*
X124536Y34701D01*
X124656Y34645D01*
X124758Y34580D01*
X124850Y34516D01*
X124933Y34451D01*
X124998Y34395D01*
X125054Y34349D01*
X125081Y34312D01*
X125091Y34303D01*
X125164Y34201D01*
X125239Y34090D01*
X125294Y33979D01*
X125340Y33868D01*
X125387Y33775D01*
X125414Y33702D01*
X125424Y33655D01*
X125433Y33646D01*
Y33637D01*
X125470Y33479D01*
X125497Y33322D01*
X125525Y33165D01*
X125534Y33026D01*
X125544Y32897D01*
X125553Y32804D01*
Y32767D01*
Y32739D01*
Y32721D01*
Y32712D01*
Y31426D01*
X125544Y31241D01*
X125534Y31065D01*
X125516Y30908D01*
X125488Y30779D01*
X125470Y30667D01*
X125451Y30584D01*
X125442Y30529D01*
X125433Y30520D01*
Y30510D01*
X125377Y30371D01*
X125322Y30242D01*
X125266Y30122D01*
X125211Y30029D01*
X125155Y29946D01*
X125118Y29890D01*
X125091Y29853D01*
X125081Y29844D01*
X124989Y29752D01*
X124896Y29669D01*
X124804Y29594D01*
X124721Y29539D01*
X124637Y29493D01*
X124582Y29465D01*
X124545Y29447D01*
X124526Y29437D01*
X124406Y29391D01*
X124276Y29363D01*
X124156Y29335D01*
X124036Y29326D01*
X123943Y29317D01*
X123860Y29308D01*
X123795D01*
X123647Y29317D01*
X123509Y29326D01*
X123389Y29345D01*
X123277Y29373D01*
X123185Y29400D01*
X123120Y29419D01*
X123083Y29428D01*
X123065Y29437D01*
X122944Y29493D01*
X122843Y29557D01*
X122750Y29632D01*
X122667Y29696D01*
X122602Y29752D01*
X122556Y29798D01*
X122528Y29835D01*
X122519Y29844D01*
X122436Y29946D01*
X122362Y30066D01*
X122306Y30177D01*
X122260Y30279D01*
X122214Y30371D01*
X122186Y30446D01*
X122177Y30492D01*
X122168Y30510D01*
X122131Y30667D01*
X122093Y30825D01*
X122075Y30973D01*
X122066Y31121D01*
X122056Y31241D01*
X122047Y31343D01*
Y31380D01*
Y31407D01*
Y31417D01*
Y31426D01*
Y32712D01*
X122056Y32906D01*
X122066Y33082D01*
X122084Y33239D01*
X122103Y33369D01*
X122131Y33479D01*
X122149Y33563D01*
X122158Y33618D01*
X122168Y33637D01*
X122214Y33775D01*
X122269Y33905D01*
X122334Y34025D01*
X122389Y34118D01*
X122436Y34201D01*
X122482Y34257D01*
X122510Y34293D01*
X122519Y34303D01*
X122611Y34395D01*
X122704Y34479D01*
X122796Y34543D01*
X122880Y34599D01*
X122963Y34645D01*
X123019Y34673D01*
X123056Y34691D01*
X123074Y34701D01*
X123194Y34747D01*
X123324Y34784D01*
X123444Y34802D01*
X123564Y34821D01*
X123657Y34830D01*
X123740Y34839D01*
X123805D01*
X123953Y34830D01*
D02*
G37*
G36*
X193658Y24308D02*
X193649Y24142D01*
X193640Y23994D01*
X193621Y23855D01*
X193593Y23735D01*
X193575Y23642D01*
X193556Y23568D01*
X193547Y23522D01*
X193538Y23504D01*
X193482Y23374D01*
X193427Y23263D01*
X193362Y23161D01*
X193307Y23078D01*
X193260Y23004D01*
X193214Y22958D01*
X193186Y22921D01*
X193177Y22911D01*
X193085Y22828D01*
X192983Y22754D01*
X192890Y22690D01*
X192807Y22634D01*
X192724Y22597D01*
X192668Y22569D01*
X192631Y22551D01*
X192613Y22542D01*
X192483Y22504D01*
X192354Y22477D01*
X192234Y22449D01*
X192113Y22440D01*
X192021Y22431D01*
X191937Y22421D01*
X191873D01*
X191716Y22431D01*
X191577Y22440D01*
X191438Y22458D01*
X191327Y22486D01*
X191235Y22504D01*
X191161Y22523D01*
X191123Y22532D01*
X191105Y22542D01*
X190985Y22597D01*
X190874Y22652D01*
X190772Y22717D01*
X190689Y22773D01*
X190624Y22828D01*
X190568Y22874D01*
X190541Y22902D01*
X190532Y22911D01*
X190448Y23004D01*
X190374Y23106D01*
X190319Y23208D01*
X190272Y23300D01*
X190226Y23383D01*
X190199Y23448D01*
X190189Y23485D01*
X190180Y23504D01*
X190134Y23642D01*
X190106Y23781D01*
X190078Y23911D01*
X190069Y24040D01*
X190060Y24151D01*
X190050Y24234D01*
Y24290D01*
Y24299D01*
Y24308D01*
Y27879D01*
X191086D01*
Y24308D01*
X191096Y24123D01*
X191123Y23966D01*
X191161Y23827D01*
X191198Y23716D01*
X191235Y23624D01*
X191271Y23559D01*
X191290Y23522D01*
X191299Y23513D01*
X191383Y23429D01*
X191475Y23365D01*
X191568Y23318D01*
X191660Y23291D01*
X191743Y23272D01*
X191808Y23254D01*
X191873D01*
X192002Y23263D01*
X192113Y23291D01*
X192206Y23337D01*
X192289Y23383D01*
X192344Y23429D01*
X192391Y23476D01*
X192419Y23504D01*
X192428Y23513D01*
X192492Y23624D01*
X192539Y23753D01*
X192567Y23883D01*
X192585Y24012D01*
X192604Y24123D01*
X192613Y24225D01*
Y24262D01*
Y24290D01*
Y24299D01*
Y24308D01*
Y27879D01*
X193658D01*
Y24308D01*
D02*
G37*
G36*
X202751Y22495D02*
X201298D01*
X201114Y22504D01*
X200938Y22523D01*
X200781Y22551D01*
X200642Y22588D01*
X200521Y22615D01*
X200438Y22643D01*
X200383Y22662D01*
X200364Y22671D01*
X200207Y22745D01*
X200068Y22828D01*
X199948Y22911D01*
X199837Y22995D01*
X199754Y23069D01*
X199689Y23124D01*
X199643Y23161D01*
X199634Y23180D01*
X199522Y23309D01*
X199430Y23439D01*
X199347Y23568D01*
X199282Y23688D01*
X199226Y23799D01*
X199189Y23883D01*
X199171Y23938D01*
X199162Y23947D01*
Y23957D01*
X199106Y24133D01*
X199069Y24308D01*
X199032Y24475D01*
X199014Y24623D01*
X199004Y24761D01*
X198995Y24863D01*
Y24900D01*
Y24928D01*
Y24947D01*
Y24956D01*
Y25400D01*
X199004Y25603D01*
X199023Y25788D01*
X199051Y25955D01*
X199079Y26103D01*
X199106Y26223D01*
X199134Y26316D01*
X199143Y26353D01*
X199153Y26380D01*
X199162Y26390D01*
Y26399D01*
X199226Y26565D01*
X199310Y26713D01*
X199384Y26843D01*
X199467Y26954D01*
X199532Y27046D01*
X199587Y27120D01*
X199624Y27157D01*
X199643Y27176D01*
X199763Y27296D01*
X199883Y27398D01*
X200013Y27490D01*
X200124Y27564D01*
X200225Y27620D01*
X200309Y27657D01*
X200364Y27685D01*
X200374Y27694D01*
X200383D01*
X200549Y27758D01*
X200716Y27805D01*
X200882Y27832D01*
X201030Y27860D01*
X201160Y27869D01*
X201261Y27879D01*
X202751D01*
Y22495D01*
D02*
G37*
G36*
X189486Y27028D02*
X187849D01*
Y22495D01*
X186804D01*
Y27028D01*
X185139D01*
Y27879D01*
X189486D01*
Y27028D01*
D02*
G37*
G36*
X196599Y27944D02*
X196757Y27925D01*
X196896Y27897D01*
X197016Y27860D01*
X197117Y27823D01*
X197192Y27795D01*
X197238Y27777D01*
X197256Y27768D01*
X197386Y27694D01*
X197506Y27620D01*
X197608Y27536D01*
X197700Y27453D01*
X197765Y27389D01*
X197820Y27333D01*
X197857Y27296D01*
X197867Y27277D01*
X197950Y27157D01*
X198033Y27028D01*
X198098Y26898D01*
X198153Y26787D01*
X198190Y26686D01*
X198218Y26602D01*
X198237Y26547D01*
X198246Y26537D01*
Y26528D01*
X198283Y26362D01*
X198311Y26195D01*
X198338Y26038D01*
X198348Y25890D01*
X198357Y25760D01*
X198366Y25668D01*
Y25631D01*
Y25603D01*
Y25585D01*
Y25576D01*
Y24789D01*
X198357Y24604D01*
X198348Y24419D01*
X198329Y24262D01*
X198301Y24123D01*
X198283Y24003D01*
X198265Y23911D01*
X198255Y23855D01*
X198246Y23846D01*
Y23836D01*
X198190Y23679D01*
X198135Y23540D01*
X198070Y23411D01*
X198005Y23300D01*
X197950Y23208D01*
X197904Y23143D01*
X197876Y23106D01*
X197867Y23087D01*
X197765Y22976D01*
X197663Y22874D01*
X197562Y22791D01*
X197469Y22727D01*
X197386Y22671D01*
X197312Y22634D01*
X197275Y22606D01*
X197256Y22597D01*
X197117Y22542D01*
X196969Y22495D01*
X196831Y22467D01*
X196701Y22440D01*
X196590Y22431D01*
X196507Y22421D01*
X196424D01*
X196257Y22431D01*
X196100Y22449D01*
X195961Y22477D01*
X195832Y22514D01*
X195730Y22542D01*
X195656Y22569D01*
X195610Y22588D01*
X195591Y22597D01*
X195452Y22671D01*
X195332Y22745D01*
X195221Y22828D01*
X195129Y22902D01*
X195055Y22976D01*
X194999Y23032D01*
X194962Y23069D01*
X194953Y23078D01*
X194860Y23198D01*
X194787Y23328D01*
X194712Y23457D01*
X194657Y23568D01*
X194620Y23670D01*
X194592Y23753D01*
X194574Y23809D01*
X194564Y23818D01*
Y23827D01*
X194518Y23994D01*
X194481Y24170D01*
X194463Y24327D01*
X194444Y24475D01*
X194435Y24604D01*
X194426Y24706D01*
Y24743D01*
Y24771D01*
Y24780D01*
Y24789D01*
Y25576D01*
X194435Y25770D01*
X194444Y25945D01*
X194472Y26103D01*
X194491Y26251D01*
X194518Y26362D01*
X194546Y26454D01*
X194555Y26510D01*
X194564Y26519D01*
Y26528D01*
X194620Y26686D01*
X194676Y26834D01*
X194740Y26954D01*
X194805Y27065D01*
X194860Y27157D01*
X194907Y27222D01*
X194944Y27259D01*
X194953Y27277D01*
X195055Y27389D01*
X195166Y27490D01*
X195267Y27573D01*
X195369Y27638D01*
X195462Y27694D01*
X195527Y27740D01*
X195573Y27758D01*
X195591Y27768D01*
X195730Y27832D01*
X195878Y27879D01*
X196017Y27907D01*
X196146Y27934D01*
X196266Y27944D01*
X196350Y27953D01*
X196433D01*
X196599Y27944D01*
D02*
G37*
%LPC*%
G36*
X95777Y37171D02*
X92926D01*
Y37090D01*
X92275D01*
Y37008D01*
X91867D01*
Y36927D01*
X91460D01*
Y36845D01*
X91216D01*
Y36764D01*
X90890D01*
Y36682D01*
X90564D01*
Y36601D01*
X90320D01*
Y36519D01*
X90075D01*
Y36438D01*
X89912D01*
Y36356D01*
X89668D01*
Y36275D01*
X89424D01*
Y36193D01*
X89261D01*
Y36112D01*
X89016D01*
Y36031D01*
X88853D01*
Y35949D01*
X88691D01*
Y35868D01*
X88528D01*
Y35786D01*
X88365D01*
Y35705D01*
X88120D01*
Y35623D01*
X88039D01*
Y35542D01*
X87876D01*
Y35460D01*
X87713D01*
Y35379D01*
X87550D01*
Y35298D01*
X87469D01*
Y35216D01*
X87306D01*
Y35135D01*
X87143D01*
Y35053D01*
X86980D01*
Y34972D01*
X86898D01*
Y34890D01*
X86735D01*
Y34809D01*
X86654D01*
Y34727D01*
X86491D01*
Y34646D01*
X86410D01*
Y34564D01*
X86247D01*
Y34483D01*
X86165D01*
Y34402D01*
X86084D01*
Y34320D01*
X86002D01*
Y34238D01*
X85839D01*
Y34157D01*
X85758D01*
Y34076D01*
X85677D01*
Y33994D01*
X85514D01*
Y33913D01*
X85432D01*
Y33831D01*
X85351D01*
Y33750D01*
X85269D01*
Y33668D01*
X85188D01*
Y33587D01*
X85106D01*
Y33505D01*
X85025D01*
Y33424D01*
X84943D01*
Y33342D01*
X84862D01*
Y33261D01*
X84781D01*
Y33180D01*
X84699D01*
Y33098D01*
X84618D01*
Y33017D01*
Y32935D01*
X84536D01*
Y32854D01*
X84455D01*
Y32772D01*
X84373D01*
Y32691D01*
Y32609D01*
X84292D01*
Y32528D01*
X84210D01*
Y32447D01*
Y32365D01*
X84129D01*
Y32284D01*
Y32202D01*
X84047D01*
Y32121D01*
X83966D01*
Y32039D01*
X83722D01*
Y31958D01*
X83559D01*
Y31876D01*
X83233D01*
Y31795D01*
X83070D01*
Y31713D01*
X82825D01*
Y31632D01*
X82581D01*
Y31550D01*
X82418D01*
Y31469D01*
X82174D01*
Y31387D01*
X82011D01*
Y31306D01*
X81767D01*
Y31225D01*
X81604D01*
Y31143D01*
X81359D01*
Y31062D01*
X81196D01*
Y30980D01*
X81033D01*
Y30899D01*
X80870D01*
Y30817D01*
X80708D01*
Y30736D01*
X80463D01*
Y30654D01*
X80300D01*
Y30573D01*
X80137D01*
Y30492D01*
X79975D01*
Y30410D01*
X79893D01*
Y30329D01*
X79730D01*
Y30247D01*
X79567D01*
Y30166D01*
X79404D01*
Y30084D01*
X79241D01*
Y30003D01*
X79160D01*
Y29921D01*
X78997D01*
Y29840D01*
X78916D01*
Y29758D01*
X78753D01*
Y29677D01*
X78671D01*
Y29595D01*
X78590D01*
Y29514D01*
X78427D01*
Y29432D01*
X78345D01*
Y29351D01*
X78264D01*
Y29270D01*
X78182D01*
Y29188D01*
X78101D01*
Y29107D01*
X78019D01*
Y29025D01*
X77938D01*
Y28944D01*
X77857D01*
Y28862D01*
X77775D01*
Y28781D01*
X77694D01*
Y28699D01*
X77612D01*
Y28618D01*
X77531D01*
Y28536D01*
Y28455D01*
X77449D01*
Y28374D01*
X77368D01*
Y28292D01*
Y28211D01*
X77286D01*
Y28129D01*
Y28048D01*
X77205D01*
Y27966D01*
Y27885D01*
X77123D01*
Y27803D01*
Y27722D01*
X77042D01*
Y27640D01*
Y27559D01*
Y27477D01*
Y27396D01*
X76960D01*
Y27315D01*
Y27233D01*
Y27152D01*
Y27070D01*
Y26989D01*
Y26907D01*
X76879D01*
Y26826D01*
Y26744D01*
Y26663D01*
Y26581D01*
Y26500D01*
Y26419D01*
Y26337D01*
X76960D01*
Y26256D01*
Y26174D01*
Y26093D01*
Y26011D01*
Y25930D01*
Y25848D01*
Y25767D01*
X77042D01*
Y25685D01*
Y25604D01*
Y25523D01*
Y25441D01*
Y25360D01*
X77123D01*
Y25278D01*
Y25197D01*
Y25115D01*
X77042D01*
Y25034D01*
X76879D01*
Y24952D01*
X76798D01*
Y24871D01*
X76716D01*
Y24789D01*
X76635D01*
Y24708D01*
X76472D01*
Y24626D01*
X76390D01*
Y24545D01*
X76309D01*
Y24464D01*
X76227D01*
Y24382D01*
X76146D01*
Y24301D01*
X76064D01*
Y24219D01*
X75983D01*
Y24138D01*
X75902D01*
Y24056D01*
X75820D01*
Y23975D01*
X75739D01*
Y23893D01*
X75657D01*
Y23812D01*
X75576D01*
Y23730D01*
Y23649D01*
X75494D01*
Y23568D01*
X75413D01*
Y23486D01*
X75331D01*
Y23405D01*
X75250D01*
Y23323D01*
Y23242D01*
X75168D01*
Y23160D01*
X75087D01*
Y23079D01*
X75006D01*
Y22997D01*
Y22916D01*
X74924D01*
Y22834D01*
X74843D01*
Y22753D01*
Y22671D01*
X74761D01*
Y22590D01*
X74680D01*
Y22509D01*
Y22427D01*
X74598D01*
Y22346D01*
Y22264D01*
X74517D01*
Y22183D01*
Y22101D01*
X74435D01*
Y22020D01*
Y21938D01*
X74354D01*
Y21857D01*
X74272D01*
Y21775D01*
Y21694D01*
Y21612D01*
X74191D01*
Y21531D01*
Y21450D01*
X74110D01*
Y21368D01*
Y21287D01*
Y21205D01*
X74028D01*
Y21124D01*
Y21042D01*
X73947D01*
Y20961D01*
Y20879D01*
Y20798D01*
X73865D01*
Y20717D01*
Y20635D01*
Y20554D01*
X73784D01*
Y20472D01*
Y20391D01*
Y20309D01*
X73702D01*
Y20228D01*
Y20146D01*
Y20065D01*
Y19983D01*
X73621D01*
Y19902D01*
Y19820D01*
Y19739D01*
Y19658D01*
X73539D01*
Y19576D01*
Y19495D01*
Y19413D01*
Y19332D01*
Y19250D01*
Y19169D01*
X73458D01*
Y19087D01*
Y19006D01*
Y18924D01*
Y18843D01*
Y18762D01*
Y18680D01*
Y18599D01*
Y18517D01*
Y18436D01*
Y18354D01*
Y18273D01*
Y18191D01*
Y18110D01*
Y18028D01*
Y17947D01*
Y17865D01*
Y17784D01*
Y17703D01*
Y17621D01*
Y17540D01*
Y17458D01*
Y17377D01*
Y17295D01*
Y17214D01*
Y17132D01*
Y17051D01*
Y16969D01*
Y16888D01*
Y16806D01*
Y16725D01*
Y16644D01*
X73539D01*
Y16562D01*
Y16481D01*
Y16399D01*
Y16318D01*
Y16236D01*
X73621D01*
Y16155D01*
Y16073D01*
Y15992D01*
X73702D01*
Y15910D01*
Y15829D01*
Y15747D01*
X73784D01*
Y15666D01*
Y15585D01*
X73865D01*
Y15503D01*
Y15422D01*
X73947D01*
Y15340D01*
X74028D01*
Y15259D01*
X74110D01*
Y15177D01*
X74191D01*
Y15096D01*
X74354D01*
Y15014D01*
X74517D01*
Y14933D01*
X74761D01*
Y14852D01*
X75168D01*
Y14770D01*
X75250D01*
Y14852D01*
X75820D01*
Y14933D01*
X76227D01*
Y15014D01*
X76472D01*
Y15096D01*
X76798D01*
Y15177D01*
X77042D01*
Y15259D01*
X77205D01*
Y15340D01*
X77449D01*
Y15422D01*
X77612D01*
Y15503D01*
X77857D01*
Y15585D01*
X78019D01*
Y15666D01*
X78182D01*
Y15747D01*
X78427D01*
Y15829D01*
X78590D01*
Y15910D01*
X78834D01*
Y15992D01*
X78997D01*
Y16073D01*
X79160D01*
Y16155D01*
X79404D01*
Y16236D01*
X79567D01*
Y16318D01*
X79812D01*
Y16399D01*
X79975D01*
Y16481D01*
X80137D01*
Y16562D01*
X80382D01*
Y16644D01*
X80545D01*
Y16725D01*
X80789D01*
Y16806D01*
X80952D01*
Y16888D01*
X81196D01*
Y16969D01*
X81359D01*
Y17051D01*
X81604D01*
Y17132D01*
X81929D01*
Y17051D01*
X82011D01*
Y16969D01*
X82092D01*
Y16888D01*
X82174D01*
Y16806D01*
X82255D01*
Y16725D01*
Y16644D01*
X82418D01*
Y16562D01*
X82500D01*
Y16481D01*
X82581D01*
Y16399D01*
X82663D01*
Y16318D01*
X82744D01*
Y16236D01*
X82825D01*
Y16155D01*
X82988D01*
Y16073D01*
X83070D01*
Y15992D01*
X83233D01*
Y15910D01*
X83396D01*
Y15829D01*
X83559D01*
Y15747D01*
X83803D01*
Y15666D01*
X84047D01*
Y15585D01*
X85514D01*
Y15666D01*
X85839D01*
Y15747D01*
X86165D01*
Y15829D01*
X86328D01*
Y15910D01*
X86654D01*
Y15992D01*
X86817D01*
Y16073D01*
X87061D01*
Y16155D01*
X87224D01*
Y16236D01*
X87469D01*
Y16318D01*
X87632D01*
Y16399D01*
X87795D01*
Y16481D01*
X88039D01*
Y16562D01*
X88202D01*
Y16644D01*
X88446D01*
Y16725D01*
X88609D01*
Y16806D01*
X88772D01*
Y16888D01*
X89016D01*
Y16969D01*
X89179D01*
Y17051D01*
X89424D01*
Y17132D01*
X89587D01*
Y17051D01*
X89749D01*
Y16969D01*
X89912D01*
Y16888D01*
X90157D01*
Y16806D01*
X90320D01*
Y16725D01*
X90564D01*
Y16644D01*
X90890D01*
Y16562D01*
X91134D01*
Y16481D01*
X91460D01*
Y16399D01*
X91786D01*
Y16318D01*
X92275D01*
Y16236D01*
X92763D01*
Y16155D01*
X93985D01*
Y16073D01*
X94148D01*
Y16155D01*
X95370D01*
Y16236D01*
X95859D01*
Y16318D01*
X96266D01*
Y16399D01*
X96592D01*
Y16481D01*
X96918D01*
Y16562D01*
X97081D01*
Y16644D01*
X97325D01*
Y16725D01*
X97570D01*
Y16806D01*
X97732D01*
Y16888D01*
X97895D01*
Y16969D01*
X98058D01*
Y17051D01*
X98466D01*
Y16969D01*
X98628D01*
Y16888D01*
X98873D01*
Y16806D01*
X99036D01*
Y16725D01*
X99199D01*
Y16644D01*
X99443D01*
Y16562D01*
X99606D01*
Y16481D01*
X99850D01*
Y16399D01*
X100013D01*
Y16318D01*
X100258D01*
Y16236D01*
X100420D01*
Y16155D01*
X100665D01*
Y16073D01*
X100909D01*
Y15992D01*
X101072D01*
Y15910D01*
X101317D01*
Y15829D01*
X101561D01*
Y15747D01*
X101887D01*
Y15666D01*
X102213D01*
Y15585D01*
X102620D01*
Y15503D01*
X104168D01*
Y15585D01*
X104493D01*
Y15666D01*
X104738D01*
Y15747D01*
X104982D01*
Y15829D01*
X105145D01*
Y15910D01*
X105308D01*
Y15992D01*
X105389D01*
Y16073D01*
X105552D01*
Y16155D01*
X105634D01*
Y16236D01*
X105797D01*
Y16318D01*
X105878D01*
Y16399D01*
X105960D01*
Y16481D01*
X106041D01*
Y16562D01*
X106204D01*
Y16644D01*
X106286D01*
Y16725D01*
X106367D01*
Y16806D01*
X106448D01*
Y16888D01*
X106611D01*
Y16806D01*
X106856D01*
Y16725D01*
X107100D01*
Y16644D01*
X107263D01*
Y16562D01*
X107507D01*
Y16481D01*
X107670D01*
Y16399D01*
X107833D01*
Y16318D01*
X108078D01*
Y16236D01*
X108240D01*
Y16155D01*
X108485D01*
Y16073D01*
X108648D01*
Y15992D01*
X108811D01*
Y15910D01*
X109055D01*
Y15829D01*
X109218D01*
Y15747D01*
X109381D01*
Y15666D01*
X109625D01*
Y15585D01*
X109788D01*
Y15503D01*
X110033D01*
Y15422D01*
X110196D01*
Y15340D01*
X110358D01*
Y15259D01*
X110521D01*
Y15177D01*
X110766D01*
Y15096D01*
X111010D01*
Y15014D01*
X111173D01*
Y14933D01*
X111499D01*
Y14852D01*
X111662D01*
Y14770D01*
X112069D01*
Y14689D01*
X113372D01*
Y14770D01*
X113617D01*
Y14852D01*
X113780D01*
Y14933D01*
X113861D01*
Y15014D01*
X114024D01*
Y15096D01*
X114105D01*
Y15177D01*
X114187D01*
Y15259D01*
Y15340D01*
X114269D01*
Y15422D01*
X114350D01*
Y15503D01*
Y15585D01*
X114431D01*
Y15666D01*
Y15747D01*
Y15829D01*
X114513D01*
Y15910D01*
Y15992D01*
Y16073D01*
X114594D01*
Y16155D01*
Y16236D01*
Y16318D01*
Y16399D01*
X114676D01*
Y16481D01*
Y16562D01*
Y16644D01*
Y16725D01*
Y16806D01*
X114757D01*
Y16888D01*
Y16969D01*
Y17051D01*
Y17132D01*
Y17214D01*
Y17295D01*
Y17377D01*
Y17458D01*
Y17540D01*
Y17621D01*
Y17703D01*
Y17784D01*
Y17865D01*
Y17947D01*
Y18028D01*
Y18110D01*
Y18191D01*
Y18273D01*
Y18354D01*
Y18436D01*
Y18517D01*
Y18599D01*
Y18680D01*
Y18762D01*
Y18843D01*
Y18924D01*
Y19006D01*
Y19087D01*
X114676D01*
Y19169D01*
Y19250D01*
Y19332D01*
Y19413D01*
Y19495D01*
Y19576D01*
X114594D01*
Y19658D01*
Y19739D01*
Y19820D01*
Y19902D01*
Y19983D01*
X114513D01*
Y20065D01*
Y20146D01*
Y20228D01*
Y20309D01*
X114431D01*
Y20391D01*
Y20472D01*
Y20554D01*
X114350D01*
Y20635D01*
Y20717D01*
Y20798D01*
X114269D01*
Y20879D01*
Y20961D01*
Y21042D01*
X114187D01*
Y21124D01*
Y21205D01*
Y21287D01*
X114105D01*
Y21368D01*
Y21450D01*
X114024D01*
Y21531D01*
Y21612D01*
X113943D01*
Y21694D01*
Y21775D01*
Y21857D01*
X113861D01*
Y21938D01*
X113780D01*
Y22020D01*
Y22101D01*
X113698D01*
Y22183D01*
Y22264D01*
X113617D01*
Y22346D01*
Y22427D01*
X113535D01*
Y22509D01*
Y22590D01*
X113454D01*
Y22671D01*
X113372D01*
Y22753D01*
Y22834D01*
X113291D01*
Y22916D01*
X113209D01*
Y22997D01*
Y23079D01*
X113128D01*
Y23160D01*
X113047D01*
Y23242D01*
X112965D01*
Y23323D01*
Y23405D01*
X112884D01*
Y23486D01*
X112802D01*
Y23568D01*
X112721D01*
Y23649D01*
X112639D01*
Y23730D01*
X112558D01*
Y23812D01*
X112476D01*
Y23893D01*
Y23975D01*
X112395D01*
Y24056D01*
X112313D01*
Y24138D01*
X112232D01*
Y24219D01*
X112151D01*
Y24301D01*
X111988D01*
Y24382D01*
X111906D01*
Y24464D01*
X111825D01*
Y24545D01*
X111743D01*
Y24626D01*
X111662D01*
Y24708D01*
X111580D01*
Y24789D01*
X111417D01*
Y24871D01*
X111336D01*
Y24952D01*
Y25034D01*
X111417D01*
Y25115D01*
Y25197D01*
X111499D01*
Y25278D01*
Y25360D01*
Y25441D01*
X111580D01*
Y25523D01*
Y25604D01*
Y25685D01*
X111662D01*
Y25767D01*
Y25848D01*
Y25930D01*
X111743D01*
Y26011D01*
Y26093D01*
Y26174D01*
Y26256D01*
Y26337D01*
Y26419D01*
X111825D01*
Y26500D01*
Y26581D01*
Y26663D01*
Y26744D01*
Y26826D01*
Y26907D01*
X111743D01*
Y26989D01*
Y27070D01*
Y27152D01*
Y27233D01*
Y27315D01*
X111662D01*
Y27396D01*
Y27477D01*
Y27559D01*
X111580D01*
Y27640D01*
Y27722D01*
X111499D01*
Y27803D01*
Y27885D01*
X111417D01*
Y27966D01*
Y28048D01*
X111336D01*
Y28129D01*
X111255D01*
Y28211D01*
Y28292D01*
X111173D01*
Y28374D01*
X111092D01*
Y28455D01*
X111010D01*
Y28536D01*
X110929D01*
Y28618D01*
X110847D01*
Y28699D01*
X110766D01*
Y28781D01*
X110684D01*
Y28862D01*
X110603D01*
Y28944D01*
X110440D01*
Y29025D01*
X110358D01*
Y29107D01*
X110277D01*
Y29188D01*
X110114D01*
Y29270D01*
X110033D01*
Y29351D01*
X109870D01*
Y29432D01*
X109788D01*
Y29514D01*
X109625D01*
Y29595D01*
X109544D01*
Y29677D01*
X109381D01*
Y29758D01*
X109218D01*
Y29840D01*
X109055D01*
Y29921D01*
X108892D01*
Y30003D01*
X108729D01*
Y30084D01*
X108566D01*
Y30166D01*
X108403D01*
Y30247D01*
X108240D01*
Y30329D01*
X108078D01*
Y30410D01*
X107915D01*
Y30492D01*
X107752D01*
Y30573D01*
X107589D01*
Y30654D01*
X107426D01*
Y30736D01*
X107182D01*
Y30817D01*
X107019D01*
Y30899D01*
X106856D01*
Y30980D01*
X106611D01*
Y31062D01*
X106448D01*
Y31143D01*
X106204D01*
Y31225D01*
X106041D01*
Y31306D01*
X105797D01*
Y31387D01*
X105634D01*
Y31469D01*
X105389D01*
Y31550D01*
X105227D01*
Y31632D01*
X105064D01*
Y31713D01*
X104901D01*
Y31795D01*
Y31876D01*
Y31958D01*
X104819D01*
Y32039D01*
Y32121D01*
Y32202D01*
X104738D01*
Y32284D01*
Y32365D01*
X104656D01*
Y32447D01*
Y32528D01*
X104575D01*
Y32609D01*
Y32691D01*
X104493D01*
Y32772D01*
X104412D01*
Y32854D01*
Y32935D01*
X104331D01*
Y33017D01*
X104249D01*
Y33098D01*
Y33180D01*
X104168D01*
Y33261D01*
X104086D01*
Y33342D01*
X104005D01*
Y33424D01*
X103923D01*
Y33505D01*
X103842D01*
Y33587D01*
X103760D01*
Y33668D01*
X103679D01*
Y33750D01*
X103597D01*
Y33831D01*
X103516D01*
Y33913D01*
X103435D01*
Y33994D01*
X103353D01*
Y34076D01*
X103272D01*
Y34157D01*
X103109D01*
Y34238D01*
X103027D01*
Y34320D01*
X102946D01*
Y34402D01*
X102783D01*
Y34483D01*
X102701D01*
Y34564D01*
X102620D01*
Y34646D01*
X102457D01*
Y34727D01*
X102375D01*
Y34809D01*
X102213D01*
Y34890D01*
X102131D01*
Y34972D01*
X101968D01*
Y35053D01*
X101805D01*
Y35135D01*
X101642D01*
Y35216D01*
X101561D01*
Y35298D01*
X101398D01*
Y35379D01*
X101235D01*
Y35460D01*
X101072D01*
Y35542D01*
X100909D01*
Y35623D01*
X100746D01*
Y35705D01*
X100584D01*
Y35786D01*
X100420D01*
Y35868D01*
X100258D01*
Y35949D01*
X100013D01*
Y36031D01*
X99850D01*
Y36112D01*
X99606D01*
Y36193D01*
X99443D01*
Y36275D01*
X99199D01*
Y36356D01*
X98954D01*
Y36438D01*
X98791D01*
Y36519D01*
X98466D01*
Y36601D01*
X98221D01*
Y36682D01*
X97895D01*
Y36764D01*
X97570D01*
Y36845D01*
X97244D01*
Y36927D01*
X96836D01*
Y37008D01*
X96429D01*
Y37090D01*
X95777D01*
Y37171D01*
D02*
G37*
G36*
X56662Y38080D02*
X56319D01*
X56199Y38071D01*
X56097Y38062D01*
X55996Y38043D01*
X55912Y38025D01*
X55848Y37997D01*
X55801Y37979D01*
X55764Y37969D01*
X55755Y37960D01*
X55589Y37858D01*
X55524Y37803D01*
X55459Y37747D01*
X55413Y37701D01*
X55376Y37664D01*
X55357Y37636D01*
X55348Y37627D01*
X55237Y37461D01*
X55200Y37368D01*
X55163Y37285D01*
X55135Y37220D01*
X55117Y37165D01*
X55098Y37118D01*
Y37109D01*
X55052Y36878D01*
X55034Y36776D01*
X55024Y36674D01*
X55015Y36582D01*
Y36517D01*
Y36471D01*
Y36452D01*
Y35999D01*
Y35860D01*
X55034Y35731D01*
X55043Y35620D01*
X55061Y35518D01*
X55080Y35435D01*
X55089Y35370D01*
X55108Y35333D01*
Y35315D01*
X55145Y35204D01*
X55182Y35102D01*
X55219Y35019D01*
X55265Y34945D01*
X55302Y34880D01*
X55330Y34834D01*
X55348Y34806D01*
X55357Y34797D01*
X55487Y34658D01*
X55552Y34612D01*
X55607Y34565D01*
X55663Y34528D01*
X55709Y34501D01*
X55737Y34491D01*
X55746Y34482D01*
X55838Y34445D01*
X55922Y34417D01*
X56014Y34399D01*
X56088Y34390D01*
X56162Y34380D01*
X56218Y34371D01*
X56662D01*
Y38080D01*
D02*
G37*
G36*
X65884Y28164D02*
X65542D01*
X65421Y28155D01*
X65320Y28145D01*
X65218Y28127D01*
X65135Y28108D01*
X65070Y28080D01*
X65024Y28062D01*
X64987Y28053D01*
X64977Y28043D01*
X64811Y27942D01*
X64746Y27886D01*
X64681Y27831D01*
X64635Y27785D01*
X64598Y27748D01*
X64580Y27720D01*
X64570Y27711D01*
X64459Y27544D01*
X64422Y27452D01*
X64385Y27368D01*
X64358Y27304D01*
X64339Y27248D01*
X64321Y27202D01*
Y27193D01*
X64274Y26961D01*
X64256Y26860D01*
X64247Y26758D01*
X64237Y26665D01*
Y26601D01*
Y26554D01*
Y26536D01*
Y26083D01*
Y25944D01*
X64256Y25814D01*
X64265Y25703D01*
X64284Y25602D01*
X64302Y25518D01*
X64311Y25454D01*
X64330Y25417D01*
Y25398D01*
X64367Y25287D01*
X64404Y25185D01*
X64441Y25102D01*
X64487Y25028D01*
X64524Y24963D01*
X64552Y24917D01*
X64570Y24889D01*
X64580Y24880D01*
X64709Y24741D01*
X64774Y24695D01*
X64829Y24649D01*
X64885Y24612D01*
X64931Y24584D01*
X64959Y24575D01*
X64968Y24566D01*
X65061Y24529D01*
X65144Y24501D01*
X65236Y24482D01*
X65310Y24473D01*
X65384Y24464D01*
X65440Y24455D01*
X65884D01*
Y28164D01*
D02*
G37*
G36*
X123467Y20948D02*
X123411D01*
X123291Y20939D01*
X123180Y20911D01*
X123087Y20865D01*
X123013Y20819D01*
X122958Y20763D01*
X122921Y20726D01*
X122893Y20689D01*
X122884Y20680D01*
X122819Y20569D01*
X122773Y20449D01*
X122745Y20319D01*
X122717Y20190D01*
X122699Y20070D01*
X122689Y19977D01*
Y19940D01*
Y19912D01*
Y19894D01*
Y19885D01*
X124123Y18812D01*
Y19820D01*
X124114Y20023D01*
X124095Y20199D01*
X124068Y20338D01*
X124031Y20458D01*
X124003Y20551D01*
X123975Y20615D01*
X123957Y20662D01*
X123948Y20671D01*
X123873Y20763D01*
X123790Y20828D01*
X123698Y20884D01*
X123615Y20911D01*
X123531Y20930D01*
X123467Y20948D01*
D02*
G37*
G36*
X122689Y19182D02*
Y18210D01*
X122699Y18007D01*
X122717Y17831D01*
X122745Y17683D01*
X122773Y17563D01*
X122810Y17470D01*
X122837Y17406D01*
X122856Y17359D01*
X122865Y17350D01*
X122939Y17258D01*
X123022Y17193D01*
X123115Y17137D01*
X123198Y17110D01*
X123282Y17091D01*
X123346Y17082D01*
X123383Y17073D01*
X123402D01*
X123522Y17082D01*
X123633Y17110D01*
X123725Y17156D01*
X123800Y17202D01*
X123855Y17239D01*
X123892Y17285D01*
X123920Y17313D01*
X123929Y17322D01*
X123985Y17433D01*
X124031Y17554D01*
X124068Y17692D01*
X124095Y17822D01*
X124105Y17933D01*
X124114Y18035D01*
X124123Y18062D01*
Y18090D01*
Y18109D01*
Y18118D01*
X122689Y19182D01*
D02*
G37*
G36*
X128082Y11611D02*
X127472D01*
Y10927D01*
X127509Y10871D01*
X127555Y10825D01*
X127583Y10788D01*
X127601Y10770D01*
X127657Y10714D01*
X127722Y10677D01*
X127768Y10640D01*
X127777Y10631D01*
X127786D01*
X127869Y10594D01*
X127944Y10566D01*
X127999Y10548D01*
X128017Y10538D01*
X128027D01*
X128129Y10520D01*
X128221Y10511D01*
X128258Y10501D01*
X128314D01*
X128415Y10511D01*
X128508Y10520D01*
X128582Y10548D01*
X128647Y10575D01*
X128693Y10594D01*
X128730Y10622D01*
X128748Y10631D01*
X128758Y10640D01*
X128804Y10696D01*
X128841Y10751D01*
X128859Y10807D01*
X128878Y10862D01*
X128887Y10908D01*
X128896Y10945D01*
Y10973D01*
Y10982D01*
X128887Y11084D01*
X128868Y11158D01*
X128859Y11214D01*
X128850Y11223D01*
Y11232D01*
X128804Y11315D01*
X128748Y11380D01*
X128711Y11417D01*
X128693Y11436D01*
X128600Y11491D01*
X128508Y11528D01*
X128471Y11547D01*
X128443Y11556D01*
X128425Y11565D01*
X128415D01*
X128277Y11593D01*
X128138Y11602D01*
X128082Y11611D01*
D02*
G37*
G36*
X142466Y14331D02*
X142124D01*
X142004Y14322D01*
X141902Y14312D01*
X141800Y14294D01*
X141717Y14275D01*
X141652Y14248D01*
X141606Y14229D01*
X141569Y14220D01*
X141560Y14211D01*
X141393Y14109D01*
X141328Y14053D01*
X141263Y13998D01*
X141217Y13952D01*
X141180Y13915D01*
X141162Y13887D01*
X141153Y13878D01*
X141042Y13711D01*
X141005Y13619D01*
X140968Y13535D01*
X140940Y13471D01*
X140921Y13415D01*
X140903Y13369D01*
Y13360D01*
X140857Y13128D01*
X140838Y13027D01*
X140829Y12925D01*
X140820Y12832D01*
Y12768D01*
Y12721D01*
Y12703D01*
Y12250D01*
Y12111D01*
X140838Y11981D01*
X140847Y11870D01*
X140866Y11769D01*
X140884Y11685D01*
X140893Y11621D01*
X140912Y11584D01*
Y11565D01*
X140949Y11454D01*
X140986Y11352D01*
X141023Y11269D01*
X141069Y11195D01*
X141106Y11130D01*
X141134Y11084D01*
X141153Y11056D01*
X141162Y11047D01*
X141291Y10908D01*
X141356Y10862D01*
X141411Y10816D01*
X141467Y10779D01*
X141513Y10751D01*
X141541Y10742D01*
X141550Y10733D01*
X141643Y10696D01*
X141726Y10668D01*
X141818Y10649D01*
X141893Y10640D01*
X141966Y10631D01*
X142022Y10622D01*
X142466D01*
Y14331D01*
D02*
G37*
G36*
X133373Y14322D02*
X132606D01*
X132448Y14312D01*
X132309Y14294D01*
X132199Y14266D01*
X132097Y14238D01*
X132023Y14211D01*
X131976Y14183D01*
X131939Y14164D01*
X131930Y14155D01*
X131856Y14081D01*
X131801Y13998D01*
X131755Y13905D01*
X131727Y13822D01*
X131708Y13739D01*
X131699Y13674D01*
Y13628D01*
Y13609D01*
X131708Y13489D01*
X131736Y13387D01*
X131773Y13295D01*
X131819Y13221D01*
X131866Y13165D01*
X131903Y13128D01*
X131930Y13101D01*
X131939Y13091D01*
X132032Y13036D01*
X132143Y12990D01*
X132254Y12953D01*
X132356Y12934D01*
X132457Y12916D01*
X132531Y12906D01*
X133373D01*
Y14322D01*
D02*
G37*
G36*
Y12157D02*
X132402D01*
X132254Y12148D01*
X132124Y12120D01*
X132013Y12092D01*
X131930Y12055D01*
X131856Y12009D01*
X131810Y11981D01*
X131782Y11954D01*
X131773Y11944D01*
X131708Y11861D01*
X131653Y11769D01*
X131625Y11676D01*
X131597Y11584D01*
X131588Y11500D01*
X131579Y11436D01*
Y11389D01*
Y11371D01*
X131588Y11251D01*
X131616Y11149D01*
X131653Y11056D01*
X131690Y10982D01*
X131727Y10918D01*
X131764Y10871D01*
X131791Y10844D01*
X131801Y10834D01*
X131893Y10770D01*
X131995Y10714D01*
X132106Y10677D01*
X132208Y10649D01*
X132300Y10640D01*
X132374Y10631D01*
X132430Y10622D01*
X133373D01*
Y12157D01*
D02*
G37*
G36*
X192474Y17195D02*
X192132D01*
X192011Y17185D01*
X191910Y17176D01*
X191808Y17157D01*
X191725Y17139D01*
X191660Y17111D01*
X191614Y17093D01*
X191577Y17084D01*
X191568Y17074D01*
X191401Y16973D01*
X191336Y16917D01*
X191271Y16861D01*
X191225Y16815D01*
X191188Y16778D01*
X191170Y16750D01*
X191161Y16741D01*
X191050Y16575D01*
X191013Y16482D01*
X190975Y16399D01*
X190948Y16334D01*
X190929Y16279D01*
X190911Y16232D01*
Y16223D01*
X190865Y15992D01*
X190846Y15890D01*
X190837Y15789D01*
X190828Y15696D01*
Y15631D01*
Y15585D01*
Y15566D01*
Y15113D01*
Y14975D01*
X190846Y14845D01*
X190855Y14734D01*
X190874Y14632D01*
X190892Y14549D01*
X190902Y14484D01*
X190920Y14447D01*
Y14429D01*
X190957Y14318D01*
X190994Y14216D01*
X191031Y14133D01*
X191077Y14059D01*
X191114Y13994D01*
X191142Y13948D01*
X191161Y13920D01*
X191170Y13911D01*
X191299Y13772D01*
X191364Y13726D01*
X191419Y13679D01*
X191475Y13643D01*
X191521Y13615D01*
X191549Y13605D01*
X191558Y13596D01*
X191651Y13559D01*
X191734Y13532D01*
X191826Y13513D01*
X191901Y13504D01*
X191974Y13495D01*
X192030Y13485D01*
X192474D01*
Y17195D01*
D02*
G37*
G36*
X155634Y37812D02*
X155024Y37812D01*
Y37128D01*
X155061Y37072D01*
X155107Y37026D01*
X155134Y36989D01*
X155153Y36970D01*
X155209Y36915D01*
X155273Y36878D01*
X155319Y36841D01*
X155329Y36832D01*
X155338D01*
X155421Y36795D01*
X155495Y36767D01*
X155551Y36748D01*
X155569Y36739D01*
X155578D01*
X155680Y36721D01*
X155773Y36711D01*
X155810Y36702D01*
X155865D01*
X155967Y36711D01*
X156060Y36721D01*
X156133Y36748D01*
X156198Y36776D01*
X156245Y36795D01*
X156281Y36822D01*
X156300Y36832D01*
X156309Y36841D01*
X156356Y36896D01*
X156393Y36952D01*
X156411Y37007D01*
X156430Y37063D01*
X156439Y37109D01*
X156448Y37146D01*
Y37174D01*
Y37183D01*
X156439Y37285D01*
X156420Y37359D01*
X156411Y37414D01*
X156402Y37424D01*
Y37433D01*
X156356Y37516D01*
X156300Y37581D01*
X156263Y37618D01*
X156245Y37636D01*
X156152Y37692D01*
X156060Y37729D01*
X156023Y37747D01*
X155995Y37757D01*
X155976Y37766D01*
X155967D01*
X155828Y37794D01*
X155690Y37803D01*
X155634Y37812D01*
D02*
G37*
G36*
X128384Y37812D02*
X127773D01*
Y37128D01*
X127810Y37072D01*
X127856Y37026D01*
X127884Y36989D01*
X127902Y36970D01*
X127958Y36915D01*
X128023Y36878D01*
X128069Y36841D01*
X128078Y36832D01*
X128087D01*
X128171Y36795D01*
X128245Y36767D01*
X128300Y36748D01*
X128319Y36739D01*
X128328D01*
X128430Y36721D01*
X128522Y36711D01*
X128559Y36702D01*
X128615D01*
X128717Y36711D01*
X128809Y36721D01*
X128883Y36748D01*
X128948Y36776D01*
X128994Y36795D01*
X129031Y36822D01*
X129050Y36832D01*
X129059Y36841D01*
X129105Y36896D01*
X129142Y36952D01*
X129160Y37007D01*
X129179Y37063D01*
X129188Y37109D01*
X129198Y37146D01*
Y37174D01*
Y37183D01*
X129188Y37285D01*
X129170Y37359D01*
X129160Y37414D01*
X129151Y37424D01*
Y37433D01*
X129105Y37516D01*
X129050Y37581D01*
X129013Y37618D01*
X128994Y37636D01*
X128902Y37692D01*
X128809Y37729D01*
X128772Y37747D01*
X128744Y37757D01*
X128726Y37766D01*
X128717D01*
X128578Y37794D01*
X128439Y37803D01*
X128384Y37812D01*
D02*
G37*
G36*
X164708Y39227D02*
X164644D01*
X164505Y39218D01*
X164403Y39200D01*
X164357Y39181D01*
X164329Y39172D01*
X164311Y39163D01*
X164301D01*
X164199Y39116D01*
X164116Y39061D01*
X164070Y39015D01*
X164051Y39005D01*
Y38996D01*
X163978Y38913D01*
X163922Y38830D01*
X163903Y38802D01*
X163894Y38774D01*
X163885Y38756D01*
Y38746D01*
X163848Y38645D01*
X163839Y38543D01*
X163830Y38506D01*
Y38469D01*
Y38450D01*
Y38441D01*
Y38367D01*
X165513D01*
X165476Y38506D01*
X165439Y38617D01*
X165430Y38663D01*
X165411Y38691D01*
X165402Y38709D01*
Y38719D01*
X165337Y38830D01*
X165282Y38913D01*
X165235Y38968D01*
X165217Y38978D01*
Y38987D01*
X165134Y39061D01*
X165050Y39116D01*
X164986Y39153D01*
X164977Y39163D01*
X164967D01*
X164856Y39200D01*
X164745Y39218D01*
X164708Y39227D01*
D02*
G37*
G36*
X137458Y39227D02*
X137393D01*
X137254Y39218D01*
X137153Y39200D01*
X137106Y39181D01*
X137078Y39172D01*
X137060Y39163D01*
X137051D01*
X136949Y39116D01*
X136866Y39061D01*
X136820Y39015D01*
X136801Y39005D01*
Y38996D01*
X136727Y38913D01*
X136671Y38830D01*
X136653Y38802D01*
X136644Y38774D01*
X136635Y38756D01*
Y38746D01*
X136598Y38645D01*
X136588Y38543D01*
X136579Y38506D01*
Y38469D01*
Y38450D01*
Y38441D01*
Y38367D01*
X138262D01*
X138225Y38506D01*
X138189Y38617D01*
X138179Y38663D01*
X138161Y38691D01*
X138152Y38709D01*
Y38719D01*
X138087Y38830D01*
X138031Y38913D01*
X137985Y38968D01*
X137967Y38978D01*
Y38987D01*
X137883Y39061D01*
X137800Y39116D01*
X137735Y39153D01*
X137726Y39163D01*
X137717D01*
X137606Y39200D01*
X137495Y39218D01*
X137458Y39227D01*
D02*
G37*
G36*
X142767Y40532D02*
X142425D01*
X142305Y40522D01*
X142203Y40513D01*
X142101Y40495D01*
X142018Y40476D01*
X141953Y40448D01*
X141907Y40430D01*
X141870Y40421D01*
X141861Y40411D01*
X141694Y40310D01*
X141630Y40254D01*
X141565Y40199D01*
X141518Y40152D01*
X141481Y40115D01*
X141463Y40088D01*
X141454Y40078D01*
X141343Y39912D01*
X141306Y39819D01*
X141269Y39736D01*
X141241Y39671D01*
X141223Y39616D01*
X141204Y39570D01*
Y39560D01*
X141158Y39329D01*
X141139Y39227D01*
X141130Y39126D01*
X141121Y39033D01*
Y38968D01*
Y38922D01*
Y38904D01*
Y38450D01*
Y38312D01*
X141139Y38182D01*
X141148Y38071D01*
X141167Y37969D01*
X141185Y37886D01*
X141195Y37821D01*
X141213Y37784D01*
Y37766D01*
X141250Y37655D01*
X141287Y37553D01*
X141324Y37470D01*
X141370Y37396D01*
X141408Y37331D01*
X141435Y37285D01*
X141454Y37257D01*
X141463Y37248D01*
X141593Y37109D01*
X141657Y37063D01*
X141713Y37017D01*
X141768Y36980D01*
X141814Y36952D01*
X141842Y36943D01*
X141851Y36933D01*
X141944Y36896D01*
X142027Y36869D01*
X142120Y36850D01*
X142194Y36841D01*
X142268Y36832D01*
X142323Y36822D01*
X142767D01*
Y40532D01*
D02*
G37*
G36*
X132944Y34007D02*
X132888D01*
X132768Y33997D01*
X132657Y33970D01*
X132564Y33924D01*
X132491Y33877D01*
X132435Y33822D01*
X132398Y33785D01*
X132370Y33748D01*
X132361Y33738D01*
X132296Y33628D01*
X132250Y33507D01*
X132222Y33378D01*
X132194Y33248D01*
X132176Y33128D01*
X132167Y33035D01*
Y32998D01*
Y32971D01*
Y32952D01*
Y32943D01*
X133600Y31870D01*
Y32878D01*
X133591Y33082D01*
X133573Y33257D01*
X133545Y33396D01*
X133508Y33516D01*
X133480Y33609D01*
X133452Y33674D01*
X133434Y33720D01*
X133425Y33729D01*
X133351Y33822D01*
X133267Y33887D01*
X133175Y33942D01*
X133092Y33970D01*
X133009Y33988D01*
X132944Y34007D01*
D02*
G37*
G36*
X132167Y32240D02*
Y31269D01*
X132176Y31065D01*
X132194Y30889D01*
X132222Y30742D01*
X132250Y30621D01*
X132287Y30529D01*
X132315Y30464D01*
X132333Y30418D01*
X132343Y30408D01*
X132416Y30316D01*
X132500Y30251D01*
X132592Y30196D01*
X132676Y30168D01*
X132759Y30149D01*
X132824Y30140D01*
X132861Y30131D01*
X132879D01*
X132999Y30140D01*
X133110Y30168D01*
X133203Y30214D01*
X133277Y30261D01*
X133332Y30297D01*
X133369Y30344D01*
X133397Y30371D01*
X133406Y30381D01*
X133462Y30492D01*
X133508Y30612D01*
X133545Y30751D01*
X133573Y30880D01*
X133582Y30991D01*
X133591Y31093D01*
X133600Y31121D01*
Y31148D01*
Y31167D01*
Y31176D01*
X132167Y32240D01*
D02*
G37*
G36*
X123860Y34007D02*
X123805D01*
X123685Y33997D01*
X123574Y33970D01*
X123481Y33924D01*
X123407Y33877D01*
X123352Y33822D01*
X123314Y33785D01*
X123287Y33748D01*
X123277Y33738D01*
X123213Y33628D01*
X123167Y33507D01*
X123139Y33378D01*
X123111Y33248D01*
X123092Y33128D01*
X123083Y33035D01*
Y32998D01*
Y32971D01*
Y32952D01*
Y32943D01*
X124517Y31870D01*
Y32878D01*
X124508Y33082D01*
X124489Y33257D01*
X124461Y33396D01*
X124425Y33516D01*
X124397Y33609D01*
X124369Y33674D01*
X124351Y33720D01*
X124341Y33729D01*
X124267Y33822D01*
X124184Y33887D01*
X124091Y33942D01*
X124008Y33970D01*
X123925Y33988D01*
X123860Y34007D01*
D02*
G37*
G36*
X123083Y32240D02*
Y31269D01*
X123092Y31065D01*
X123111Y30889D01*
X123139Y30742D01*
X123167Y30621D01*
X123204Y30529D01*
X123231Y30464D01*
X123250Y30418D01*
X123259Y30408D01*
X123333Y30316D01*
X123416Y30251D01*
X123509Y30196D01*
X123592Y30168D01*
X123675Y30149D01*
X123740Y30140D01*
X123777Y30131D01*
X123795D01*
X123916Y30140D01*
X124027Y30168D01*
X124119Y30214D01*
X124193Y30261D01*
X124249Y30297D01*
X124286Y30344D01*
X124313Y30371D01*
X124323Y30381D01*
X124378Y30492D01*
X124425Y30612D01*
X124461Y30751D01*
X124489Y30880D01*
X124498Y30991D01*
X124508Y31093D01*
X124517Y31121D01*
Y31148D01*
Y31167D01*
Y31176D01*
X123083Y32240D01*
D02*
G37*
G36*
X201696Y27037D02*
X201354D01*
X201234Y27028D01*
X201132Y27018D01*
X201030Y27000D01*
X200947Y26981D01*
X200882Y26954D01*
X200836Y26935D01*
X200799Y26926D01*
X200790Y26917D01*
X200623Y26815D01*
X200558Y26759D01*
X200494Y26704D01*
X200448Y26658D01*
X200411Y26621D01*
X200392Y26593D01*
X200383Y26584D01*
X200272Y26417D01*
X200235Y26325D01*
X200198Y26241D01*
X200170Y26177D01*
X200151Y26121D01*
X200133Y26075D01*
Y26066D01*
X200087Y25835D01*
X200068Y25733D01*
X200059Y25631D01*
X200050Y25539D01*
Y25474D01*
Y25427D01*
Y25409D01*
Y24956D01*
Y24817D01*
X200068Y24688D01*
X200078Y24577D01*
X200096Y24475D01*
X200114Y24392D01*
X200124Y24327D01*
X200142Y24290D01*
Y24271D01*
X200179Y24160D01*
X200216Y24058D01*
X200253Y23975D01*
X200300Y23901D01*
X200337Y23836D01*
X200364Y23790D01*
X200383Y23763D01*
X200392Y23753D01*
X200521Y23615D01*
X200586Y23568D01*
X200642Y23522D01*
X200697Y23485D01*
X200744Y23457D01*
X200771Y23448D01*
X200781Y23439D01*
X200873Y23402D01*
X200956Y23374D01*
X201049Y23356D01*
X201123Y23346D01*
X201197Y23337D01*
X201252Y23328D01*
X201696D01*
Y27037D01*
D02*
G37*
G36*
X196470Y27092D02*
X196433D01*
X196341Y27083D01*
X196257Y27074D01*
X196183Y27055D01*
X196118Y27037D01*
X196063Y27009D01*
X196026Y26991D01*
X196008Y26981D01*
X195998Y26972D01*
X195878Y26880D01*
X195776Y26778D01*
X195748Y26732D01*
X195721Y26695D01*
X195712Y26667D01*
X195702Y26658D01*
X195628Y26500D01*
X195573Y26353D01*
X195554Y26288D01*
X195545Y26232D01*
X195536Y26195D01*
Y26186D01*
X195499Y25973D01*
X195490Y25872D01*
Y25779D01*
X195480Y25696D01*
Y25631D01*
Y25594D01*
Y25576D01*
Y24789D01*
Y24669D01*
X195490Y24558D01*
X195499Y24447D01*
X195508Y24364D01*
X195517Y24281D01*
X195527Y24225D01*
X195536Y24188D01*
Y24179D01*
X195554Y24077D01*
X195582Y23984D01*
X195610Y23901D01*
X195638Y23836D01*
X195665Y23781D01*
X195684Y23735D01*
X195693Y23707D01*
X195702Y23698D01*
X195795Y23568D01*
X195887Y23467D01*
X195933Y23429D01*
X195970Y23402D01*
X195989Y23392D01*
X195998Y23383D01*
X196063Y23346D01*
X196137Y23318D01*
X196276Y23291D01*
X196331Y23281D01*
X196378Y23272D01*
X196424D01*
X196516Y23281D01*
X196599Y23291D01*
X196674Y23309D01*
X196738Y23328D01*
X196784Y23346D01*
X196831Y23365D01*
X196849Y23383D01*
X196859D01*
X196969Y23485D01*
X197053Y23587D01*
X197090Y23633D01*
X197108Y23670D01*
X197117Y23698D01*
X197127Y23707D01*
X197192Y23864D01*
X197219Y23947D01*
X197238Y24022D01*
X197256Y24086D01*
X197266Y24142D01*
X197275Y24179D01*
Y24188D01*
X197302Y24401D01*
X197312Y24502D01*
Y24595D01*
X197321Y24669D01*
Y24734D01*
Y24771D01*
Y24789D01*
Y25576D01*
Y25696D01*
X197312Y25816D01*
X197302Y25918D01*
X197293Y26010D01*
Y26084D01*
X197284Y26140D01*
X197275Y26177D01*
Y26186D01*
X197256Y26288D01*
X197229Y26380D01*
X197210Y26454D01*
X197182Y26528D01*
X197164Y26584D01*
X197145Y26621D01*
X197127Y26649D01*
Y26658D01*
X197044Y26796D01*
X196997Y26843D01*
X196951Y26889D01*
X196914Y26926D01*
X196886Y26954D01*
X196868Y26963D01*
X196859Y26972D01*
X196794Y27009D01*
X196720Y27046D01*
X196581Y27074D01*
X196526Y27083D01*
X196470Y27092D01*
D02*
G37*
%LPD*%
D29*
X204626Y787D02*
X248524D01*
Y50295D01*
X204626Y787D02*
Y50295D01*
X248524D01*
X8315Y51187D02*
X52213D01*
X8315Y1680D02*
Y51187D01*
X52213Y1680D02*
Y51187D01*
X8315Y1680D02*
X52213D01*
M02*
