G04*
G04 #@! TF.GenerationSoftware,Altium Limited,Altium Designer,20.1.12 (249)*
G04*
G04 Layer_Color=8421504*
%FSLAX25Y25*%
%MOIN*%
G70*
G04*
G04 #@! TF.SameCoordinates,9F8D7EE4-A703-4B50-B93F-D04A273BC2B7*
G04*
G04*
G04 #@! TF.FilePolarity,Positive*
G04*
G01*
G75*
%ADD12C,0.03937*%
%ADD13R,0.05906X0.03543*%
%ADD14R,0.04331X0.03937*%
D12*
X150175Y39764D02*
D03*
X175722D02*
D03*
X201269D02*
D03*
X226815D02*
D03*
X124628D02*
D03*
X22441D02*
D03*
X47988D02*
D03*
X73535D02*
D03*
X99081D02*
D03*
X252362D02*
D03*
D13*
X208268Y31890D02*
D03*
Y19291D02*
D03*
X226772D02*
D03*
Y31890D02*
D03*
X182677D02*
D03*
Y19291D02*
D03*
X201181D02*
D03*
Y31890D02*
D03*
X157087D02*
D03*
Y19291D02*
D03*
X175591D02*
D03*
Y31890D02*
D03*
X131496D02*
D03*
Y19291D02*
D03*
X150000D02*
D03*
Y31890D02*
D03*
X105905D02*
D03*
Y19291D02*
D03*
X124409D02*
D03*
Y31890D02*
D03*
X80315D02*
D03*
Y19291D02*
D03*
X98819D02*
D03*
Y31890D02*
D03*
X54724D02*
D03*
Y19291D02*
D03*
X73228D02*
D03*
Y31890D02*
D03*
X29134D02*
D03*
Y19291D02*
D03*
X47638D02*
D03*
Y31890D02*
D03*
X233858D02*
D03*
Y19291D02*
D03*
X252362D02*
D03*
Y31890D02*
D03*
X3543D02*
D03*
Y19291D02*
D03*
X22047D02*
D03*
Y31890D02*
D03*
D14*
X214370Y11811D02*
D03*
X221063D02*
D03*
X188779D02*
D03*
X195472D02*
D03*
X239173D02*
D03*
X245866D02*
D03*
X161614D02*
D03*
X168307D02*
D03*
X137598D02*
D03*
X144291D02*
D03*
X110039D02*
D03*
X116732D02*
D03*
X86811D02*
D03*
X93504D02*
D03*
X61221D02*
D03*
X67913D02*
D03*
X34843D02*
D03*
X41535D02*
D03*
X9252D02*
D03*
X15945D02*
D03*
M02*
