G04*
G04 #@! TF.GenerationSoftware,Altium Limited,Altium Designer,20.1.12 (249)*
G04*
G04 Layer_Color=16711935*
%FSLAX25Y25*%
%MOIN*%
G70*
G04*
G04 #@! TF.SameCoordinates,9F8D7EE4-A703-4B50-B93F-D04A273BC2B7*
G04*
G04*
G04 #@! TF.FilePolarity,Negative*
G04*
G01*
G75*
%ADD27R,0.16154X0.07887*%
%ADD28R,0.18517X0.05918*%
G36*
X94881Y35460D02*
X95859D01*
Y35379D01*
X96266D01*
Y35298D01*
X96755D01*
Y35216D01*
X96999D01*
Y35135D01*
X97407D01*
Y35053D01*
X97651D01*
Y34972D01*
X97977D01*
Y34890D01*
X98221D01*
Y34809D01*
X98466D01*
Y34727D01*
X98710D01*
Y34646D01*
X98873D01*
Y34564D01*
X99117D01*
Y34483D01*
X99362D01*
Y34402D01*
X99524D01*
Y34320D01*
X99687D01*
Y34238D01*
X99850D01*
Y34157D01*
X100013D01*
Y34076D01*
X100176D01*
Y33994D01*
X100339D01*
Y33913D01*
X100502D01*
Y33831D01*
X100665D01*
Y33750D01*
X100828D01*
Y33668D01*
X100909D01*
Y33587D01*
X101072D01*
Y33505D01*
X101235D01*
Y33424D01*
X101317D01*
Y33342D01*
X101479D01*
Y33261D01*
X101561D01*
Y33180D01*
X101724D01*
Y33098D01*
X101805D01*
Y33017D01*
X101887D01*
Y32935D01*
X102050D01*
Y32854D01*
X102131D01*
Y32772D01*
X102213D01*
Y32691D01*
X102294D01*
Y32609D01*
X102375D01*
Y32528D01*
X102457D01*
Y32447D01*
X102538D01*
Y32365D01*
X102620D01*
Y32284D01*
X102701D01*
Y32202D01*
X102783D01*
Y32121D01*
X102864D01*
Y32039D01*
Y31958D01*
X102946D01*
Y31876D01*
X103027D01*
Y31795D01*
Y31713D01*
X103109D01*
Y31632D01*
Y31550D01*
X103190D01*
Y31469D01*
Y31387D01*
Y31306D01*
X103272D01*
Y31225D01*
Y31143D01*
Y31062D01*
Y30980D01*
Y30899D01*
Y30817D01*
Y30736D01*
Y30654D01*
Y30573D01*
Y30492D01*
Y30410D01*
Y30329D01*
X103190D01*
Y30247D01*
Y30166D01*
Y30084D01*
X103109D01*
Y30003D01*
Y29921D01*
Y29840D01*
Y29758D01*
X103027D01*
Y29677D01*
Y29595D01*
Y29514D01*
X102946D01*
Y29432D01*
Y29351D01*
X102864D01*
Y29270D01*
Y29188D01*
Y29107D01*
X102783D01*
Y29025D01*
Y28944D01*
X102701D01*
Y28862D01*
Y28781D01*
Y28699D01*
X102620D01*
Y28618D01*
Y28536D01*
X102538D01*
Y28455D01*
Y28374D01*
Y28292D01*
X102457D01*
Y28211D01*
Y28129D01*
Y28048D01*
X102375D01*
Y27966D01*
Y27885D01*
X102294D01*
Y27803D01*
Y27722D01*
Y27640D01*
X102213D01*
Y27559D01*
Y27477D01*
X102131D01*
Y27396D01*
Y27315D01*
X102050D01*
Y27233D01*
Y27152D01*
Y27070D01*
X101968D01*
Y26989D01*
Y26907D01*
X101887D01*
Y26826D01*
Y26744D01*
Y26663D01*
X101805D01*
Y26581D01*
Y26500D01*
X101724D01*
Y26419D01*
Y26337D01*
Y26256D01*
X101642D01*
Y26174D01*
Y26093D01*
X101561D01*
Y26011D01*
Y25930D01*
Y25848D01*
X101479D01*
Y25767D01*
Y25685D01*
X101398D01*
Y25604D01*
Y25523D01*
Y25441D01*
X101317D01*
Y25360D01*
Y25278D01*
X101235D01*
Y25197D01*
Y25115D01*
X101154D01*
Y25034D01*
Y24952D01*
Y24871D01*
X101072D01*
Y24789D01*
Y24708D01*
Y24626D01*
X100991D01*
Y24545D01*
Y24464D01*
X100909D01*
Y24382D01*
Y24301D01*
Y24219D01*
X100828D01*
Y24138D01*
Y24056D01*
X100746D01*
Y23975D01*
Y23893D01*
Y23812D01*
X100665D01*
Y23730D01*
Y23649D01*
X100584D01*
Y23568D01*
Y23486D01*
Y23405D01*
X100502D01*
Y23323D01*
Y23242D01*
X100420D01*
Y23160D01*
Y23079D01*
Y22997D01*
X100339D01*
Y22916D01*
Y22834D01*
X100258D01*
Y22753D01*
Y22671D01*
X100176D01*
Y22590D01*
Y22509D01*
Y22427D01*
X100095D01*
Y22346D01*
Y22264D01*
Y22183D01*
X100013D01*
Y22101D01*
Y22020D01*
X99932D01*
Y21938D01*
Y21857D01*
Y21775D01*
X99850D01*
Y21694D01*
Y21612D01*
X99769D01*
Y21531D01*
Y21450D01*
X99687D01*
Y21368D01*
Y21287D01*
X99606D01*
Y21205D01*
Y21124D01*
Y21042D01*
X99524D01*
Y20961D01*
Y20879D01*
X99443D01*
Y20798D01*
Y20717D01*
X99362D01*
Y20635D01*
Y20554D01*
X99280D01*
Y20472D01*
Y20391D01*
X99199D01*
Y20309D01*
X99117D01*
Y20228D01*
Y20146D01*
X99036D01*
Y20065D01*
Y19983D01*
X98954D01*
Y19902D01*
X98873D01*
Y19820D01*
Y19739D01*
X98791D01*
Y19658D01*
X98710D01*
Y19576D01*
X98628D01*
Y19495D01*
X98547D01*
Y19413D01*
X98466D01*
Y19332D01*
X98384D01*
Y19250D01*
X98303D01*
Y19169D01*
X98221D01*
Y19087D01*
X98140D01*
Y19006D01*
X98058D01*
Y18924D01*
X97977D01*
Y18843D01*
X97814D01*
Y18762D01*
X97651D01*
Y18680D01*
X97570D01*
Y18599D01*
X97407D01*
Y18517D01*
X97244D01*
Y18436D01*
X97081D01*
Y18354D01*
X96836D01*
Y18273D01*
X96592D01*
Y18191D01*
X96429D01*
Y18110D01*
X96103D01*
Y18028D01*
X95777D01*
Y17947D01*
X95289D01*
Y17865D01*
X94230D01*
Y17784D01*
X93985D01*
Y17865D01*
X92845D01*
Y17947D01*
X92275D01*
Y18028D01*
X92030D01*
Y18110D01*
X91623D01*
Y18191D01*
X91379D01*
Y18273D01*
X91134D01*
Y18354D01*
X90890D01*
Y18436D01*
X90645D01*
Y18517D01*
X90483D01*
Y18599D01*
X90320D01*
Y18680D01*
X90157D01*
Y18762D01*
X89994D01*
Y18843D01*
X89831D01*
Y18924D01*
X89668D01*
Y19006D01*
X89587D01*
Y19087D01*
X89505D01*
Y19169D01*
X89342D01*
Y19250D01*
X89261D01*
Y19332D01*
X89179D01*
Y19413D01*
X89098D01*
Y19495D01*
X89016D01*
Y19576D01*
Y19658D01*
X88935D01*
Y19739D01*
X88853D01*
Y19820D01*
X88772D01*
Y19902D01*
Y19983D01*
X88691D01*
Y20065D01*
Y20146D01*
X88609D01*
Y20228D01*
Y20309D01*
X88528D01*
Y20391D01*
Y20472D01*
X88446D01*
Y20554D01*
Y20635D01*
X88365D01*
Y20717D01*
Y20798D01*
Y20879D01*
X88283D01*
Y20961D01*
Y21042D01*
X88202D01*
Y21124D01*
Y21205D01*
Y21287D01*
X88120D01*
Y21368D01*
Y21450D01*
Y21531D01*
Y21612D01*
X88039D01*
Y21694D01*
Y21775D01*
Y21857D01*
X87957D01*
Y21938D01*
Y22020D01*
Y22101D01*
X87876D01*
Y22183D01*
Y22264D01*
Y22346D01*
X87795D01*
Y22427D01*
Y22509D01*
Y22590D01*
X87713D01*
Y22671D01*
Y22753D01*
Y22834D01*
X87632D01*
Y22916D01*
Y22997D01*
Y23079D01*
Y23160D01*
X87550D01*
Y23242D01*
Y23323D01*
Y23405D01*
X87469D01*
Y23486D01*
Y23568D01*
Y23649D01*
X87387D01*
Y23730D01*
Y23812D01*
Y23893D01*
Y23975D01*
X87306D01*
Y24056D01*
Y24138D01*
Y24219D01*
X87224D01*
Y24301D01*
Y24382D01*
Y24464D01*
X87143D01*
Y24545D01*
Y24626D01*
Y24708D01*
X87061D01*
Y24789D01*
Y24871D01*
Y24952D01*
X86980D01*
Y25034D01*
Y25115D01*
Y25197D01*
X86898D01*
Y25278D01*
Y25360D01*
Y25441D01*
Y25523D01*
X86817D01*
Y25604D01*
Y25685D01*
Y25767D01*
X86735D01*
Y25848D01*
Y25930D01*
Y26011D01*
X86654D01*
Y26093D01*
Y26174D01*
Y26256D01*
X86573D01*
Y26337D01*
Y26419D01*
Y26500D01*
X86491D01*
Y26581D01*
Y26663D01*
Y26744D01*
X86410D01*
Y26826D01*
Y26907D01*
Y26989D01*
Y27070D01*
X86328D01*
Y27152D01*
Y27233D01*
Y27315D01*
X86247D01*
Y27396D01*
Y27477D01*
Y27559D01*
X86165D01*
Y27640D01*
Y27722D01*
Y27803D01*
X86084D01*
Y27885D01*
Y27966D01*
Y28048D01*
X86002D01*
Y28129D01*
Y28211D01*
Y28292D01*
X85921D01*
Y28374D01*
Y28455D01*
Y28536D01*
Y28618D01*
X85839D01*
Y28699D01*
Y28781D01*
Y28862D01*
X85758D01*
Y28944D01*
Y29025D01*
Y29107D01*
X85677D01*
Y29188D01*
Y29270D01*
Y29351D01*
X85595D01*
Y29432D01*
Y29514D01*
X85514D01*
Y29595D01*
Y29677D01*
Y29758D01*
Y29840D01*
X85432D01*
Y29921D01*
Y30003D01*
Y30084D01*
Y30166D01*
X85351D01*
Y30247D01*
Y30329D01*
Y30410D01*
Y30492D01*
Y30573D01*
Y30654D01*
Y30736D01*
Y30817D01*
Y30899D01*
X85432D01*
Y30980D01*
Y31062D01*
Y31143D01*
Y31225D01*
X85514D01*
Y31306D01*
Y31387D01*
X85595D01*
Y31469D01*
Y31550D01*
X85677D01*
Y31632D01*
X85758D01*
Y31713D01*
Y31795D01*
X85839D01*
Y31876D01*
X85921D01*
Y31958D01*
X86002D01*
Y32039D01*
Y32121D01*
X86084D01*
Y32202D01*
X86165D01*
Y32284D01*
X86247D01*
Y32365D01*
X86328D01*
Y32447D01*
X86410D01*
Y32528D01*
X86573D01*
Y32609D01*
X86654D01*
Y32691D01*
X86735D01*
Y32772D01*
X86817D01*
Y32854D01*
X86898D01*
Y32935D01*
X87061D01*
Y33017D01*
X87143D01*
Y33098D01*
X87224D01*
Y33180D01*
X87387D01*
Y33261D01*
X87469D01*
Y33342D01*
X87632D01*
Y33424D01*
X87713D01*
Y33505D01*
X87876D01*
Y33587D01*
X87957D01*
Y33668D01*
X88120D01*
Y33750D01*
X88283D01*
Y33831D01*
X88365D01*
Y33913D01*
X88528D01*
Y33994D01*
X88691D01*
Y34076D01*
X88853D01*
Y34157D01*
X89016D01*
Y34238D01*
X89179D01*
Y34320D01*
X89342D01*
Y34402D01*
X89505D01*
Y34483D01*
X89749D01*
Y34564D01*
X89912D01*
Y34646D01*
X90075D01*
Y34727D01*
X90320D01*
Y34809D01*
X90564D01*
Y34890D01*
X90808D01*
Y34972D01*
X91053D01*
Y35053D01*
X91297D01*
Y35135D01*
X91704D01*
Y35216D01*
X91949D01*
Y35298D01*
X92438D01*
Y35379D01*
X92763D01*
Y35460D01*
X93741D01*
Y35542D01*
X94881D01*
Y35460D01*
D02*
G37*
G36*
X83640Y30084D02*
Y30003D01*
Y29921D01*
X83722D01*
Y29840D01*
Y29758D01*
Y29677D01*
Y29595D01*
X83803D01*
Y29514D01*
Y29432D01*
Y29351D01*
Y29270D01*
X83885D01*
Y29188D01*
Y29107D01*
Y29025D01*
X83966D01*
Y28944D01*
Y28862D01*
Y28781D01*
X84047D01*
Y28699D01*
Y28618D01*
Y28536D01*
X84129D01*
Y28455D01*
Y28374D01*
Y28292D01*
X84210D01*
Y28211D01*
Y28129D01*
Y28048D01*
X84292D01*
Y27966D01*
Y27885D01*
Y27803D01*
X84373D01*
Y27722D01*
Y27640D01*
Y27559D01*
Y27477D01*
X84455D01*
Y27396D01*
Y27315D01*
Y27233D01*
X84536D01*
Y27152D01*
Y27070D01*
Y26989D01*
X84618D01*
Y26907D01*
Y26826D01*
Y26744D01*
X84699D01*
Y26663D01*
Y26581D01*
Y26500D01*
X84781D01*
Y26419D01*
Y26337D01*
Y26256D01*
Y26174D01*
X84862D01*
Y26093D01*
Y26011D01*
X84943D01*
Y25930D01*
Y25848D01*
Y25767D01*
Y25685D01*
X85025D01*
Y25604D01*
Y25523D01*
Y25441D01*
X85106D01*
Y25360D01*
Y25278D01*
Y25197D01*
X85188D01*
Y25115D01*
Y25034D01*
Y24952D01*
Y24871D01*
X85269D01*
Y24789D01*
Y24708D01*
X85351D01*
Y24626D01*
Y24545D01*
Y24464D01*
Y24382D01*
X85432D01*
Y24301D01*
Y24219D01*
Y24138D01*
X85514D01*
Y24056D01*
Y23975D01*
Y23893D01*
X85595D01*
Y23812D01*
Y23730D01*
Y23649D01*
Y23568D01*
X85677D01*
Y23486D01*
Y23405D01*
X85758D01*
Y23323D01*
Y23242D01*
Y23160D01*
Y23079D01*
X85839D01*
Y22997D01*
Y22916D01*
X85921D01*
Y22834D01*
Y22753D01*
Y22671D01*
Y22590D01*
X86002D01*
Y22509D01*
Y22427D01*
Y22346D01*
X86084D01*
Y22264D01*
Y22183D01*
Y22101D01*
X86165D01*
Y22020D01*
Y21938D01*
Y21857D01*
Y21775D01*
X86247D01*
Y21694D01*
Y21612D01*
X86328D01*
Y21531D01*
Y21450D01*
Y21368D01*
Y21287D01*
X86410D01*
Y21205D01*
Y21124D01*
Y21042D01*
X86491D01*
Y20961D01*
Y20879D01*
Y20798D01*
X86573D01*
Y20717D01*
Y20635D01*
Y20554D01*
X86654D01*
Y20472D01*
Y20391D01*
Y20309D01*
X86735D01*
Y20228D01*
Y20146D01*
Y20065D01*
X86817D01*
Y19983D01*
Y19902D01*
X86898D01*
Y19820D01*
Y19739D01*
X86980D01*
Y19658D01*
Y19576D01*
X87061D01*
Y19495D01*
Y19413D01*
X87143D01*
Y19332D01*
Y19250D01*
X87224D01*
Y19169D01*
Y19087D01*
X87306D01*
Y19006D01*
Y18924D01*
X87387D01*
Y18843D01*
X87469D01*
Y18762D01*
X87550D01*
Y18680D01*
Y18599D01*
X87632D01*
Y18517D01*
X87713D01*
Y18436D01*
X87795D01*
Y18354D01*
X87876D01*
Y18273D01*
X87713D01*
Y18191D01*
X87550D01*
Y18110D01*
X87306D01*
Y18028D01*
X87143D01*
Y17947D01*
X86980D01*
Y17865D01*
X86735D01*
Y17784D01*
X86573D01*
Y17703D01*
X86328D01*
Y17621D01*
X86165D01*
Y17540D01*
X85921D01*
Y17458D01*
X85677D01*
Y17377D01*
X85351D01*
Y17295D01*
X84292D01*
Y17377D01*
X84129D01*
Y17458D01*
X83966D01*
Y17540D01*
X83885D01*
Y17621D01*
X83803D01*
Y17703D01*
X83640D01*
Y17784D01*
X83559D01*
Y17865D01*
X83477D01*
Y17947D01*
X83396D01*
Y18028D01*
X83314D01*
Y18110D01*
Y18191D01*
X83233D01*
Y18273D01*
X83151D01*
Y18354D01*
X83070D01*
Y18436D01*
X82988D01*
Y18517D01*
Y18599D01*
X82907D01*
Y18680D01*
X82825D01*
Y18762D01*
X82744D01*
Y18843D01*
Y18924D01*
X82663D01*
Y19006D01*
X82581D01*
Y19087D01*
Y19169D01*
X82500D01*
Y19250D01*
X82418D01*
Y19332D01*
Y19413D01*
X82337D01*
Y19495D01*
X82255D01*
Y19576D01*
Y19658D01*
X82174D01*
Y19739D01*
X82092D01*
Y19820D01*
Y19902D01*
X82011D01*
Y19983D01*
X81929D01*
Y20065D01*
Y20146D01*
X81848D01*
Y20228D01*
X81767D01*
Y20309D01*
Y20391D01*
X81685D01*
Y20472D01*
X81604D01*
Y20554D01*
Y20635D01*
X81522D01*
Y20717D01*
Y20798D01*
X81441D01*
Y20879D01*
X81359D01*
Y20961D01*
Y21042D01*
X81278D01*
Y21124D01*
X81196D01*
Y21205D01*
Y21287D01*
X81115D01*
Y21368D01*
Y21450D01*
X81033D01*
Y21531D01*
X80952D01*
Y21612D01*
Y21694D01*
X80870D01*
Y21775D01*
Y21857D01*
X80789D01*
Y21938D01*
X80708D01*
Y22020D01*
Y22101D01*
X80626D01*
Y22183D01*
X80545D01*
Y22264D01*
Y22346D01*
X80463D01*
Y22427D01*
Y22509D01*
X80382D01*
Y22590D01*
X80300D01*
Y22671D01*
Y22753D01*
X80219D01*
Y22834D01*
Y22916D01*
X80137D01*
Y22997D01*
X80056D01*
Y23079D01*
Y23160D01*
X79975D01*
Y23242D01*
Y23323D01*
X79893D01*
Y23405D01*
X79812D01*
Y23486D01*
Y23568D01*
X79730D01*
Y23649D01*
X79649D01*
Y23730D01*
Y23812D01*
X79567D01*
Y23893D01*
Y23975D01*
X79486D01*
Y24056D01*
Y24138D01*
X79404D01*
Y24219D01*
Y24301D01*
X79323D01*
Y24382D01*
Y24464D01*
X79241D01*
Y24545D01*
Y24626D01*
Y24708D01*
X79160D01*
Y24789D01*
Y24871D01*
X79078D01*
Y24952D01*
Y25034D01*
X78997D01*
Y25115D01*
Y25197D01*
Y25278D01*
X78916D01*
Y25360D01*
Y25441D01*
Y25523D01*
X78834D01*
Y25604D01*
Y25685D01*
X78753D01*
Y25767D01*
Y25848D01*
Y25930D01*
Y26011D01*
X78671D01*
Y26093D01*
Y26174D01*
Y26256D01*
Y26337D01*
Y26419D01*
Y26500D01*
Y26581D01*
Y26663D01*
Y26744D01*
Y26826D01*
Y26907D01*
Y26989D01*
Y27070D01*
Y27152D01*
X78753D01*
Y27233D01*
Y27315D01*
X78834D01*
Y27396D01*
Y27477D01*
X78916D01*
Y27559D01*
Y27640D01*
X78997D01*
Y27722D01*
X79078D01*
Y27803D01*
X79160D01*
Y27885D01*
X79241D01*
Y27966D01*
X79323D01*
Y28048D01*
X79404D01*
Y28129D01*
X79486D01*
Y28211D01*
X79649D01*
Y28292D01*
X79730D01*
Y28374D01*
X79812D01*
Y28455D01*
X79975D01*
Y28536D01*
X80137D01*
Y28618D01*
X80219D01*
Y28699D01*
X80382D01*
Y28781D01*
X80545D01*
Y28862D01*
X80708D01*
Y28944D01*
X80870D01*
Y29025D01*
X80952D01*
Y29107D01*
X81196D01*
Y29188D01*
X81359D01*
Y29270D01*
X81522D01*
Y29351D01*
X81685D01*
Y29432D01*
X81848D01*
Y29514D01*
X82092D01*
Y29595D01*
X82255D01*
Y29677D01*
X82500D01*
Y29758D01*
X82663D01*
Y29840D01*
X82907D01*
Y29921D01*
X83070D01*
Y30003D01*
X83314D01*
Y30084D01*
X83559D01*
Y30166D01*
X83640D01*
Y30084D01*
D02*
G37*
G36*
X105145Y29758D02*
X105308D01*
Y29677D01*
X105552D01*
Y29595D01*
X105715D01*
Y29514D01*
X105878D01*
Y29432D01*
X106123D01*
Y29351D01*
X106286D01*
Y29270D01*
X106530D01*
Y29188D01*
X106611D01*
Y29107D01*
X106856D01*
Y29025D01*
X107019D01*
Y28944D01*
X107182D01*
Y28862D01*
X107344D01*
Y28781D01*
X107507D01*
Y28699D01*
X107752D01*
Y28618D01*
X107833D01*
Y28536D01*
X107996D01*
Y28455D01*
X108159D01*
Y28374D01*
X108322D01*
Y28292D01*
X108485D01*
Y28211D01*
X108566D01*
Y28129D01*
X108729D01*
Y28048D01*
X108892D01*
Y27966D01*
X108974D01*
Y27885D01*
X109137D01*
Y27803D01*
X109218D01*
Y27722D01*
X109381D01*
Y27640D01*
X109462D01*
Y27559D01*
X109544D01*
Y27477D01*
X109625D01*
Y27396D01*
X109707D01*
Y27315D01*
X109788D01*
Y27233D01*
X109870D01*
Y27152D01*
Y27070D01*
X109951D01*
Y26989D01*
Y26907D01*
X110033D01*
Y26826D01*
Y26744D01*
Y26663D01*
Y26581D01*
Y26500D01*
Y26419D01*
Y26337D01*
Y26256D01*
X109951D01*
Y26174D01*
Y26093D01*
X109870D01*
Y26011D01*
Y25930D01*
Y25848D01*
X109788D01*
Y25767D01*
Y25685D01*
X109707D01*
Y25604D01*
Y25523D01*
X109625D01*
Y25441D01*
Y25360D01*
X109544D01*
Y25278D01*
Y25197D01*
X109462D01*
Y25115D01*
Y25034D01*
X109381D01*
Y24952D01*
X109300D01*
Y24871D01*
Y24789D01*
X109218D01*
Y24708D01*
Y24626D01*
X109137D01*
Y24545D01*
Y24464D01*
X109055D01*
Y24382D01*
Y24301D01*
X108974D01*
Y24219D01*
X108892D01*
Y24138D01*
Y24056D01*
X108811D01*
Y23975D01*
Y23893D01*
X108729D01*
Y23812D01*
Y23730D01*
X108648D01*
Y23649D01*
Y23568D01*
X108566D01*
Y23486D01*
Y23405D01*
X108485D01*
Y23323D01*
Y23242D01*
X108403D01*
Y23160D01*
X108322D01*
Y23079D01*
Y22997D01*
X108240D01*
Y22916D01*
Y22834D01*
X108159D01*
Y22753D01*
Y22671D01*
X108078D01*
Y22590D01*
Y22509D01*
X107996D01*
Y22427D01*
X107915D01*
Y22346D01*
Y22264D01*
X107833D01*
Y22183D01*
Y22101D01*
X107752D01*
Y22020D01*
Y21938D01*
X107670D01*
Y21857D01*
Y21775D01*
X107589D01*
Y21694D01*
X107507D01*
Y21612D01*
Y21531D01*
X107426D01*
Y21450D01*
Y21368D01*
X107344D01*
Y21287D01*
Y21205D01*
X107263D01*
Y21124D01*
Y21042D01*
X107182D01*
Y20961D01*
Y20879D01*
X107100D01*
Y20798D01*
Y20717D01*
X107019D01*
Y20635D01*
X106937D01*
Y20554D01*
Y20472D01*
X106856D01*
Y20391D01*
Y20309D01*
X106774D01*
Y20228D01*
Y20146D01*
X106693D01*
Y20065D01*
Y19983D01*
X106611D01*
Y19902D01*
X106530D01*
Y19820D01*
Y19739D01*
X106448D01*
Y19658D01*
Y19576D01*
X106367D01*
Y19495D01*
Y19413D01*
X106286D01*
Y19332D01*
Y19250D01*
X106204D01*
Y19169D01*
X106123D01*
Y19087D01*
X106041D01*
Y19006D01*
Y18924D01*
X105960D01*
Y18843D01*
X105878D01*
Y18762D01*
X105797D01*
Y18680D01*
X105715D01*
Y18599D01*
Y18517D01*
X105634D01*
Y18436D01*
X105552D01*
Y18354D01*
X105471D01*
Y18273D01*
X105389D01*
Y18191D01*
X105308D01*
Y18110D01*
X105227D01*
Y18028D01*
X105145D01*
Y17947D01*
X105064D01*
Y17865D01*
X104982D01*
Y17784D01*
X104901D01*
Y17703D01*
X104819D01*
Y17621D01*
X104656D01*
Y17540D01*
X104575D01*
Y17458D01*
X104412D01*
Y17377D01*
X104249D01*
Y17295D01*
X104005D01*
Y17214D01*
X102864D01*
Y17295D01*
X102457D01*
Y17377D01*
X102131D01*
Y17458D01*
X101887D01*
Y17540D01*
X101561D01*
Y17621D01*
X101398D01*
Y17703D01*
X101154D01*
Y17784D01*
X100909D01*
Y17865D01*
X100746D01*
Y17947D01*
X100502D01*
Y18028D01*
X100339D01*
Y18110D01*
X100095D01*
Y18191D01*
X99932D01*
Y18273D01*
X99850D01*
Y18354D01*
X99932D01*
Y18436D01*
X100013D01*
Y18517D01*
Y18599D01*
X100095D01*
Y18680D01*
X100176D01*
Y18762D01*
X100258D01*
Y18843D01*
X100339D01*
Y18924D01*
Y19006D01*
X100420D01*
Y19087D01*
X100502D01*
Y19169D01*
Y19250D01*
X100584D01*
Y19332D01*
X100665D01*
Y19413D01*
Y19495D01*
X100746D01*
Y19576D01*
Y19658D01*
X100828D01*
Y19739D01*
Y19820D01*
X100909D01*
Y19902D01*
Y19983D01*
X100991D01*
Y20065D01*
Y20146D01*
X101072D01*
Y20228D01*
Y20309D01*
X101154D01*
Y20391D01*
Y20472D01*
X101235D01*
Y20554D01*
Y20635D01*
X101317D01*
Y20717D01*
Y20798D01*
Y20879D01*
X101398D01*
Y20961D01*
Y21042D01*
X101479D01*
Y21124D01*
Y21205D01*
X101561D01*
Y21287D01*
Y21368D01*
Y21450D01*
X101642D01*
Y21531D01*
Y21612D01*
X101724D01*
Y21694D01*
Y21775D01*
Y21857D01*
X101805D01*
Y21938D01*
Y22020D01*
X101887D01*
Y22101D01*
Y22183D01*
Y22264D01*
X101968D01*
Y22346D01*
Y22427D01*
X102050D01*
Y22509D01*
Y22590D01*
Y22671D01*
X102131D01*
Y22753D01*
Y22834D01*
X102213D01*
Y22916D01*
Y22997D01*
Y23079D01*
X102294D01*
Y23160D01*
Y23242D01*
X102375D01*
Y23323D01*
Y23405D01*
Y23486D01*
X102457D01*
Y23568D01*
Y23649D01*
X102538D01*
Y23730D01*
Y23812D01*
Y23893D01*
X102620D01*
Y23975D01*
Y24056D01*
X102701D01*
Y24138D01*
Y24219D01*
Y24301D01*
X102783D01*
Y24382D01*
Y24464D01*
X102864D01*
Y24545D01*
Y24626D01*
Y24708D01*
X102946D01*
Y24789D01*
Y24871D01*
X103027D01*
Y24952D01*
Y25034D01*
Y25115D01*
X103109D01*
Y25197D01*
Y25278D01*
X103190D01*
Y25360D01*
Y25441D01*
X103272D01*
Y25523D01*
Y25604D01*
Y25685D01*
X103353D01*
Y25767D01*
Y25848D01*
Y25930D01*
X103435D01*
Y26011D01*
Y26093D01*
X103516D01*
Y26174D01*
Y26256D01*
X103597D01*
Y26337D01*
Y26419D01*
Y26500D01*
X103679D01*
Y26581D01*
Y26663D01*
X103760D01*
Y26744D01*
Y26826D01*
Y26907D01*
X103842D01*
Y26989D01*
Y27070D01*
X103923D01*
Y27152D01*
Y27233D01*
Y27315D01*
X104005D01*
Y27396D01*
Y27477D01*
X104086D01*
Y27559D01*
Y27640D01*
Y27722D01*
X104168D01*
Y27803D01*
Y27885D01*
X104249D01*
Y27966D01*
Y28048D01*
Y28129D01*
X104331D01*
Y28211D01*
Y28292D01*
X104412D01*
Y28374D01*
Y28455D01*
Y28536D01*
X104493D01*
Y28618D01*
Y28699D01*
X104575D01*
Y28781D01*
Y28862D01*
Y28944D01*
X104656D01*
Y29025D01*
Y29107D01*
Y29188D01*
X104738D01*
Y29270D01*
Y29351D01*
Y29432D01*
X104819D01*
Y29514D01*
Y29595D01*
Y29677D01*
X104901D01*
Y29758D01*
Y29840D01*
X105145D01*
Y29758D01*
D02*
G37*
G36*
X77857Y23486D02*
Y23405D01*
X77938D01*
Y23323D01*
Y23242D01*
X78019D01*
Y23160D01*
Y23079D01*
X78101D01*
Y22997D01*
Y22916D01*
X78182D01*
Y22834D01*
Y22753D01*
X78264D01*
Y22671D01*
X78345D01*
Y22590D01*
Y22509D01*
X78427D01*
Y22427D01*
X78508D01*
Y22346D01*
Y22264D01*
X78590D01*
Y22183D01*
Y22101D01*
X78671D01*
Y22020D01*
X78753D01*
Y21938D01*
Y21857D01*
X78834D01*
Y21775D01*
Y21694D01*
X78916D01*
Y21612D01*
X78997D01*
Y21531D01*
Y21450D01*
X79078D01*
Y21368D01*
Y21287D01*
X79160D01*
Y21205D01*
X79241D01*
Y21124D01*
Y21042D01*
X79323D01*
Y20961D01*
Y20879D01*
X79404D01*
Y20798D01*
X79486D01*
Y20717D01*
Y20635D01*
X79567D01*
Y20554D01*
X79649D01*
Y20472D01*
Y20391D01*
X79730D01*
Y20309D01*
Y20228D01*
X79812D01*
Y20146D01*
X79893D01*
Y20065D01*
Y19983D01*
X79975D01*
Y19902D01*
X80056D01*
Y19820D01*
Y19739D01*
X80137D01*
Y19658D01*
Y19576D01*
X80219D01*
Y19495D01*
X80300D01*
Y19413D01*
Y19332D01*
X80382D01*
Y19250D01*
X80463D01*
Y19169D01*
Y19087D01*
X80545D01*
Y19006D01*
X80626D01*
Y18924D01*
Y18843D01*
X80708D01*
Y18762D01*
X80789D01*
Y18680D01*
Y18599D01*
X80708D01*
Y18517D01*
X80463D01*
Y18436D01*
X80300D01*
Y18354D01*
X80056D01*
Y18273D01*
X79893D01*
Y18191D01*
X79730D01*
Y18110D01*
X79486D01*
Y18028D01*
X79323D01*
Y17947D01*
X79078D01*
Y17865D01*
X78916D01*
Y17784D01*
X78671D01*
Y17703D01*
X78508D01*
Y17621D01*
X78345D01*
Y17540D01*
X78101D01*
Y17458D01*
X77938D01*
Y17377D01*
X77775D01*
Y17295D01*
X77531D01*
Y17214D01*
X77368D01*
Y17132D01*
X77123D01*
Y17051D01*
X76960D01*
Y16969D01*
X76716D01*
Y16888D01*
X76553D01*
Y16806D01*
X76309D01*
Y16725D01*
X76064D01*
Y16644D01*
X75820D01*
Y16562D01*
X75250D01*
Y16644D01*
Y16725D01*
Y16806D01*
X75168D01*
Y16888D01*
Y16969D01*
Y17051D01*
Y17132D01*
Y17214D01*
Y17295D01*
Y17377D01*
Y17458D01*
X75087D01*
Y17540D01*
Y17621D01*
Y17703D01*
Y17784D01*
Y17865D01*
Y17947D01*
Y18028D01*
Y18110D01*
Y18191D01*
Y18273D01*
X75168D01*
Y18354D01*
Y18436D01*
Y18517D01*
Y18599D01*
Y18680D01*
Y18762D01*
Y18843D01*
Y18924D01*
Y19006D01*
X75250D01*
Y19087D01*
Y19169D01*
Y19250D01*
Y19332D01*
Y19413D01*
X75331D01*
Y19495D01*
Y19576D01*
Y19658D01*
Y19739D01*
X75413D01*
Y19820D01*
Y19902D01*
Y19983D01*
Y20065D01*
X75494D01*
Y20146D01*
Y20228D01*
Y20309D01*
X75576D01*
Y20391D01*
Y20472D01*
Y20554D01*
X75657D01*
Y20635D01*
Y20717D01*
X75739D01*
Y20798D01*
Y20879D01*
Y20961D01*
X75820D01*
Y21042D01*
Y21124D01*
X75902D01*
Y21205D01*
Y21287D01*
X75983D01*
Y21368D01*
Y21450D01*
X76064D01*
Y21531D01*
X76146D01*
Y21612D01*
Y21694D01*
X76227D01*
Y21775D01*
Y21857D01*
X76309D01*
Y21938D01*
X76390D01*
Y22020D01*
Y22101D01*
X76472D01*
Y22183D01*
X76553D01*
Y22264D01*
Y22346D01*
X76635D01*
Y22427D01*
X76716D01*
Y22509D01*
X76798D01*
Y22590D01*
X76879D01*
Y22671D01*
Y22753D01*
X76960D01*
Y22834D01*
X77042D01*
Y22916D01*
X77123D01*
Y22997D01*
X77205D01*
Y23079D01*
X77286D01*
Y23160D01*
X77368D01*
Y23242D01*
X77449D01*
Y23323D01*
X77531D01*
Y23405D01*
X77694D01*
Y23486D01*
X77775D01*
Y23568D01*
X77857D01*
Y23486D01*
D02*
G37*
G36*
X110521Y23323D02*
X110603D01*
Y23242D01*
X110766D01*
Y23160D01*
Y23079D01*
X110929D01*
Y22997D01*
X111010D01*
Y22916D01*
X111092D01*
Y22834D01*
X111173D01*
Y22753D01*
Y22671D01*
X111255D01*
Y22590D01*
X111336D01*
Y22509D01*
X111417D01*
Y22427D01*
X111499D01*
Y22346D01*
X111580D01*
Y22264D01*
Y22183D01*
X111662D01*
Y22101D01*
X111743D01*
Y22020D01*
X111825D01*
Y21938D01*
Y21857D01*
X111906D01*
Y21775D01*
X111988D01*
Y21694D01*
Y21612D01*
X112069D01*
Y21531D01*
Y21450D01*
X112151D01*
Y21368D01*
Y21287D01*
X112232D01*
Y21205D01*
Y21124D01*
X112313D01*
Y21042D01*
Y20961D01*
X112395D01*
Y20879D01*
Y20798D01*
X112476D01*
Y20717D01*
Y20635D01*
X112558D01*
Y20554D01*
Y20472D01*
Y20391D01*
X112639D01*
Y20309D01*
Y20228D01*
Y20146D01*
X112721D01*
Y20065D01*
Y19983D01*
Y19902D01*
X112802D01*
Y19820D01*
Y19739D01*
Y19658D01*
Y19576D01*
Y19495D01*
X112884D01*
Y19413D01*
Y19332D01*
Y19250D01*
Y19169D01*
X112965D01*
Y19087D01*
Y19006D01*
Y18924D01*
Y18843D01*
Y18762D01*
Y18680D01*
Y18599D01*
Y18517D01*
Y18436D01*
X113047D01*
Y18354D01*
Y18273D01*
Y18191D01*
Y18110D01*
Y18028D01*
Y17947D01*
Y17865D01*
Y17784D01*
Y17703D01*
Y17621D01*
Y17540D01*
Y17458D01*
Y17377D01*
Y17295D01*
X112965D01*
Y17214D01*
Y17132D01*
Y17051D01*
Y16969D01*
Y16888D01*
Y16806D01*
Y16725D01*
X112884D01*
Y16644D01*
Y16562D01*
Y16481D01*
X112802D01*
Y16399D01*
Y16318D01*
X112558D01*
Y16399D01*
X112232D01*
Y16481D01*
X111988D01*
Y16562D01*
X111743D01*
Y16644D01*
X111499D01*
Y16725D01*
X111336D01*
Y16806D01*
X111092D01*
Y16888D01*
X110929D01*
Y16969D01*
X110684D01*
Y17051D01*
X110521D01*
Y17132D01*
X110358D01*
Y17214D01*
X110114D01*
Y17295D01*
X109951D01*
Y17377D01*
X109788D01*
Y17458D01*
X109544D01*
Y17540D01*
X109381D01*
Y17621D01*
X109218D01*
Y17703D01*
X108974D01*
Y17784D01*
X108811D01*
Y17865D01*
X108566D01*
Y17947D01*
X108403D01*
Y18028D01*
X108240D01*
Y18110D01*
X107996D01*
Y18191D01*
X107833D01*
Y18273D01*
X107670D01*
Y18354D01*
X107752D01*
Y18436D01*
Y18517D01*
X107833D01*
Y18599D01*
Y18680D01*
X107915D01*
Y18762D01*
Y18843D01*
X107996D01*
Y18924D01*
X108078D01*
Y19006D01*
Y19087D01*
X108159D01*
Y19169D01*
Y19250D01*
X108240D01*
Y19332D01*
Y19413D01*
X108322D01*
Y19495D01*
Y19576D01*
X108403D01*
Y19658D01*
X108485D01*
Y19739D01*
Y19820D01*
X108566D01*
Y19902D01*
Y19983D01*
X108648D01*
Y20065D01*
Y20146D01*
X108729D01*
Y20228D01*
Y20309D01*
X108811D01*
Y20391D01*
Y20472D01*
X108892D01*
Y20554D01*
X108974D01*
Y20635D01*
Y20717D01*
X109055D01*
Y20798D01*
Y20879D01*
X109137D01*
Y20961D01*
Y21042D01*
X109218D01*
Y21124D01*
Y21205D01*
X109300D01*
Y21287D01*
Y21368D01*
X109381D01*
Y21450D01*
X109462D01*
Y21531D01*
Y21612D01*
X109544D01*
Y21694D01*
Y21775D01*
X109625D01*
Y21857D01*
Y21938D01*
X109707D01*
Y22020D01*
Y22101D01*
X109788D01*
Y22183D01*
X109870D01*
Y22264D01*
Y22346D01*
X109951D01*
Y22427D01*
Y22509D01*
X110033D01*
Y22590D01*
Y22671D01*
X110114D01*
Y22753D01*
Y22834D01*
X110196D01*
Y22916D01*
Y22997D01*
X110277D01*
Y23079D01*
X110358D01*
Y23160D01*
Y23242D01*
X110440D01*
Y23323D01*
Y23405D01*
X110521D01*
Y23323D01*
D02*
G37*
D27*
X240748Y3150D02*
D03*
Y48031D02*
D03*
X16091Y48825D02*
D03*
Y3943D02*
D03*
D28*
X213976Y15748D02*
D03*
Y35433D02*
D03*
Y25591D02*
D03*
X42862Y36227D02*
D03*
Y16542D02*
D03*
Y26384D02*
D03*
M02*
