G04*
G04 #@! TF.GenerationSoftware,Altium Limited,Altium Designer,20.1.12 (249)*
G04*
G04 Layer_Color=32768*
%FSLAX25Y25*%
%MOIN*%
G70*
G04*
G04 #@! TF.SameCoordinates,9F8D7EE4-A703-4B50-B93F-D04A273BC2B7*
G04*
G04*
G04 #@! TF.FilePolarity,Positive*
G04*
G01*
G75*
%ADD11C,0.00394*%
D11*
X206929Y15748D02*
Y35433D01*
Y15748D02*
X228031D01*
X206929Y35433D02*
X228031D01*
Y15748D02*
Y35433D01*
X181339Y15748D02*
Y35433D01*
Y15748D02*
X202441D01*
X181339Y35433D02*
X202441D01*
Y15748D02*
Y35433D01*
X155748Y15748D02*
Y35433D01*
Y15748D02*
X176850D01*
X155748Y35433D02*
X176850D01*
Y15748D02*
Y35433D01*
X130157Y15748D02*
Y35433D01*
Y15748D02*
X151260D01*
X130157Y35433D02*
X151260D01*
Y15748D02*
Y35433D01*
X104567Y15748D02*
Y35433D01*
Y15748D02*
X125669D01*
X104567Y35433D02*
X125669D01*
Y15748D02*
Y35433D01*
X78976Y15748D02*
Y35433D01*
Y15748D02*
X100079D01*
X78976Y35433D02*
X100079D01*
Y15748D02*
Y35433D01*
X53386Y15748D02*
Y35433D01*
Y15748D02*
X74488D01*
X53386Y35433D02*
X74488D01*
Y15748D02*
Y35433D01*
X27795Y15748D02*
Y35433D01*
Y15748D02*
X48898D01*
X27795Y35433D02*
X48898D01*
Y15748D02*
Y35433D01*
X232520Y15748D02*
Y35433D01*
Y15748D02*
X253622D01*
X232520Y35433D02*
X253622D01*
Y15748D02*
Y35433D01*
X216929Y11811D02*
X218504D01*
X217717Y11024D02*
Y12598D01*
X211417Y14567D02*
X224016D01*
Y9055D02*
Y14567D01*
X211417Y9055D02*
X224016D01*
X211417D02*
Y14567D01*
X2205Y15748D02*
Y35433D01*
Y15748D02*
X23307D01*
X2205Y35433D02*
X23307D01*
Y15748D02*
Y35433D01*
X191339Y11811D02*
X192913D01*
X192126Y11024D02*
Y12598D01*
X185827Y14567D02*
X198425D01*
Y9055D02*
Y14567D01*
X185827Y9055D02*
X198425D01*
X185827D02*
Y14567D01*
X241732Y11811D02*
X243307D01*
X242520Y11024D02*
Y12598D01*
X236221Y14567D02*
X248819D01*
Y9055D02*
Y14567D01*
X236221Y9055D02*
X248819D01*
X236221D02*
Y14567D01*
X164173Y11811D02*
X165748D01*
X164961Y11024D02*
Y12598D01*
X158661Y14567D02*
X171260D01*
Y9055D02*
Y14567D01*
X158661Y9055D02*
X171260D01*
X158661D02*
Y14567D01*
X140157Y11811D02*
X141732D01*
X140945Y11024D02*
Y12598D01*
X134646Y14567D02*
X147244D01*
Y9055D02*
Y14567D01*
X134646Y9055D02*
X147244D01*
X134646D02*
Y14567D01*
X112598Y11811D02*
X114173D01*
X113386Y11024D02*
Y12598D01*
X107087Y14567D02*
X119685D01*
Y9055D02*
Y14567D01*
X107087Y9055D02*
X119685D01*
X107087D02*
Y14567D01*
X89370Y11811D02*
X90945D01*
X90158Y11024D02*
Y12598D01*
X83858Y14567D02*
X96457D01*
Y9055D02*
Y14567D01*
X83858Y9055D02*
X96457D01*
X83858D02*
Y14567D01*
X63779Y11811D02*
X65354D01*
X64567Y11024D02*
Y12598D01*
X58268Y14567D02*
X70866D01*
Y9055D02*
Y14567D01*
X58268Y9055D02*
X70866D01*
X58268D02*
Y14567D01*
X37402Y11811D02*
X38976D01*
X38189Y11024D02*
Y12598D01*
X31890Y14567D02*
X44488D01*
Y9055D02*
Y14567D01*
X31890Y9055D02*
X44488D01*
X31890D02*
Y14567D01*
X11811Y11811D02*
X13386D01*
X12598Y11024D02*
Y12598D01*
X6299Y14567D02*
X18898D01*
Y9055D02*
Y14567D01*
X6299Y9055D02*
X18898D01*
X6299D02*
Y14567D01*
M02*
