G04*
G04 #@! TF.GenerationSoftware,Altium Limited,Altium Designer,20.1.12 (249)*
G04*
G04 Layer_Physical_Order=2*
G04 Layer_Color=16711680*
%FSLAX25Y25*%
%MOIN*%
G70*
G04*
G04 #@! TF.SameCoordinates,9F8D7EE4-A703-4B50-B93F-D04A273BC2B7*
G04*
G04*
G04 #@! TF.FilePolarity,Positive*
G04*
G01*
G75*
%ADD22C,0.01500*%
%ADD24C,0.05000*%
%ADD25R,0.15354X0.07087*%
%ADD26R,0.17717X0.05118*%
G36*
X203311Y38992D02*
X203389Y38602D01*
X203610Y38271D01*
X203941Y38050D01*
X204118Y38015D01*
Y31874D01*
X222818D01*
X222893Y31500D01*
X223114Y31169D01*
X223445Y30948D01*
X223835Y30870D01*
X240713D01*
Y28727D01*
X240739Y28596D01*
X240740Y28574D01*
X239967Y28254D01*
X239236Y27693D01*
X238690Y26981D01*
X223835D01*
Y29150D01*
X204118D01*
Y22031D01*
X223835D01*
Y23413D01*
X238690D01*
X239236Y22701D01*
X239967Y22140D01*
X240740Y21819D01*
X240739Y21798D01*
X240713Y21667D01*
Y7693D01*
X232071D01*
Y0D01*
X54563D01*
X54563Y25591D01*
X54485Y25981D01*
X54264Y26311D01*
X53934Y26533D01*
X53543Y26610D01*
X52720D01*
Y29943D01*
X33004D01*
Y27375D01*
X17609D01*
X17063Y28087D01*
X16332Y28648D01*
X15481Y29000D01*
X14567Y29121D01*
X13653Y29000D01*
X12802Y28648D01*
X12071Y28087D01*
X11510Y27356D01*
X11190Y26583D01*
X11168Y26584D01*
X11037Y26610D01*
X0D01*
Y51181D01*
X7413D01*
Y44282D01*
X24768D01*
Y51181D01*
X203311D01*
Y38992D01*
D02*
G37*
G36*
X255906Y0D02*
X249425D01*
Y7693D01*
X241732D01*
Y21667D01*
X242646Y21787D01*
X243497Y22140D01*
X244229Y22701D01*
X244790Y23432D01*
X245142Y24283D01*
X245263Y25197D01*
X245142Y26111D01*
X244790Y26962D01*
X244229Y27693D01*
X243497Y28254D01*
X242646Y28607D01*
X241732Y28727D01*
Y31890D01*
X223835D01*
Y33933D01*
X213976D01*
Y35433D01*
X212476D01*
Y38992D01*
X204331D01*
Y51181D01*
X232071D01*
Y43488D01*
X249425D01*
Y51181D01*
X255906D01*
Y0D01*
D02*
G37*
G36*
X53543D02*
X24768D01*
Y8487D01*
X7413D01*
Y0D01*
X0D01*
Y25591D01*
X11037D01*
X11157Y24677D01*
X11510Y23825D01*
X12071Y23094D01*
X12802Y22533D01*
X13653Y22181D01*
X14567Y22060D01*
X15481Y22181D01*
X16332Y22533D01*
X17063Y23094D01*
X17609Y23806D01*
X33004D01*
Y22825D01*
X52720D01*
Y25591D01*
X53543D01*
X53543Y0D01*
D02*
G37*
%LPC*%
G36*
X52720Y39786D02*
X44362D01*
Y37727D01*
X52720D01*
Y39786D01*
D02*
G37*
G36*
X41362D02*
X33004D01*
Y37727D01*
X41362D01*
Y39786D01*
D02*
G37*
G36*
X52720Y34727D02*
X44362D01*
Y32668D01*
X52720D01*
Y34727D01*
D02*
G37*
G36*
X41362D02*
X33004D01*
Y32668D01*
X41362D01*
Y34727D01*
D02*
G37*
G36*
X223835Y19307D02*
X215476D01*
Y17248D01*
X223835D01*
Y19307D01*
D02*
G37*
G36*
X212476D02*
X204118D01*
Y17248D01*
X212476D01*
Y19307D01*
D02*
G37*
G36*
X223835Y14248D02*
X215476D01*
Y12189D01*
X223835D01*
Y14248D01*
D02*
G37*
G36*
X212476D02*
X204118D01*
Y12189D01*
X212476D01*
Y14248D01*
D02*
G37*
G36*
X216850Y49987D02*
X215937Y49867D01*
X215085Y49514D01*
X214354Y48953D01*
X213793Y48222D01*
X213440Y47370D01*
X213320Y46457D01*
X213440Y45543D01*
X213793Y44692D01*
X214354Y43960D01*
X215085Y43400D01*
X215937Y43047D01*
X216850Y42926D01*
X217764Y43047D01*
X218616Y43400D01*
X219347Y43960D01*
X219908Y44692D01*
X220260Y45543D01*
X220381Y46457D01*
X220260Y47370D01*
X219908Y48222D01*
X219347Y48953D01*
X218616Y49514D01*
X217764Y49867D01*
X216850Y49987D01*
D02*
G37*
G36*
X223835Y38992D02*
X215476D01*
Y36933D01*
X223835D01*
Y38992D01*
D02*
G37*
G36*
X52720Y20101D02*
X44362D01*
Y18042D01*
X52720D01*
Y20101D01*
D02*
G37*
G36*
X41362D02*
X33004D01*
Y18042D01*
X41362D01*
Y20101D01*
D02*
G37*
G36*
X52720Y15042D02*
X44362D01*
Y12983D01*
X52720D01*
Y15042D01*
D02*
G37*
G36*
X41362D02*
X33004D01*
Y12983D01*
X41362D01*
Y15042D01*
D02*
G37*
%LPD*%
D22*
X213976Y25591D02*
X214370Y25197D01*
X241732D01*
X14567Y25591D02*
X42862D01*
D24*
X216850Y46457D02*
D03*
X38268D02*
D03*
X63779D02*
D03*
X89291D02*
D03*
X114803D02*
D03*
X140315D02*
D03*
X165827D02*
D03*
X191339D02*
D03*
X191732Y25197D02*
D03*
X166220D02*
D03*
X140709D02*
D03*
X115197D02*
D03*
X64173D02*
D03*
X252362Y6693D02*
D03*
Y12598D02*
D03*
X3543D02*
D03*
Y6693D02*
D03*
X241732Y25197D02*
D03*
X14567Y25591D02*
D03*
D25*
X240748Y3150D02*
D03*
Y48031D02*
D03*
X16091Y48825D02*
D03*
Y3943D02*
D03*
D26*
X213976Y15748D02*
D03*
Y35433D02*
D03*
Y25591D02*
D03*
X42862Y36227D02*
D03*
Y16542D02*
D03*
Y26384D02*
D03*
M02*
