G04*
G04 #@! TF.GenerationSoftware,Altium Limited,Altium Designer,20.1.12 (249)*
G04*
G04 Layer_Physical_Order=1*
G04 Layer_Color=255*
%FSLAX25Y25*%
%MOIN*%
G70*
G04*
G04 #@! TF.SameCoordinates,9F8D7EE4-A703-4B50-B93F-D04A273BC2B7*
G04*
G04*
G04 #@! TF.FilePolarity,Positive*
G04*
G01*
G75*
%ADD10C,0.01000*%
%ADD12C,0.03937*%
%ADD13R,0.05906X0.03543*%
%ADD14R,0.04331X0.03937*%
%ADD18C,0.02000*%
%ADD19C,0.03000*%
%ADD20C,0.09000*%
%ADD21C,0.07500*%
%ADD22C,0.01500*%
%ADD23C,0.05000*%
%ADD24C,0.05000*%
G36*
X255906Y34661D02*
X253891D01*
Y37196D01*
X254479Y37647D01*
X254955Y38267D01*
X255254Y38989D01*
X255356Y39764D01*
X255254Y40539D01*
X254955Y41261D01*
X254479Y41881D01*
X253859Y42357D01*
X253137Y42656D01*
X252362Y42758D01*
X251587Y42656D01*
X250865Y42357D01*
X250245Y41881D01*
X249769Y41261D01*
X249470Y40539D01*
X249368Y39764D01*
X249470Y38989D01*
X249769Y38267D01*
X250245Y37647D01*
X250833Y37196D01*
Y34661D01*
X248410D01*
Y31642D01*
X244672Y27904D01*
X244229Y27693D01*
X243497Y28254D01*
X242646Y28607D01*
X241732Y28727D01*
X240819Y28607D01*
X239967Y28254D01*
X239236Y27693D01*
X238675Y26962D01*
X238322Y26111D01*
X238202Y25197D01*
X238322Y24283D01*
X238675Y23432D01*
X239236Y22701D01*
X239967Y22140D01*
X240819Y21787D01*
X241732Y21667D01*
X242646Y21787D01*
X243497Y22140D01*
X244229Y22701D01*
X244790Y23432D01*
X245059Y24082D01*
X245158D01*
X245841Y24218D01*
X246420Y24605D01*
X250933Y29118D01*
X255906D01*
Y22063D01*
X254500D01*
X254127Y22349D01*
X253276Y22701D01*
X252362Y22821D01*
X251448Y22701D01*
X250597Y22349D01*
X250225Y22063D01*
X248410D01*
Y16520D01*
X248832D01*
Y14780D01*
X242701D01*
Y14780D01*
X242339D01*
Y14780D01*
X240673D01*
Y11811D01*
X239173D01*
Y10311D01*
X236008D01*
Y9878D01*
X230302D01*
Y12008D01*
Y16520D01*
X237811D01*
Y22063D01*
X232935D01*
Y24500D01*
X232819Y25085D01*
X232487Y25581D01*
X230754Y27315D01*
Y29118D01*
X232358D01*
Y31890D01*
Y34661D01*
X228345D01*
Y37196D01*
X228932Y37647D01*
X229408Y38267D01*
X229707Y38989D01*
X229809Y39764D01*
X229707Y40539D01*
X229408Y41261D01*
X228932Y41881D01*
X228312Y42357D01*
X227590Y42656D01*
X226815Y42758D01*
X226040Y42656D01*
X225318Y42357D01*
X224698Y41881D01*
X224222Y41261D01*
X223923Y40539D01*
X223821Y39764D01*
X223923Y38989D01*
X224222Y38267D01*
X224698Y37647D01*
X225286Y37196D01*
Y34661D01*
X222819D01*
Y29118D01*
X227695D01*
Y26681D01*
X227811Y26096D01*
X228143Y25600D01*
X229876Y23866D01*
Y22063D01*
X228909D01*
X228537Y22349D01*
X227685Y22701D01*
X226772Y22821D01*
X225858Y22701D01*
X225007Y22349D01*
X224634Y22063D01*
X222819D01*
Y16520D01*
X223241D01*
Y14780D01*
X217898D01*
Y14780D01*
X217535D01*
Y14780D01*
X215870D01*
Y11811D01*
X214370D01*
Y10311D01*
X211205D01*
Y9878D01*
X204711D01*
Y12008D01*
Y16520D01*
X212221D01*
Y22063D01*
X207344D01*
Y24500D01*
X207228Y25085D01*
X206896Y25581D01*
X205163Y27315D01*
Y29118D01*
X206768D01*
Y31890D01*
Y34661D01*
X202798D01*
Y37196D01*
X203386Y37647D01*
X203861Y38267D01*
X204161Y38989D01*
X204263Y39764D01*
X204161Y40539D01*
X203861Y41261D01*
X203386Y41881D01*
X202766Y42357D01*
X202044Y42656D01*
X201269Y42758D01*
X200494Y42656D01*
X199771Y42357D01*
X199151Y41881D01*
X198676Y41261D01*
X198376Y40539D01*
X198274Y39764D01*
X198376Y38989D01*
X198676Y38267D01*
X199151Y37647D01*
X199739Y37196D01*
Y34661D01*
X197228D01*
Y29118D01*
X202104D01*
Y26681D01*
X202221Y26096D01*
X202552Y25600D01*
X204286Y23866D01*
Y22063D01*
X203318D01*
X202946Y22349D01*
X202095Y22701D01*
X201181Y22821D01*
X200267Y22701D01*
X199416Y22349D01*
X199044Y22063D01*
X197228D01*
Y16520D01*
X197651D01*
Y14780D01*
X192307D01*
Y14780D01*
X191945D01*
Y14780D01*
X190279D01*
Y11811D01*
X188779D01*
Y10311D01*
X185614D01*
Y9878D01*
X179121D01*
Y12008D01*
Y16520D01*
X186630D01*
Y22063D01*
X181754D01*
Y24500D01*
X181637Y25085D01*
X181306Y25581D01*
X179573Y27315D01*
Y29118D01*
X181177D01*
Y31890D01*
Y34661D01*
X177251D01*
Y37196D01*
X177839Y37647D01*
X178315Y38267D01*
X178614Y38989D01*
X178716Y39764D01*
X178614Y40539D01*
X178315Y41261D01*
X177839Y41881D01*
X177219Y42357D01*
X176497Y42656D01*
X175722Y42758D01*
X174947Y42656D01*
X174225Y42357D01*
X173605Y41881D01*
X173129Y41261D01*
X172830Y40539D01*
X172728Y39764D01*
X172830Y38989D01*
X173129Y38267D01*
X173605Y37647D01*
X174192Y37196D01*
Y34661D01*
X171638D01*
Y29118D01*
X176514D01*
Y26681D01*
X176630Y26096D01*
X176962Y25600D01*
X178695Y23866D01*
Y22063D01*
X177728D01*
X177356Y22349D01*
X176504Y22701D01*
X175591Y22821D01*
X174677Y22701D01*
X173826Y22349D01*
X173453Y22063D01*
X171638D01*
Y16520D01*
X172060D01*
Y13595D01*
X171472D01*
Y14780D01*
X165142D01*
Y14780D01*
X164779D01*
Y14780D01*
X163114D01*
Y11811D01*
X161614D01*
Y10311D01*
X158449D01*
Y9878D01*
X153530D01*
Y12008D01*
Y16520D01*
X161039D01*
Y22063D01*
X156163D01*
Y24500D01*
X156047Y25085D01*
X155715Y25581D01*
X153982Y27315D01*
Y29118D01*
X155587D01*
Y31890D01*
Y34661D01*
X151704D01*
Y37196D01*
X152292Y37647D01*
X152768Y38267D01*
X153067Y38989D01*
X153169Y39764D01*
X153067Y40539D01*
X152768Y41261D01*
X152292Y41881D01*
X151672Y42357D01*
X150950Y42656D01*
X150175Y42758D01*
X149400Y42656D01*
X148678Y42357D01*
X148058Y41881D01*
X147582Y41261D01*
X147283Y40539D01*
X147181Y39764D01*
X147283Y38989D01*
X147582Y38267D01*
X148058Y37647D01*
X148646Y37196D01*
Y34661D01*
X146047D01*
Y29118D01*
X150923D01*
Y26681D01*
X151040Y26096D01*
X151371Y25600D01*
X153104Y23866D01*
Y22063D01*
X152137D01*
X151765Y22349D01*
X150914Y22701D01*
X150000Y22821D01*
X149086Y22701D01*
X148235Y22349D01*
X147863Y22063D01*
X146047D01*
Y16520D01*
X146470D01*
Y14780D01*
X141126D01*
Y14780D01*
X140764D01*
Y14780D01*
X139098D01*
Y11811D01*
X137598D01*
Y10311D01*
X134433D01*
Y9878D01*
X127940D01*
Y12008D01*
Y16520D01*
X135449D01*
Y22063D01*
X130573D01*
Y24500D01*
X130456Y25085D01*
X130125Y25581D01*
X128392Y27315D01*
Y29118D01*
X129996D01*
Y31890D01*
Y34661D01*
X126157D01*
Y37196D01*
X126745Y37647D01*
X127221Y38267D01*
X127520Y38989D01*
X127622Y39764D01*
X127520Y40539D01*
X127221Y41261D01*
X126745Y41881D01*
X126125Y42357D01*
X125403Y42656D01*
X124628Y42758D01*
X123853Y42656D01*
X123131Y42357D01*
X122511Y41881D01*
X122035Y41261D01*
X121736Y40539D01*
X121634Y39764D01*
X121736Y38989D01*
X122035Y38267D01*
X122511Y37647D01*
X123099Y37196D01*
Y34661D01*
X120457D01*
Y29118D01*
X125333D01*
Y26681D01*
X125449Y26096D01*
X125781Y25600D01*
X127514Y23866D01*
Y22063D01*
X126547D01*
X126174Y22349D01*
X125323Y22701D01*
X124409Y22821D01*
X123496Y22701D01*
X122644Y22349D01*
X122272Y22063D01*
X120457D01*
Y16520D01*
X120879D01*
Y13595D01*
X119898D01*
Y14780D01*
X113567D01*
Y14780D01*
X113205D01*
Y14780D01*
X111539D01*
Y11811D01*
X110039D01*
Y10311D01*
X106874D01*
Y9878D01*
X102349D01*
Y12008D01*
Y16520D01*
X109858D01*
Y22063D01*
X104982D01*
Y24500D01*
X104866Y25085D01*
X104534Y25581D01*
X102801Y27315D01*
Y29118D01*
X104405D01*
Y31890D01*
Y34661D01*
X100611D01*
Y37196D01*
X101198Y37647D01*
X101674Y38267D01*
X101973Y38989D01*
X102076Y39764D01*
X101973Y40539D01*
X101674Y41261D01*
X101198Y41881D01*
X100578Y42357D01*
X99856Y42656D01*
X99081Y42758D01*
X98306Y42656D01*
X97584Y42357D01*
X96964Y41881D01*
X96488Y41261D01*
X96189Y40539D01*
X96087Y39764D01*
X96189Y38989D01*
X96488Y38267D01*
X96964Y37647D01*
X97552Y37196D01*
Y34661D01*
X94866D01*
Y29118D01*
X99742D01*
Y26681D01*
X99859Y26096D01*
X100190Y25600D01*
X101923Y23866D01*
Y22063D01*
X100956D01*
X100584Y22349D01*
X99733Y22701D01*
X98819Y22821D01*
X97905Y22701D01*
X97054Y22349D01*
X96682Y22063D01*
X94866D01*
Y16520D01*
X95289D01*
Y14780D01*
X90339D01*
Y14780D01*
X89976D01*
Y14780D01*
X88311D01*
Y11811D01*
X86811D01*
Y10311D01*
X83646D01*
Y9878D01*
X76758D01*
Y12008D01*
Y16520D01*
X84268D01*
Y22063D01*
X79392D01*
Y24500D01*
X79275Y25085D01*
X78944Y25581D01*
X77210Y27315D01*
Y29118D01*
X78815D01*
Y31890D01*
Y34661D01*
X75064D01*
Y37196D01*
X75652Y37647D01*
X76127Y38267D01*
X76427Y38989D01*
X76529Y39764D01*
X76427Y40539D01*
X76127Y41261D01*
X75652Y41881D01*
X75032Y42357D01*
X74309Y42656D01*
X73535Y42758D01*
X72760Y42656D01*
X72038Y42357D01*
X71417Y41881D01*
X70942Y41261D01*
X70642Y40539D01*
X70540Y39764D01*
X70642Y38989D01*
X70942Y38267D01*
X71417Y37647D01*
X72005Y37196D01*
Y34661D01*
X69276D01*
Y29118D01*
X74152D01*
Y26681D01*
X74268Y26096D01*
X74600Y25600D01*
X76333Y23866D01*
Y22063D01*
X75366D01*
X74993Y22349D01*
X74142Y22701D01*
X73228Y22821D01*
X72315Y22701D01*
X71463Y22349D01*
X71091Y22063D01*
X69276D01*
Y16520D01*
X69698D01*
Y14780D01*
X64748D01*
Y14780D01*
X64386D01*
Y14780D01*
X62721D01*
Y11811D01*
X61221D01*
Y10311D01*
X58055D01*
Y9878D01*
X51168D01*
Y12008D01*
Y16520D01*
X58677D01*
Y22063D01*
X53801D01*
Y24500D01*
X53685Y25085D01*
X53353Y25581D01*
X51620Y27315D01*
Y29118D01*
X53224D01*
Y31890D01*
Y34661D01*
X49517D01*
Y37196D01*
X50105Y37647D01*
X50581Y38267D01*
X50880Y38989D01*
X50982Y39764D01*
X50880Y40539D01*
X50581Y41261D01*
X50105Y41881D01*
X49485Y42357D01*
X48763Y42656D01*
X47988Y42758D01*
X47213Y42656D01*
X46491Y42357D01*
X45871Y41881D01*
X45395Y41261D01*
X45096Y40539D01*
X44994Y39764D01*
X45096Y38989D01*
X45395Y38267D01*
X45871Y37647D01*
X46458Y37196D01*
Y34661D01*
X43685D01*
Y29118D01*
X48561D01*
Y26681D01*
X48678Y26096D01*
X49009Y25600D01*
X50742Y23866D01*
Y22063D01*
X49775D01*
X49403Y22349D01*
X48551Y22701D01*
X47638Y22821D01*
X46724Y22701D01*
X45873Y22349D01*
X45500Y22063D01*
X43685D01*
Y16520D01*
X44108D01*
Y14780D01*
X38370D01*
Y14780D01*
X38008D01*
Y14780D01*
X36342D01*
Y11811D01*
X34843D01*
Y10311D01*
X31677D01*
Y9878D01*
X26204D01*
X26171Y9911D01*
Y16520D01*
X33087D01*
Y22063D01*
X28210D01*
Y24500D01*
X28094Y25085D01*
X27762Y25581D01*
X26029Y27315D01*
Y29118D01*
X27634D01*
Y31890D01*
Y34661D01*
X23970D01*
Y37196D01*
X24558Y37647D01*
X25034Y38267D01*
X25333Y38989D01*
X25435Y39764D01*
X25333Y40539D01*
X25034Y41261D01*
X24558Y41881D01*
X23938Y42357D01*
X23216Y42656D01*
X22441Y42758D01*
X21666Y42656D01*
X20944Y42357D01*
X20324Y41881D01*
X19848Y41261D01*
X19549Y40539D01*
X19447Y39764D01*
X19549Y38989D01*
X19848Y38267D01*
X20324Y37647D01*
X20911Y37196D01*
Y34661D01*
X18094D01*
Y29118D01*
X22971D01*
Y26681D01*
X23087Y26096D01*
X23419Y25600D01*
X25152Y23866D01*
Y22063D01*
X24184D01*
X23812Y22349D01*
X22961Y22701D01*
X22047Y22821D01*
X21134Y22701D01*
X20282Y22349D01*
X19910Y22063D01*
X18094D01*
Y17373D01*
X17896Y17241D01*
X17675Y16910D01*
X17597Y16520D01*
Y14780D01*
X13744D01*
X13722Y14892D01*
X13713Y14905D01*
X13709Y14920D01*
X13602Y15070D01*
X13500Y15223D01*
X13487Y15232D01*
X13478Y15244D01*
X13322Y15342D01*
X13170Y15444D01*
X13154Y15447D01*
X13141Y15455D01*
X12960Y15485D01*
X12779Y15521D01*
X12764Y15518D01*
X12749Y15521D01*
X12714Y15520D01*
X12532Y15478D01*
X12349Y15440D01*
X12338Y15433D01*
X12326Y15430D01*
X12174Y15322D01*
X12019Y15217D01*
X12012Y15207D01*
X12002Y15199D01*
X11903Y15041D01*
X11800Y14885D01*
X11798Y14873D01*
X11791Y14862D01*
X11778Y14780D01*
X8106D01*
Y16517D01*
X8106Y16520D01*
X8106Y16523D01*
X8066Y16716D01*
X8029Y16907D01*
X8027Y16910D01*
X8026Y16913D01*
X7916Y17076D01*
X7808Y17238D01*
X7805Y17240D01*
X7803Y17243D01*
X7639Y17351D01*
X7496Y17446D01*
Y19540D01*
X11093Y23137D01*
X12038D01*
X12071Y23094D01*
X12802Y22533D01*
X13653Y22181D01*
X14567Y22060D01*
X15481Y22181D01*
X16332Y22533D01*
X17063Y23094D01*
X17624Y23825D01*
X17977Y24677D01*
X18097Y25591D01*
X17977Y26504D01*
X17624Y27356D01*
X17063Y28087D01*
X16332Y28648D01*
X15481Y29000D01*
X14567Y29121D01*
X13653Y29000D01*
X12802Y28648D01*
X12071Y28087D01*
X11510Y27356D01*
X11240Y26705D01*
X10354D01*
X9671Y26569D01*
X9092Y26182D01*
X9092Y26182D01*
X4973Y22063D01*
X0D01*
Y29118D01*
X2043D01*
Y31890D01*
Y34661D01*
X0D01*
Y51181D01*
X255906D01*
Y34661D01*
D02*
G37*
G36*
X23547Y16520D02*
X25152D01*
Y0D01*
X0D01*
Y16473D01*
X7087Y16517D01*
Y14780D01*
X6087D01*
Y8843D01*
X12779D01*
X12745Y14501D01*
X12779Y14502D01*
Y13311D01*
X19110D01*
Y14780D01*
X18617D01*
Y16520D01*
X20547D01*
Y19291D01*
X23547D01*
Y16520D01*
D02*
G37*
G36*
X253862D02*
X255906D01*
Y0D01*
X243307D01*
X243497Y190D01*
Y8843D01*
X244366D01*
Y11811D01*
X245866D01*
Y13311D01*
X249031D01*
Y13800D01*
X249222Y13837D01*
X249553Y14059D01*
X249774Y14389D01*
X249852Y14780D01*
Y16520D01*
X250862D01*
Y19291D01*
X253862D01*
Y16520D01*
D02*
G37*
%LPC*%
G36*
X237811Y34661D02*
X235358D01*
Y33390D01*
X237811D01*
Y34661D01*
D02*
G37*
G36*
X212221D02*
X209768D01*
Y33390D01*
X212221D01*
Y34661D01*
D02*
G37*
G36*
X186630D02*
X184177D01*
Y33390D01*
X186630D01*
Y34661D01*
D02*
G37*
G36*
X161039D02*
X158587D01*
Y33390D01*
X161039D01*
Y34661D01*
D02*
G37*
G36*
X135449D02*
X132996D01*
Y33390D01*
X135449D01*
Y34661D01*
D02*
G37*
G36*
X109858D02*
X107405D01*
Y33390D01*
X109858D01*
Y34661D01*
D02*
G37*
G36*
X84268D02*
X81815D01*
Y33390D01*
X84268D01*
Y34661D01*
D02*
G37*
G36*
X58677D02*
X56224D01*
Y33390D01*
X58677D01*
Y34661D01*
D02*
G37*
G36*
X33087D02*
X30634D01*
Y33390D01*
X33087D01*
Y34661D01*
D02*
G37*
G36*
X7496D02*
X5043D01*
Y33390D01*
X7496D01*
Y34661D01*
D02*
G37*
G36*
X237811Y30390D02*
X235358D01*
Y29118D01*
X237811D01*
Y30390D01*
D02*
G37*
G36*
X212221D02*
X209768D01*
Y29118D01*
X212221D01*
Y30390D01*
D02*
G37*
G36*
X186630D02*
X184177D01*
Y29118D01*
X186630D01*
Y30390D01*
D02*
G37*
G36*
X161039D02*
X158587D01*
Y29118D01*
X161039D01*
Y30390D01*
D02*
G37*
G36*
X135449D02*
X132996D01*
Y29118D01*
X135449D01*
Y30390D01*
D02*
G37*
G36*
X109858D02*
X107405D01*
Y29118D01*
X109858D01*
Y30390D01*
D02*
G37*
G36*
X84268D02*
X81815D01*
Y29118D01*
X84268D01*
Y30390D01*
D02*
G37*
G36*
X58677D02*
X56224D01*
Y29118D01*
X58677D01*
Y30390D01*
D02*
G37*
G36*
X33087D02*
X30634D01*
Y29118D01*
X33087D01*
Y30390D01*
D02*
G37*
G36*
X7496D02*
X5043D01*
Y29118D01*
X7496D01*
Y30390D01*
D02*
G37*
G36*
X237673Y14780D02*
X236008D01*
Y13311D01*
X237673D01*
Y14780D01*
D02*
G37*
G36*
X212870D02*
X211205D01*
Y13311D01*
X212870D01*
Y14780D01*
D02*
G37*
G36*
X187279D02*
X185614D01*
Y13311D01*
X187279D01*
Y14780D01*
D02*
G37*
G36*
X160114D02*
X158449D01*
Y13311D01*
X160114D01*
Y14780D01*
D02*
G37*
G36*
X136098D02*
X134433D01*
Y13311D01*
X136098D01*
Y14780D01*
D02*
G37*
G36*
X108539D02*
X106874D01*
Y13311D01*
X108539D01*
Y14780D01*
D02*
G37*
G36*
X85311D02*
X83646D01*
Y13311D01*
X85311D01*
Y14780D01*
D02*
G37*
G36*
X59720D02*
X58055D01*
Y13311D01*
X59720D01*
Y14780D01*
D02*
G37*
G36*
X33342D02*
X31677D01*
Y13311D01*
X33342D01*
Y14780D01*
D02*
G37*
G36*
X19110Y10311D02*
X17445D01*
Y8843D01*
X19110D01*
Y10311D01*
D02*
G37*
G36*
X14445D02*
X12779D01*
Y8843D01*
X14445D01*
Y10311D01*
D02*
G37*
G36*
X249031D02*
X247366D01*
Y8843D01*
X249031D01*
Y10311D01*
D02*
G37*
%LPD*%
D10*
X9843Y17323D02*
X14110Y21590D01*
X14567D01*
X252362Y32283D02*
Y39764D01*
X226815Y32283D02*
Y39764D01*
X201269Y32283D02*
Y39764D01*
X175722Y32283D02*
Y39764D01*
X150175Y32283D02*
Y39764D01*
X124628Y32283D02*
Y39764D01*
X99081Y32283D02*
Y39764D01*
X73535Y32283D02*
Y39764D01*
X47988Y32283D02*
Y39764D01*
X22047Y31890D02*
X22441Y32283D01*
Y39764D01*
X231405Y19549D02*
X231547Y19407D01*
X231405Y19549D02*
Y24500D01*
X229224Y26681D02*
X231405Y24500D01*
X229224Y26681D02*
Y30618D01*
X227953Y31890D02*
X229224Y30618D01*
X226772Y31890D02*
X227953D01*
X205815Y19549D02*
X205956Y19407D01*
X205815Y19549D02*
Y24500D01*
X203634Y26681D02*
X205815Y24500D01*
X203634Y26681D02*
Y30618D01*
X202362Y31890D02*
X203634Y30618D01*
X201181Y31890D02*
X202362D01*
X180224Y19549D02*
X180366Y19407D01*
X180224Y19549D02*
Y24500D01*
X178043Y26681D02*
X180224Y24500D01*
X178043Y26681D02*
Y30618D01*
X176772Y31890D02*
X178043Y30618D01*
X175591Y31890D02*
X176772D01*
X154634Y19549D02*
X154775Y19407D01*
X154634Y19549D02*
Y24500D01*
X152453Y26681D02*
X154634Y24500D01*
X152453Y26681D02*
Y30618D01*
X151181Y31890D02*
X152453Y30618D01*
X150000Y31890D02*
X151181D01*
X129043Y19549D02*
X129185Y19407D01*
X129043Y19549D02*
Y24500D01*
X126862Y26681D02*
X129043Y24500D01*
X126862Y26681D02*
Y30618D01*
X125591Y31890D02*
X126862Y30618D01*
X124409Y31890D02*
X125591D01*
X103453Y19549D02*
X103594Y19407D01*
X103453Y19549D02*
Y24500D01*
X101272Y26681D02*
X103453Y24500D01*
X101272Y26681D02*
Y30618D01*
X100000Y31890D02*
X101272Y30618D01*
X98819Y31890D02*
X100000D01*
X77862Y19549D02*
X78004Y19407D01*
X77862Y19549D02*
Y24500D01*
X75681Y26681D02*
X77862Y24500D01*
X75681Y26681D02*
Y30618D01*
X74409Y31890D02*
X75681Y30618D01*
X73228Y31890D02*
X74409D01*
X52272Y19549D02*
X52413Y19407D01*
X52272Y19549D02*
Y24500D01*
X50091Y26681D02*
X52272Y24500D01*
X50091Y26681D02*
Y30618D01*
X48819Y31890D02*
X50091Y30618D01*
X47638Y31890D02*
X48819D01*
X22047D02*
X23228D01*
X24500Y30618D01*
Y26681D02*
Y30618D01*
Y26681D02*
X26681Y24500D01*
Y19549D02*
Y24500D01*
Y19549D02*
X26823Y19407D01*
D12*
X150175Y39764D02*
D03*
X175722D02*
D03*
X201269D02*
D03*
X226815D02*
D03*
X124628D02*
D03*
X22441D02*
D03*
X47988D02*
D03*
X73535D02*
D03*
X99081D02*
D03*
X252362D02*
D03*
D13*
X208268Y31890D02*
D03*
Y19291D02*
D03*
X226772D02*
D03*
Y31890D02*
D03*
X182677D02*
D03*
Y19291D02*
D03*
X201181D02*
D03*
Y31890D02*
D03*
X157087D02*
D03*
Y19291D02*
D03*
X175591D02*
D03*
Y31890D02*
D03*
X131496D02*
D03*
Y19291D02*
D03*
X150000D02*
D03*
Y31890D02*
D03*
X105905D02*
D03*
Y19291D02*
D03*
X124409D02*
D03*
Y31890D02*
D03*
X80315D02*
D03*
Y19291D02*
D03*
X98819D02*
D03*
Y31890D02*
D03*
X54724D02*
D03*
Y19291D02*
D03*
X73228D02*
D03*
Y31890D02*
D03*
X29134D02*
D03*
Y19291D02*
D03*
X47638D02*
D03*
Y31890D02*
D03*
X233858D02*
D03*
Y19291D02*
D03*
X252362D02*
D03*
Y31890D02*
D03*
X3543D02*
D03*
Y19291D02*
D03*
X22047D02*
D03*
Y31890D02*
D03*
D14*
X214370Y11811D02*
D03*
X221063D02*
D03*
X188779D02*
D03*
X195472D02*
D03*
X239173D02*
D03*
X245866D02*
D03*
X161614D02*
D03*
X168307D02*
D03*
X137598D02*
D03*
X144291D02*
D03*
X110039D02*
D03*
X116732D02*
D03*
X86811D02*
D03*
X93504D02*
D03*
X61221D02*
D03*
X67913D02*
D03*
X34843D02*
D03*
X41535D02*
D03*
X9252D02*
D03*
X15945D02*
D03*
D18*
X9252D02*
X9843Y12402D01*
D19*
Y17323D01*
D20*
X201181Y4331D02*
X226772D01*
X175591D02*
X201181D01*
X150000D02*
X175591D01*
X226772D02*
X249433D01*
X124409D02*
X150000D01*
X73228D02*
X98819D01*
X124409D01*
X47244D02*
X73228D01*
X24976D02*
X47244D01*
D21*
X22047Y7260D02*
X24976Y4331D01*
X249433D02*
X252362Y7260D01*
D22*
X251181Y31890D02*
X252362D01*
X245158Y25866D02*
X251181Y31890D01*
X242402Y25866D02*
X245158D01*
X241732Y25197D02*
X242402Y25866D01*
X3543Y19291D02*
X4724D01*
X10354Y24921D01*
X13897D01*
X14567Y25591D01*
X245866Y11811D02*
X252362D01*
X221063D02*
X226575D01*
X226772Y12008D01*
X195472Y11811D02*
X200984D01*
X201181Y12008D01*
X168307Y11811D02*
X175394D01*
X175591Y12008D01*
X144291Y11811D02*
X149803D01*
X150000Y12008D01*
X116732Y11811D02*
X124213D01*
X124409Y12008D01*
X93504Y11811D02*
X98622D01*
X98819Y12008D01*
X67913Y11811D02*
X73032D01*
X73228Y12008D01*
X41535Y11811D02*
X47441D01*
X47638Y12008D01*
X15945Y11811D02*
X22047D01*
D23*
X252362D02*
Y19291D01*
Y7260D02*
Y11811D01*
X226772Y12008D02*
Y19291D01*
Y4724D02*
Y12008D01*
X201181D02*
Y19291D01*
Y4724D02*
Y12008D01*
X175591D02*
Y19291D01*
Y4724D02*
Y12008D01*
X150000D02*
Y19291D01*
Y4724D02*
Y12008D01*
X124409D02*
Y19291D01*
Y4724D02*
Y12008D01*
X98819D02*
Y19291D01*
Y4724D02*
Y12008D01*
X73228D02*
Y19291D01*
Y4724D02*
Y12008D01*
X47638D02*
Y19291D01*
Y4724D02*
Y12008D01*
X22047Y11811D02*
Y19291D01*
Y7260D02*
Y11811D01*
X47244Y4331D02*
X47638Y4724D01*
D24*
X216850Y46457D02*
D03*
X38268D02*
D03*
X63779D02*
D03*
X89291D02*
D03*
X114803D02*
D03*
X140315D02*
D03*
X165827D02*
D03*
X191339D02*
D03*
X191732Y25197D02*
D03*
X166220D02*
D03*
X140709D02*
D03*
X115197D02*
D03*
X64173D02*
D03*
X252362Y6693D02*
D03*
Y12598D02*
D03*
X3543D02*
D03*
Y6693D02*
D03*
X241732Y25197D02*
D03*
X14567Y25591D02*
D03*
M02*
